<?xml version="1.0" encoding="UTF-8" standalone="no"?>
<!-- Created with Inkscape (http://www.inkscape.org/) -->

<svg
   xmlns:dc="http://purl.org/dc/elements/1.1/"
   xmlns:cc="http://creativecommons.org/ns#"
   xmlns:rdf="http://www.w3.org/1999/02/22-rdf-syntax-ns#"
   xmlns:svg="http://www.w3.org/2000/svg"
   xmlns="http://www.w3.org/2000/svg"
   xmlns:sodipodi="http://sodipodi.sourceforge.net/DTD/sodipodi-0.dtd"
   xmlns:inkscape="http://www.inkscape.org/namespaces/inkscape"
   width="100mm"
   height="25mm"
   viewBox="0 0 100 25"
   version="1.1"
   id="svg8"
   sodipodi:docname="agregarIngredienteBoton.svg"
   inkscape:version="0.92.3 (2405546, 2018-03-11)">
  <defs
     id="defs2" />
  <sodipodi:namedview
     id="base"
     pagecolor="#ffffff"
     bordercolor="#666666"
     borderopacity="1.0"
     inkscape:pageopacity="0.0"
     inkscape:pageshadow="2"
     inkscape:zoom="3.959798"
     inkscape:cx="55.457234"
     inkscape:cy="66.412247"
     inkscape:document-units="mm"
     inkscape:current-layer="layer1"
     showgrid="false"
     inkscape:window-width="1920"
     inkscape:window-height="992"
     inkscape:window-x="0"
     inkscape:window-y="0"
     inkscape:window-maximized="1" />
  <metadata
     id="metadata5">
    <rdf:RDF>
      <cc:Work
         rdf:about="">
        <dc:format>image/svg+xml</dc:format>
        <dc:type
           rdf:resource="http://purl.org/dc/dcmitype/StillImage" />
        <dc:title></dc:title>
      </cc:Work>
    </rdf:RDF>
  </metadata>
  <g
     inkscape:label="Capa 1"
     inkscape:groupmode="layer"
     id="layer1"
     transform="translate(0,-272)">
    <rect
       style="opacity:0.18500001;fill:#03a9f4;fill-opacity:1;stroke:none;stroke-width:1.36184871;stroke-miterlimit:4;stroke-dasharray:none;stroke-opacity:0.98095236"
       id="rect1379"
       width="100.0692"
       height="24.946424"
       x="-0.15119052"
       y="272.05359"
       ry="0.11767188" />
    <path
       style="opacity:1;fill:#000000;fill-opacity:0.94117635;stroke:none;stroke-width:1.76547146;stroke-miterlimit:4;stroke-dasharray:none;stroke-opacity:0.98095236"
       id="path921"
       d="m 1.0771863,292.56592 c 0.08072,-1.05667 0.5904681,-2.13295 1.0218017,-3.17683 0.7027854,-1.76819 1.4191775,-3.5399 1.8508295,-5.32697 0.08397,-0.34758 0.1447079,-0.69514 0.2170613,-1.04272 0.3122644,-1.63771 0.3239199,-3.25482 0.4349564,-4.87756 0.1118194,-0.6732 -0.048908,-1.40958 0.2533933,-2.08196 0.6006376,-0.49294 1.1344446,-1.04064 1.801908,-1.47885 0.091812,-0.0602 0.1830383,0.0742 0.2592519,0.12563 0.1033257,0.0699 0.1929263,0.15117 0.2758611,0.23582 0.4669062,0.47652 0.7738544,1.0421 1.1029841,1.58839 0.8803976,1.55462 1.5972694,3.17718 2.2986884,4.80245 0.397066,0.98146 0.748958,1.98242 0.947731,3.0235 0.09122,0.63924 0.162071,1.28274 0.243313,1.92414 0.02902,0.42671 0.124572,0.83744 0.244815,1.24194 0.178445,0.54129 0.345275,1.0878 0.63995,1.58637 0.151458,0.21655 0.333761,0.41175 0.575931,0.56789 0,0 -1.634784,1.46056 -1.634784,1.46056 v 0 c -0.255247,-0.17567 -0.453795,-0.38539 -0.61535,-0.62215 -0.297514,-0.50527 -0.472164,-1.0565 -0.673328,-1.5982 -0.135694,-0.40801 -0.247978,-0.82392 -0.262013,-1.26191 -0.05676,-0.64937 -0.1400234,-1.2947 -0.2068722,-1.94215 -0.1656087,-1.05168 -0.4911584,-2.06588 -0.85702,-3.06085 -0.6592573,-1.63438 -1.3467117,-3.26387 -2.2800879,-4.79024 -0.3411477,-0.51596 -0.657259,-1.05373 -1.1439628,-1.4905 -0.077386,-0.0693 -0.1631971,-0.13369 -0.2578419,-0.18936 -0.036838,-0.0217 -0.1646434,-0.006 -0.1322514,-0.0401 0.463789,-0.48755 1.0028722,-0.93482 1.5043077,-1.40223 -0.045416,0.0472 -0.1069625,0.089 -0.1362421,0.14161 -0.081191,0.14628 -0.1201923,0.45491 -0.1376992,0.58695 -0.060555,0.45661 -0.068844,0.90893 -0.1299498,1.36558 -0.1620566,1.64925 -0.1847962,3.28932 -0.5007214,4.94882 -0.072432,0.35112 -0.1334825,0.7022 -0.2173054,1.05333 -0.4248848,1.77983 -1.1299706,3.54436 -1.7983849,5.30863 -0.3922511,0.99628 -0.836408,2.01118 -0.9421248,3.01799 0,0 -1.7469557,1.40301 -1.7469557,1.40301 z"
       inkscape:connector-curvature="0" />
    <path
       style="opacity:1;fill:#000000;fill-opacity:0.94117635;stroke:none;stroke-width:2.14786553;stroke-miterlimit:4;stroke-dasharray:none;stroke-opacity:0.98095236"
       id="path838"
       d="m 4.6613273,285.04016 c 0.4438753,-0.0974 0.8883173,-0.20319 1.3367102,-0.28431 0.7317472,-0.14865 1.4572094,-0.34741 2.1541965,-0.62777 0.4620226,-0.21399 0.953517,-0.32305 1.4399707,-0.45115 0.3366725,-0.13235 0.6816853,-0.2189 1.0172433,-0.35092 0.138478,-0.0515 0.283263,-0.0724 0.427793,-0.0933 0,0 -1.9007702,1.52177 -1.9007702,1.52177 v 0 c -0.1367894,0.0338 -0.2727789,0.0701 -0.4037786,0.12499 -0.334215,0.12114 -0.6812781,0.20242 -1.0169695,0.31954 -0.4724555,0.12549 -0.9445352,0.24953 -1.3966566,0.4464 -0.714047,0.25241 -1.4454004,0.44853 -2.1836755,0.60338 -0.4624733,0.10165 -0.922361,0.21337 -1.3827525,0.3246 0,0 1.9086892,-1.5333 1.9086892,-1.5333 z"
       inkscape:connector-curvature="0" />
    <path
       style="opacity:0.82700004;fill:#000000;fill-opacity:1;stroke:none;stroke-width:1.83142567;stroke-miterlimit:4;stroke-dasharray:none;stroke-opacity:1;paint-order:stroke fill markers"
       id="path1843-3-3"
       d="m 63.820633,282.56572 c 0.24364,0.36979 0.461186,0.7542 0.645783,1.16489 0.20284,0.50997 0.340564,1.05139 0.446728,1.59622 0.08744,0.51888 0.0964,1.04843 0.127756,1.57399 0.04124,0.56673 0.04667,1.13411 0.01087,1.70108 -0.03771,0.47898 -0.110587,0.95276 -0.148944,1.43177 -0.02165,0.43909 -0.03645,0.87807 -0.06623,1.31669 -0.06911,0.65934 -0.260445,0.57119 -1.113594,0.92814 -0.04817,0.0203 -0.03834,-0.15645 -0.03651,-0.31491 0.03852,-0.60859 0.143516,-1.20902 0.231041,-1.81041 0.07984,-0.64031 0.196965,-1.27325 0.266507,-1.91518 0.04782,-0.49226 0.125311,-0.97972 0.172207,-1.47199 0.03552,-0.48916 0.14561,-0.9634 0.274443,-1.4304 0.128585,-0.52784 0.365849,-1.00154 0.620234,-1.46322 0.194566,-0.35577 0.397607,-0.6506 0.696159,-0.9005 0.501548,-0.33981 0.585956,-0.4004 1.376259,-0.87002 0.03043,-0.0168 0.46602,-0.20478 0.496999,-0.21814 0,0 -0.883525,0.77937 -0.883525,0.77937 v 0 c -0.08287,0.0365 -0.166244,0.072 -0.248596,0.11024 -0.08255,0.0382 -0.31985,0.17527 -0.246016,0.11896 0.282369,-0.2157 1.13301,-0.74237 0.563554,-0.3878 -0.05117,0.0363 -0.10474,0.0687 -0.15355,0.10896 -0.237633,0.19571 -0.39841,0.484 -0.568114,0.74779 -0.259141,0.44912 -0.50183,0.91143 -0.629911,1.43184 -0.130077,0.45887 -0.247245,0.9243 -0.283157,1.40647 -0.04275,0.49584 -0.124272,0.98494 -0.180243,1.479 -0.06811,0.646 -0.189674,1.28094 -0.272915,1.92445 -0.08426,0.59013 -0.183748,1.18107 -0.209764,1.77882 -0.01712,0.58293 -0.08749,0.2291 -1.001783,0.81245 -0.01508,0.008 0.03418,-0.0131 0.04452,-0.03 0.04451,-0.0669 0.05126,-0.16559 0.06451,-0.24153 0.03834,-0.43942 0.05802,-0.87894 0.07289,-1.32009 0.03433,-0.48111 0.108146,-0.95538 0.155884,-1.43463 0.04202,-0.56123 0.03912,-1.12293 -0.0037,-1.68431 -0.03249,-0.51967 -0.04423,-1.04272 -0.122038,-1.55716 -0.09854,-0.53567 -0.230419,-1.06853 -0.432564,-1.56728 -0.182039,-0.40091 -0.392535,-0.78129 -0.654065,-1.12394 0,0 0.989128,-0.6696 0.989128,-0.6696 z"
       inkscape:connector-curvature="0" />
    <path
       style="opacity:0.82700004;fill:#000000;fill-opacity:1;stroke:none;stroke-width:1.83142567;stroke-miterlimit:4;stroke-dasharray:none;stroke-opacity:1;paint-order:stroke fill markers"
       id="path1803-3-5"
       d="m 70.555116,289.9155 c 0.05552,1.21321 -1.596097,1.75895 -2.265737,1.70966 -1.045285,0.0168 -2.07061,-1.11902 -2.209652,-2.11106 -0.0092,-0.43956 0.113486,-0.86241 0.246575,-1.27012 0.311407,-0.9178 0.739901,-1.77345 1.224814,-2.50356 0.497475,-0.78204 1.319757,-1.25449 1.9571,-1.65818 0.702834,0.13784 1.299974,1.07168 1.550283,1.67881 0.04451,0.17639 0.05042,0.36024 0.05414,0.54242 -0.278681,1.92598 -3.560949,3.11708 -3.875542,2.09656 0.757354,-0.83784 1.564493,-0.17453 2.363322,-0.49771 0.427075,-0.472 0.504228,-0.9119 0.44483,-1.51738 -0.205158,-0.59119 -0.644286,-1.02589 -1.039356,-1.41489 0,0 0,0 -0.410845,0.26598 -0.277051,0.39527 -0.531703,0.81078 -0.743538,1.25482 -0.182567,0.3955 -0.344493,0.8027 -0.495887,1.21443 -0.131797,0.38911 -0.259571,0.78775 -0.262414,1.20973 0.222179,0.90711 0.974026,1.45263 1.657039,1.8356 0.394215,0.16001 0.656364,0.0615 0.758998,-0.27711 l 1.04585,-0.55833 z"
       inkscape:connector-curvature="0"
       sodipodi:nodetypes="cccccccccccccccccccc" />
    <path
       style="opacity:0.82700004;fill:#000000;fill-opacity:1;stroke:none;stroke-width:1.72669899;stroke-miterlimit:4;stroke-dasharray:none;stroke-opacity:1;paint-order:stroke fill markers"
       id="path1801-6"
       d="m 62.716892,288.2712 c -0.154518,-1.06932 -0.588919,-2.67962 -1.345716,-3.64284 -1.199786,-1.29806 -2.899948,-1.69197 -3.50685,-0.91389 -0.224286,0.28328 -0.192274,0.77846 -0.156885,1.23929 0.233368,1.58562 1.313775,4.17509 2.370977,5.05996 0.172347,0.11345 0.347305,0.22859 0.518711,0.31782 1.53055,0.20116 2.15896,0.37295 2.229044,-1.10717 -0.03151,-0.11589 -0.06772,-0.83536 -0.109294,-0.95317 -0.244922,-1.20778 -1.132687,-3.60916 -1.186979,-3.04851 -0.02024,0.20899 0.646221,2.19938 0.713858,2.90865 0.01387,0.11268 -0.02375,0.39934 -0.129445,0.45242 -0.338168,0.16988 0.01342,1.18098 -0.06457,1.6503 -0.142882,0.83633 -0.147933,1.76766 -0.437705,2.43085 -0.71007,1.34554 -1.789758,1.73501 -3.179059,1.73596 l 0.611763,1.39709 v 0 c 0.32298,0.005 0.634972,-0.0254 0.917964,-0.0568 1.19335,-0.26596 2.416401,-0.9293 2.568054,-2.4743 0.843482,-8.92218 -0.129158,-2.1847 -3.494029,-5.09817 -0.213331,-0.18649 -0.871952,-2.93733 -0.24281,-3.3796 1.945213,-0.99719 3.848276,2.9624 2.594253,0.13728 0.116495,0.25138 0.152755,0.48224 0.203076,0.72016 0.02868,0.0281 -0.718111,-0.49098 -0.646402,-0.43775 0.305762,0.22691 0.49798,0.45028 0.712024,0.74586 0.16644,0.22946 0.788838,1.79646 1.059988,2.31674 z"
       inkscape:connector-curvature="0"
       sodipodi:nodetypes="ccccccccscscccccccccccsscc" />
    <path
       style="opacity:0.82700004;fill:#000000;fill-opacity:1;stroke:none;stroke-width:1.83142567;stroke-miterlimit:4;stroke-dasharray:none;stroke-opacity:1;paint-order:stroke fill markers"
       id="path1803-3-5-9"
       d="m 83.653485,289.99706 c 0.05558,1.21321 -1.5961,1.75893 -2.265736,1.70967 -1.045291,0.0168 -2.07061,-1.11905 -2.20965,-2.11107 -0.0097,-0.43958 0.11345,-0.86241 0.24657,-1.27013 0.311403,-0.91779 0.739893,-1.77345 1.224818,-2.50355 0.497467,-0.78206 1.319747,-1.25448 1.9571,-1.65819 0.702825,0.13783 1.299969,1.07166 1.550285,1.6788 0.04458,0.17658 0.05038,0.36028 0.05413,0.54242 -0.278684,1.92597 -3.560956,3.11708 -3.875548,2.09657 0.757351,-0.83783 1.564493,-0.17453 2.363322,-0.49769 0.427077,-0.47201 0.504233,-0.91191 0.444837,-1.5174 -0.205165,-0.59121 -0.6443,-1.02589 -1.039359,-1.41489 0,0 0,0 -0.41085,0.26599 -0.277053,0.39525 -0.531707,0.81079 -0.743542,1.25481 -0.182559,0.39548 -0.344483,0.80269 -0.495883,1.21443 -0.131804,0.38912 -0.259571,0.78777 -0.262411,1.20971 0.222177,0.90711 0.974019,1.45266 1.657042,1.83561 0.394213,0.16001 0.656358,0.0615 0.758995,-0.27709 l 1.045859,-0.55834 z"
       inkscape:connector-curvature="0"
       sodipodi:nodetypes="cccccccccccccccccccc" />
    <path
       style="opacity:0.82700004;fill:#000000;fill-opacity:1;stroke:none;stroke-width:1.83142567;stroke-miterlimit:4;stroke-dasharray:none;stroke-opacity:1;paint-order:stroke fill markers"
       id="path1833-1-5"
       d="m 85.64909,287.90044 c -0.01752,0.37608 -0.06428,0.74988 -0.1402,1.11658 -0.04108,0.22045 -0.10451,0.42554 -0.211641,0.61585 -0.118163,0.1682 -0.225766,0.34466 -0.333163,0.52162 -0.374689,0.65028 -0.28214,0.40008 -1.297685,0.88623 3.26e-4,-0.0439 -0.0036,-0.0881 0.0024,-0.13132 0.0097,-0.0856 0.06053,-0.27156 0.08107,-0.34661 0.06355,-0.23275 0.13428,-0.46312 0.203304,-0.69385 0.144345,-0.45668 0.289813,-0.91255 0.421978,-1.37393 0.08361,-0.24737 0.146906,-0.50185 0.216003,-0.75445 0.06017,-0.22759 0.17223,-0.42727 0.297303,-0.6159 0.409002,-0.59637 0.760964,-0.69382 1.449644,-1.14228 0.325297,-0.0992 0.665335,-0.11665 1.000458,-0.13523 0.27349,-0.008 0.504547,0.1114 0.720912,0.2867 0.249748,0.20505 0.371729,0.52855 0.495316,0.8358 0.155617,0.42842 0.315342,0.85556 0.437165,1.29791 0.121497,0.37153 0.176736,0.75834 0.185097,1.15239 0.0048,0.48789 -0.08482,0.96572 -0.207123,1.43106 -0.07225,0.25219 -0.03745,0.13057 -0.104147,0.36435 l -1.033571,0.54595 v 0 c 0.07152,-0.23627 0.03395,-0.11422 0.112604,-0.36648 0.132251,-0.44987 0.222576,-0.91627 0.219604,-1.39254 -0.0036,-0.38294 -0.05787,-0.75892 -0.169258,-1.12192 -0.114296,-0.43904 -0.272257,-0.86087 -0.430519,-1.28187 -0.119009,-0.28628 -0.235649,-0.58498 -0.47507,-0.76983 -0.204574,-0.15479 -0.421241,-0.24133 -0.672234,-0.22108 -0.328586,0.0194 -0.670762,0.0324 -0.975109,0.18626 1.841924,-1.21522 0.981005,-0.72174 0.726992,-0.45227 -0.07998,0.0851 -0.149143,0.18272 -0.223279,0.27366 -0.126849,0.17434 -0.243912,0.35691 -0.311427,0.57146 -0.0708,0.25687 -0.137808,0.51517 -0.22945,0.76415 -0.137675,0.46178 -0.281585,0.92062 -0.429408,1.37847 -0.105114,0.3577 -0.212463,0.71516 -0.292012,1.08139 -0.343202,0.20463 -0.686103,0.40992 -1.029608,0.61389 -0.01631,0.008 0.03443,-0.0168 0.04772,-0.0308 0.08397,-0.0908 0.142677,-0.21382 0.20525,-0.32253 0.111396,-0.17359 0.205987,-0.36083 0.333634,-0.52089 0.1178,-0.1749 0.193337,-0.3604 0.232507,-0.57686 0.09279,-0.35758 0.140393,-0.72857 0.165959,-1.09941 0.08723,-2.02711 0.16225,-1.20313 -0.374653,-2.29096 l 1.001869,-0.64954 c 0.344628,1.33848 0.330287,0.18675 0.383327,2.36693 z"
       inkscape:connector-curvature="0"
       sodipodi:nodetypes="ccccccccccccccccccccccccccccccccccccccccccc" />
    <path
       style="opacity:0.82700004;fill:#000000;fill-opacity:1;stroke:none;stroke-width:1.83142567;stroke-miterlimit:4;stroke-dasharray:none;stroke-opacity:1;paint-order:stroke fill markers"
       id="path1803-3-2"
       d="m 96.678526,289.96768 c 0.05558,1.2132 -1.5961,1.75895 -2.265736,1.70965 -1.045279,0.0168 -2.07061,-1.11902 -2.20965,-2.11105 -0.0097,-0.43959 0.11345,-0.86245 0.24657,-1.27012 0.311415,-0.9178 0.739905,-1.77347 1.224818,-2.50356 0.497479,-0.78208 1.31976,-1.2545 1.9571,-1.65819 0.702837,0.13784 1.299969,1.07164 1.550285,1.67879 0.04458,0.17658 0.05038,0.36026 0.05413,0.54245 -0.278672,1.92597 -3.560944,3.11705 -3.875536,2.09654 0.757351,-0.83782 1.564493,-0.17453 2.363322,-0.4977 0.427077,-0.47199 0.504221,-0.9119 0.444825,-1.51738 -0.205153,-0.5912 -0.644287,-1.0259 -1.039359,-1.41488 0,0 0,0 -0.410838,0.26598 -0.277053,0.39526 -0.531707,0.81077 -0.743541,1.25478 -0.182572,0.39553 -0.344496,0.80269 -0.495884,1.21445 -0.131815,0.38911 -0.259571,0.78776 -0.26241,1.2097 0.222177,0.90711 0.974019,1.45265 1.657029,1.83564 0.394226,0.16001 0.65637,0.0614 0.759007,-0.27711 l 1.045847,-0.55834 z"
       inkscape:connector-curvature="0"
       sodipodi:nodetypes="cccccccccccccccccccc" />
    <path
       style="opacity:1;fill:#000000;fill-opacity:1;stroke:none;stroke-width:2.75231886;stroke-miterlimit:4;stroke-dasharray:none;stroke-opacity:0.98095236"
       id="path1041"
       d="m 90.889264,291.69504 c -0.137143,-0.21243 -0.233195,-0.45023 -0.316139,-0.69261 -0.114054,-0.36995 -0.166853,-0.75762 -0.226913,-1.1412 -0.04929,-0.4188 -0.111396,-0.83565 -0.16022,-1.25449 -0.05449,-0.37924 -0.07962,-0.76243 -0.105959,-1.14491 -0.03782,-0.41784 -0.06247,-0.83679 -0.09074,-1.25547 -0.01655,-0.23316 -0.03166,-0.46662 -0.02078,-0.70055 0.006,-0.13169 0.01365,-0.18763 0.02743,-0.31773 0.04893,-0.35825 0.116229,-0.71316 0.179466,-1.0686 0.05413,-0.34289 0.124675,-0.68217 0.188565,-1.02293 0.05896,-0.30494 0.119612,-0.60944 0.186462,-0.91241 0.05099,-0.22164 0.09871,-0.4446 0.163229,-0.66211 0.04507,-0.14883 0.114054,-0.28417 0.203691,-0.40588 0.0122,-0.0149 0.02416,-0.0301 0.03733,-0.0441 0.01728,-0.0186 0.05908,-0.0588 0.08034,-0.0723 0.499134,-0.3168 0.706378,-0.52591 1.124187,-0.6814 0.07527,-0.0338 0.155762,-0.0445 0.234791,-0.0613 0.03443,-0.008 0.06838,-0.0168 0.102697,-0.0258 0.114417,-0.0115 0.21198,0.0432 0.307332,0.10486 0.09774,0.0596 0.15912,0.1546 0.213937,0.25796 0.0557,0.10319 0.08264,0.16559 0.07793,0.28817 -0.01522,0.10947 -0.05002,0.18031 -0.122162,0.25601 -0.342224,0.21418 -0.681826,0.43342 -1.02666,0.64254 -0.01691,0.0115 -0.0377,0.0115 -0.05654,0.0149 -0.02102,0.004 -0.04192,0.0115 -0.06295,0.0186 -0.07805,0.0218 -0.156463,0.0423 -0.234754,0.0633 -0.187224,0.0499 -0.375426,0.0961 -0.558505,0.16261 -0.135235,0.0497 -0.27651,0.0743 -0.415973,0.10524 -0.223398,0.0531 -0.449441,0.0918 -0.675436,0.12909 -0.300045,0.0432 -0.595681,0.1155 -0.890217,0.19032 -0.154772,0.0383 -0.306413,0.0954 -0.463867,0.1196 -0.118041,0.0312 -0.237654,0.0547 -0.357266,0.0773 -0.215967,0.0447 -0.431801,0.0891 -0.64906,0.12589 -0.0563,-5.4e-4 -0.19753,0.0453 -0.250534,0.0268 -0.01208,-0.004 -0.02489,-0.0115 -0.03081,-0.0238 -0.01909,-0.0391 -0.02791,-0.0835 -0.0418,-0.12549 0.342071,-0.21509 0.681939,-0.43443 1.026205,-0.64526 0.01522,-0.0115 0.03383,-0.009 0.05062,-0.0149 0.02054,-0.005 0.04096,-0.0131 0.0615,-0.02 0.07455,-0.0246 0.149213,-0.0488 0.223385,-0.0749 0.162999,-0.0656 0.333489,-0.10281 0.50236,-0.1451 0.211943,-0.0529 0.424925,-0.0995 0.639998,-0.1343 0.217392,-0.0447 0.436404,-0.0802 0.655512,-0.11345 0.196019,-0.0404 0.39367,-0.0663 0.591525,-0.0928 0.174888,-0.0233 0.350924,-0.0274 0.526174,-0.046 0.252623,-0.0236 0.500402,-0.0793 0.748435,-0.13392 0.199317,-0.054 0.401801,-0.0887 0.606229,-0.10742 0.276667,-0.0222 0.550797,-0.0659 0.824346,-0.11525 0.214191,-0.0314 0.422836,-0.0963 0.637413,-0.12409 0.07177,-0.008 0.143741,-0.0168 0.215919,-0.0186 0.01329,-4e-4 0.02658,-0.004 0.03963,-4.9e-4 0.01583,0.004 0.03105,0.0115 0.04664,0.0149 0.08844,0.0278 0.157393,0.0932 0.231649,0.14826 0.05872,0.0453 0.126378,0.0737 0.184879,0.11896 0,0 -0.974139,0.68162 -0.974139,0.68162 v 0 c -0.06089,-0.0417 -0.124119,-0.0795 -0.183007,-0.12473 -0.05932,-0.0488 -0.121002,-0.0942 -0.197796,-0.099 -0.09061,0.005 -0.181617,0.005 -0.271737,0.0201 -0.198822,0.0308 -0.397222,0.0646 -0.596092,0.0952 -0.284641,0.0501 -0.569524,0.0987 -0.856195,0.13317 -0.196527,0.028 -0.392462,0.0595 -0.586499,0.10448 -0.25533,0.0527 -0.510805,0.1055 -0.769289,0.13653 -0.175504,0.0186 -0.35195,0.0254 -0.526995,0.0497 -0.194992,0.0244 -0.388788,0.056 -0.582705,0.0894 -0.217912,0.0352 -0.435885,0.0704 -0.652661,0.11345 -0.215894,0.0402 -0.430061,0.0896 -0.642512,0.1479 -0.169487,0.0453 -0.337898,0.0937 -0.502686,0.15702 -0.09835,0.0337 -0.198194,0.0655 -0.293908,0.10768 -0.01812,0.008 -0.03564,0.0168 -0.0534,0.0259 0.318374,-0.2042 0.636748,-0.40838 0.95511,-0.61256 -0.02223,-0.034 -0.04482,-0.0678 -0.06657,-0.1023 -0.0024,-0.004 -0.0097,-0.0115 -0.006,-0.0115 0.0085,-0.004 0.01873,-6.1e-4 0.02803,-8.8e-4 0.06246,-0.004 0.124759,-0.0115 0.186897,-0.0194 0.217561,-0.032 0.432296,-0.0813 0.646668,-0.13243 0.124529,-0.0309 0.248358,-0.0669 0.374833,-0.0876 0.14426,-0.0329 0.287952,-0.0686 0.432526,-0.0996 0.293352,-0.0624 0.586547,-0.12537 0.881784,-0.1764 0.235468,-0.0468 0.470246,-0.0972 0.702959,-0.15851 0.13614,-0.0329 0.2728,-0.0645 0.406102,-0.10973 0.186353,-0.055 0.374036,-0.10434 0.560655,-0.15814 0.08083,-0.0238 0.161839,-0.0472 0.241339,-0.076 0.369022,-0.13355 0.888164,-0.62949 -0.821954,0.54496 0.08143,-0.0391 0.120579,-0.0724 0.159048,-0.16262 0.0048,-0.0149 0.01679,-0.046 0.01607,-0.0641 -0.0024,-0.0537 -0.03637,-0.10409 -0.05449,-0.15162 -0.04265,-0.0863 -0.09895,-0.15329 -0.179877,-0.19846 -0.0911,-0.0488 -0.161815,-0.0618 -0.261311,-0.0324 -0.110309,0.0244 -0.220534,0.049 -0.3234,0.10166 -0.355068,0.17323 -0.812772,0.50935 0.840959,-0.54433 0.01462,-0.0115 -0.02996,0.0168 -0.04458,0.0259 -0.04712,0.0292 -0.04374,0.0285 -0.08856,0.0641 -0.104993,0.10434 -0.179503,0.22242 -0.23345,0.36658 -0.08325,0.21322 -0.131622,0.43992 -0.1915,0.66182 -0.0731,0.30255 -0.135887,0.60784 -0.199342,0.91297 -0.06343,0.34311 -0.137192,0.68366 -0.19898,1.02713 -0.06138,0.34995 -0.121388,0.70046 -0.166539,1.05335 -0.01631,0.12345 -0.0261,0.1864 -0.036,0.31128 -0.01824,0.23219 -0.006,0.46491 0.0012,0.69733 0.01861,0.419 0.04217,0.83797 0.08735,1.2547 0.03069,0.38045 0.06609,0.76052 0.107289,1.13977 0.03902,0.41861 0.09762,0.83458 0.152524,1.25094 0.0621,0.37339 0.118283,0.75094 0.235624,1.10938 0.08288,0.22248 0.174187,0.45615 0.345946,0.61483 0,0 -0.983262,0.65918 -0.983262,0.65918 z"
       inkscape:connector-curvature="0" />
    <path
       style="opacity:0.82700004;fill:#000000;fill-opacity:1;stroke:none;stroke-width:1.83142567;stroke-miterlimit:4;stroke-dasharray:none;stroke-opacity:1;paint-order:stroke fill markers"
       id="path1801-0-3"
       d="m 76.003237,288.90551 c -0.296769,1.01653 -0.931133,2.37177 -1.77242,2.74985 -1.300936,0.35295 -2.937395,-0.70271 -3.389965,-2.06841 -0.167852,-0.50012 -0.06718,-1.00528 0.03172,-1.47049 0.443994,-1.5036 1.818971,-3.35054 2.928221,-3.3829 0.176409,0.0279 0.355506,0.0563 0.527579,0.10947 1.451215,1.11556 2.059828,1.47757 1.912956,3.1317 -0.04582,0.0973 -0.182584,0.84025 -0.238097,0.93087 -0.400614,1.08689 -1.569621,2.89904 -1.539769,2.24829 0.01136,-0.24253 0.915594,-1.80495 1.080047,-2.5095 0.02899,-0.10935 0.03513,-0.45052 -0.0555,-0.59964 -0.28995,-0.47711 0.181745,-1.25943 0.176382,-1.83251 -0.01296,-1.02458 0.115722,-2.03143 -0.05857,-2.99748 -0.467162,-2.0663 -1.414777,-3.42519 -2.70577,-4.63537 l 0.768656,-0.97133 v 0 c 0.301001,0.27473 0.586489,0.57981 0.844955,0.86016 1.070938,1.32486 2.112552,3.10334 2.032185,4.89832 -0.494102,10.3377 -0.432962,2.23914 -3.977387,2.44659 -0.224965,0.0149 -1.231072,2.40277 -0.709735,3.42636 1.664928,2.76634 4.00068,0.16057 2.430595,2.11019 0.144253,-0.16913 0.211037,-0.38611 0.29188,-0.59842 0.03069,-0.004 -0.737696,-0.0965 -0.663428,-0.0914 0.316662,0.0218 0.527286,-0.0513 0.768551,-0.1831 0.187544,-0.10204 0.990418,-1.24712 1.316931,-1.57115 z"
       inkscape:connector-curvature="0"
       sodipodi:nodetypes="ccccccccscscccccccccccsscc" />
    <path
       style="opacity:0.82700004;fill:#000000;fill-opacity:1;stroke:none;stroke-width:1.61386836;stroke-miterlimit:4;stroke-dasharray:none;stroke-opacity:1;paint-order:stroke fill markers"
       id="path1843-3-9-5"
       d="m 78.263994,290.62312 c -0.06089,0.58105 -0.229498,0.50335 -0.981299,0.81788 -0.04247,0.0186 -0.03378,-0.13802 -0.03219,-0.27748 0.222994,-1.69271 1.196083,-2.26219 0.900253,-0.51275 -0.0151,0.51369 -0.07708,0.20185 -0.882785,0.71593 -0.01327,0.008 0.03012,-0.0115 0.03923,-0.0264 0.03927,-0.0588 0.04519,-0.14585 0.05679,-0.21281 0.259268,-3.37317 0.463588,-4.93526 -0.497994,-7.84121 l 1.698032,-0.24711 c 0.07841,0.85749 -0.183297,5.60442 -0.300095,7.58392 z"
       inkscape:connector-curvature="0"
       sodipodi:nodetypes="cccccccccc" />
    <path
       style="opacity:0.82700004;fill:#000000;fill-opacity:1;stroke:none;stroke-width:1.70256865;stroke-miterlimit:4;stroke-dasharray:none;stroke-opacity:1;paint-order:stroke fill markers"
       id="path1067-3"
       d="m 53.169238,290.88599 c -0.608214,-1.32109 -0.754704,-2.95903 0.06081,-4.052 2.19967,-1.55027 3.41044,0.49382 3.021461,3.47467 -0.03991,0.13056 -0.05861,0.2661 -0.105815,0.39449 -0.03057,0.0827 -0.01463,0.0453 -0.04613,0.11268 l 0.960078,0.57352 v 0 c 0.03135,-0.0756 0.01573,-0.0359 0.04691,-0.11934 0.05111,-0.12945 0.07301,-0.26461 0.107422,-0.39948 0.0539,-0.16186 0.0953,-0.32841 0.126684,-0.49726 0.477856,-4.09649 -1.790614,-5.27744 -3.804981,-5.05395 -0.422209,0.11191 0.04764,-1.24034 -0.350266,-1.08021 -2.054369,0.82669 -1.630666,4.6193 -1.010355,6.15363 l 0.994222,0.49288 z"
       inkscape:connector-curvature="0"
       sodipodi:nodetypes="cccccccccccsccc" />
    <path
       style="opacity:0.82700004;fill:#000000;fill-opacity:1;stroke:none;stroke-width:2.74714851;stroke-miterlimit:4;stroke-dasharray:none;stroke-opacity:1;paint-order:stroke fill markers"
       id="path1843-3-9-6"
       d="m 50.117417,290.73701 c -0.106032,0.96675 -0.399666,0.83749 -1.708872,1.36084 -0.07395,0.03 -0.05885,-0.22946 -0.05605,-0.46169 0.388323,-2.81647 2.082891,-3.76402 1.567728,-0.85318 -0.02617,0.85472 -0.134285,0.33589 -1.537304,1.19124 -0.02319,0.0115 0.05247,-0.0199 0.06832,-0.044 0.06832,-0.0978 0.07868,-0.24285 0.09898,-0.35412 0.451481,-5.61255 0.80729,-8.21169 -0.867224,-13.04685 l 2.956987,-0.41115 c 0.136518,1.42679 -0.319196,9.32512 -0.522572,12.61878 z"
       inkscape:connector-curvature="0"
       sodipodi:nodetypes="cccccccccc" />
    <path
       style="opacity:0.82700004;fill:#000000;fill-opacity:0.94117635;stroke:none;stroke-width:1.70082319;stroke-miterlimit:4;stroke-dasharray:none;stroke-opacity:1;paint-order:stroke fill markers"
       id="path1843-3-3-9"
       d="m 18.600207,283.92584 c 0.289045,0.26883 0.547132,0.5483 0.766129,0.84685 0.24064,0.37075 0.404031,0.76436 0.52998,1.16044 0.103725,0.37721 0.114369,0.76219 0.151564,1.14428 0.04892,0.41198 0.05537,0.82446 0.0129,1.23664 -0.04474,0.34821 -0.131195,0.69264 -0.1767,1.04087 -0.02569,0.31921 -0.04324,0.63834 -0.07858,0.95722 -0.08199,0.47932 -0.30898,0.41523 -1.32112,0.67474 -0.05715,0.0147 -0.04548,-0.11371 -0.04331,-0.22895 0.04569,-0.44242 0.17026,-0.87894 0.274096,-1.31613 0.09471,-0.46549 0.233672,-0.92563 0.316173,-1.39231 0.05674,-0.35785 0.148664,-0.71223 0.204299,-1.0701 0.04214,-0.35562 0.172745,-0.70038 0.325588,-1.03987 0.152548,-0.38374 0.434026,-0.72811 0.735819,-1.06375 0.230824,-0.25864 0.471704,-0.47298 0.825894,-0.65464 0.595015,-0.24705 0.695152,-0.29108 1.632734,-0.63249 0.0361,-0.0128 0.552865,-0.14888 0.589618,-0.15858 0,0 -1.048178,0.56658 -1.048178,0.56658 v 0 c -0.09831,0.0265 -0.197224,0.0524 -0.294924,0.0802 -0.09794,0.0278 -0.379455,0.12742 -0.291863,0.0865 0.334991,-0.15682 1.344157,-0.53968 0.668578,-0.28192 -0.06071,0.0264 -0.124259,0.0499 -0.182165,0.0792 -0.281918,0.14228 -0.472658,0.35186 -0.673986,0.54363 -0.307433,0.32652 -0.595352,0.66259 -0.747302,1.04093 -0.154316,0.33359 -0.29332,0.67195 -0.335925,1.02248 -0.05071,0.36047 -0.14743,0.71603 -0.213833,1.07521 -0.08081,0.46963 -0.22502,0.93122 -0.323773,1.39905 -0.09997,0.42901 -0.217991,0.85861 -0.248857,1.29316 -0.02031,0.42379 -0.103797,0.16655 -1.188471,0.59065 -0.01789,0.005 0.04055,-0.0103 0.05281,-0.0219 0.0528,-0.0487 0.06082,-0.12037 0.07653,-0.17559 0.04548,-0.31944 0.06883,-0.63898 0.08647,-0.95968 0.04072,-0.34977 0.128301,-0.69454 0.184934,-1.04294 0.04985,-0.40802 0.04642,-0.81637 -0.0045,-1.22449 -0.03854,-0.37777 -0.05247,-0.75802 -0.144781,-1.13202 -0.116906,-0.38942 -0.27336,-0.7768 -0.513175,-1.13939 -0.215964,-0.29145 -0.465688,-0.56798 -0.775955,-0.81708 0,0 1.17346,-0.48679 1.17346,-0.48679 z"
       inkscape:connector-curvature="0" />
    <path
       style="opacity:0.82700004;fill:#000000;fill-opacity:0.94117635;stroke:none;stroke-width:1.83142567;stroke-miterlimit:4;stroke-dasharray:none;stroke-opacity:1;paint-order:stroke fill markers"
       id="path1803-3-5-1"
       d="m 25.640384,289.57894 c 0.05558,1.2132 -1.596088,1.75895 -2.265734,1.70966 -1.045285,0.0168 -2.070609,-1.11902 -2.209652,-2.11106 -0.0092,-0.43956 0.113487,-0.86241 0.246576,-1.27012 0.311406,-0.9178 0.739901,-1.77345 1.224813,-2.50356 0.497475,-0.78205 1.319758,-1.25449 1.957099,-1.65819 0.702837,0.13785 1.29998,1.07168 1.550284,1.67882 0.04446,0.17639 0.05038,0.36024 0.05413,0.54242 -0.278685,1.92598 -3.560949,3.11708 -3.875543,2.09656 0.757354,-0.83784 1.564494,-0.17453 2.363317,-0.49771 0.427076,-0.472 0.504232,-0.91191 0.444837,-1.51739 -0.205153,-0.59118 -0.644288,-1.02589 -1.039359,-1.41488 0,0 0,0 -0.410843,0.26598 -0.277051,0.39526 -0.531703,0.81078 -0.743538,1.25481 -0.182567,0.39551 -0.344493,0.8027 -0.495887,1.21444 -0.131797,0.3891 -0.259571,0.78775 -0.262414,1.20972 0.222179,0.90711 0.974026,1.45264 1.657039,1.83561 0.394212,0.16 0.656369,0.0615 0.758994,-0.27711 l 1.045859,-0.55833 z"
       inkscape:connector-curvature="0"
       sodipodi:nodetypes="cccccccccccccccccccc" />
    <path
       style="opacity:0.82700004;fill:#000000;fill-opacity:0.94117635;stroke:none;stroke-width:1.78907299;stroke-miterlimit:4;stroke-dasharray:none;stroke-opacity:1;paint-order:stroke fill markers"
       id="path1801-6-2"
       d="m 18.055415,288.86509 c -0.168046,-1.05558 -0.640474,-2.64515 -1.46352,-3.59598 -1.304814,-1.28138 -3.153808,-1.67023 -3.813837,-0.90214 -0.24392,0.27963 -0.209106,0.76845 -0.170618,1.22334 0.253795,1.56523 1.428781,4.12141 2.578529,4.99488 0.187435,0.11204 0.377708,0.22566 0.56412,0.31373 1.664533,0.19858 2.347954,0.36815 2.424173,-1.09293 -0.03426,-0.11434 -0.07365,-0.82462 -0.118863,-0.9409 -0.266362,-1.19224 -1.231842,-3.56274 -1.290887,-3.00931 -0.02201,0.20631 0.702792,2.1711 0.776348,2.87125 0.01509,0.11127 -0.02583,0.3942 -0.140776,0.4466 -0.36777,0.1677 0.01459,1.1658 -0.07022,1.62906 -0.155391,0.82558 -0.160886,1.74494 -0.476022,2.39959 -0.772231,1.32824 -1.946433,1.71269 -3.457352,1.71363 l 0.665315,1.37912 v 0 c 0.351253,0.005 0.690558,-0.0251 0.998323,-0.056 1.297815,-0.26254 2.627932,-0.91736 2.79286,-2.44248 0.91732,-8.80743 -0.140465,-2.1566 -3.799894,-5.03261 -0.232006,-0.18409 -0.948283,-2.89955 -0.264067,-3.33613 2.115497,-0.98435 4.185153,2.92431 2.821353,0.13553 0.126693,0.24815 0.166127,0.47603 0.220854,0.71089 0.03118,0.0277 -0.780975,-0.48468 -0.702988,-0.43212 0.332527,0.224 0.541573,0.44449 0.774356,0.73627 0.181008,0.2265 0.857891,1.77334 1.152776,2.28694 z"
       inkscape:connector-curvature="0"
       sodipodi:nodetypes="ccccccccscscccccccccccsscc" />
    <path
       style="opacity:0.82700004;fill:#000000;fill-opacity:0.94117635;stroke:none;stroke-width:1.78907299;stroke-miterlimit:4;stroke-dasharray:none;stroke-opacity:1;paint-order:stroke fill markers"
       id="path1801-6-2-7"
       d="m 31.564424,289.01202 c -0.168046,-1.05557 -0.640473,-2.64515 -1.46352,-3.59598 -1.304813,-1.28137 -3.153807,-1.67023 -3.813837,-0.90214 -0.243918,0.27964 -0.209105,0.76845 -0.170618,1.22336 0.253797,1.56521 1.428783,4.12139 2.578531,4.99486 0.187433,0.11204 0.377708,0.22566 0.564119,0.31375 1.664533,0.19856 2.347953,0.36813 2.424173,-1.09295 -0.03426,-0.11434 -0.07365,-0.8246 -0.118864,-0.9409 -0.266362,-1.19224 -1.231841,-3.56274 -1.290886,-3.00931 -0.02201,0.20631 0.70279,2.1711 0.776347,2.87125 0.01509,0.11127 -0.02583,0.3942 -0.140775,0.4466 -0.367772,0.1677 0.01459,1.1658 -0.07022,1.62906 -0.155391,0.8256 -0.160885,1.74494 -0.476022,2.39959 -0.77223,1.32825 -1.946434,1.71269 -3.457353,1.71364 l 0.665317,1.37912 v 0 c 0.351253,0.005 0.690557,-0.0251 0.998322,-0.056 1.297814,-0.26254 2.627931,-0.91735 2.79286,-2.44248 0.91732,-8.80742 -0.140465,-2.1566 -3.799895,-5.03259 -0.232005,-0.18409 -0.948282,-2.89955 -0.264065,-3.33614 2.115495,-0.98436 4.185152,2.9243 2.821352,0.13552 0.126693,0.24814 0.166128,0.47603 0.220854,0.71089 0.03118,0.0277 -0.780975,-0.48467 -0.702989,-0.43212 0.332529,0.22399 0.541575,0.44449 0.774356,0.73628 0.18101,0.22651 0.857891,1.77334 1.152778,2.28693 z"
       inkscape:connector-curvature="0"
       sodipodi:nodetypes="ccccccccscscccccccccccsscc" />
    <path
       style="opacity:0.82700004;fill:#000000;fill-opacity:0.94117635;stroke:none;stroke-width:1.94237411;stroke-miterlimit:4;stroke-dasharray:none;stroke-opacity:1;paint-order:stroke fill markers"
       id="path1835-3"
       d="m 32.401891,284.35769 c 1.273509,-0.65752 2.477484,-0.59299 3.64869,0.0991 0.880862,0.72374 1.233272,1.8466 1.30453,2.8426 0.01904,0.43163 -0.111034,0.84618 -0.252966,1.2534 -0.294804,0.78433 -0.499624,1.58798 -0.902647,2.2684 -0.647483,1.01457 -2.19956,1.7768 -3.083414,1.50222 -1.523036,-0.83398 -1.717891,-2.16908 -0.638467,-3.31904 1.038396,-1.00954 1.781214,-1.18861 3.076929,-1.62959 0.25779,-0.11986 0.462165,-0.0799 0.727912,-0.0254 0.206613,0.0565 0.406026,0.12994 0.615381,0.17937 l -0.595125,0.8191 v 0 c -0.204441,-0.0558 -0.668361,-0.18281 -0.877899,-0.22305 -0.526092,-0.0528 -0.754285,-0.11922 -0.935026,0.0102 -0.384372,0.15255 -0.779068,0.28375 -1.15555,0.45209 2.269495,-1.19818 0.954156,-0.54887 0.70827,-0.35448 -0.114066,0.0899 -0.206563,0.20232 -0.314856,0.29765 -0.941623,0.87294 -0.939845,1.66469 -0.228719,2.61293 0.228871,0.1921 0.466065,0.38025 0.748216,0.50739 0.267005,0.10153 0.54889,0.16627 0.830245,0.067 -0.658055,0.23587 -1.331053,0.89048 -0.598551,0.19513 0.183655,-0.18262 0.354675,-0.37465 0.482338,-0.59382 0.216657,-0.32347 0.368552,-0.6734 0.489976,-1.03454 0.148657,-0.40425 0.307074,-0.80549 0.436244,-1.21524 0.139316,-0.39294 0.28036,-0.79142 0.266029,-1.20925 -0.02205,-0.30779 -0.06255,-0.61284 -0.161885,-0.90945 -0.256809,-1.37815 -1.851178,-2.87806 -3.447324,-2.30502 -0.413075,0.14064 -0.819322,0.29926 -1.211702,0.48233 l 1.069378,-0.76958 z"
       inkscape:connector-curvature="0"
       sodipodi:nodetypes="cccccccccccccccccccccccccccccc" />
    <path
       style="opacity:0.82700004;fill:#000000;fill-opacity:0.94117635;stroke:none;stroke-width:1.86465657;stroke-miterlimit:4;stroke-dasharray:none;stroke-opacity:1;paint-order:stroke fill markers"
       id="path1843-6"
       d="m 37.862404,284.00492 c 0.288835,0.32336 0.54674,0.65945 0.765581,1.01859 0.240473,0.44595 0.403745,0.91934 0.529601,1.39573 0.103664,0.45373 0.114272,0.91678 0.151462,1.37632 0.04888,0.49556 0.05534,0.99167 0.0127,1.48745 -0.0447,0.41885 -0.131126,0.83307 -0.176569,1.25196 -0.02567,0.38393 -0.04323,0.76778 -0.07853,1.1513 -0.08192,0.57654 -0.308759,0.49945 -1.320178,0.81154 -0.05711,0.0178 -0.04547,-0.13682 -0.04329,-0.27532 0.04569,-0.53217 0.170138,-1.05716 0.273904,-1.58303 0.09465,-0.55991 0.233503,-1.11335 0.315944,-1.67465 0.05669,-0.43044 0.148553,-0.85668 0.204153,-1.28712 0.04211,-0.42773 0.172616,-0.84242 0.325355,-1.25076 0.152446,-0.46155 0.43372,-0.87575 0.735296,-1.27944 0.230659,-0.31109 0.471369,-0.56888 0.825307,-0.78743 0.594588,-0.29714 0.694654,-0.3501 1.631572,-0.76075 0.03609,-0.0153 0.552472,-0.17903 0.589197,-0.19072 0,0 -1.047427,0.6815 -1.047427,0.6815 v 0 c -0.09824,0.0321 -0.197089,0.063 -0.294718,0.0963 -0.09785,0.0333 -0.379182,0.15332 -0.291654,0.10409 0.334752,-0.18863 1.343201,-0.64915 0.668101,-0.3391 -0.06068,0.0317 -0.124164,0.0601 -0.182037,0.0953 -0.281717,0.17112 -0.472318,0.42321 -0.673508,0.65387 -0.307215,0.39271 -0.594925,0.79697 -0.746763,1.25203 -0.154206,0.4012 -0.293118,0.80819 -0.335689,1.22979 -0.05066,0.43359 -0.147325,0.86122 -0.213684,1.29326 -0.08075,0.56487 -0.224856,1.12006 -0.323542,1.68277 -0.09989,0.51598 -0.217834,1.03271 -0.248674,1.55539 -0.02027,0.50972 -0.103749,0.20031 -1.18763,0.71041 -0.01782,0.006 0.04052,-0.0115 0.05277,-0.0262 0.05278,-0.0583 0.06079,-0.14481 0.07647,-0.21116 0.04547,-0.38425 0.06881,-0.76855 0.0864,-1.15433 0.04069,-0.42066 0.128196,-0.83538 0.184801,-1.25444 0.0498,-0.49071 0.04638,-0.98187 -0.0043,-1.47276 -0.03848,-0.45439 -0.05239,-0.91176 -0.144682,-1.36159 -0.11681,-0.46838 -0.273168,-0.93433 -0.512811,-1.37044 -0.215809,-0.35056 -0.465355,-0.68315 -0.775399,-0.98277 0,0 1.172618,-0.58553 1.172618,-0.58553 z"
       inkscape:connector-curvature="0" />
  </g>
  <g
     inkscape:groupmode="layer"
     id="layer2"
     inkscape:label="Capa 2"
     transform="translate(0,-15)" />
</svg>
