<?xml version="1.0" encoding="UTF-8" standalone="no"?>
<!-- Created with Inkscape (http://www.inkscape.org/) -->

<svg
   xmlns:dc="http://purl.org/dc/elements/1.1/"
   xmlns:cc="http://creativecommons.org/ns#"
   xmlns:rdf="http://www.w3.org/1999/02/22-rdf-syntax-ns#"
   xmlns:svg="http://www.w3.org/2000/svg"
   xmlns="http://www.w3.org/2000/svg"
   xmlns:sodipodi="http://sodipodi.sourceforge.net/DTD/sodipodi-0.dtd"
   xmlns:inkscape="http://www.inkscape.org/namespaces/inkscape"
   width="100mm"
   height="25mm"
   viewBox="0 0 100 25"
   version="1.1"
   id="svg8"
   sodipodi:docname="buscarRecetaBoton.svg"
   inkscape:version="0.92.3 (2405546, 2018-03-11)">
  <defs
     id="defs2" />
  <sodipodi:namedview
     id="base"
     pagecolor="#ffffff"
     bordercolor="#666666"
     borderopacity="1.0"
     inkscape:pageopacity="0.0"
     inkscape:pageshadow="2"
     inkscape:zoom="2.8"
     inkscape:cx="224.61255"
     inkscape:cy="-8.9381101"
     inkscape:document-units="mm"
     inkscape:current-layer="layer1"
     showgrid="false"
     inkscape:window-width="1920"
     inkscape:window-height="992"
     inkscape:window-x="0"
     inkscape:window-y="0"
     inkscape:window-maximized="1" />
  <metadata
     id="metadata5">
    <rdf:RDF>
      <cc:Work
         rdf:about="">
        <dc:format>image/svg+xml</dc:format>
        <dc:type
           rdf:resource="http://purl.org/dc/dcmitype/StillImage" />
        <dc:title />
      </cc:Work>
    </rdf:RDF>
  </metadata>
  <g
     inkscape:label="Capa 1"
     inkscape:groupmode="layer"
     id="layer1"
     transform="translate(0,-272)">
    <rect
       style="opacity:0.18500001;fill:#673ab7;fill-opacity:1;stroke:none;stroke-width:1.37212694;stroke-miterlimit:4;stroke-dasharray:none;stroke-opacity:0.98095236"
       id="rect1379"
       width="100.0692"
       height="25.3244"
       x="0.15429816"
       y="271.91931"
       ry="0.11945479" />
    <path
       style="opacity:0.82700004;fill:#000000;fill-opacity:1;stroke:none;stroke-width:1.68886566;stroke-miterlimit:4;stroke-dasharray:none;stroke-opacity:1;paint-order:stroke fill markers"
       id="path1843-3"
       d="m 38.72076,284.74008 c 0.307432,0.24922 0.581912,0.50829 0.814835,0.78509 0.255943,0.3437 0.429713,0.70857 0.563673,1.07575 0.110355,0.34972 0.121603,0.70662 0.161185,1.0608 0.05203,0.38198 0.05891,0.76435 0.01366,1.14646 -0.04757,0.32284 -0.139575,0.64211 -0.187923,0.96495 -0.02707,0.29593 -0.04602,0.59178 -0.08356,0.88737 -0.08719,0.44438 -0.328625,0.38495 -1.4051,0.62552 -0.06081,0.0137 -0.04841,-0.1055 -0.0461,-0.21223 0.04862,-0.41016 0.181093,-0.81482 0.291541,-1.22012 0.100747,-0.43155 0.248496,-0.85811 0.336271,-1.29074 0.06032,-0.33177 0.15809,-0.66028 0.217296,-0.99206 0.04478,-0.32966 0.183705,-0.6493 0.346286,-0.96401 0.162255,-0.35574 0.46162,-0.67499 0.782599,-0.98614 0.245473,-0.23977 0.501694,-0.43846 0.878397,-0.6069 0.632842,-0.22905 0.739346,-0.26985 1.73654,-0.58637 0.03842,-0.0122 0.588006,-0.13798 0.627099,-0.14694 0,0 -1.114811,0.52527 -1.114811,0.52527 v 0 c -0.104556,0.0246 -0.209754,0.0486 -0.31368,0.0742 -0.104147,0.0256 -0.403577,0.11825 -0.310427,0.0803 0.35629,-0.14542 1.429612,-0.50035 0.71108,-0.26139 -0.0646,0.0246 -0.132123,0.0463 -0.193759,0.0735 -0.299828,0.13191 -0.502703,0.32616 -0.716837,0.50397 -0.326959,0.30266 -0.633192,0.61427 -0.794801,0.96499 -0.164109,0.30923 -0.311992,0.62293 -0.357287,0.94788 -0.05395,0.33418 -0.156796,0.66377 -0.227425,0.99678 -0.08593,0.43536 -0.239306,0.86328 -0.344352,1.29701 -0.106302,0.3977 -0.231844,0.79596 -0.264668,1.19881 -0.02181,0.39287 -0.110416,0.15441 -1.26403,0.54754 -0.01902,0.006 0.04314,-0.009 0.05619,-0.02 0.05619,-0.0451 0.06468,-0.11157 0.08136,-0.16277 0.04839,-0.29616 0.07323,-0.59236 0.09197,-0.88968 0.04331,-0.32425 0.136433,-0.64392 0.196705,-0.96689 0.05301,-0.37821 0.04936,-0.75677 -0.0043,-1.13513 -0.04109,-0.35024 -0.05597,-0.70275 -0.154104,-1.04945 -0.12435,-0.36103 -0.290763,-0.72016 -0.545803,-1.05628 -0.229686,-0.2702 -0.495294,-0.52655 -0.825279,-0.75747 0,0 1.248056,-0.45129 1.248056,-0.45129 z"
       inkscape:connector-curvature="0" />
    <path
       style="opacity:0.82700004;fill:#000000;fill-opacity:1;stroke:none;stroke-width:1.56531489;stroke-miterlimit:4;stroke-dasharray:none;stroke-opacity:1;paint-order:stroke fill markers"
       id="path1067"
       d="m 20.722879,285.30974 c -0.546504,1.20624 -0.656754,2.69106 0.122437,3.66584 2.07899,1.36433 3.176406,-0.50675 2.764911,-3.19749 -0.03944,-0.11764 -0.05899,-0.23978 -0.105285,-0.35511 -0.02983,-0.0742 -0.01366,-0.0408 -0.04493,-0.10125 l 0.88714,-0.5359 v 0 c 0.03053,0.0679 0.01542,0.0322 0.04578,0.10717 0.04989,0.11612 0.07253,0.23815 0.106833,0.3596 0.05299,0.14557 0.09431,0.29553 0.126384,0.44778 0.51255,3.69878 -1.586419,4.80733 -3.470912,4.64047 -1.552963,-0.36836 -2.096724,-2.68896 -1.35262,-4.56739 L 20.722958,285.31 Z"
       inkscape:connector-curvature="0"
       sodipodi:nodetypes="cccccccccccccc" />
    <path
       style="opacity:0.82700004;fill:#000000;fill-opacity:1;stroke:none;stroke-width:1.59944773;stroke-miterlimit:4;stroke-dasharray:none;stroke-opacity:1;paint-order:stroke fill markers"
       id="path1805"
       d="m 26.751817,286.05101 c 0.843127,0.83046 2.424957,1.35025 2.499128,2.3095 -0.07916,1.43516 -1.329957,2.44933 -2.898286,2.61914 -2.728319,-0.26579 -1.065424,-1.35064 -0.467719,-0.9157 0.273539,0.14481 0.418401,0.27727 0.880344,0.31288 2.183625,-0.82347 1.672954,-2.52656 -0.05339,-3.12345 -0.762503,-0.43511 -1.16271,-0.8133 -1.083748,-1.55294 0.347272,-1.28967 1.454854,-1.50944 3.411357,-1.63284 0.664082,0.67702 -2.598365,0.83465 -2.28769,1.98341 z"
       inkscape:connector-curvature="0"
       sodipodi:nodetypes="cccccccccc" />
    <path
       style="opacity:0.82700004;fill:#000000;fill-opacity:1;stroke:none;stroke-width:1.73601675;stroke-miterlimit:4;stroke-dasharray:none;stroke-opacity:1;paint-order:stroke fill markers"
       id="path1837-5"
       d="m 32.387693,289.94947 c 0.205826,0.053 0.403252,0.15088 0.616747,0.16255 0.212957,-0.0137 0.393757,-0.13024 0.572273,-0.23819 l -0.890403,0.73854 v 0 c -0.189628,0.10808 -0.392948,0.19531 -0.614731,0.17705 -2.185879,-0.4902 -2.546358,-1.14693 -2.152635,-3.43092 0.677389,-2.23567 1.449968,-2.46544 3.574977,-2.46316 -0.127128,0.10261 -0.247923,0.20702 -0.370395,0.30225 -2.478517,1.9274 -3.556602,3.28009 -0.735833,4.75188 z"
       inkscape:connector-curvature="0"
       sodipodi:nodetypes="ccccccccsc" />
    <path
       style="opacity:1;fill:#000000;fill-opacity:1;stroke:none;stroke-width:1.08933651;stroke-miterlimit:4;stroke-dasharray:none;stroke-opacity:0.98095236"
       id="path961"
       d="m 12.009596,289.06588 c -0.07452,-0.70046 -0.196832,-1.39346 -0.333591,-2.08404 -0.17078,-0.90419 -0.425647,-1.78819 -0.657331,-2.67761 -0.199295,-0.70611 -0.31463,-1.43103 -0.382113,-2.16047 -0.05559,-0.47839 -0.107911,-0.95711 -0.142748,-1.43751 -0.03849,-0.28662 -7.64e-4,-0.56863 0.04029,-0.85185 0.01412,-0.2275 0.09086,-0.43702 0.185651,-0.64152 0.167122,-0.26241 0.400544,-0.47874 0.626444,-0.6905 0.664099,-0.57982 1.443216,-1.02271 2.245975,-1.38433 0.238676,-0.0862 0.495431,-0.13252 0.747532,-0.0961 0.272543,0.0369 0.515193,0.16004 0.739386,0.31336 0.26086,0.19488 0.491902,0.42556 0.723238,0.65369 0.239574,0.23849 0.477556,0.4786 0.716089,0.71814 0.231542,0.27745 0.47925,0.54161 0.706378,0.82259 0.200136,0.22313 0.322171,0.48286 0.387611,0.7724 0.04331,0.24124 0.04237,0.48714 0.04285,0.73136 -0.0055,0.26227 -0.09382,0.5074 -0.192717,0.74675 -0.10398,0.25757 -0.302577,0.45442 -0.492647,0.65011 -0.231492,0.22973 -0.459741,0.46297 -0.698017,0.68572 -0.222859,0.20149 -0.467625,0.37526 -0.712449,0.54848 -0.244994,0.16064 -0.480375,0.33528 -0.718235,0.5062 -0.69014,0.48342 -1.399497,1.06552 -2.256843,1.13403 -0.205943,0.0121 -0.412321,0.0137 -0.618532,0.0185 1.784233,-1.39241 0.955195,-0.90901 2.051222,-1.09033 0.26019,-0.0448 0.523611,-0.0621 0.78709,-0.0715 0.3004,0.003 0.603177,-0.0234 0.901423,0.017 0.271871,0.0225 0.521409,0.11187 0.761123,0.23772 0.273182,0.1542 0.488573,0.38497 0.754306,0.54936 0.210051,0.14406 0.402523,0.3054 0.580639,0.48707 0.174397,0.21653 0.344549,0.43609 0.506433,0.66211 0.151142,0.22451 0.244115,0.48243 0.323153,0.73971 0.06532,0.24318 0.09203,0.49503 0.08188,0.74619 -0.01366,0.26643 -0.104329,0.5083 -0.216478,0.74665 -0.109474,0.22964 -0.231221,0.4523 -0.364,0.66914 -0.133671,0.21885 -0.346587,0.3605 -0.551297,0.50571 -0.685357,0.44539 0.549669,-0.35449 -1.74013,1.01731 -0.459611,0.27537 1.864314,-1.05661 1.392303,-0.80312 -1.774242,0.95291 -1.078135,0.66373 -1.873888,1.03251 -0.228998,0.11446 -0.48828,0.10702 -0.729811,0.17001 -0.239086,0.0554 -0.484771,0.10535 -0.729749,0.073 -0.38205,-0.0471 -0.735782,-0.21564 -1.08348,-0.37143 -0.475401,-0.19264 -0.932287,-0.41766 -1.374828,-0.67581 -0.188075,-0.13327 -0.09785,-0.0704 -0.270445,-0.18909 0,0 1.487774,-0.94676 1.487774,-0.94676 v 0 c 0.164024,0.11947 0.07919,0.0584 0.254621,0.18284 0.431897,0.26297 0.888403,0.47304 1.358158,0.66026 0.340782,0.14421 0.688702,0.29558 1.064352,0.30798 0.237889,-0.009 0.47067,-0.0557 0.702178,-0.1096 0.242923,-0.0393 0.483833,-0.0851 0.705227,-0.19911 0.0793,-0.0344 0.31019,-0.15249 0.235619,-0.10868 -0.462881,0.272 -1.860112,1.07325 -1.393589,0.80753 5.448087,-3.10296 -0.988792,0.53664 0.350128,-0.20615 0.206823,-0.1228 0.40936,-0.2632 0.57767,-0.4355 0.140471,-0.20919 0.267889,-0.42516 0.373691,-0.65422 0.118992,-0.21608 0.221862,-0.43564 0.243084,-0.68491 0.03455,-0.22832 -0.0027,-0.46279 -0.05015,-0.68724 -0.06832,-0.23982 -0.154003,-0.48041 -0.291081,-0.68994 -0.157072,-0.21794 -0.321962,-0.42985 -0.494498,-0.63583 -0.172608,-0.16921 -0.358968,-0.32128 -0.558225,-0.45842 -0.250398,-0.1732 -0.468746,-0.39215 -0.743181,-0.52949 -0.231251,-0.10246 -0.469799,-0.17162 -0.72392,-0.187 -0.296489,-0.0156 -0.593775,-0.006 -0.890321,0.006 -0.25966,0.0152 -0.518165,0.0413 -0.774805,0.0842 -0.13279,0.017 -0.261896,0.025 -0.395697,0.0272 -0.709334,0.0106 -0.549215,0.15325 1.203689,-1.04306 0.195395,0.0137 0.392991,-0.008 0.587062,-0.0275 0.124335,-0.0235 0.241613,-0.0495 0.35763,-0.10186 0.03866,-0.0176 0.149912,-0.0795 0.113345,-0.0581 -1.648958,0.97171 -1.822954,1.08336 -1.267874,0.73341 0.233184,-0.17812 0.475705,-0.34359 0.713976,-0.51457 0.253816,-0.15691 0.4924,-0.33952 0.723583,-0.52776 0.251736,-0.20462 0.466727,-0.44998 0.701953,-0.67295 0.183703,-0.18378 0.378715,-0.36361 0.516437,-0.58595 0.0915,-0.22268 0.197153,-0.44069 0.221276,-0.68395 9.12e-4,-0.23336 0.0047,-0.46791 -0.0257,-0.69979 -0.04859,-0.26658 -0.156212,-0.49991 -0.339527,-0.70337 -0.221834,-0.2773 -0.463168,-0.53922 -0.696507,-0.80679 -0.238067,-0.23914 -0.475514,-0.47891 -0.715336,-0.71629 -0.224424,-0.21948 -0.448671,-0.44266 -0.708068,-0.62134 -0.21181,-0.12918 -0.440017,-0.22564 -0.691614,-0.23601 -0.239917,0.009 -0.475245,0.0556 -0.689687,0.16788 -0.604404,0.32952 0.05938,-0.0311 1.269595,-0.73828 0.04112,-0.0241 -0.08593,0.0414 -0.126809,0.0659 -0.137709,0.0824 -0.252252,0.19398 -0.378874,0.29126 -0.232167,0.18979 -0.438145,0.41042 -0.639117,0.63258 -0.1201,0.16832 -0.195196,0.3771 -0.217303,0.58225 -0.03892,0.27461 -0.101035,0.54573 -0.06618,0.82505 0.02272,0.48263 0.06735,0.96343 0.122893,1.44336 0.05269,0.72409 0.152552,1.44429 0.350366,2.14461 0.223482,0.89473 0.475513,1.78266 0.65597,2.68783 0.143597,0.68584 0.26641,1.37528 0.393145,2.06404 0,0 -1.567052,0.82666 -1.567052,0.82666 z"
       inkscape:connector-curvature="0" />
    <path
       style="opacity:0.82700004;fill:#000000;fill-opacity:1;stroke:none;stroke-width:1.92105985;stroke-miterlimit:4;stroke-dasharray:none;stroke-opacity:1;paint-order:stroke fill markers"
       id="path1835-6-6"
       d="m 33.701604,285.19662 c 1.077581,-0.49241 2.096312,-0.44409 3.087339,0.0745 0.745339,0.54196 1.043522,1.38288 1.103807,2.1288 0.01609,0.32323 -0.09395,0.63367 -0.214035,0.93865 -0.249449,0.58739 -0.42275,1.18924 -0.763775,1.6988 -0.547867,0.75984 -1.861143,1.33066 -2.609016,1.125 -1.288706,-0.62452 -1.453586,-1.62439 -0.540231,-2.48557 0.878627,-0.75606 1.507156,-0.89017 2.603525,-1.22043 0.218137,-0.0897 0.391057,-0.0599 0.615915,-0.0191 0.174822,0.0427 0.343564,0.0971 0.520703,0.13418 l -0.503556,0.61345 v 0 c -0.17299,-0.042 -0.565533,-0.13722 -0.742835,-0.16712 -0.445155,-0.0395 -0.638232,-0.0893 -0.79116,0.008 -0.325234,0.11415 -0.65921,0.21249 -0.977775,0.33854 1.920332,-0.89727 0.807358,-0.41106 0.599297,-0.26545 -0.09657,0.0674 -0.174771,0.15149 -0.266405,0.22291 -0.796753,0.65373 -0.795253,1.24667 -0.19354,1.95683 0.193664,0.1439 0.394366,0.28476 0.633101,0.37997 0.225934,0.0759 0.46444,0.12478 0.702518,0.0502 -0.556817,0.17669 -1.126282,0.66687 -0.506466,0.14603 0.155387,-0.13661 0.300102,-0.28056 0.408126,-0.4447 0.183331,-0.24222 0.311847,-0.50429 0.414593,-0.77479 0.125777,-0.30271 0.25983,-0.6032 0.36912,-0.91007 0.117883,-0.29428 0.237227,-0.59265 0.22511,-0.90559 -0.01879,-0.23052 -0.05295,-0.45897 -0.136995,-0.68109 -0.217303,-1.0321 -1.566367,-2.15539 -2.916943,-1.72622 -0.349512,0.10565 -0.693271,0.22411 -1.025275,0.36119 l 0.904847,-0.57629 z"
       inkscape:connector-curvature="0"
       sodipodi:nodetypes="cccccccccccccccccccccccccccccc" />
    <path
       style="opacity:1;fill:#000000;fill-opacity:1;stroke:none;stroke-width:2.65429664;stroke-miterlimit:4;stroke-dasharray:none;stroke-opacity:0.98095236"
       id="path1041"
       d="m 72.661887,290.27331 c -0.130059,-0.20836 -0.221134,-0.44158 -0.29979,-0.6793 -0.108187,-0.3628 -0.158229,-0.743 -0.215187,-1.11918 -0.04668,-0.41076 -0.105599,-0.81959 -0.151938,-1.23036 -0.05164,-0.37191 -0.07548,-0.74773 -0.100499,-1.12285 -0.03589,-0.40979 -0.05913,-0.8207 -0.08609,-1.23129 -0.01569,-0.22867 -0.03012,-0.45764 -0.01972,-0.68707 0.0056,-0.12921 0.01294,-0.18401 0.02599,-0.31162 0.04648,-0.35132 0.110232,-0.69941 0.170205,-1.04802 0.05143,-0.33628 0.11822,-0.669 0.178809,-1.00319 0.05596,-0.29906 0.113391,-0.59772 0.17682,-0.89486 0.04835,-0.21738 0.09363,-0.43602 0.154797,-0.64936 0.04275,-0.14606 0.108157,-0.27869 0.193158,-0.39807 0.01158,-0.015 0.02303,-0.0296 0.03541,-0.0432 0.01643,-0.0182 0.05597,-0.0578 0.07614,-0.071 0.473333,-0.31066 0.669866,-0.51578 1.066072,-0.66829 0.07138,-0.0334 0.147704,-0.0436 0.222667,-0.0602 0.03267,-0.008 0.06483,-0.017 0.09736,-0.0251 0.108487,-0.0105 0.20101,0.0423 0.291443,0.10289 0.09266,0.0582 0.150887,0.15171 0.202874,0.25298 0.0528,0.10138 0.07837,0.16246 0.07392,0.28263 -0.01444,0.10726 -0.04744,0.17686 -0.115843,0.25106 -0.324522,0.21006 -0.646583,0.42508 -0.973581,0.63017 -0.01608,0.0105 -0.03582,0.009 -0.05363,0.0135 -0.01987,0.005 -0.03967,0.012 -0.05967,0.0174 -0.07408,0.0212 -0.14838,0.0415 -0.222624,0.0621 -0.177535,0.049 -0.356019,0.0945 -0.529629,0.15944 -0.128238,0.0487 -0.262215,0.0728 -0.394462,0.10319 -0.211856,0.0521 -0.426212,0.0901 -0.640533,0.12651 -0.284533,0.0426 -0.564871,0.11327 -0.844186,0.18665 -0.146786,0.0375 -0.290577,0.0936 -0.439902,0.11718 -0.111962,0.0305 -0.225356,0.0536 -0.338791,0.0761 -0.204796,0.0439 -0.409475,0.0872 -0.615497,0.12335 -0.05336,-5.2e-4 -0.187325,0.0442 -0.23758,0.0265 -0.01143,-0.005 -0.02359,-0.012 -0.02923,-0.0233 -0.01817,-0.0385 -0.02648,-0.0821 -0.03967,-0.12304 0.324388,-0.21095 0.646674,-0.42606 0.973148,-0.63282 0.01444,-0.009 0.03212,-0.009 0.048,-0.0135 0.01947,-0.006 0.03884,-0.0135 0.05831,-0.0195 0.0707,-0.0242 0.141506,-0.0478 0.21183,-0.0734 0.154586,-0.0644 0.316252,-0.10078 0.476393,-0.14245 0.200989,-0.0519 0.402966,-0.0975 0.606909,-0.13163 0.206158,-0.0439 0.413857,-0.0787 0.621639,-0.11131 0.18589,-0.0396 0.373318,-0.0651 0.560941,-0.0909 0.165845,-0.0227 0.332785,-0.0268 0.498968,-0.045 0.239556,-0.0232 0.474544,-0.0779 0.70975,-0.13162 0.189012,-0.0528 0.381027,-0.087 0.574884,-0.10545 0.262361,-0.0218 0.522328,-0.0645 0.781736,-0.11297 0.203121,-0.0308 0.400981,-0.0945 0.604451,-0.12154 0.06807,-0.008 0.136301,-0.0156 0.204761,-0.0179 0.01264,-5e-4 0.02524,-0.003 0.03761,-5e-4 0.01512,0.003 0.02944,0.009 0.04415,0.015 0.08389,0.0271 0.149253,0.0912 0.219669,0.14532 0.05575,0.0442 0.119844,0.0722 0.175336,0.11673 l -0.923782,0.66846 v 0 c -0.05776,-0.0409 -0.117708,-0.0781 -0.173553,-0.1223 -0.05624,-0.0481 -0.114745,-0.0924 -0.187575,-0.097 -0.08591,0.006 -0.172226,0.006 -0.257692,0.0196 -0.188535,0.0301 -0.376679,0.0635 -0.565264,0.0933 -0.269928,0.0492 -0.540087,0.0967 -0.811941,0.13042 -0.186363,0.0275 -0.372169,0.0584 -0.556182,0.10244 -0.242119,0.0517 -0.484401,0.10349 -0.729509,0.13403 -0.16644,0.0182 -0.333756,0.0248 -0.499755,0.0487 -0.184913,0.0239 -0.368699,0.055 -0.552581,0.0875 -0.206653,0.0346 -0.413347,0.0691 -0.618921,0.11117 -0.204727,0.0394 -0.407828,0.088 -0.609303,0.14501 -0.160719,0.0444 -0.320426,0.0921 -0.476687,0.15399 -0.0932,0.0331 -0.187959,0.0642 -0.27871,0.10545 -0.01719,0.008 -0.03376,0.0168 -0.05068,0.0256 0.301909,-0.20025 0.603832,-0.40051 0.905739,-0.60077 -0.02104,-0.0332 -0.0425,-0.0665 -0.06318,-0.10033 -0.0027,-0.005 -0.0089,-0.009 -0.0056,-0.012 0.0074,-0.005 0.01774,-5.2e-4 0.02655,-6.8e-4 0.05927,-0.005 0.11831,-0.0105 0.177226,-0.0191 0.206317,-0.0313 0.409953,-0.0797 0.613251,-0.12982 0.1181,-0.0302 0.235509,-0.0656 0.355447,-0.0857 0.136797,-0.0322 0.273058,-0.0672 0.410167,-0.0978 0.27818,-0.0611 0.556222,-0.12305 0.836191,-0.17306 0.223292,-0.0459 0.445938,-0.0954 0.666625,-0.15554 0.129096,-0.0325 0.258693,-0.063 0.385109,-0.10771 0.176724,-0.0539 0.354707,-0.10214 0.531665,-0.15507 0.07664,-0.0235 0.153485,-0.0462 0.228869,-0.0745 0.349947,-0.13118 0.842248,-0.61737 -0.779462,0.53449 0.07723,-0.0385 0.114369,-0.0711 0.150824,-0.15953 0.0048,-0.015 0.01595,-0.045 0.01527,-0.0627 -0.0015,-0.0526 -0.03451,-0.10214 -0.05164,-0.14863 -0.04042,-0.0847 -0.09381,-0.15027 -0.170573,-0.19463 -0.08636,-0.0478 -0.153456,-0.0608 -0.247796,-0.0317 -0.104651,0.0238 -0.209148,0.0481 -0.306699,0.0996 -0.336713,0.1698 -0.770745,0.49949 0.797489,-0.53386 0.01399,-0.009 -0.02848,0.0165 -0.04234,0.0256 -0.04469,0.0284 -0.04152,0.028 -0.084,0.0627 -0.09958,0.10214 -0.170233,0.21813 -0.221381,0.35952 -0.07896,0.20912 -0.124824,0.43142 -0.181599,0.64907 -0.06929,0.29673 -0.128855,0.59612 -0.189038,0.89538 -0.06023,0.33649 -0.130103,0.67051 -0.188694,1.00736 -0.05823,0.34318 -0.115106,0.68694 -0.157927,1.03308 -0.0154,0.1211 -0.02474,0.18277 -0.0341,0.30526 -0.01727,0.22773 -0.0056,0.45596 0.0015,0.68392 0.01766,0.4109 0.03995,0.82182 0.08287,1.23053 0.02902,0.3731 0.06271,0.74586 0.101793,1.11781 0.03707,0.4105 0.09254,0.8185 0.14465,1.22685 0.05886,0.36618 0.112128,0.73644 0.223429,1.088 0.07863,0.21821 0.165182,0.44737 0.328065,0.60299 l -0.932432,0.64648 z"
       inkscape:connector-curvature="0"
       sodipodi:nodetypes="ccccccccccccccccccccccccccccccccccccccccccccccccccccccccccccccccccccccccccccccccccccccccccccccccccccccccccc" />
    <path
       style="opacity:0.82700004;fill:#000000;fill-opacity:1;stroke:none;stroke-width:1.89109445;stroke-miterlimit:4;stroke-dasharray:none;stroke-opacity:1;paint-order:stroke fill markers"
       id="path1837"
       d="m 64.824878,289.07832 c 0.224215,0.0578 0.439277,0.16445 0.671838,0.1771 0.231984,-0.0154 0.428928,-0.14185 0.623391,-0.2595 l -0.969936,0.80451 v 0 c -0.206571,0.11778 -0.428055,0.21277 -0.66965,0.19287 -2.381143,-0.53398 -2.773825,-1.24938 -2.34493,-3.73738 0.737906,-2.43539 1.579501,-2.6857 3.89433,-2.68323 -0.138482,0.11177 -0.270068,0.22552 -0.403484,0.32927 -2.699915,2.09956 -3.874306,3.57309 -0.801559,5.17636 z"
       inkscape:connector-curvature="0"
       sodipodi:nodetypes="ccccccccsc" />
    <path
       style="opacity:0.82700004;fill:#000000;fill-opacity:1;stroke:none;stroke-width:1.89109445;stroke-miterlimit:4;stroke-dasharray:none;stroke-opacity:1;paint-order:stroke fill markers"
       id="path1803-3"
       d="m 60.804986,288.72577 c 0.06002,1.19617 -1.726014,1.73426 -2.450161,1.68566 -1.130365,0.0173 -2.239147,-1.10332 -2.38951,-2.08145 -0.01008,-0.43341 0.122733,-0.8503 0.266644,-1.2523 0.336759,-0.90492 0.800135,-1.74855 1.324518,-2.46842 0.537969,-0.7711 1.427171,-1.23688 2.116397,-1.63492 0.760043,0.13599 1.405782,1.05662 1.676468,1.65525 0.04812,0.17401 0.05451,0.3552 0.05858,0.53482 -0.301365,1.89895 -3.850792,3.07333 -4.190997,2.06713 0.819003,-0.82608 1.691842,-0.1721 2.555687,-0.49071 0.461835,-0.46537 0.545277,-0.89911 0.481046,-1.49609 -0.221863,-0.58292 -0.696733,-1.0115 -1.123959,-1.39505 l -0.444286,0.26226 c -0.299606,0.38971 -0.574982,0.7994 -0.804063,1.23721 -0.197427,0.38994 -0.372535,0.7914 -0.53625,1.19738 -0.142529,0.38365 -0.280697,0.77671 -0.28377,1.19273 0.240261,0.89439 1.05331,1.43227 1.791916,1.80987 0.426309,0.15777 0.709791,0.0608 0.820777,-0.27322 l 1.130983,-0.55048 z"
       inkscape:connector-curvature="0"
       sodipodi:nodetypes="cccccccccccccccccccc" />
    <path
       style="opacity:0.82700004;fill:#000000;fill-opacity:1;stroke:none;stroke-width:1.89109445;stroke-miterlimit:4;stroke-dasharray:none;stroke-opacity:1;paint-order:stroke fill markers"
       id="path1803-3-7"
       d="m 70.497827,288.63653 c 0.04978,1.11317 -1.431502,1.61394 -2.032095,1.56874 -0.937491,0.0173 -1.857084,-1.02678 -1.98179,-1.93702 -0.0083,-0.40337 -0.0086,-1.45843 0.110834,-1.83256 0.279301,-0.84211 0.266445,-0.88101 0.701356,-1.55092 0.446172,-0.71756 1.051268,-1.51287 2.284829,-1.58931 0.663085,0.0232 1.596608,1.41478 1.41692,2.02681 -0.249943,1.76718 -3.193736,2.86007 -3.475892,1.92372 0.679263,-0.76879 1.259743,-0.53333 1.976197,-0.82976 0.957939,-0.28569 1.073133,-1.85355 -0.136707,-2.11978 -1.192314,0.0793 -1.402969,1.43582 -1.733185,2.31205 -0.11819,0.35702 -0.232801,0.72285 -0.235352,1.11 0.199262,0.83232 0.123379,0.92587 0.735964,1.2773 0.394765,0.19257 0.824271,0.74258 1.430928,0.15277 0.599334,-0.80177 0.651066,-0.65798 0.938007,-0.51231 z"
       inkscape:connector-curvature="0"
       sodipodi:nodetypes="cccccccccccccccc" />
    <path
       style="opacity:1;fill:#000000;fill-opacity:1;stroke:none;stroke-width:1.07951558;stroke-miterlimit:4;stroke-dasharray:none;stroke-opacity:0.98095236"
       id="path961-3"
       d="m 49.072203,287.74419 c -0.01861,-0.91169 -0.122718,-1.81742 -0.203277,-2.72468 -0.07897,-0.72277 -0.07279,-1.45017 -0.01912,-2.17413 0.02414,-0.47666 0.05151,-0.9531 0.09626,-1.42833 0.0095,-0.28641 0.09251,-0.55585 0.179084,-0.82591 0.05111,-0.22001 0.160485,-0.41221 0.286652,-0.59652 0.206369,-0.22907 0.469978,-0.40221 0.725484,-0.57211 0.744128,-0.45775 1.578215,-0.76281 2.422071,-0.98457 0.247417,-0.0451 0.505934,-0.0484 0.746332,0.0287 0.260307,0.0808 0.47726,0.24091 0.671221,0.42753 0.222983,0.23323 0.410951,0.49657 0.599623,0.75748 0.195028,0.27238 0.388234,0.54606 0.582068,0.8193 0.180789,0.30912 0.379554,0.60792 0.555449,0.91978 0.159001,0.25088 0.235668,0.52476 0.252141,0.81844 0.0027,0.24288 -0.03848,0.48305 -0.07807,0.7218 -0.04838,0.25543 -0.174912,0.48052 -0.310819,0.69821 -0.143868,0.23466 -0.37024,0.39447 -0.588093,0.55456 -0.26392,0.18656 -0.525246,0.37709 -0.794649,0.55569 -0.250851,0.16038 -0.518567,0.29006 -0.786245,0.4192 -0.265782,0.11689 -0.524468,0.2489 -0.784964,0.37693 -0.753768,0.35926 -1.542505,0.8118 -2.39164,0.73817 -0.20332,-0.0217 -0.405189,-0.0545 -0.60754,-0.0833 1.972124,-1.06819 1.082612,-0.73173 2.183515,-0.72917 0.261638,-0.002 0.521905,0.0253 0.780951,0.0593 0.29302,0.0526 0.593321,0.0761 0.878167,0.1646 0.262018,0.0665 0.491238,0.19483 0.704876,0.35713 0.241693,0.19552 0.414354,0.45638 0.647098,0.66062 0.181662,0.17522 0.343308,0.36449 0.487588,0.57125 0.134932,0.24023 0.26521,0.4827 0.386355,0.73015 0.110894,0.2442 0.159454,0.51154 0.194505,0.77595 0.02396,0.24835 0.0087,0.49888 -0.04234,0.74266 -0.05703,0.2582 -0.185332,0.47968 -0.334021,0.69424 -0.293605,0.50982 -1.433274,0.20616 -1.342295,-0.18315 0.07121,-0.21747 0.0732,-0.45275 0.0637,-0.67986 -0.02744,-0.2456 -0.07171,-0.49479 -0.171322,-0.72205 -0.117768,-0.23877 -0.244159,-0.47291 -0.379001,-0.70252 -0.140935,-0.19369 -0.298138,-0.37285 -0.470382,-0.53958 -0.216312,-0.21032 -0.393799,-0.46012 -0.639484,-0.63937 -0.209187,-0.13809 -0.430995,-0.24476 -0.676829,-0.30147 -0.287194,-0.0639 -0.579398,-0.10274 -0.871038,-0.14065 -0.256173,-0.0283 -0.513182,-0.0445 -0.771049,-0.0448 -0.132586,-0.005 -0.260066,-0.0185 -0.391183,-0.0383 -0.69509,-0.1053 -0.56189,0.0597 1.347456,-0.82199 0.188722,0.0454 0.385441,0.0563 0.578265,0.0693 0.125365,-0.003 0.244235,-0.009 0.366231,-0.0411 0.04068,-0.0105 0.159564,-0.0533 0.120296,-0.0382 -1.77092,0.67922 -1.959282,0.7598 -1.359399,0.50883 0.257109,-0.13583 0.521266,-0.25777 0.782174,-0.38581 0.273792,-0.11177 0.536915,-0.25106 0.793727,-0.39711 0.279584,-0.1587 0.529938,-0.36322 0.7964,-0.54257 0.209678,-0.14953 0.429759,-0.29326 0.600822,-0.48794 0.125937,-0.20264 0.264956,-0.39838 0.32843,-0.63217 0.03916,-0.22791 0.08135,-0.45651 0.08965,-0.68812 -0.0038,-0.2685 -0.07069,-0.51419 -0.216468,-0.74311 -0.171323,-0.30738 -0.364227,-0.60295 -0.548389,-0.90272 -0.193447,-0.27277 -0.386185,-0.54603 -0.581635,-0.81736 -0.183337,-0.25133 -0.365895,-0.5062 -0.590107,-0.72337 -0.185804,-0.16107 -0.393026,-0.2927 -0.637217,-0.3441 -0.235851,-0.0311 -0.473569,-0.0238 -0.701578,0.0508 -0.644737,0.22291 0.06312,-0.0208 1.361881,-0.51333 0.04416,-0.0168 -0.0908,0.0265 -0.134737,0.0436 -0.148095,0.0579 -0.278341,0.14817 -0.418048,0.22253 -0.258026,0.14742 -0.495519,0.32925 -0.728365,0.51339 -0.144996,0.14486 -0.252617,0.33655 -0.30787,0.53342 -0.08307,0.262 -0.188245,0.51679 -0.199996,0.79549 -0.05694,0.4754 -0.09218,0.9526 -0.11661,1.43076 -0.06726,0.71632 -0.08779,1.43656 -0.0093,2.15343 0.07168,0.9111 0.172359,1.82021 0.200269,2.73446 0.02786,0.69384 0.07368,2.63133 0.08457,3.32526 -2.51367,0.92357 -1.62642,-0.53759 -1.690209,-2.78395 z"
       inkscape:connector-curvature="0"
       sodipodi:nodetypes="ccccccccccccccccccccccccccccccccccccccccccccccccccccccccccccccccccccccc" />
    <path
       style="opacity:0.82700004;fill:#000000;fill-opacity:1;stroke:none;stroke-width:1.90374041;stroke-miterlimit:4;stroke-dasharray:none;stroke-opacity:1;paint-order:stroke fill markers"
       id="path1835-6-6-0"
       d="m 74.694208,283.95595 c 1.067867,-0.48797 2.077413,-0.44007 3.059505,0.0739 0.73862,0.53706 1.034114,1.37041 1.093856,2.10962 0.01595,0.3203 -0.0931,0.62794 -0.212106,0.93017 -0.2472,0.58211 -0.418938,1.17852 -0.756889,1.68348 -0.542927,0.75301 -1.844363,1.31867 -2.585494,1.11487 -1.277088,-0.6189 -1.440481,-1.60975 -0.535361,-2.46317 0.870706,-0.74924 1.493569,-0.88214 2.580053,-1.20942 0.21617,-0.0889 0.387531,-0.0593 0.610362,-0.019 0.173246,0.0423 0.340467,0.0964 0.516009,0.13298 l -0.499017,0.6079 v 0 c -0.17143,-0.0417 -0.560433,-0.13598 -0.736137,-0.16559 -0.441142,-0.0391 -0.632478,-0.0884 -0.784029,0.008 -0.3223,0.11313 -0.653265,0.21059 -0.968958,0.3355 1.903017,-0.88918 0.800079,-0.40735 0.593894,-0.26308 -0.0957,0.0668 -0.173196,0.15013 -0.264004,0.2209 -0.789569,0.64784 -0.788083,1.23545 -0.191796,1.93921 0.19192,0.1426 0.390812,0.28218 0.627393,0.37654 0.223899,0.0752 0.460254,0.12365 0.696186,0.0498 -0.551797,0.17511 -1.116128,0.66086 -0.5019,0.14471 0.153987,-0.13538 0.297397,-0.27803 0.404445,-0.44069 0.18168,-0.24003 0.309037,-0.49973 0.410857,-0.76779 0.124643,-0.29999 0.257488,-0.59777 0.365792,-0.90186 0.116821,-0.29163 0.235089,-0.58733 0.223079,-0.89743 -0.01862,-0.22844 -0.05245,-0.45483 -0.135745,-0.67495 -0.215344,-1.0228 -1.552245,-2.13596 -2.890647,-1.71067 -0.346359,0.10469 -0.687019,0.22209 -1.016029,0.35795 l 0.896689,-0.57111 z"
       inkscape:connector-curvature="0"
       sodipodi:nodetypes="cccccccccccccccccccccccccccccc" />
  </g>
  <g
     inkscape:groupmode="layer"
     id="layer2"
     inkscape:label="Capa 2"
     transform="translate(0,-15)" />
</svg>
