<?xml version="1.0" encoding="UTF-8" standalone="no"?>
<!-- Created with Inkscape (http://www.inkscape.org/) -->

<svg
   xmlns:dc="http://purl.org/dc/elements/1.1/"
   xmlns:cc="http://creativecommons.org/ns#"
   xmlns:rdf="http://www.w3.org/1999/02/22-rdf-syntax-ns#"
   xmlns:svg="http://www.w3.org/2000/svg"
   xmlns="http://www.w3.org/2000/svg"
   xmlns:sodipodi="http://sodipodi.sourceforge.net/DTD/sodipodi-0.dtd"
   xmlns:inkscape="http://www.inkscape.org/namespaces/inkscape"
   width="100mm"
   height="25mm"
   viewBox="0 0 100 25"
   version="1.1"
   id="svg8"
   sodipodi:docname="buscarIngredienteBoton.svg"
   inkscape:version="0.92.3 (2405546, 2018-03-11)">
  <defs
     id="defs2" />
  <sodipodi:namedview
     id="base"
     pagecolor="#ffffff"
     bordercolor="#666666"
     borderopacity="1.0"
     inkscape:pageopacity="0.0"
     inkscape:pageshadow="2"
     inkscape:zoom="1.4"
     inkscape:cx="73.048738"
     inkscape:cy="109.23657"
     inkscape:document-units="mm"
     inkscape:current-layer="layer1"
     showgrid="false"
     inkscape:window-width="1920"
     inkscape:window-height="992"
     inkscape:window-x="0"
     inkscape:window-y="0"
     inkscape:window-maximized="1"
     showguides="false" />
  <metadata
     id="metadata5">
    <rdf:RDF>
      <cc:Work
         rdf:about="">
        <dc:format>image/svg+xml</dc:format>
        <dc:type
           rdf:resource="http://purl.org/dc/dcmitype/StillImage" />
        <dc:title />
      </cc:Work>
    </rdf:RDF>
  </metadata>
  <g
     inkscape:label="Capa 1"
     inkscape:groupmode="layer"
     id="layer1"
     transform="translate(0,-272)">
    <rect
       style="opacity:0.18500001;fill:#673ab7;fill-opacity:1;stroke:none;stroke-width:1.35668039;stroke-miterlimit:4;stroke-dasharray:none;stroke-opacity:0.98095236"
       id="rect1379"
       width="100.0692"
       height="24.757437"
       x="-0.15119052"
       y="272.24255"
       ry="0.11678042" />
    <path
       style="opacity:0.82700004;fill:#000000;fill-opacity:1;stroke:none;stroke-width:1.3290174;stroke-miterlimit:4;stroke-dasharray:none;stroke-opacity:1;paint-order:stroke fill markers"
       id="path1843-3"
       d="m 39.608989,282.5383 c 0.187869,0.25253 0.355601,0.51506 0.497936,0.79556 0.156405,0.34831 0.262592,0.71806 0.344454,1.09014 0.06743,0.35439 0.07431,0.71608 0.0985,1.07499 0.03181,0.38706 0.036,0.77455 0.0082,1.1618 -0.02907,0.32712 -0.08529,0.65067 -0.114839,0.97784 -0.01653,0.29988 -0.02812,0.5997 -0.05108,0.89924 -0.05327,0.45031 -0.200821,0.39011 -0.858639,0.63386 -0.03717,0.0131 -0.02957,-0.1068 -0.02817,-0.21505 0.02971,-0.41564 0.110657,-0.8257 0.178158,-1.23644 0.06156,-0.43732 0.151852,-0.8696 0.205489,-1.30798 0.03686,-0.33621 0.09661,-0.66913 0.132787,-1.00533 0.02737,-0.33407 0.112256,-0.65797 0.211612,-0.97691 0.09915,-0.3605 0.28209,-0.68402 0.478234,-0.99933 0.150006,-0.24296 0.306578,-0.44431 0.536777,-0.615 0.386724,-0.23211 0.451807,-0.27346 1.061179,-0.59421 0.02348,-0.0116 0.359323,-0.13978 0.383212,-0.14893 0,0 -0.681246,0.53225 -0.681246,0.53225 v 0 c -0.06389,0.0251 -0.128176,0.0492 -0.191688,0.0753 -0.06364,0.026 -0.24662,0.11973 -0.189696,0.0814 0.217721,-0.14732 0.873618,-0.50704 0.434532,-0.26486 -0.03948,0.0247 -0.08075,0.0469 -0.11841,0.0743 -0.183219,0.13368 -0.307196,0.33053 -0.438049,0.51072 -0.199801,0.30674 -0.386934,0.62248 -0.485692,0.9779 -0.100285,0.31337 -0.190656,0.63126 -0.218334,0.96054 -0.03295,0.33866 -0.09583,0.67266 -0.138976,1.01011 -0.05251,0.44118 -0.146237,0.87484 -0.210431,1.31434 -0.06496,0.40301 -0.141675,0.80663 -0.161735,1.21484 -0.01333,0.39812 -0.06747,0.15647 -0.772433,0.55489 -0.01161,0.006 0.02636,-0.009 0.03434,-0.0203 0.03434,-0.0455 0.03953,-0.11305 0.04973,-0.16494 0.02957,-0.30012 0.04475,-0.60029 0.05622,-0.90159 0.02646,-0.32857 0.08337,-0.65248 0.120207,-0.97979 0.03239,-0.38327 0.03017,-0.7669 -0.0026,-1.1503 -0.02513,-0.35494 -0.0342,-0.71217 -0.09417,-1.06351 -0.07598,-0.36583 -0.177681,-0.72976 -0.333533,-1.0704 -0.140357,-0.2738 -0.302666,-0.53357 -0.504318,-0.76758 0,0 0.76267,-0.45735 0.76267,-0.45735 z"
       inkscape:connector-curvature="0" />
    <path
       style="opacity:0.82700004;fill:#000000;fill-opacity:1;stroke:none;stroke-width:1.54801106;stroke-miterlimit:4;stroke-dasharray:none;stroke-opacity:1;paint-order:stroke fill markers"
       id="path1835-6-6"
       d="m 35.728084,282.93076 c 0.801934,-0.42967 1.560082,-0.3875 2.297594,0.0648 0.554686,0.47288 0.776598,1.20659 0.821467,1.85744 0.01198,0.28204 -0.06991,0.5529 -0.159294,0.81898 -0.185637,0.51254 -0.314612,1.03766 -0.5684,1.48226 -0.407722,0.66298 -1.385067,1.16101 -1.941636,0.9816 -0.95906,-0.5449 -1.081761,-1.41734 -0.402044,-2.16873 0.653881,-0.65969 1.121635,-0.77668 1.937553,-1.06484 0.16233,-0.0783 0.291027,-0.0522 0.458369,-0.0167 0.130101,0.0372 0.255674,0.0847 0.387505,0.11712 l -0.374747,0.53523 v 0 c -0.128739,-0.0368 -0.420875,-0.11973 -0.55282,-0.14582 -0.33128,-0.0344 -0.474974,-0.0779 -0.588786,0.006 -0.242041,0.0995 -0.490583,0.18539 -0.727656,0.29538 1.429107,-0.78291 0.600834,-0.35865 0.445998,-0.23163 -0.07182,0.0589 -0.13007,0.13223 -0.19826,0.19451 -0.592944,0.57041 -0.591832,1.08776 -0.144036,1.70738 0.144128,0.12554 0.293484,0.24847 0.471156,0.33153 0.168134,0.0663 0.34564,0.10883 0.522812,0.0437 -0.414384,0.15416 -0.838172,0.58186 -0.376913,0.12744 0.115638,-0.1193 0.22334,-0.24481 0.30373,-0.38804 0.136431,-0.21136 0.232076,-0.43998 0.308542,-0.67601 0.09361,-0.26412 0.193362,-0.52632 0.2747,-0.79405 0.08773,-0.25676 0.176549,-0.51712 0.167523,-0.79016 -0.01397,-0.20115 -0.03938,-0.40044 -0.101945,-0.59427 -0.161712,-0.90052 -1.165694,-1.88062 -2.17079,-1.50618 -0.260112,0.0923 -0.515932,0.19554 -0.763013,0.31515 l 0.673391,-0.50282 z"
       inkscape:connector-curvature="0"
       sodipodi:nodetypes="cccccccccccccccccccccccccccccc" />
    <path
       style="opacity:0.82700004;fill:#000000;fill-opacity:1;stroke:none;stroke-width:1.47160769;stroke-miterlimit:4;stroke-dasharray:none;stroke-opacity:1;paint-order:stroke fill markers"
       id="path1843-3-3"
       d="m 61.614,282.44797 c 0.201655,0.28847 0.381712,0.58834 0.534498,0.90872 0.167885,0.39782 0.281876,0.82018 0.369745,1.2452 0.07237,0.40477 0.07979,0.81787 0.10574,1.22786 0.03413,0.4421 0.03863,0.88471 0.009,1.327 -0.03121,0.37365 -0.09153,0.74324 -0.123277,1.11691 -0.01792,0.34253 -0.03017,0.68498 -0.05482,1.02714 -0.0572,0.51435 -0.215563,0.44558 -0.921692,0.72404 -0.03987,0.0158 -0.03173,-0.12205 -0.03022,-0.24566 0.03188,-0.47476 0.118784,-0.94315 0.191226,-1.41229 0.06608,-0.4995 0.163023,-0.99325 0.220581,-1.49402 0.03958,-0.38401 0.103717,-0.76427 0.142531,-1.14829 0.0294,-0.38159 0.120518,-0.75154 0.22715,-1.11584 0.106426,-0.41177 0.302803,-0.7813 0.513351,-1.14145 0.161037,-0.27753 0.329089,-0.50753 0.576193,-0.70247 0.415118,-0.26509 0.48498,-0.31235 1.139093,-0.6787 0.02519,-0.0131 0.385713,-0.15975 0.411353,-0.17017 0,0 -0.73127,0.60798 -0.73127,0.60798 v 0 c -0.06859,0.0285 -0.137596,0.0562 -0.205757,0.086 -0.06832,0.0298 -0.264731,0.13673 -0.203621,0.0928 0.23371,-0.16827 0.937763,-0.57912 0.466439,-0.30252 -0.04235,0.0283 -0.08669,0.0536 -0.127089,0.085 -0.196683,0.15267 -0.329754,0.37756 -0.470213,0.58334 -0.214484,0.35036 -0.415352,0.711 -0.521361,1.11697 -0.107661,0.35796 -0.204638,0.72104 -0.234362,1.09718 -0.03538,0.3868 -0.102856,0.76834 -0.149182,1.15376 -0.05637,0.50394 -0.156988,0.99925 -0.225885,1.50125 -0.06974,0.46035 -0.152083,0.92134 -0.173616,1.38764 -0.01417,0.45474 -0.07241,0.17872 -0.829149,0.63379 -0.01248,0.006 0.02829,-0.0102 0.03685,-0.0234 0.03684,-0.0522 0.04243,-0.12917 0.05339,-0.18841 0.03173,-0.34279 0.04802,-0.68566 0.06033,-1.0298 0.02841,-0.37531 0.08951,-0.74528 0.129021,-1.11914 0.03478,-0.43781 0.03238,-0.87599 -0.0031,-1.31392 -0.02689,-0.40539 -0.03661,-0.81342 -0.101008,-1.21473 -0.08156,-0.41787 -0.190712,-0.83355 -0.358022,-1.22262 -0.150669,-0.31275 -0.324891,-0.60948 -0.541352,-0.87678 0,0 0.818675,-0.52235 0.818675,-0.52235 z"
       inkscape:connector-curvature="0" />
    <path
       style="opacity:0.82700004;fill:#000000;fill-opacity:1;stroke:none;stroke-width:1.47160769;stroke-miterlimit:4;stroke-dasharray:none;stroke-opacity:1;paint-order:stroke fill markers"
       id="path1803-3-5"
       d="m 67.187955,288.18148 c 0.04595,0.94641 -1.321047,1.37214 -1.875291,1.33369 -0.865155,0.0131 -1.713789,-0.87294 -1.828871,-1.64682 -0.0076,-0.3429 0.09393,-0.67276 0.204084,-0.99081 0.257743,-0.71597 0.612397,-1.38346 1.013746,-1.95301 0.411747,-0.61007 1.092329,-0.97862 1.619841,-1.29354 0.581717,0.10753 1.075954,0.83601 1.283128,1.30963 0.03684,0.1376 0.04173,0.28102 0.04481,0.42314 -0.230657,1.50244 -2.947304,2.43161 -3.207685,1.63551 0.626842,-0.65359 1.29489,-0.13615 1.95606,-0.38826 0.353479,-0.3682 0.417336,-0.71137 0.368174,-1.1837 -0.169804,-0.46118 -0.533259,-0.80029 -0.860248,-1.10374 0,0 0,0 -0.340045,0.20749 -0.229308,0.30834 -0.440077,0.63248 -0.615407,0.97887 -0.151106,0.30853 -0.285128,0.62618 -0.410433,0.94737 -0.109085,0.30354 -0.21484,0.61452 -0.217193,0.9437 0.183892,0.70763 0.806176,1.13319 1.371488,1.43194 0.326281,0.12482 0.543255,0.048 0.628202,-0.21617 l 0.865623,-0.43555 z"
       inkscape:connector-curvature="0"
       sodipodi:nodetypes="cccccccccccccccccccc" />
    <path
       style="opacity:0.82700004;fill:#000000;fill-opacity:1;stroke:none;stroke-width:1.38745654;stroke-miterlimit:4;stroke-dasharray:none;stroke-opacity:1;paint-order:stroke fill markers"
       id="path1801-6"
       d="m 60.700463,286.89877 c -0.127891,-0.83417 -0.487433,-2.09035 -1.113814,-2.84175 -0.993031,-1.01261 -2.400211,-1.3199 -2.902528,-0.71292 -0.185635,0.22098 -0.15914,0.60727 -0.129849,0.96676 0.193152,1.23693 1.087377,3.25696 1.962395,3.94724 0.142647,0.0885 0.287455,0.17832 0.429324,0.24793 1.266796,0.15692 1.786914,0.29093 1.844921,-0.8637 -0.02608,-0.0904 -0.05605,-0.65166 -0.09046,-0.74356 -0.202715,-0.94218 -0.937495,-2.81548 -0.982431,-2.37812 -0.01675,0.16303 0.53486,1.71572 0.590841,2.26902 0.01148,0.0879 -0.01966,0.31152 -0.107138,0.35293 -0.279893,0.13252 0.01111,0.92127 -0.05344,1.28738 -0.11826,0.65242 -0.122441,1.37894 -0.362277,1.89629 -0.587707,1.04965 -1.481336,1.35347 -2.631224,1.35421 l 0.50634,1.08986 v 0 c 0.267322,0.004 0.52555,-0.0198 0.759775,-0.0443 0.987704,-0.20747 1.999992,-0.72494 2.125511,-1.93018 0.698128,-6.96013 -0.106901,-1.70427 -2.891916,-3.97705 -0.176569,-0.14548 -0.721692,-2.29139 -0.200968,-2.6364 1.610002,-0.7779 3.185117,2.31095 2.147195,0.10709 0.09642,0.1961 0.126432,0.37619 0.168081,0.56179 0.02374,0.0219 -0.594362,-0.38301 -0.53501,-0.34148 0.253071,0.17701 0.412165,0.35126 0.589324,0.58184 0.137758,0.179 0.6529,1.4014 0.877324,1.80727 z"
       inkscape:connector-curvature="0"
       sodipodi:nodetypes="ccccccccscscccccccccccsscc" />
    <path
       style="opacity:0.82700004;fill:#000000;fill-opacity:1;stroke:none;stroke-width:1.47160769;stroke-miterlimit:4;stroke-dasharray:none;stroke-opacity:1;paint-order:stroke fill markers"
       id="path1803-3-5-9"
       d="m 78.029132,288.2451 c 0.04595,0.94642 -1.321048,1.37213 -1.87529,1.3337 -0.865156,0.0131 -1.713791,-0.87296 -1.828872,-1.64683 -0.0076,-0.34291 0.09393,-0.67276 0.204083,-0.99082 0.257745,-0.71596 0.612397,-1.38345 1.013749,-1.953 0.411745,-0.61008 1.092326,-0.97861 1.619839,-1.29354 0.581717,0.10752 1.075954,0.83599 1.283128,1.30962 0.03685,0.13775 0.04173,0.28105 0.04483,0.42314 -0.230658,1.50243 -2.947305,2.43161 -3.207685,1.63552 0.626842,-0.65359 1.294888,-0.13615 1.956058,-0.38825 0.35348,-0.36821 0.417338,-0.71137 0.368176,-1.18371 -0.169805,-0.4612 -0.533261,-0.80029 -0.86025,-1.10375 0,0 0,0 -0.340044,0.2075 -0.229309,0.30833 -0.440079,0.63249 -0.615407,0.97887 -0.151106,0.30851 -0.285128,0.62617 -0.410433,0.94737 -0.109097,0.30355 -0.214841,0.61453 -0.217194,0.94368 0.183892,0.70763 0.806177,1.13321 1.371491,1.43195 0.326282,0.12482 0.543252,0.048 0.6282,-0.21616 l 0.865629,-0.43555 z"
       inkscape:connector-curvature="0"
       sodipodi:nodetypes="cccccccccccccccccccc" />
    <path
       style="opacity:0.82700004;fill:#000000;fill-opacity:1;stroke:none;stroke-width:1.47160769;stroke-miterlimit:4;stroke-dasharray:none;stroke-opacity:1;paint-order:stroke fill markers"
       id="path1833-1"
       d="m 79.680839,286.60954 c -0.01452,0.29338 -0.05325,0.58498 -0.116038,0.87104 -0.03397,0.17197 -0.08647,0.33196 -0.175163,0.48042 -0.09778,0.13121 -0.186864,0.26887 -0.275753,0.40691 -0.310121,0.50728 -0.23352,0.3121 -1.074058,0.69134 3.47e-4,-0.0342 -0.0026,-0.0687 0.0016,-0.10244 0.0082,-0.0668 0.05011,-0.21184 0.06706,-0.27039 0.05263,-0.18156 0.111132,-0.36127 0.168269,-0.54126 0.119471,-0.35626 0.239866,-0.71188 0.349255,-1.0718 0.06917,-0.19297 0.121593,-0.39149 0.178782,-0.58854 0.04978,-0.17754 0.142547,-0.33331 0.246074,-0.48046 0.338514,-0.46522 0.629828,-0.54124 1.199826,-0.89108 0.269237,-0.0774 0.550681,-0.091 0.828046,-0.10549 0.226368,-0.006 0.417599,0.0869 0.59668,0.22365 0.206718,0.15996 0.30767,0.41232 0.409964,0.652 0.128805,0.33421 0.260998,0.66742 0.361828,1.01249 0.100559,0.28983 0.146283,0.59158 0.153206,0.89897 0.0041,0.3806 -0.07024,0.75335 -0.171439,1.11636 -0.05978,0.19673 -0.03103,0.10186 -0.08624,0.28423 l -0.855454,0.42589 v 0 c 0.05918,-0.18431 0.02814,-0.0891 0.09323,-0.28589 0.10946,-0.35094 0.184216,-0.71477 0.18176,-1.08631 -0.0026,-0.29873 -0.04787,-0.59203 -0.140088,-0.8752 -0.09458,-0.34249 -0.225342,-0.67156 -0.356333,-0.99998 -0.09849,-0.22332 -0.195047,-0.45634 -0.393207,-0.60054 -0.169311,-0.12075 -0.348644,-0.18826 -0.55638,-0.17246 -0.271966,0.0151 -0.555174,0.0253 -0.807081,0.1453 1.524516,-0.94798 0.81195,-0.56302 0.601711,-0.35281 -0.06619,0.0664 -0.123439,0.14254 -0.184797,0.21348 -0.104991,0.136 -0.201875,0.27842 -0.257762,0.44579 -0.05859,0.20038 -0.114053,0.40188 -0.189905,0.59611 -0.113953,0.36023 -0.233065,0.71817 -0.355415,1.07533 -0.087,0.27904 -0.175845,0.55789 -0.241691,0.84359 -0.28406,0.15963 -0.567861,0.31977 -0.852173,0.47889 -0.01346,0.006 0.02852,-0.0131 0.03948,-0.024 0.06945,-0.0708 0.118085,-0.1668 0.169876,-0.2516 0.09221,-0.13542 0.170487,-0.28148 0.276146,-0.40634 0.09755,-0.13644 0.160011,-0.28115 0.192436,-0.45001 0.07679,-0.27894 0.1162,-0.56835 0.137356,-0.85764 0.07222,-1.58133 0.134295,-0.93855 -0.310087,-1.78716 l 0.829214,-0.5067 c 0.285242,1.04414 0.27337,0.14568 0.317276,1.84642 z"
       inkscape:connector-curvature="0"
       sodipodi:nodetypes="ccccccccccccccccccccccccccccccccccccccccccc" />
    <path
       style="opacity:0.82700004;fill:#000000;fill-opacity:1;stroke:none;stroke-width:1.47160769;stroke-miterlimit:4;stroke-dasharray:none;stroke-opacity:1;paint-order:stroke fill markers"
       id="path1803-3-2"
       d="m 88.809618,288.22218 c 0.04595,0.94641 -1.32105,1.37215 -1.875293,1.33369 -0.865155,0.0131 -1.713788,-0.87294 -1.828871,-1.64682 -0.0076,-0.34292 0.09393,-0.67279 0.204083,-0.99081 0.257746,-0.71597 0.612399,-1.38347 1.013749,-1.95301 0.411747,-0.61009 1.092327,-0.97862 1.61984,-1.29354 0.581716,0.10753 1.075953,0.83598 1.28313,1.30961 0.03685,0.13775 0.04172,0.28104 0.04481,0.42316 -0.230656,1.50244 -2.947302,2.43159 -3.207684,1.6355 0.626842,-0.65358 1.294889,-0.13615 1.95606,-0.38825 0.353479,-0.3682 0.417336,-0.71137 0.368173,-1.1837 -0.169803,-0.46119 -0.53326,-0.8003 -0.860247,-1.10374 0,0 0,0 -0.340046,0.20749 -0.22931,0.30834 -0.440078,0.63248 -0.615408,0.97885 -0.151105,0.30855 -0.285128,0.62617 -0.410433,0.94738 -0.109097,0.30354 -0.214839,0.61453 -0.217191,0.94368 0.183892,0.70763 0.806177,1.1332 1.371487,1.43197 0.326284,0.12482 0.543255,0.0479 0.628203,-0.21617 l 0.865626,-0.43556 z"
       inkscape:connector-curvature="0"
       sodipodi:nodetypes="cccccccccccccccccccc" />
    <path
       style="opacity:1;fill:#000000;fill-opacity:1;stroke:none;stroke-width:2.21157408;stroke-miterlimit:4;stroke-dasharray:none;stroke-opacity:0.98095236"
       id="path1041"
       d="m 84.017989,289.56968 c -0.113504,-0.16571 -0.193003,-0.35122 -0.261654,-0.5403 -0.09443,-0.28859 -0.1381,-0.59101 -0.187813,-0.89024 -0.04079,-0.3267 -0.09216,-0.65188 -0.13261,-0.97862 -0.0451,-0.29584 -0.06591,-0.59476 -0.08771,-0.89313 -0.03133,-0.32596 -0.05167,-0.65278 -0.07513,-0.97939 -0.01373,-0.18188 -0.02625,-0.364 -0.01724,-0.54649 0.005,-0.10273 0.01136,-0.14637 0.02267,-0.24786 0.04053,-0.27947 0.0962,-0.55633 0.14855,-0.83361 0.04484,-0.26748 0.10318,-0.53215 0.156065,-0.79798 0.04881,-0.23788 0.09897,-0.47542 0.154333,-0.71176 0.04219,-0.1729 0.08171,-0.34683 0.135097,-0.51651 0.03731,-0.1161 0.0944,-0.22168 0.168589,-0.31662 0.01011,-0.0116 0.02006,-0.0235 0.03086,-0.0344 0.01431,-0.0145 0.04886,-0.0459 0.06647,-0.0564 0.413116,-0.24713 0.584648,-0.41026 0.930459,-0.53155 0.06229,-0.0264 0.128921,-0.0347 0.194335,-0.0478 0.02852,-0.006 0.0566,-0.0131 0.08498,-0.0201 0.09469,-0.009 0.175445,0.0337 0.254372,0.0818 0.08089,0.0465 0.131693,0.1206 0.177064,0.20123 0.04607,0.0805 0.06842,0.12918 0.0645,0.2248 -0.01258,0.0854 -0.04138,0.14066 -0.101109,0.19971 -0.283246,0.16708 -0.564335,0.33811 -0.849735,0.50124 -0.01401,0.009 -0.03124,0.009 -0.04681,0.0116 -0.01738,0.003 -0.03466,0.009 -0.05206,0.0145 -0.06462,0.017 -0.129505,0.033 -0.194302,0.0494 -0.154958,0.0389 -0.31073,0.075 -0.462258,0.12685 -0.111931,0.0388 -0.228867,0.058 -0.344291,0.0821 -0.184905,0.0414 -0.371991,0.0716 -0.559045,0.1007 -0.248344,0.0337 -0.493026,0.0901 -0.736807,0.14847 -0.128104,0.0299 -0.253612,0.0744 -0.383935,0.0933 -0.09773,0.0243 -0.196692,0.0427 -0.295696,0.0603 -0.178746,0.0349 -0.357394,0.0695 -0.537208,0.0982 -0.04662,-4.3e-4 -0.163489,0.0353 -0.207365,0.0209 -0.01,-0.003 -0.02058,-0.009 -0.02553,-0.0186 -0.01583,-0.0305 -0.02312,-0.0651 -0.03465,-0.0979 0.283122,-0.16779 0.56442,-0.33889 0.849361,-0.50336 0.01259,-0.009 0.02801,-0.007 0.04188,-0.0116 0.01701,-0.004 0.03394,-0.0102 0.05088,-0.0156 0.06174,-0.0192 0.123502,-0.0381 0.184892,-0.0584 0.134911,-0.0512 0.276019,-0.0802 0.415792,-0.11319 0.175417,-0.0413 0.351696,-0.0776 0.529703,-0.10477 0.179938,-0.0349 0.36121,-0.0626 0.542558,-0.0885 0.162243,-0.0315 0.325833,-0.0517 0.489589,-0.0724 0.14475,-0.0182 0.290452,-0.0214 0.435496,-0.0359 0.209089,-0.0184 0.414176,-0.0619 0.619466,-0.10447 0.164966,-0.0421 0.332559,-0.0692 0.501752,-0.0838 0.228991,-0.0173 0.455888,-0.0514 0.682295,-0.0899 0.177285,-0.0245 0.349974,-0.0751 0.527567,-0.0968 0.05939,-0.006 0.118971,-0.0131 0.178718,-0.0145 0.01098,-3.1e-4 0.02201,-0.003 0.03283,-3.8e-4 0.01316,0.003 0.02569,0.009 0.03855,0.0116 0.07321,0.0217 0.130264,0.0727 0.191723,0.11566 0.04864,0.0353 0.104604,0.0575 0.153025,0.0928 0,0 -0.806269,0.53172 -0.806269,0.53172 v 0 c -0.05043,-0.0325 -0.102731,-0.062 -0.151474,-0.0973 -0.04908,-0.0381 -0.100148,-0.0735 -0.163712,-0.0772 -0.07499,0.004 -0.150319,0.004 -0.224912,0.0157 -0.164554,0.024 -0.328767,0.0504 -0.493368,0.0743 -0.235591,0.0391 -0.471379,0.077 -0.70865,0.10389 -0.162659,0.0218 -0.324833,0.0464 -0.48543,0.0815 -0.211323,0.0411 -0.42278,0.0823 -0.636713,0.10651 -0.145268,0.0145 -0.291304,0.0198 -0.436184,0.0388 -0.161386,0.019 -0.321794,0.0437 -0.482286,0.0697 -0.180366,0.0275 -0.36077,0.0549 -0.540195,0.0885 -0.178687,0.0314 -0.35595,0.0699 -0.531794,0.11538 -0.140272,0.0353 -0.279664,0.0731 -0.416055,0.12249 -0.08135,0.0263 -0.164043,0.0511 -0.243256,0.084 -0.01497,0.006 -0.02948,0.0131 -0.04424,0.0202 0.263505,-0.1593 0.527014,-0.31858 0.790522,-0.47786 -0.01836,-0.0265 -0.03709,-0.0529 -0.05513,-0.0798 -0.0021,-0.003 -0.0076,-0.009 -0.0049,-0.009 0.0069,-0.003 0.01549,-4.8e-4 0.0232,-7e-4 0.05169,-0.003 0.103255,-0.009 0.154688,-0.0151 0.180066,-0.025 0.357796,-0.0634 0.535232,-0.10331 0.103068,-0.0241 0.205555,-0.0522 0.310235,-0.0683 0.119395,-0.0257 0.238327,-0.0535 0.357987,-0.0777 0.2428,-0.0487 0.485472,-0.0978 0.729831,-0.13761 0.19489,-0.0365 0.389212,-0.0758 0.581823,-0.12365 0.11268,-0.0257 0.225794,-0.0503 0.336118,-0.0856 0.154242,-0.0429 0.309585,-0.0814 0.464042,-0.12337 0.06687,-0.0186 0.133954,-0.0368 0.199749,-0.0593 0.305433,-0.10418 0.735111,-0.49106 -0.680307,0.42512 0.06737,-0.0305 0.09982,-0.0565 0.131637,-0.12686 0.0041,-0.0116 0.01387,-0.0359 0.01329,-0.05 -0.0016,-0.0419 -0.03013,-0.0812 -0.0451,-0.11828 -0.03529,-0.0673 -0.08187,-0.11958 -0.148875,-0.15482 -0.07538,-0.0381 -0.133938,-0.0482 -0.216277,-0.0253 -0.09134,0.019 -0.182541,0.0382 -0.267681,0.0793 -0.293878,0.13514 -0.672702,0.39734 0.696045,-0.42463 0.01211,-0.009 -0.0248,0.0131 -0.03694,0.0202 -0.03901,0.0228 -0.03622,0.0222 -0.07332,0.05 -0.0869,0.0814 -0.148572,0.17351 -0.193218,0.28597 -0.06893,0.16633 -0.108947,0.34318 -0.158502,0.51628 -0.06049,0.23602 -0.112467,0.47417 -0.164989,0.7122 -0.05254,0.26766 -0.113553,0.53332 -0.164689,0.80126 -0.05083,0.27299 -0.100472,0.54642 -0.137843,0.82171 -0.01346,0.0963 -0.02163,0.14541 -0.02975,0.24283 -0.01505,0.18113 -0.0052,0.36267 0.0011,0.54398 0.01542,0.32686 0.03486,0.65369 0.07234,0.97878 0.02538,0.29679 0.0547,0.59328 0.08884,0.88913 0.03235,0.32655 0.08076,0.65105 0.126246,0.97585 0.05137,0.29128 0.09788,0.5858 0.195017,0.86542 0.06863,0.17355 0.144165,0.35584 0.286323,0.47962 0,0 -0.813815,0.51422 -0.813815,0.51422 z"
       inkscape:connector-curvature="0" />
    <path
       style="opacity:0.82700004;fill:#000000;fill-opacity:1;stroke:none;stroke-width:1.47160769;stroke-miterlimit:4;stroke-dasharray:none;stroke-opacity:1;paint-order:stroke fill markers"
       id="path1801-0"
       d="m 71.697222,287.39359 c -0.245628,0.79299 -0.770674,1.8502 -1.466985,2.14514 -1.076751,0.27533 -2.431205,-0.54818 -2.805785,-1.61355 -0.138927,-0.39014 -0.0556,-0.78421 0.02625,-1.14712 0.367482,-1.17295 1.505514,-2.61373 2.423612,-2.63898 0.146009,0.0218 0.294243,0.0439 0.436663,0.0854 1.201133,0.87024 1.704866,1.15264 1.583303,2.44302 -0.03792,0.0759 -0.151119,0.65547 -0.197066,0.72616 -0.331578,0.84788 -1.299135,2.26152 -1.274426,1.75388 0.0094,-0.1892 0.757813,-1.40803 0.893926,-1.95765 0.02399,-0.0853 0.02908,-0.35144 -0.04594,-0.46777 -0.239984,-0.37219 0.150425,-0.98247 0.145987,-1.42953 -0.01073,-0.79927 0.09578,-1.5847 -0.04848,-2.33831 -0.386658,-1.61191 -1.170974,-2.67197 -2.239495,-3.61602 l 0.636196,-0.75773 v 0 c 0.249131,0.21432 0.485422,0.45231 0.699347,0.67101 0.886388,1.03351 1.748504,2.42089 1.681987,3.82114 -0.408956,8.06437 -0.358352,1.74674 -3.291979,1.90857 -0.186198,0.0116 -1.018926,1.87438 -0.587429,2.67288 1.378017,2.158 3.311258,0.12526 2.011739,1.64614 0.119395,-0.13194 0.17467,-0.3012 0.241582,-0.46682 0.0254,-0.003 -0.610572,-0.0753 -0.549102,-0.0713 0.262093,0.017 0.436421,-0.04 0.636109,-0.14284 0.155226,-0.0796 0.819743,-0.97287 1.08999,-1.22564 z"
       inkscape:connector-curvature="0"
       sodipodi:nodetypes="ccccccccscscccccccccccsscc" />
    <path
       style="opacity:0.82700004;fill:#000000;fill-opacity:1;stroke:none;stroke-width:1.29679358;stroke-miterlimit:4;stroke-dasharray:none;stroke-opacity:1;paint-order:stroke fill markers"
       id="path1843-3-9"
       d="m 73.568395,288.73349 c -0.05039,0.45327 -0.189954,0.39266 -0.812199,0.63802 -0.03515,0.0145 -0.02796,-0.10767 -0.02664,-0.21646 0.184563,-1.32047 0.989967,-1.76472 0.745117,-0.39999 -0.01248,0.40072 -0.06382,0.15746 -0.730659,0.55849 -0.01098,0.006 0.02493,-0.009 0.03247,-0.0206 0.03247,-0.0459 0.03739,-0.11377 0.04705,-0.16601 0.214585,-2.63138 0.383694,-3.84996 -0.412178,-6.11687 l 1.405414,-0.19277 c 0.06488,0.66892 -0.15171,4.37197 -0.248374,5.91616 z"
       inkscape:connector-curvature="0"
       sodipodi:nodetypes="cccccccccc" />
    <path
       style="opacity:0.82700004;fill:#000000;fill-opacity:1;stroke:none;stroke-width:1.36806703;stroke-miterlimit:4;stroke-dasharray:none;stroke-opacity:1;paint-order:stroke fill markers"
       id="path1067-3"
       d="m 52.79812,288.93855 c -0.503403,-1.03057 -0.624649,-2.30832 0.05033,-3.16094 1.820609,-1.20935 2.822732,0.38523 2.500784,2.71057 -0.03303,0.10185 -0.04851,0.20758 -0.08758,0.30774 -0.0253,0.0645 -0.01211,0.0353 -0.03818,0.0879 l 0.794631,0.4474 v 0 c 0.02595,-0.059 0.01302,-0.028 0.03883,-0.0931 0.0423,-0.10098 0.06043,-0.20642 0.08891,-0.31163 0.04461,-0.12627 0.07888,-0.25619 0.104853,-0.38791 0.395509,-3.19564 -1.482044,-4.11689 -3.149283,-3.94255 -0.349451,0.0873 0.03943,-0.96758 -0.289906,-0.84266 -1.700347,0.64489 -1.349659,3.60348 -0.836244,4.8004 l 0.822891,0.38449 z"
       inkscape:connector-curvature="0"
       sodipodi:nodetypes="cccccccccccsccc" />
    <path
       style="opacity:0.82700004;fill:#000000;fill-opacity:1;stroke:none;stroke-width:2.20741963;stroke-miterlimit:4;stroke-dasharray:none;stroke-opacity:1;paint-order:stroke fill markers"
       id="path1843-3-9-6"
       d="m 50.272208,288.82233 c -0.08776,0.75416 -0.330793,0.65332 -1.414389,1.06158 -0.06121,0.0234 -0.04871,-0.179 -0.04639,-0.36016 0.321405,-2.19711 1.723954,-2.93628 1.297567,-0.66556 -0.02166,0.66676 -0.111144,0.26203 -1.272386,0.92928 -0.01919,0.009 0.04343,-0.0155 0.05655,-0.0343 0.05655,-0.0763 0.06512,-0.18945 0.08192,-0.27625 0.373679,-4.37831 0.668173,-6.40588 -0.717779,-10.17775 l 2.447421,-0.32074 c 0.112992,1.11303 -0.26419,7.27446 -0.432519,9.84382 z"
       inkscape:connector-curvature="0"
       sodipodi:nodetypes="cccccccccc" />
    <path
       style="opacity:0.82700004;fill:#000000;fill-opacity:1;stroke:none;stroke-width:1.6721406;stroke-miterlimit:4;stroke-dasharray:none;stroke-opacity:1;paint-order:stroke fill markers"
       id="path1067"
       d="m 21.462143,282.60061 c -0.567194,1.32628 -0.681615,2.95887 0.127074,4.03065 2.157696,1.50012 3.296656,-0.55718 2.869585,-3.51571 -0.04093,-0.12932 -0.06123,-0.26364 -0.109272,-0.39046 -0.03097,-0.0817 -0.01423,-0.0449 -0.04662,-0.1113 l 0.920723,-0.58921 v 0 c 0.03168,0.0747 0.01601,0.0353 0.04752,0.11784 0.05179,0.12773 0.07529,0.26184 0.110882,0.39539 0.05499,0.16001 0.09789,0.32493 0.131168,0.49236 0.531955,4.06689 -1.646477,5.28575 -3.602313,5.1023 -1.611753,-0.40503 -2.176098,-2.95658 -1.403825,-5.02196 l 0.955183,-0.50959 z"
       inkscape:connector-curvature="0"
       sodipodi:nodetypes="cccccccccccccc" />
    <path
       style="opacity:0.82700004;fill:#000000;fill-opacity:1;stroke:none;stroke-width:1.70860314;stroke-miterlimit:4;stroke-dasharray:none;stroke-opacity:1;paint-order:stroke fill markers"
       id="path1805"
       d="m 27.71932,283.41565 c 0.875047,0.91309 2.516757,1.48462 2.593738,2.53934 -0.08215,1.578 -1.380306,2.69308 -3.008007,2.87981 -2.831605,-0.29225 -1.105758,-1.48507 -0.485424,-1.00684 0.283891,0.15921 0.434238,0.30488 0.91367,0.34401 2.26629,-0.90541 1.736287,-2.77802 -0.0554,-3.4343 -0.791368,-0.47838 -1.206727,-0.89424 -1.124773,-1.70747 0.360416,-1.41805 1.50993,-1.65968 3.540501,-1.79538 0.689221,0.74443 -2.696733,0.91772 -2.374298,2.18083 z"
       inkscape:connector-curvature="0"
       sodipodi:nodetypes="cccccccccc" />
    <path
       style="opacity:0.82700004;fill:#000000;fill-opacity:1;stroke:none;stroke-width:1.85449207;stroke-miterlimit:4;stroke-dasharray:none;stroke-opacity:1;paint-order:stroke fill markers"
       id="path1837-5"
       d="m 33.568556,287.70208 c 0.213617,0.0584 0.418518,0.16598 0.640094,0.17875 0.221019,-0.0155 0.408663,-0.14312 0.593937,-0.26191 l -0.924111,0.81204 v 0 c -0.196806,0.11885 -0.407824,0.21476 -0.638002,0.19467 -2.268632,-0.53899 -2.642757,-1.26109 -2.23413,-3.77237 0.703036,-2.45818 1.504865,-2.71082 3.710319,-2.70834 -0.131936,0.1129 -0.257309,0.22765 -0.384418,0.33236 -2.572348,2.11923 -3.691243,3.60653 -0.763689,5.2248 z"
       inkscape:connector-curvature="0"
       sodipodi:nodetypes="ccccccccsc" />
    <path
       style="opacity:1;fill:#000000;fill-opacity:1;stroke:none;stroke-width:1.16367924;stroke-miterlimit:4;stroke-dasharray:none;stroke-opacity:0.98095236"
       id="path961"
       d="m 12.939444,290.24556 c -0.07734,-0.77016 -0.204281,-1.53215 -0.34622,-2.29145 -0.177245,-0.9942 -0.44176,-1.96615 -0.682216,-2.94409 -0.206838,-0.77638 -0.32654,-1.57345 -0.396579,-2.37548 -0.05768,-0.52603 -0.111993,-1.05237 -0.148148,-1.58059 -0.03996,-0.31512 -7.17e-4,-0.62523 0.04182,-0.93663 0.01465,-0.25013 0.09432,-0.48051 0.192681,-0.70534 0.173448,-0.28856 0.415708,-0.52641 0.650159,-0.75926 0.689239,-0.6375 1.497852,-1.12449 2.331001,-1.5221 0.247712,-0.0949 0.514185,-0.14576 0.77583,-0.10564 0.282859,0.0405 0.534695,0.17598 0.767376,0.34458 0.270736,0.21425 0.510525,0.46791 0.750618,0.71874 0.248643,0.26222 0.495636,0.52621 0.743196,0.78959 0.24031,0.30508 0.497392,0.59551 0.733124,0.90447 0.207709,0.24532 0.334364,0.53093 0.40228,0.84926 0.04496,0.26524 0.04398,0.53564 0.04447,0.80416 -0.0056,0.28837 -0.09738,0.55792 -0.200012,0.82108 -0.107912,0.28319 -0.314033,0.49962 -0.511297,0.7148 -0.240255,0.25258 -0.477146,0.50904 -0.724443,0.75397 -0.231295,0.22154 -0.485328,0.41262 -0.739421,0.60307 -0.254266,0.17663 -0.49856,0.36866 -0.745425,0.55657 -0.716266,0.53152 -1.452474,1.17158 -2.342276,1.24692 -0.213739,0.0131 -0.427932,0.0148 -0.641949,0.0203 1.851778,-1.53097 0.991356,-0.99946 2.128874,-1.19882 0.270041,-0.0494 0.543433,-0.0683 0.816885,-0.0785 0.311775,0.003 0.626013,-0.0257 0.935549,0.0189 0.282163,0.0246 0.541148,0.12307 0.789937,0.26138 0.283523,0.16954 0.507068,0.42327 0.782863,0.60403 0.218002,0.15838 0.417759,0.3358 0.60262,0.53555 0.181001,0.2381 0.357592,0.47949 0.525606,0.72799 0.156859,0.24689 0.253355,0.53048 0.335387,0.81335 0.06779,0.26736 0.0955,0.5443 0.08498,0.82043 -0.01417,0.29298 -0.108286,0.5589 -0.224672,0.82097 -0.113629,0.25248 -0.239975,0.49732 -0.377783,0.73575 -0.138729,0.24063 -0.359706,0.39639 -0.572166,0.55604 -0.711303,0.48972 0.57048,-0.38977 -1.806007,1.11856 -0.47701,0.30277 1.934891,-1.16179 1.445013,-0.88305 -1.841413,1.04774 -1.11895,0.72977 -1.944828,1.13526 -0.237669,0.12583 -0.506765,0.11769 -0.757441,0.18692 -0.248136,0.061 -0.50312,0.1158 -0.757375,0.0802 -0.396509,-0.0517 -0.763635,-0.23711 -1.124494,-0.40841 -0.4934,-0.21181 -0.967583,-0.45924 -1.426875,-0.74306 -0.195195,-0.1466 -0.101545,-0.0774 -0.280683,-0.20793 0,0 1.544096,-1.04099 1.544096,-1.04099 v 0 c 0.170233,0.13136 0.0822,0.0644 0.26426,0.20106 0.448248,0.28913 0.922034,0.5201 1.409572,0.72597 0.353682,0.15857 0.714774,0.325 1.104645,0.33862 0.246895,-0.0102 0.488487,-0.0612 0.728761,-0.12046 0.252118,-0.0433 0.50215,-0.0936 0.731924,-0.21893 0.0823,-0.0381 0.321932,-0.1677 0.244538,-0.11959 -0.480401,0.2991 -1.93053,1.18008 -1.446344,0.88791 5.654336,-3.41177 -1.026228,0.59007 0.363382,-0.22666 0.214654,-0.13498 0.424856,-0.2894 0.599539,-0.47883 0.145793,-0.23002 0.278029,-0.46749 0.387838,-0.71936 0.123502,-0.23757 0.230261,-0.47898 0.252285,-0.75307 0.03586,-0.25102 -0.003,-0.50884 -0.05204,-0.75562 -0.07091,-0.26369 -0.15983,-0.52824 -0.3021,-0.75861 -0.163017,-0.23963 -0.334148,-0.47264 -0.513218,-0.69913 -0.179141,-0.18603 -0.372557,-0.35323 -0.57936,-0.50404 -0.259875,-0.19044 -0.486489,-0.43118 -0.771314,-0.58218 -0.240004,-0.11275 -0.487585,-0.18871 -0.751322,-0.2056 -0.307715,-0.0172 -0.616255,-0.006 -0.924027,0.006 -0.26949,0.0161 -0.537779,0.0453 -0.804135,0.0926 -0.137821,0.0187 -0.271812,0.0276 -0.410677,0.0299 -0.736185,0.0131 -0.570008,0.16848 1.249257,-1.14689 0.202791,0.015 0.407865,-0.009 0.609288,-0.0304 0.129032,-0.0257 0.250757,-0.0543 0.371167,-0.11202 0.04013,-0.0192 0.155583,-0.0876 0.117623,-0.0639 -1.711381,1.06842 -1.891961,1.19118 -1.31587,0.80641 0.242013,-0.19586 0.493716,-0.37778 0.741004,-0.56578 0.263425,-0.17252 0.511041,-0.37331 0.750975,-0.58029 0.261266,-0.22499 0.484397,-0.49473 0.728528,-0.73993 0.190657,-0.20208 0.393051,-0.39978 0.535986,-0.64424 0.09497,-0.24485 0.204616,-0.48455 0.229656,-0.75204 9.03e-4,-0.25656 0.005,-0.51446 -0.02668,-0.76943 -0.05043,-0.2931 -0.162126,-0.54965 -0.352381,-0.77338 -0.230232,-0.30489 -0.480702,-0.59287 -0.722875,-0.88706 -0.247079,-0.26296 -0.493514,-0.52659 -0.742416,-0.7876 -0.23292,-0.24133 -0.465654,-0.48671 -0.734872,-0.68316 -0.219829,-0.14211 -0.456674,-0.24811 -0.717796,-0.25951 -0.248999,0.009 -0.493236,0.061 -0.715795,0.18459 -0.627286,0.36232 0.06163,-0.0343 1.317655,-0.81177 0.04269,-0.0264 -0.08919,0.0456 -0.131612,0.0725 -0.142925,0.0905 -0.261799,0.21326 -0.393217,0.32023 -0.240955,0.20869 -0.454731,0.45129 -0.66331,0.69553 -0.124651,0.1851 -0.202586,0.41464 -0.225531,0.64023 -0.04039,0.30194 -0.104853,0.60004 -0.06869,0.90714 0.02359,0.53068 0.0699,1.05932 0.127542,1.587 0.05468,0.79617 0.158327,1.58806 0.363629,2.35807 0.231944,0.98378 0.493512,1.96007 0.680801,2.95533 0.14904,0.75411 0.276497,1.51215 0.408029,2.26946 0,0 -1.626376,0.90894 -1.626376,0.90894 z"
       inkscape:connector-curvature="0" />
  </g>
  <g
     inkscape:groupmode="layer"
     id="layer2"
     inkscape:label="Capa 2"
     transform="translate(0,-15)" />
</svg>
