<?xml version="1.0" encoding="UTF-8" standalone="no"?>
<!-- Created with Inkscape (http://www.inkscape.org/) -->

<svg
   xmlns:dc="http://purl.org/dc/elements/1.1/"
   xmlns:cc="http://creativecommons.org/ns#"
   xmlns:rdf="http://www.w3.org/1999/02/22-rdf-syntax-ns#"
   xmlns:svg="http://www.w3.org/2000/svg"
   xmlns="http://www.w3.org/2000/svg"
   xmlns:sodipodi="http://sodipodi.sourceforge.net/DTD/sodipodi-0.dtd"
   xmlns:inkscape="http://www.inkscape.org/namespaces/inkscape"
   width="100mm"
   height="25mm"
   viewBox="0 0 100 25"
   version="1.1"
   id="svg8"
   sodipodi:docname="crearRecetaBoton.svg"
   inkscape:version="0.92.3 (2405546, 2018-03-11)">
  <defs
     id="defs2" />
  <sodipodi:namedview
     id="base"
     pagecolor="#ffffff"
     bordercolor="#666666"
     borderopacity="1.0"
     inkscape:pageopacity="0.0"
     inkscape:pageshadow="2"
     inkscape:zoom="1.979899"
     inkscape:cx="277.19225"
     inkscape:cy="138.50547"
     inkscape:document-units="mm"
     inkscape:current-layer="layer2"
     showgrid="false"
     inkscape:window-width="1920"
     inkscape:window-height="992"
     inkscape:window-x="0"
     inkscape:window-y="0"
     inkscape:window-maximized="1" />
  <metadata
     id="metadata5">
    <rdf:RDF>
      <cc:Work
         rdf:about="">
        <dc:format>image/svg+xml</dc:format>
        <dc:type
           rdf:resource="http://purl.org/dc/dcmitype/StillImage" />
        <dc:title />
      </cc:Work>
    </rdf:RDF>
  </metadata>
  <g
     inkscape:label="Capa 1"
     inkscape:groupmode="layer"
     id="layer1"
     transform="translate(0,-272)">
    <rect
       style="opacity:0.18500001;fill:#03a9f4;fill-opacity:1;stroke:none;stroke-width:1.37324393;stroke-miterlimit:4;stroke-dasharray:none;stroke-opacity:0.98095236"
       id="rect1379"
       width="100.0692"
       height="25.365648"
       x="-0.15119052"
       y="271.63434"
       ry="0.11964935" />
  </g>
  <g
     inkscape:groupmode="layer"
     id="layer2"
     inkscape:label="Capa 2"
     transform="translate(0,-15)">
    <path
       style="opacity:0.82700004;fill:#000000;fill-opacity:1;stroke:none;stroke-width:2.26941538;stroke-miterlimit:4;stroke-dasharray:none;stroke-opacity:1;paint-order:stroke fill markers"
       id="path1835-6-6-09"
       d="m 31.697596,26.25161 c 1.27299,-0.581714 2.476452,-0.524619 3.647184,0.08794 0.880494,0.640242 1.23275,1.633659 1.303963,2.514849 0.01903,0.381818 -0.110981,0.748567 -0.252842,1.108833 -0.29468,0.693933 -0.499411,1.404915 -0.90228,2.006859 -0.647211,0.897643 -2.198635,1.571964 -3.082119,1.329015 -1.522399,-0.737782 -1.717177,-1.918974 -0.638191,-2.936309 1.037953,-0.893151 1.78045,-1.051582 3.075628,-1.441734 0.257697,-0.106033 0.461976,-0.0707 0.727604,-0.02256 0.206522,0.0504 0.405869,0.114814 0.615128,0.1585 L 35.5968,29.78168 v 0 c -0.204357,-0.04972 -0.668077,-0.162087 -0.877543,-0.197414 -0.525874,-0.04658 -0.753959,-0.105397 -0.934627,0.0078 -0.3842,0.134876 -0.778736,0.25102 -1.155073,0.399929 2.268555,-1.059984 0.953766,-0.485584 0.707974,-0.313585 -0.114067,0.07972 -0.206465,0.179002 -0.314713,0.263314 -0.941237,0.772286 -0.939462,1.472759 -0.228645,2.311688 0.228792,0.17 0.465888,0.336391 0.747911,0.448885 0.266903,0.08971 0.54866,0.147429 0.829908,0.05942 -0.657782,0.208731 -1.330516,0.787796 -0.598304,0.172511 0.18357,-0.161441 0.354521,-0.33144 0.482133,-0.525335 0.216574,-0.286141 0.368396,-0.595746 0.489772,-0.915272 0.148574,-0.357619 0.306947,-0.712593 0.436061,-1.075085 0.139267,-0.347656 0.280238,-0.700138 0.265922,-1.069818 -0.02216,-0.272325 -0.06255,-0.5422 -0.161823,-0.804583 -0.256715,-1.219267 -1.850409,-2.546254 -3.445894,-2.039274 -0.412892,0.124838 -0.818987,0.264757 -1.211189,0.426696 l 1.068926,-0.680787 z"
       inkscape:connector-curvature="0"
       sodipodi:nodetypes="cccccccccccccccccccccccccccccc" />
    <path
       style="opacity:1;fill:#000000;fill-opacity:1;stroke:none;stroke-width:3.21862483;stroke-miterlimit:4;stroke-dasharray:none;stroke-opacity:0.98095236"
       id="path1041-3"
       d="m 79.358826,34.861061 c -0.157719,-0.25265 -0.268149,-0.535459 -0.363528,-0.823713 -0.131195,-0.439939 -0.191868,-0.900983 -0.260936,-1.35715 -0.05666,-0.498064 -0.128039,-0.993816 -0.184239,-1.491942 -0.06263,-0.45099 -0.09156,-0.906706 -0.121858,-1.361574 -0.04348,-0.49691 -0.07171,-0.995195 -0.104396,-1.493052 -0.01905,-0.277292 -0.03649,-0.554936 -0.02393,-0.833157 0.007,-0.156683 0.0157,-0.223147 0.03152,-0.37787 0.05635,-0.426027 0.133671,-0.84812 0.206389,-1.270855 0.06234,-0.407762 0.143348,-0.811234 0.216823,-1.216494 0.06782,-0.362639 0.137506,-0.724801 0.214419,-1.085099 0.05865,-0.2636 0.113539,-0.528734 0.187708,-0.787428 0.05187,-0.177095 0.131163,-0.337936 0.234227,-0.482685 0.01408,-0.01744 0.02793,-0.03591 0.04288,-0.05246 0.01995,-0.02194 0.06782,-0.06993 0.09236,-0.08608 0.573959,-0.376704 0.812285,-0.62542 1.292726,-0.810357 0.08658,-0.04039 0.179122,-0.05297 0.270013,-0.07292 0.0396,-0.0079 0.0786,-0.02055 0.118054,-0.03052 0.131551,-0.01295 0.243742,0.05127 0.353406,0.124721 0.112358,0.07072 0.18297,0.183958 0.246006,0.306746 0.06403,0.122893 0.09504,0.196996 0.08967,0.342713 -0.01756,0.130127 -0.05755,0.214469 -0.140467,0.304454 -0.39352,0.25471 -0.784057,0.515459 -1.180579,0.764158 -0.01945,0.0123 -0.04339,0.01165 -0.06502,0.01715 -0.02414,0.006 -0.04806,0.01424 -0.0724,0.02115 -0.08986,0.02583 -0.179928,0.05038 -0.269963,0.0752 -0.215286,0.05944 -0.431709,0.114445 -0.642228,0.193355 -0.155517,0.05915 -0.317968,0.08837 -0.478327,0.125077 -0.256909,0.06315 -0.516837,0.109202 -0.776716,0.153398 -0.345028,0.05157 -0.684977,0.137393 -1.023671,0.226347 -0.177994,0.04547 -0.352356,0.11349 -0.533433,0.142167 -0.135759,0.03701 -0.273265,0.06502 -0.410824,0.09216 -0.24833,0.05326 -0.49653,0.10595 -0.746356,0.149643 -0.06473,0 -0.227144,0.05376 -0.288086,0.03201 -0.01392,-0.006 -0.02863,-0.01392 -0.03541,-0.02822 -0.02204,-0.04667 -0.03212,-0.09954 -0.04806,-0.149222 0.393349,-0.25581 0.784157,-0.516646 1.180039,-0.767371 0.01756,-0.01165 0.03889,-0.01052 0.05824,-0.01685 0.02364,-0.007 0.04708,-0.01586 0.07072,-0.02374 0.08577,-0.02932 0.17158,-0.05795 0.256867,-0.08897 0.187449,-0.078 0.383486,-0.122181 0.577677,-0.172688 0.243723,-0.06284 0.488641,-0.11828 0.735944,-0.159628 0.249985,-0.05326 0.501846,-0.09545 0.753805,-0.134981 0.22541,-0.04806 0.452685,-0.07891 0.6802,-0.110254 0.201103,-0.02753 0.403543,-0.03253 0.605054,-0.05455 0.290491,-0.02803 0.575435,-0.09444 0.860647,-0.159547 0.229212,-0.06404 0.462051,-0.105464 0.697126,-0.127829 0.318128,-0.02643 0.633382,-0.07829 0.947939,-0.13702 0.246303,-0.0374 0.486226,-0.114559 0.732949,-0.14741 0.08258,-0.0089 0.165297,-0.01895 0.24831,-0.02164 0.01537,0 0.03062,-0.0029 0.04559,0 0.01835,0.0029 0.03571,0.01181 0.05356,0.01766 0.101726,0.03282 0.180977,0.110593 0.266374,0.176228 0.06763,0.05376 0.145322,0.08747 0.212612,0.14152 l -1.120186,0.810607 v 0 c -0.07002,-0.04957 -0.142734,-0.09456 -0.210449,-0.148284 -0.06823,-0.05824 -0.139141,-0.112034 -0.227456,-0.117698 -0.104185,0.007 -0.208842,0.007 -0.31248,0.02374 -0.228622,0.03651 -0.456766,0.077 -0.685446,0.113037 -0.327324,0.05955 -0.654916,0.117375 -0.984571,0.158139 -0.225989,0.03332 -0.451299,0.07082 -0.674435,0.124188 -0.293602,0.06274 -0.587392,0.125595 -0.884614,0.162486 -0.201822,0.02214 -0.40471,0.03013 -0.606003,0.05915 -0.224233,0.02894 -0.447089,0.06682 -0.670066,0.106193 -0.250593,0.04188 -0.501228,0.08378 -0.750514,0.1349 -0.24825,0.04768 -0.494536,0.106646 -0.738846,0.17581 -0.194889,0.05376 -0.388552,0.111629 -0.578037,0.186731 -0.113021,0.04 -0.227914,0.07789 -0.337965,0.127829 -0.02084,0.0089 -0.04089,0.02055 -0.06143,0.03092 0.366101,-0.242832 0.732213,-0.485666 1.098304,-0.728502 -0.02554,-0.04039 -0.05157,-0.08069 -0.07659,-0.121679 -0.0029,-0.0049 -0.01068,-0.01165 -0.007,-0.01392 0.0089,-0.006 0.02154,0 0.03222,0 0.0719,-0.006 0.143446,-0.01343 0.214908,-0.02295 0.250184,-0.038 0.497119,-0.09655 0.743643,-0.157443 0.143186,-0.0368 0.285571,-0.07949 0.431012,-0.103943 0.165884,-0.0391 0.331111,-0.08148 0.497366,-0.118653 0.337328,-0.07412 0.674484,-0.149223 1.013985,-0.209841 0.270761,-0.05565 0.540745,-0.115626 0.808344,-0.188605 0.156554,-0.0394 0.313698,-0.0765 0.466998,-0.130515 0.214288,-0.06533 0.430114,-0.123961 0.644701,-0.188047 0.09295,-0.02853 0.186113,-0.05606 0.277524,-0.09036 0.424349,-0.159046 1.021315,-0.74861 -0.945175,0.648122 0.09365,-0.04667 0.138687,-0.08617 0.182881,-0.193431 0.006,-0.01796 0.01935,-0.05457 0.01856,-0.07609 -0.0019,-0.06383 -0.04188,-0.123735 -0.06263,-0.18021 -0.04897,-0.102713 -0.11375,-0.182242 -0.206839,-0.236021 -0.104735,-0.05795 -0.186074,-0.07362 -0.300474,-0.0384 -0.12689,0.02882 -0.253617,0.05836 -0.371907,0.120757 -0.4083,0.205892 -0.934611,0.605685 0.967049,-0.647374 0.01696,-0.01165 -0.03452,0.02005 -0.05136,0.03092 -0.05416,0.0345 -0.05038,0.03392 -0.101872,0.076 -0.120756,0.123945 -0.206429,0.264497 -0.268446,0.435948 -0.09575,0.253596 -0.151359,0.52314 -0.220214,0.787059 -0.08399,0.359839 -0.156246,0.722877 -0.229229,1.085757 -0.073,0.408031 -0.157751,0.813052 -0.22881,1.221532 -0.07062,0.41616 -0.139578,0.832999 -0.191499,1.25272 -0.01864,0.146779 -0.03002,0.221651 -0.0414,0.37019 -0.02094,0.276108 -0.007,0.552882 0.0019,0.82928 0.02144,0.498284 0.04847,0.99657 0.10048,1.492152 0.03521,0.452445 0.07599,0.904441 0.123443,1.355491 0.04499,0.497776 0.112228,0.99252 0.175411,1.487684 0.07142,0.444057 0.135969,0.893013 0.270931,1.319335 0.09535,0.264576 0.200306,0.542478 0.397818,0.731197 l -1.13068,0.783916 z"
       inkscape:connector-curvature="0"
       sodipodi:nodetypes="ccccccccccccccccccccccccccccccccccccccccccccccccccccccccccccccccccccccccccccccccccccccccccccccccccccccccccc" />
    <path
       style="opacity:0.82700004;fill:#000000;fill-opacity:1;stroke:none;stroke-width:2.29315877;stroke-miterlimit:4;stroke-dasharray:none;stroke-opacity:1;paint-order:stroke fill markers"
       id="path1837-6"
       d="m 69.855598,33.412003 c 0.271878,0.07011 0.532665,0.199419 0.814678,0.214759 0.281303,-0.01877 0.520117,-0.172039 0.755929,-0.314669 l -1.17616,0.975559 v 0 c -0.250484,0.142765 -0.51906,0.258005 -0.812024,0.233886 -2.887388,-0.647544 -3.363562,-1.515031 -2.843484,-4.531983 0.894798,-2.953198 1.915326,-3.256722 4.722304,-3.253711 -0.167918,0.135548 -0.327491,0.273444 -0.489267,0.399263 -3.273938,2.545955 -4.69802,4.332746 -0.971976,6.276896 z"
       inkscape:connector-curvature="0"
       sodipodi:nodetypes="ccccccccsc" />
    <path
       style="opacity:0.82700004;fill:#000000;fill-opacity:1;stroke:none;stroke-width:2.29315877;stroke-miterlimit:4;stroke-dasharray:none;stroke-opacity:1;paint-order:stroke fill markers"
       id="path1803-3-0"
       d="m 65.510208,32.455325 c 0.07281,1.450515 -2.092988,2.102985 -2.97109,2.044058 -1.370691,0.02084 -2.71521,-1.337905 -2.897543,-2.52397 -0.0123,-0.525564 0.148818,-1.0311 0.323333,-1.518565 0.408362,-1.097317 0.97025,-2.120327 1.606115,-2.993232 0.652352,-0.935022 1.730609,-1.499852 2.56637,-1.98254 0.921637,0.164849 1.704668,1.281277 2.032897,2.007196 0.05836,0.211007 0.06612,0.430723 0.07101,0.648512 -0.365433,2.3027 -4.669504,3.726771 -5.082034,2.506635 0.993121,-1.001706 2.051539,-0.208683 3.099046,-0.59502 0.560024,-0.564343 0.661209,-1.090305 0.583324,-1.814191 -0.269037,-0.706857 -0.844868,-1.226568 -1.362922,-1.691679 l -0.53875,0.318047 c -0.363297,0.472572 -0.697224,0.969351 -0.975018,1.50025 -0.239401,0.472842 -0.451735,0.959669 -0.650256,1.451971 -0.172828,0.465211 -0.34038,0.941852 -0.3441,1.446281 0.291337,1.084572 1.277246,1.736812 2.172892,2.194685 0.516945,0.191298 0.860696,0.0736 0.995274,-0.331315 l 1.371448,-0.667542 z"
       inkscape:connector-curvature="0"
       sodipodi:nodetypes="cccccccccccccccccccc" />
    <path
       style="opacity:0.82700004;fill:#000000;fill-opacity:1;stroke:none;stroke-width:2.29315877;stroke-miterlimit:4;stroke-dasharray:none;stroke-opacity:1;paint-order:stroke fill markers"
       id="path1803-3-7-62"
       d="m 76.734667,32.876296 c 0.06035,1.349837 -1.735856,1.957084 -2.464138,1.902269 -1.136813,0.02084 -2.251915,-1.24509 -2.403137,-2.34888 -0.01003,-0.48912 -0.01052,-1.76847 0.134399,-2.22215 0.338683,-1.021166 0.323093,-1.068323 0.850463,-1.880656 0.541033,-0.870132 1.274782,-1.834528 2.770604,-1.927213 0.804065,0.02812 1.936062,1.715566 1.718172,2.457714 -0.303086,2.142909 -3.87275,3.468147 -4.214892,2.332731 0.823672,-0.932258 1.527568,-0.646725 2.396354,-1.006194 1.161598,-0.346413 1.301283,-2.247625 -0.165765,-2.57045 -1.445816,0.09616 -1.701256,1.741081 -2.101678,2.803618 -0.143332,0.432916 -0.282301,0.876525 -0.285393,1.345988 0.241628,1.009277 0.149611,1.122698 0.892433,1.548863 0.478697,0.233518 0.999524,0.900454 1.735166,0.185254 0.726758,-0.972234 0.789484,-0.797881 1.137433,-0.621234 z"
       inkscape:connector-curvature="0"
       sodipodi:nodetypes="cccccccccccccccc" />
    <path
       style="opacity:1;fill:#000000;fill-opacity:1;stroke:none;stroke-width:1.30903065;stroke-miterlimit:4;stroke-dasharray:none;stroke-opacity:0.98095236"
       id="path961-3-6"
       d="m 50.753755,30.848418 c -0.02254,-1.105554 -0.148818,-2.203849 -0.246496,-3.303988 -0.09575,-0.876435 -0.08826,-1.758497 -0.02324,-2.636367 0.02923,-0.577997 0.06243,-1.155734 0.116728,-1.732006 0.01133,-0.347299 0.112163,-0.674024 0.217151,-1.001517 0.06203,-0.266803 0.194609,-0.499841 0.347599,-0.723337 0.250245,-0.277771 0.569899,-0.487723 0.879727,-0.693743 0.902337,-0.555067 1.913759,-0.924998 2.937029,-1.193903 0.300015,-0.05476 0.613505,-0.05865 0.905011,0.03481 0.315644,0.09794 0.578735,0.292105 0.813929,0.518394 0.270393,0.28284 0.498325,0.602173 0.727105,0.918554 0.236492,0.330285 0.470779,0.662156 0.705824,0.993479 0.219225,0.374858 0.460243,0.737161 0.673535,1.11534 0.192816,0.304215 0.285782,0.636325 0.30576,0.992439 0.0029,0.294511 -0.04667,0.585769 -0.09465,0.87528 -0.05865,0.309739 -0.212104,0.582675 -0.376912,0.846653 -0.174442,0.284556 -0.448954,0.478328 -0.713122,0.67245 -0.320033,0.226237 -0.636924,0.457272 -0.963598,0.673846 -0.304184,0.19446 -0.628824,0.351748 -0.953414,0.508308 -0.322286,0.141665 -0.635975,0.30184 -0.951847,0.457064 -0.914027,0.435659 -1.870463,0.984421 -2.900128,0.895124 -0.246543,-0.02612 -0.491332,-0.06593 -0.73671,-0.101046 2.391418,-1.295318 1.312792,-0.887316 2.647747,-0.884224 0.317269,-0.0029 0.632873,0.03062 0.946991,0.0718 0.35532,0.06382 0.719466,0.09236 1.064882,0.199577 0.317717,0.08069 0.595671,0.236261 0.854732,0.433075 0.293083,0.23708 0.502445,0.553381 0.784674,0.801073 0.220295,0.212462 0.416301,0.441962 0.591264,0.692696 0.16361,0.291307 0.321596,0.585307 0.468493,0.885381 0.134464,0.296134 0.193352,0.620307 0.235862,0.940908 0.02902,0.301181 0.01068,0.604977 -0.05136,0.90058 -0.06912,0.313061 -0.224742,0.581647 -0.40504,0.841818 -0.356029,0.618221 -1.738,0.250014 -1.627679,-0.222091 0.08638,-0.26371 0.08876,-0.549001 0.07731,-0.824399 -0.03332,-0.297802 -0.08697,-0.599981 -0.207746,-0.875567 -0.142798,-0.289512 -0.296074,-0.57344 -0.459586,-0.851873 -0.170903,-0.234864 -0.361525,-0.452124 -0.570386,-0.654294 -0.262304,-0.255052 -0.47752,-0.557951 -0.775441,-0.775292 -0.253665,-0.167511 -0.522631,-0.29682 -0.82073,-0.365591 -0.348259,-0.0775 -0.702592,-0.124657 -1.056233,-0.170474 -0.310638,-0.03432 -0.622283,-0.05405 -0.934984,-0.05426 -0.16076,-0.006 -0.315354,-0.02243 -0.474348,-0.04648 -0.842871,-0.127764 -0.681355,0.0724 1.633942,-0.996781 0.228841,0.05505 0.467387,0.06832 0.701205,0.08407 0.152022,-0.0031 0.296165,-0.01052 0.444096,-0.04967 0.04926,-0.01295 0.193493,-0.06454 0.145873,-0.04627 -2.147427,0.823633 -2.375839,0.921328 -1.648415,0.617015 0.311775,-0.164729 0.632087,-0.312563 0.948469,-0.467836 0.33201,-0.135484 0.651075,-0.304453 0.962479,-0.481548 0.339032,-0.192426 0.642607,-0.440437 0.965721,-0.65791 0.254264,-0.181263 0.521136,-0.355596 0.728562,-0.5917 0.152718,-0.245705 0.321289,-0.483053 0.398268,-0.766551 0.04746,-0.276377 0.09863,-0.55357 0.1087,-0.834428 -0.005,-0.325595 -0.08567,-0.623506 -0.262493,-0.901119 -0.207744,-0.372724 -0.441662,-0.731115 -0.664978,-1.094624 -0.234576,-0.330765 -0.468294,-0.662136 -0.705294,-0.991154 -0.222317,-0.304742 -0.443686,-0.613814 -0.715575,-0.877153 -0.2253,-0.195329 -0.476583,-0.354932 -0.772687,-0.417267 -0.286002,-0.0378 -0.574256,-0.02872 -0.850743,0.06174 -0.781813,0.270303 0.0765,-0.02503 1.651426,-0.62247 0.05356,-0.02034 -0.110076,0.03211 -0.163392,0.05285 -0.17959,0.07022 -0.337516,0.179719 -0.506923,0.269835 -0.31289,0.178732 -0.600876,0.399263 -0.883227,0.622548 -0.175809,0.175622 -0.306328,0.408112 -0.373322,0.646829 -0.100738,0.317696 -0.228272,0.626668 -0.242515,0.964603 -0.06902,0.576501 -0.111775,1.155166 -0.141406,1.734988 -0.08159,0.868606 -0.106451,1.741979 -0.01133,2.611242 0.08687,1.104808 0.209004,2.207222 0.242844,3.315858 0.03381,0.841347 0.08936,3.190774 0.102567,4.032223 -3.048099,1.119937 -1.972216,-0.651896 -2.049563,-3.375842 z"
       inkscape:connector-curvature="0"
       sodipodi:nodetypes="ccccccccccccccccccccccccccccccccccccccccccccccccccccccccccccccccccccccc" />
    <path
       style="opacity:0.82700004;fill:#000000;fill-opacity:1;stroke:none;stroke-width:2.30849338;stroke-miterlimit:4;stroke-dasharray:none;stroke-opacity:1;paint-order:stroke fill markers"
       id="path1835-6-6-0-1"
       d="m 81.823243,27.200586 c 1.294899,-0.591729 2.519084,-0.533652 3.709977,0.08946 0.895663,0.651255 1.253975,1.66178 1.326426,2.558143 0.01936,0.388423 -0.112892,0.761467 -0.257208,1.127956 -0.299754,0.705861 -0.508009,1.429086 -0.917805,2.041393 -0.658367,0.913091 -2.236496,1.599036 -3.135192,1.351892 -1.548614,-0.750485 -1.746746,-1.952009 -0.64919,-2.986839 1.055826,-0.908551 1.811119,-1.069709 3.128598,-1.46658 0.262134,-0.107826 0.469919,-0.0719 0.740133,-0.02295 0.21008,0.05127 0.412848,0.116808 0.625711,0.16123 l -0.605115,0.737159 v 0 c -0.207876,-0.05057 -0.679582,-0.164878 -0.892644,-0.200795 -0.534929,-0.04738 -0.766942,-0.10726 -0.95072,0.0079 -0.390826,0.137183 -0.792156,0.255342 -1.174964,0.406835 2.307618,-1.078259 0.970181,-0.493978 0.720154,-0.319015 -0.116032,0.08108 -0.210009,0.182083 -0.320132,0.267848 -0.957432,0.785584 -0.955626,1.498117 -0.232569,2.351493 0.23272,0.172927 0.473898,0.342194 0.760787,0.456615 0.271499,0.09126 0.558109,0.149967 0.844199,0.06044 -0.669118,0.212323 -1.353425,0.801361 -0.608607,0.175509 0.186722,-0.164241 0.360626,-0.337178 0.490428,-0.5344 0.220312,-0.291079 0.374738,-0.605983 0.498215,-0.931041 0.151132,-0.363779 0.312221,-0.724863 0.443558,-1.093598 0.141665,-0.353644 0.285073,-0.712193 0.270512,-1.08824 -0.02254,-0.277006 -0.06363,-0.551536 -0.164619,-0.818437 -0.261126,-1.240263 -1.882262,-2.590099 -3.505222,-2.074379 -0.42,0.126987 -0.833089,0.269304 -1.232054,0.434052 l 1.087343,-0.692535 z"
       inkscape:connector-curvature="0"
       sodipodi:nodetypes="cccccccccccccccccccccccccccccc" />
    <path
       style="opacity:0.82700004;fill:#000000;fill-opacity:1;stroke:none;stroke-width:2.14002252;stroke-miterlimit:4;stroke-dasharray:none;stroke-opacity:1;paint-order:stroke fill markers"
       id="path1843-3-3-9-6-8"
       d="m 21.122214,23.605553 c 0.30183,0.407566 0.571342,0.831203 0.800023,1.283883 0.251295,0.562073 0.421912,1.158778 0.553438,1.759249 0.108324,0.5719 0.119413,1.155545 0.158278,1.734789 0.05108,0.62463 0.05784,1.249938 0.0132,1.874853 -0.04666,0.527921 -0.137024,1.050042 -0.18452,1.578004 -0.02687,0.483947 -0.0452,0.967758 -0.08206,1.451166 -0.08559,0.726713 -0.322645,0.629535 -1.379569,1.022932 -0.05972,0.02245 -0.04746,-0.172481 -0.0452,-0.347042 0.04776,-0.670772 0.177795,-1.332505 0.286229,-1.995334 0.09891,-0.705741 0.244008,-1.40332 0.330155,-2.110813 0.05921,-0.542542 0.15524,-1.079791 0.213349,-1.622353 0.04402,-0.539131 0.180384,-1.061837 0.339989,-1.576514 0.159304,-0.581763 0.45323,-1.103843 0.768383,-1.612675 0.241029,-0.392113 0.492567,-0.717052 0.862433,-0.992496 0.621346,-0.374543 0.725916,-0.441295 1.70498,-0.958903 0.03775,-0.01922 0.577331,-0.225664 0.615709,-0.240392 0,0 -1.094559,0.858991 -1.094559,0.858991 v 0 c -0.10266,0.0405 -0.205954,0.07942 -0.307975,0.121338 -0.102247,0.04195 -0.396243,0.193238 -0.304771,0.131185 0.349804,-0.237753 1.403631,-0.818212 0.698158,-0.427432 -0.06345,0.04001 -0.129753,0.07581 -0.190226,0.120065 -0.294397,0.215692 -0.493568,0.533414 -0.703806,0.824182 -0.321038,0.494988 -0.6217,1.004527 -0.780365,1.578092 -0.161147,0.505716 -0.306309,1.018697 -0.350796,1.55011 -0.05295,0.546513 -0.153951,1.085516 -0.22329,1.63007 -0.08441,0.711993 -0.234978,1.411799 -0.338106,2.121068 -0.104395,0.650368 -0.227635,1.301687 -0.259865,1.960489 -0.02117,0.642487 -0.108404,0.25248 -1.241064,0.895436 -0.01863,0.0087 0.04235,-0.01495 0.05511,-0.03295 0.05511,-0.07363 0.06354,-0.182541 0.07991,-0.266178 0.04755,-0.484331 0.07186,-0.968728 0.0903,-1.454961 0.04256,-0.530248 0.13397,-1.052975 0.193122,-1.581171 0.05207,-0.618513 0.04843,-1.237604 -0.0048,-1.856341 -0.0403,-0.572763 -0.05481,-1.149241 -0.151199,-1.716219 -0.12207,-0.590391 -0.285455,-1.177673 -0.535885,-1.727383 -0.225516,-0.441844 -0.486291,-0.861079 -0.81029,-1.23873 0,0 1.225386,-0.738026 1.225386,-0.738026 z"
       inkscape:connector-curvature="0" />
    <path
       style="opacity:0.82700004;fill:#000000;fill-opacity:1;stroke:none;stroke-width:2.14002252;stroke-miterlimit:4;stroke-dasharray:none;stroke-opacity:1;paint-order:stroke fill markers"
       id="path1803-3-5-4-7-7"
       d="m 29.465232,31.706101 c 0.06874,1.337125 -1.977326,1.938603 -2.806911,1.884285 -1.294952,0.01922 -2.565178,-1.233337 -2.737432,-2.32669 -0.01161,-0.484488 0.140603,-0.950511 0.305466,-1.399877 0.385789,-1.011548 0.916635,-1.954596 1.517371,-2.759287 0.616296,-0.861933 1.634972,-1.38262 2.424552,-1.827553 0.870709,0.151931 1.61047,1.181126 1.920576,1.85029 0.05511,0.194524 0.06246,0.397056 0.06707,0.597833 -0.345247,2.122705 -4.411489,3.435464 -4.801229,2.310709 0.938256,-0.923421 1.938185,-0.192385 2.927808,-0.548525 0.529079,-0.520227 0.624658,-1.005066 0.551083,-1.672389 -0.254168,-0.651594 -0.79818,-1.130678 -1.287619,-1.559434 0,0 0,0 -0.50897,0.293161 -0.343226,0.435639 -0.658704,0.893603 -0.921135,1.382994 -0.226175,0.435893 -0.426775,0.88466 -0.614326,1.338466 -0.163293,0.428865 -0.321576,0.868257 -0.325097,1.333282 0.275248,0.999772 1.206679,1.601036 2.052835,2.023134 0.48837,0.176334 0.813132,0.06785 0.940285,-0.305428 l 1.295649,-0.615355 z"
       inkscape:connector-curvature="0"
       sodipodi:nodetypes="cccccccccccccccccccc" />
    <path
       style="opacity:0.82700004;fill:#000000;fill-opacity:1;stroke:none;stroke-width:1.93266702;stroke-miterlimit:4;stroke-dasharray:none;stroke-opacity:1;paint-order:stroke fill markers"
       id="path1843-3-93-5-9"
       d="m 37.662977,25.42279 c 0.28121,0.356815 0.532268,0.727701 0.745311,1.12402 0.234107,0.492086 0.393045,1.01449 0.51557,1.540199 0.100942,0.500693 0.111235,1.011674 0.147444,1.518789 0.04755,0.546858 0.05384,1.094314 0.01241,1.641407 -0.04353,0.462189 -0.127654,0.919301 -0.171893,1.381531 -0.02471,0.423685 -0.04206,0.847265 -0.07647,1.270479 -0.0797,0.63623 -0.300583,0.55115 -1.285197,0.895574 -0.0556,0.01962 -0.04423,-0.150991 -0.04216,-0.30384 0.04451,-0.587254 0.165637,-1.166594 0.266659,-1.746897 0.09218,-0.617864 0.22729,-1.228592 0.307574,-1.847986 0.0552,-0.474986 0.144613,-0.945344 0.198757,-1.42035 0.04098,-0.472005 0.168031,-0.929626 0.316733,-1.380218 0.148415,-0.509334 0.422235,-0.966404 0.715817,-1.411887 0.224527,-0.343294 0.458888,-0.627769 0.803446,-0.868923 0.578841,-0.327901 0.676254,-0.38633 1.58835,-0.839487 0.03511,-0.01677 0.537836,-0.197562 0.573596,-0.210466 0,0 -1.019686,0.752026 -1.019686,0.752026 v 0 c -0.0956,0.0354 -0.191856,0.06952 -0.286917,0.10624 -0.0952,0.03677 -0.369131,0.169157 -0.283933,0.114847 0.325879,-0.208142 1.307619,-0.716328 0.650398,-0.3742 -0.05913,0.035 -0.120861,0.06628 -0.177226,0.105095 -0.274239,0.188825 -0.459809,0.467004 -0.655664,0.721562 -0.299055,0.433353 -0.579156,0.879453 -0.726977,1.3816 -0.150101,0.442748 -0.285366,0.891858 -0.326802,1.357107 -0.04932,0.478467 -0.143403,0.950363 -0.208014,1.427105 -0.07864,0.623337 -0.218887,1.236015 -0.314968,1.856969 -0.09727,0.569399 -0.212063,1.139611 -0.242086,1.716393 -0.02,0.562477 -0.10099,0.221036 -1.156161,0.783933 -0.01745,0.0078 0.03941,-0.0132 0.05137,-0.02883 0.05137,-0.06441 0.05913,-0.159812 0.07441,-0.233027 0.04432,-0.424018 0.06698,-0.848098 0.08413,-1.273793 0.03961,-0.464239 0.124806,-0.921872 0.179913,-1.384307 0.04843,-0.541493 0.0452,-1.083498 -0.004,-1.625205 -0.03755,-0.50145 -0.05118,-1.006157 -0.140953,-1.502537 -0.113733,-0.516882 -0.265952,-1.03104 -0.499233,-1.512301 -0.210082,-0.386839 -0.453023,-0.753871 -0.754853,-1.084497 0,0 1.141554,-0.646124 1.141554,-0.646124 z"
       inkscape:connector-curvature="0" />
    <path
       style="opacity:0.79900004;fill:#000000;fill-opacity:1;stroke:none;stroke-width:1.6922307;stroke-miterlimit:4;stroke-dasharray:none;stroke-opacity:0.98095236"
       id="path1050-2"
       d="m 18.993077,30.255463 c 0.02,0.259706 0.06698,0.517767 0.103679,0.775893 0.06138,0.391466 0.0496,0.78455 0.0078,1.1769 -0.04098,0.273855 -0.118919,0.542132 -0.25548,0.784413 -0.0801,0.142131 -0.169332,0.25707 -0.264922,0.388829 -0.243008,0.300909 -0.504303,0.586078 -0.74183,0.891398 -0.121067,0.151485 -0.232938,0.312075 -0.370347,0.449247 -2.633135,1.440745 -2.426572,1.696832 -4.24387,1.855213 -0.511627,0.03441 -1.024205,-0.0078 -1.534175,-0.04824 -0.07589,-0.01145 -0.151787,-0.02284 -0.227616,-0.03462 -0.167529,-0.02598 -0.206818,-0.02883 -0.366081,-0.06943 -0.149528,-0.03805 -0.294739,-0.0903 -0.439991,-0.141829 -0.34499,-0.118792 -0.637858,-0.343304 -0.9490803,-0.52759 C 9.2321432,35.478144 8.7842186,35.152068 8.3585522,34.799115 8.1036637,34.576639 7.8935779,34.313324 7.6939301,34.042057 7.5406155,33.83375 7.4347159,33.688154 7.3078277,33.461353 7.2488372,33.355909 7.198724,33.245769 7.1441881,33.137973 6.8904291,32.560397 6.7416327,31.937991 6.6851575,31.30999 6.6735439,31.180443 6.6705212,31.050273 6.663219,30.920416 6.6427124,30.068278 6.8009269,29.227728 6.9794254,28.398703 7.16245,27.539604 7.512778,26.734256 7.9014401,25.951382 8.0832,25.594684 8.2773417,25.244401 8.4600497,24.888203 c 0.1471261,-0.286818 0.2866794,-0.575959 0.4402852,-0.859452 0.2494111,-0.431854 0.503921,-0.87112 0.8477342,-1.236603 0.076283,-0.08109 0.1596273,-0.155367 0.2394505,-0.233047 0.3944964,-0.35143 0.8313984,-0.649515 1.2740174,-0.936056 1.169538,-0.761756 0.297986,-0.199691 3.486725,-1.820465 0.03716,-0.01892 0.0805,-0.02207 0.121401,-0.0304 0.124933,-0.02569 0.198729,-0.01696 0.321644,0.01098 0.16045,0.04922 0.326637,0.09157 0.476889,0.168646 0.07864,0.0403 0.143705,0.08834 0.216378,0.138058 0.258323,0.229517 0.484879,0.491498 0.689804,0.76898 0.184316,0.263855 0.30584,0.563408 0.426775,0.859776 0.08481,0.212986 0.128322,0.434903 0.147222,0.662271 0.01129,0.132076 0.01892,0.264394 0.02186,0.396909 0,0 -3.448691,1.561022 -3.448691,1.561022 v 0 c 0.01273,-0.126667 0.02657,-0.25345 0.02774,-0.380897 -0.004,-0.196237 -0.02932,-0.388926 -0.07904,-0.579223 -0.07735,-0.273464 -0.179128,-0.542005 -0.338695,-0.77908 -0.179617,-0.241753 -0.387846,-0.470879 -0.65777,-0.613062 -0.190365,-0.08844 -0.390634,-0.16037 -0.604089,-0.127764 -0.08196,0.02529 -0.161274,0.05285 -0.237812,0.09226 -0.02911,0.01495 -0.114974,0.06325 -0.0858,0.04814 4.230564,-2.193075 4.130338,-2.141236 2.979578,-1.548726 -0.486105,0.279336 -0.971416,0.561505 -1.411182,0.911781 -0.195865,0.16348 -0.275591,0.217887 -0.445139,0.406135 -0.260843,0.289602 -0.457543,0.631924 -0.671008,0.955706 -0.387849,0.63724 -0.747842,1.29065 -1.103431,1.946351 -0.07256,0.136738 -0.326636,0.612071 -0.392017,0.750674 -0.244871,0.519148 -0.438854,1.064131 -0.576037,1.621245 -0.03236,0.139585 -0.06764,0.278571 -0.09727,0.418804 -0.1382329,0.655369 -0.2131418,1.325494 -0.2084948,1.995513 0.00589,0.122276 0.0078,0.244794 0.01707,0.366846 0.04569,0.588087 0.1782558,1.168498 0.4271178,1.704815 0.05059,0.09786 0.09638,0.198286 0.151739,0.293521 0.267678,0.460722 0.617091,0.880652 1.032374,1.214073 0.07647,0.05913 0.151374,0.120447 0.229507,0.177392 0.360679,0.262844 0.752752,0.481155 1.144348,0.693522 0.322555,0.162214 0.645897,0.322721 0.992084,0.429462 0.29572,0.09805 0.598873,0.180128 0.908358,0.219584 0.500461,0.04746 1.003617,0.06128 1.501438,-0.02539 0.209182,-0.03726 0.418558,-0.07363 0.620523,-0.141844 0.131042,-0.04423 0.149035,-0.05883 0.264069,-0.118936 -1.065279,0.553584 -2.130558,1.107159 -3.195837,1.66073 0.04548,-0.01289 0.112556,-0.02805 0.153521,-0.0552 0.02382,-0.01575 0.04246,-0.03823 0.06344,-0.05765 0.08452,-0.07875 0.165744,-0.16098 0.244421,-0.245568 0.123453,-0.134669 0.240732,-0.27469 0.363502,-0.409832 0.150801,-0.16597 0.310026,-0.324538 0.454434,-0.49641 0.176795,-0.203827 0.110727,-0.117488 0.263257,-0.332548 0.03589,-0.05059 0.0753,-0.09903 0.106765,-0.15252 0.0907,-0.154078 0.141001,-0.328321 0.188373,-0.499095 0.02962,-0.148908 0.04677,-0.212759 0.05913,-0.36519 0.01903,-0.235085 -0.004,-0.470474 -0.04677,-0.701649 -0.03637,-0.238695 -0.08276,-0.480271 -0.194894,-0.696639 0,0 3.423923,-1.662564 3.423923,-1.662564 z"
       inkscape:connector-curvature="0" />
  </g>
</svg>
