<?xml version="1.0" encoding="UTF-8" standalone="no"?>
<!-- Created with Inkscape (http://www.inkscape.org/) -->

<svg
   xmlns:dc="http://purl.org/dc/elements/1.1/"
   xmlns:cc="http://creativecommons.org/ns#"
   xmlns:rdf="http://www.w3.org/1999/02/22-rdf-syntax-ns#"
   xmlns:svg="http://www.w3.org/2000/svg"
   xmlns="http://www.w3.org/2000/svg"
   xmlns:sodipodi="http://sodipodi.sourceforge.net/DTD/sodipodi-0.dtd"
   xmlns:inkscape="http://www.inkscape.org/namespaces/inkscape"
   width="100mm"
   height="25mm"
   viewBox="0 0 100 25"
   version="1.1"
   id="svg8"
   sodipodi:docname="crearUnidad.svg"
   inkscape:version="0.92.3 (2405546, 2018-03-11)">
  <defs
     id="defs2" />
  <sodipodi:namedview
     id="base"
     pagecolor="#ffffff"
     bordercolor="#666666"
     borderopacity="1.0"
     inkscape:pageopacity="0.0"
     inkscape:pageshadow="2"
     inkscape:zoom="1.979899"
     inkscape:cx="174.56028"
     inkscape:cy="160.10709"
     inkscape:document-units="mm"
     inkscape:current-layer="layer1"
     showgrid="false"
     inkscape:window-width="1920"
     inkscape:window-height="992"
     inkscape:window-x="0"
     inkscape:window-y="0"
     inkscape:window-maximized="1"
     units="mm" />
  <metadata
     id="metadata5">
    <rdf:RDF>
      <cc:Work
         rdf:about="">
        <dc:format>image/svg+xml</dc:format>
        <dc:type
           rdf:resource="http://purl.org/dc/dcmitype/StillImage" />
        <dc:title />
      </cc:Work>
    </rdf:RDF>
  </metadata>
  <g
     inkscape:label="Capa 1"
     inkscape:groupmode="layer"
     id="layer1"
     transform="translate(0,-272)">
    <rect
       style="opacity:0.18500001;fill:#03a9f4;fill-opacity:1;stroke:none;stroke-width:1.36184871;stroke-miterlimit:4;stroke-dasharray:none;stroke-opacity:0.98095236"
       id="rect1379"
       width="100.0692"
       height="24.946424"
       x="-0.15119052"
       y="272.05359"
       ry="0.11767188" />
    <path
       style="opacity:0.82700004;fill:#000000;fill-opacity:1;stroke:none;stroke-width:2.23230314;stroke-miterlimit:4;stroke-dasharray:none;stroke-opacity:1;paint-order:stroke fill markers"
       id="path1835-6-6-09-3"
       d="m 34.16026,282.63381 c 1.25206,-0.5722 2.435891,-0.51605 3.587485,0.0865 0.866161,0.62977 1.212634,1.60694 1.282584,2.47372 0.01878,0.37557 -0.109557,0.73632 -0.248668,1.0907 -0.289815,0.68258 -0.491215,1.38194 -0.887443,1.97403 -0.636749,0.88297 -2.162662,1.54626 -3.031797,1.30729 -1.497433,-0.72571 -1.689131,-1.8876 -0.627673,-2.88829 1.020927,-0.87855 1.751257,-1.03438 3.025224,-1.41815 0.253511,-0.10422 0.454442,-0.0695 0.715776,-0.0222 0.203122,0.0496 0.399201,0.11298 0.604983,0.15586 l -0.585109,0.71282 v 0 c -0.20093,-0.0488 -0.657092,-0.15945 -0.863187,-0.19419 -0.517192,-0.0459 -0.741596,-0.10359 -0.919366,0.008 -0.377919,0.1327 -0.766009,0.24691 -1.136103,0.39338 2.231361,-1.04265 0.938145,-0.47763 0.696371,-0.30845 -0.112671,0.0784 -0.203121,0.17608 -0.309532,0.25902 -0.925939,0.75965 -0.924218,1.44867 -0.224874,2.27388 0.22503,0.16722 0.458197,0.33089 0.73565,0.44154 0.26243,0.0883 0.53957,0.14507 0.816241,0.0586 -0.646921,0.20531 -1.308709,0.77491 -0.588394,0.16968 0.18043,-0.15879 0.348654,-0.32601 0.474158,-0.51674 0.21298,-0.28146 0.362426,-0.586 0.481826,-0.9003 0.145533,-0.35177 0.301865,-0.70095 0.428933,-1.05751 0.13771,-0.34197 0.275575,-0.68868 0.261492,-1.05232 -0.0219,-0.26787 -0.06103,-0.53334 -0.159148,-0.79144 -0.252572,-1.19932 -1.820111,-2.50459 -3.389529,-2.00592 -0.406086,0.12284 -0.8056,0.26043 -1.191343,0.41972 l 1.051443,-0.66965 z"
       inkscape:connector-curvature="0"
       sodipodi:nodetypes="cccccccccccccccccccccccccccccc" />
    <path
       style="opacity:0.82700004;fill:#000000;fill-opacity:1;stroke:none;stroke-width:2.67146659;stroke-miterlimit:4;stroke-dasharray:none;stroke-opacity:1;paint-order:stroke fill markers"
       id="path1835-6-6-0-1-6"
       d="m 74.161917,283.57759 c 1.498586,-0.68477 2.915126,-0.61755 4.293275,0.10356 1.036563,0.75367 1.451184,1.92308 1.535087,2.96038 0.02244,0.44949 -0.131091,0.88119 -0.297788,1.3053 -0.346828,0.81685 -0.587832,1.6538 -1.062029,2.36237 -0.761812,1.05667 -2.588108,1.85047 -3.628228,1.56445 -1.792024,-0.86847 -2.021267,-2.25893 -0.751156,-3.45647 1.221776,-1.0514 2.095784,-1.23791 3.620568,-1.69717 0.303178,-0.12472 0.543657,-0.0832 0.856406,-0.0266 0.243082,0.0594 0.477713,0.1352 0.724187,0.18652 l -0.700403,0.85307 v 0 c -0.240461,-0.0585 -0.786384,-0.1908 -1.033005,-0.23237 -0.61894,-0.0549 -0.887491,-0.12416 -1.100066,0.009 -0.452248,0.15881 -0.916688,0.2955 -1.359779,0.47081 2.670528,-1.2478 1.122708,-0.57165 0.83337,-0.36917 -0.134837,0.0938 -0.243081,0.2107 -0.370428,0.30996 -1.107913,0.9091 -1.105853,1.73367 -0.269112,2.72122 0.2693,0.20011 0.548337,0.39601 0.880374,0.52841 0.314247,0.10562 0.645908,0.17361 0.977009,0.0701 -0.774378,0.24573 -1.566359,0.92737 -0.704337,0.20312 0.216095,-0.19006 0.417227,-0.3902 0.567421,-0.61843 0.255067,-0.33685 0.433745,-0.70127 0.576636,-1.07742 0.174164,-0.42097 0.361251,-0.83883 0.513318,-1.26557 0.162928,-0.40925 0.32977,-0.82416 0.312935,-1.25934 -0.02622,-0.32056 -0.07304,-0.63824 -0.190459,-0.94712 -0.302072,-1.43526 -2.178183,-2.99735 -4.056354,-2.40054 -0.485995,0.147 -0.964087,0.31166 -1.425716,0.50229 l 1.258274,-0.80141 z"
       inkscape:connector-curvature="0"
       sodipodi:nodetypes="cccccccccccccccccccccccccccccc" />
    <path
       style="opacity:0.82700004;fill:#000000;fill-opacity:1;stroke:none;stroke-width:2.10502601;stroke-miterlimit:4;stroke-dasharray:none;stroke-opacity:1;paint-order:stroke fill markers"
       id="path1843-3-3-9-6-8-2"
       d="m 23.757725,280.03102 c 0.297014,0.40089 0.562105,0.81761 0.786978,1.26289 0.247251,0.55288 0.415005,1.13983 0.544422,1.73048 0.106411,0.56254 0.117365,1.13665 0.156487,1.70642 0.05008,0.61442 0.05634,1.2295 0.01564,1.84419 -0.04538,0.51929 -0.13458,1.03287 -0.181526,1.5522 -0.0266,0.47604 -0.04382,0.95193 -0.08138,1.42743 -0.0845,0.71484 -0.317357,0.61924 -1.357063,1.0062 -0.0579,0.022 -0.04695,-0.16965 -0.04382,-0.34136 0.04694,-0.6598 0.174954,-1.31071 0.281679,-1.9627 0.09702,-0.6942 0.239896,-1.38037 0.324712,-2.0763 0.0579,-0.53367 0.153359,-1.06213 0.20985,-1.59581 0.04382,-0.53033 0.177458,-1.04449 0.334415,-1.55074 0.156644,-0.57224 0.445834,-1.08579 0.755836,-1.58631 0.23708,-0.38569 0.484487,-0.70532 0.848321,-0.97626 0.611242,-0.36841 0.714055,-0.43408 1.677081,-0.94321 0.03756,-0.019 0.567895,-0.22198 0.605609,-0.23647 0,0 -1.076637,0.84494 -1.076637,0.84494 v 0 c -0.100152,0.0399 -0.202652,0.0781 -0.302961,0.1194 -0.100152,0.0413 -0.389811,0.19008 -0.29983,0.1291 0.344117,-0.23385 1.380692,-0.80483 0.686825,-0.42044 -0.0626,0.0393 -0.12832,0.0745 -0.187159,0.11815 -0.289503,0.21217 -0.485426,0.52469 -0.692303,0.8107 -0.315793,0.4869 -0.611554,0.9881 -0.767574,1.55229 -0.158522,0.49744 -0.301239,1.00204 -0.345055,1.52477 -0.05164,0.53757 -0.151793,1.06776 -0.219709,1.6034 -0.08294,0.70035 -0.231132,1.38871 -0.332537,2.08638 -0.103282,0.63974 -0.223934,1.2804 -0.255544,1.92843 -0.02035,0.63198 -0.106413,0.24835 -1.220763,0.8808 -0.01878,0.008 0.04225,-0.0141 0.05477,-0.0324 0.05477,-0.0724 0.0626,-0.17954 0.07824,-0.26182 0.04694,-0.47641 0.07042,-0.95288 0.0892,-1.43117 0.04225,-0.52157 0.13145,-1.03575 0.189976,-1.5553 0.05164,-0.60841 0.04694,-1.21737 0,-1.826 -0.03912,-0.56338 -0.0532,-1.13044 -0.148664,-1.68814 -0.120495,-0.58074 -0.280896,-1.15842 -0.527207,-1.69913 -0.221743,-0.43463 -0.478384,-0.84701 -0.796993,-1.21848 0,0 1.20527,-0.72596 1.20527,-0.72596 z"
       inkscape:connector-curvature="0" />
    <path
       style="opacity:0.82700004;fill:#000000;fill-opacity:1;stroke:none;stroke-width:2.10502601;stroke-miterlimit:4;stroke-dasharray:none;stroke-opacity:1;paint-order:stroke fill markers"
       id="path1803-3-5-4-7-7-9"
       d="m 31.964421,287.99909 c 0.06729,1.31527 -1.944988,1.9069 -2.761073,1.85347 -1.273812,0.019 -2.523211,-1.21316 -2.692687,-2.28863 -0.01564,-0.47657 0.137709,-0.93497 0.300456,-1.37698 0.379484,-0.99502 0.901684,-1.92264 1.492583,-2.71418 0.606234,-0.84783 1.608226,-1.36 2.384876,-1.79765 0.856458,0.14945 1.584127,1.16182 1.889278,1.82003 0.05477,0.19134 0.06103,0.39057 0.06572,0.58805 -0.339578,2.08799 -4.339253,3.37928 -4.722649,2.27292 0.922809,-0.90831 1.906493,-0.18923 2.879848,-0.53954 0.520479,-0.51172 0.614528,-0.98863 0.542074,-1.64506 -0.249912,-0.64092 -0.7851,-1.11217 -1.266457,-1.53392 0,0 0,0 -0.500762,0.28836 -0.337544,0.42853 -0.647859,0.87899 -0.906065,1.36038 -0.222369,0.42876 -0.4197,0.8702 -0.6042,1.31658 -0.160712,0.42184 -0.316418,0.85406 -0.319861,1.31148 0.270725,0.98341 1.186961,1.57485 2.01932,1.99005 0.480419,0.17344 0.799811,0.0666 0.924844,-0.30044 l 1.274437,-0.6053 z"
       inkscape:connector-curvature="0"
       sodipodi:nodetypes="cccccccccccccccccccc" />
    <path
       style="opacity:0.82700004;fill:#000000;fill-opacity:1;stroke:none;stroke-width:1.90106165;stroke-miterlimit:4;stroke-dasharray:none;stroke-opacity:1;paint-order:stroke fill markers"
       id="path1843-3-93-5-9-1"
       d="m 40.028095,281.81854 c 0.276515,0.35099 0.523452,0.71581 0.733146,1.10563 0.230194,0.48405 0.386525,0.99792 0.507021,1.51503 0.100152,0.4925 0.109542,0.99512 0.145534,1.49394 0.04694,0.53791 0.0532,1.07642 0.01564,1.61456 -0.04225,0.45463 -0.125191,0.90427 -0.169007,1.35895 -0.02504,0.41676 -0.04068,0.83341 -0.07511,1.24969 -0.07824,0.62583 -0.295606,0.54214 -1.264266,0.88093 -0.05477,0.0193 -0.04382,-0.1485 -0.04225,-0.29887 0.04382,-0.57764 0.16306,-1.14751 0.262429,-1.71832 0.09076,-0.60777 0.223466,-1.20851 0.302492,-1.81777 0.05477,-0.46722 0.142404,-0.92989 0.195453,-1.39712 0.04068,-0.46429 0.165408,-0.91443 0.311568,-1.35765 0.145533,-0.501 0.415319,-0.9506 0.704195,-1.3888 0.220805,-0.33767 0.451312,-0.6175 0.790265,-0.8547 0.569302,-0.32254 0.665229,-0.38002 1.562375,-0.82576 0.03442,-0.0165 0.529085,-0.19434 0.564139,-0.20704 0,0 -1.002931,0.73974 -1.002931,0.73974 v 0 c -0.09389,0.0347 -0.188725,0.0684 -0.282305,0.10454 -0.09389,0.0362 -0.363052,0.16639 -0.279174,0.11298 0.320488,-0.20473 1.286175,-0.70462 0.639723,-0.36808 -0.0579,0.0344 -0.118931,0.0653 -0.174328,0.10344 -0.269785,0.18573 -0.45225,0.45936 -0.644887,0.70975 -0.294197,0.42627 -0.569772,0.86508 -0.71515,1.35901 -0.147098,0.43552 -0.280739,0.87728 -0.321426,1.33492 -0.04851,0.47063 -0.140839,0.93482 -0.204686,1.40377 -0.07668,0.61314 -0.215327,1.2158 -0.309846,1.82659 -0.09546,0.56008 -0.208598,1.12098 -0.238018,1.68833 -0.02035,0.55328 -0.100152,0.21743 -1.137354,0.77112 -0.01721,0.008 0.03912,-0.0125 0.05008,-0.0283 0.05008,-0.0634 0.0579,-0.15721 0.07355,-0.22922 0.04382,-0.41708 0.06572,-0.83423 0.08294,-1.25296 0.03912,-0.45665 0.122061,-0.90679 0.176988,-1.36168 0.04694,-0.53263 0.04382,-1.06578 0,-1.59862 -0.03756,-0.49325 -0.05008,-0.9897 -0.139274,-1.47796 -0.112672,-0.50843 -0.261648,-1.01419 -0.491059,-1.48757 -0.206721,-0.38052 -0.445678,-0.74156 -0.742543,-1.06677 0,0 1.122808,-0.63556 1.122808,-0.63556 z"
       inkscape:connector-curvature="0" />
    <path
       style="opacity:0.79900004;fill:#000000;fill-opacity:1;stroke:none;stroke-width:1.6645571;stroke-miterlimit:4;stroke-dasharray:none;stroke-opacity:0.98095236"
       id="path1050-2-2"
       d="m 21.663447,286.57219 c 0.02035,0.25545 0.06572,0.50929 0.101717,0.7632 0.06103,0.38506 0.04851,0.77171 0,1.15766 -0.04068,0.26938 -0.117366,0.53326 -0.25132,0.77158 -0.07824,0.13974 -0.166659,0.25287 -0.260552,0.38247 -0.239113,0.29598 -0.496067,0.57649 -0.729702,0.87682 -0.118931,0.14897 -0.229255,0.30697 -0.364304,0.44191 -2.590188,1.41718 -2.386911,1.66908 -4.174472,1.82486 -0.503265,0.0338 -1.007469,-0.008 -1.509169,-0.0474 -0.07512,-0.0109 -0.148665,-0.0226 -0.223778,-0.0341 -0.164938,-0.0255 -0.203435,-0.0283 -0.360236,-0.0683 -0.147098,-0.0374 -0.289815,-0.0889 -0.432689,-0.13958 -0.339422,-0.1169 -0.627516,-0.33769 -0.933607,-0.51896 -0.471185,-0.27298 -0.911699,-0.59372 -1.330461,-0.94091 -0.250694,-0.21883 -0.457414,-0.47785 -0.653807,-0.74467 -0.150229,-0.20491 -0.254919,-0.34811 -0.379796,-0.57122 -0.0579,-0.10375 -0.107977,-0.21205 -0.16087,-0.31808 -0.2495977,-0.56814 -0.3960707,-1.18037 -0.4516237,-1.79809 -0.01565,-0.12738 -0.01565,-0.25546 -0.02191,-0.3832 -0.02034,-0.83821 0.136144,-1.66501 0.311098,-2.48048 0.1799607,-0.84505 0.5247037,-1.63722 0.9070037,-2.4073 0.178709,-0.35087 0.369625,-0.69542 0.54943,-1.04579 0.143969,-0.28213 0.281991,-0.56654 0.433002,-0.84539 0.245373,-0.4248 0.495754,-0.85689 0.833924,-1.21639 0.07512,-0.0798 0.156959,-0.15289 0.235516,-0.22924 0.38809,-0.34568 0.817806,-0.63889 1.253155,-0.92075 1.150499,-0.74929 0.293102,-0.19642 3.429746,-1.79068 0.03599,-0.0186 0.07981,-0.0218 0.118931,-0.0299 0.123625,-0.0252 0.195453,-0.0167 0.316419,0.0109 0.157896,0.0484 0.32127,0.0901 0.46915,0.16589 0.07668,0.0396 0.14084,0.0869 0.212824,0.13582 0.25398,0.22577 0.476975,0.48346 0.678532,0.75641 0.181212,0.25954 0.300769,0.55418 0.419701,0.84571 0.08294,0.2095 0.126754,0.42779 0.145533,0.65144 0.01565,0.12988 0.01878,0.26007 0.02191,0.39042 0,0 -3.392345,1.53549 -3.392345,1.53549 v 0 c 0.01565,-0.12456 0.0266,-0.2493 0.0266,-0.37466 0,-0.19303 -0.02816,-0.38257 -0.07824,-0.56976 -0.07668,-0.26898 -0.176202,-0.53314 -0.333159,-0.76633 -0.176675,-0.23781 -0.381518,-0.46318 -0.647078,-0.60304 -0.18716,-0.087 -0.384178,-0.15775 -0.594185,-0.12565 -0.07981,0.0249 -0.158522,0.0519 -0.233949,0.0908 -0.02817,0.0141 -0.112672,0.0622 -0.0845,0.0474 4.161326,-2.15721 4.062739,-2.10621 2.930862,-1.52339 -0.478071,0.27476 -0.955516,0.55232 -1.388048,0.89686 -0.192637,0.1608 -0.271194,0.21433 -0.437853,0.3995 -0.25664,0.28486 -0.450059,0.62158 -0.660066,0.94007 -0.381518,0.62682 -0.73565,1.26954 -1.0854,1.91452 -0.07198,0.13442 -0.321271,0.60207 -0.385587,0.7384 -0.240834,0.51065 -0.43175,1.04673 -0.566642,1.59474 -0.0313,0.13724 -0.06729,0.27402 -0.09546,0.41196 -0.136145,0.64464 -0.209695,1.3038 -0.205156,1.96287 0,0.12034 0,0.24078 0.01721,0.36085 0.04539,0.57847 0.175422,1.14939 0.42017,1.67694 0.05008,0.0962 0.09546,0.19505 0.148664,0.28872 0.263212,0.45319 0.607016,0.86625 1.01545,1.19422 0.07512,0.0582 0.148663,0.11846 0.225812,0.17449 0.354758,0.25854 0.740344,0.47327 1.125618,0.68217 0.317201,0.15957 0.63534,0.31745 0.975858,0.42244 0.290911,0.0964 0.589021,0.17719 0.893546,0.216 0.492155,0.0467 0.987126,0.0603 1.476776,-0.0251 0.205782,-0.0366 0.41172,-0.0725 0.61046,-0.13959 0.12832,-0.0435 0.147099,-0.0579 0.25977,-0.11704 -1.047843,0.54452 -2.095843,1.08904 -3.143686,1.63356 0.04539,-0.0125 0.111106,-0.0276 0.150228,-0.0543 0.02347,-0.0157 0.04225,-0.0375 0.0626,-0.0567 0.08294,-0.0775 0.163061,-0.15833 0.240522,-0.24154 0.122061,-0.13255 0.236767,-0.27021 0.357418,-0.40313 0.148665,-0.16326 0.304996,-0.31923 0.447087,-0.4883 0.173858,-0.2005 0.109541,-0.11549 0.258987,-0.32711 0.03599,-0.0498 0.07355,-0.0975 0.104847,-0.15007 0.0892,-0.15164 0.139274,-0.32295 0.185282,-0.49093 0.02973,-0.14648 0.04538,-0.20927 0.0579,-0.35922 0.01878,-0.23124 0,-0.46279 -0.04538,-0.69017 -0.03599,-0.2348 -0.08138,-0.47243 -0.191854,-0.68525 0,0 3.367932,-1.63538 3.367932,-1.63538 z"
       inkscape:connector-curvature="0" />
    <path
       style="opacity:0.82700004;fill:#000000;fill-opacity:0.9785933;stroke:none;stroke-width:3.39268756;stroke-miterlimit:4;stroke-dasharray:none;stroke-opacity:1;paint-order:stroke fill markers"
       id="path1067"
       d="m 52.643511,277.07244 c -0.892597,3.46933 -1.072643,7.73998 0.199934,10.54358 3.395635,3.92405 5.188023,-1.45753 4.51594,-9.19655 -0.06423,-0.33816 -0.09645,-0.68967 -0.171917,-1.02141 -0.04888,-0.21331 -0.0236,-0.11724 -0.07341,-0.29115 l 1.448984,-1.54129 v 0 c 0.04982,0.19512 0.02491,0.0925 0.07473,0.30834 0.08147,0.33412 0.118358,0.68496 0.174353,1.0343 0.08652,0.41854 0.15394,0.84996 0.206357,1.2879 0.837147,10.63835 -2.59113,13.8267 -5.669031,13.34679 -2.536464,-1.05946 -3.424606,-7.7339 -2.20926,-13.13661 l 1.503181,-1.33306 z"
       inkscape:connector-curvature="0"
       sodipodi:nodetypes="cccccccccccccc" />
    <path
       style="opacity:0.82700004;fill:#000000;fill-opacity:1;stroke:none;stroke-width:1.94736624;stroke-miterlimit:4;stroke-dasharray:none;stroke-opacity:1;paint-order:stroke fill markers"
       id="path1833-1"
       d="m 60.378275,288.20995 c -0.01872,0.3993 -0.06854,0.79614 -0.149258,1.18545 -0.04363,0.23404 -0.11124,0.45178 -0.225383,0.65381 -0.125848,0.17848 -0.240422,0.3659 -0.35481,0.55376 -0.399019,0.69038 -0.300456,0.42476 -1.381977,0.94088 4.87e-4,-0.0464 -0.0038,-0.0934 0.0019,-0.13933 0.01124,-0.0908 0.06442,-0.28831 0.08634,-0.36798 0.0678,-0.24708 0.143078,-0.49166 0.216521,-0.73664 0.153752,-0.48482 0.308627,-0.96878 0.449383,-1.4586 0.08896,-0.26262 0.15656,-0.53279 0.230028,-0.80098 0.06405,-0.24162 0.183342,-0.45359 0.316619,-0.65386 0.435562,-0.63311 0.810385,-0.73658 1.543806,-1.21267 0.34642,-0.10525 0.708551,-0.1236 1.065439,-0.14364 0.291262,-0.008 0.537321,0.11835 0.767742,0.30436 0.265987,0.2177 0.395873,0.56116 0.52749,0.88734 0.165737,0.45483 0.33582,0.90832 0.465563,1.37792 0.129406,0.39444 0.188229,0.80511 0.197125,1.22344 0.0056,0.51796 -0.09045,1.02523 -0.22059,1.51928 -0.07698,0.26773 -0.03988,0.13877 -0.110866,0.38682 l -1.100697,0.57961 v 0 c 0.07622,-0.25085 0.03614,-0.12116 0.120041,-0.3891 0.140831,-0.47762 0.237034,-0.97274 0.233868,-1.47837 -0.0038,-0.40658 -0.06161,-0.80571 -0.180158,-1.19109 -0.121727,-0.46609 -0.289937,-0.91397 -0.458484,-1.36088 -0.126784,-0.30393 -0.25096,-0.62106 -0.505933,-0.81735 -0.217856,-0.16423 -0.448596,-0.25616 -0.715893,-0.23468 -0.349939,0.0206 -0.714337,0.0344 -1.038465,0.19768 1.961595,-1.29013 1.044739,-0.76623 0.774222,-0.48013 -0.08521,0.0902 -0.158808,0.19399 -0.237782,0.29053 -0.135024,0.18504 -0.259749,0.3789 -0.331662,0.60667 -0.07547,0.27272 -0.146822,0.54695 -0.244349,0.81129 -0.146635,0.49022 -0.299882,0.97736 -0.457305,1.46341 -0.11199,0.37978 -0.226264,0.75926 -0.310981,1.14811 -0.365485,0.21724 -0.730649,0.43518 -1.096484,0.65174 -0.01685,0.008 0.03671,-0.0188 0.05075,-0.0328 0.08933,-0.0963 0.15188,-0.227 0.218581,-0.34241 0.118544,-0.18428 0.219372,-0.38309 0.355315,-0.553 0.125474,-0.18579 0.205889,-0.38265 0.247595,-0.61245 0.09888,-0.37962 0.149444,-0.7735 0.176787,-1.16717 0.09289,-2.15209 0.172854,-1.2773 -0.398969,-2.43221 l 1.066932,-0.68957 c 0.367019,1.421 0.351737,0.19825 0.408233,2.51287 z"
       inkscape:connector-curvature="0"
       sodipodi:nodetypes="ccccccccccccccccccccccccccccccccccccccccccc" />
    <path
       style="opacity:0.82700004;fill:#000000;fill-opacity:1;stroke:none;stroke-width:1.94736624;stroke-miterlimit:4;stroke-dasharray:none;stroke-opacity:1;paint-order:stroke fill markers"
       id="path1801-0"
       d="m 85.848039,288.50747 c -0.316061,1.07918 -0.991634,2.51795 -1.88757,2.91937 -1.385457,0.37472 -3.128229,-0.74604 -3.610193,-2.19594 -0.178659,-0.53094 -0.07154,-1.06723 0.03369,-1.56113 0.472828,-1.59633 1.93714,-3.55712 3.118448,-3.59147 0.187871,0.0295 0.378592,0.0598 0.561856,0.11612 1.545502,1.18433 2.193635,1.56864 2.037227,3.32482 -0.04886,0.10319 -0.194448,0.89202 -0.25355,0.98823 -0.426648,1.15389 -1.671609,3.07773 -1.639809,2.38689 0.01124,-0.25748 0.975076,-1.9162 1.150219,-2.66423 0.03093,-0.11611 0.03745,-0.47827 -0.05918,-0.63661 -0.308792,-0.50649 0.193552,-1.33704 0.187839,-1.94547 -0.0131,-1.08776 0.123226,-2.15668 -0.06237,-3.18227 -0.497512,-2.19369 -1.506695,-3.63635 -2.881546,-4.92114 l 0.818573,-1.03123 v 0 c 0.320575,0.2917 0.624598,0.61558 0.899851,0.9132 1.140516,1.40654 2.249798,3.29466 2.164215,5.2003 -0.526206,10.97505 -0.461087,2.3772 -4.235783,2.59744 -0.239577,0.0169 -1.311047,2.5509 -0.755839,3.6376 1.773091,2.93689 4.260578,0.17042 2.588504,2.24027 0.153565,-0.17959 0.224745,-0.40993 0.310833,-0.6353 0.03261,-0.006 -0.785612,-0.10244 -0.706526,-0.097 0.337224,0.0232 0.561539,-0.0545 0.818479,-0.19445 0.19973,-0.10842 1.054766,-1.324 1.402476,-1.66798 z"
       inkscape:connector-curvature="0"
       sodipodi:nodetypes="ccccccccscscccccccccccsscc" />
    <path
       style="opacity:0.82700004;fill:#000000;fill-opacity:1;stroke:none;stroke-width:1.71603644;stroke-miterlimit:4;stroke-dasharray:none;stroke-opacity:1;paint-order:stroke fill markers"
       id="path1843-3-9"
       d="m 65.890213,291.30835 c -0.0648,0.61685 -0.244411,0.53437 -1.045046,0.8683 -0.04532,0.0191 -0.03595,-0.14644 -0.03427,-0.29458 0.237464,-1.79709 1.273782,-2.40167 0.95873,-0.54439 -0.01685,0.54536 -0.08221,0.21432 -0.940133,0.76006 -0.01498,0.008 0.03203,-0.0131 0.04176,-0.0279 0.04176,-0.0623 0.04813,-0.15488 0.06049,-0.22594 0.276117,-3.58113 0.493709,-5.23953 -0.530341,-8.32464 l 1.808336,-0.26234 c 0.08353,0.91036 -0.195195,5.94996 -0.319585,8.05149 z"
       inkscape:connector-curvature="0"
       sodipodi:nodetypes="cccccccccc" />
    <path
       style="opacity:0.82700004;fill:#000000;fill-opacity:1;stroke:none;stroke-width:1.94736624;stroke-miterlimit:4;stroke-dasharray:none;stroke-opacity:1;paint-order:stroke fill markers"
       id="path1801-0-6"
       d="m 72.421693,289.17997 c -0.316044,1.0792 -0.991634,2.51797 -1.887572,2.91937 -1.385453,0.37473 -3.128225,-0.74602 -3.610193,-2.19594 -0.178846,-0.53093 -0.07154,-1.06723 0.03371,-1.56113 0.47283,-1.59631 1.937146,-3.5571 3.118451,-3.59145 0.187871,0.0295 0.37861,0.0598 0.56186,0.11611 1.545497,1.18435 2.193631,1.56865 2.03722,3.32482 -0.04888,0.10318 -0.194444,0.89202 -0.25355,0.98824 -0.426648,1.15389 -1.671606,3.07773 -1.639809,2.38689 0.01124,-0.2575 0.975082,-1.91622 1.150218,-2.66424 0.0309,-0.11611 0.03745,-0.47827 -0.05918,-0.63659 -0.308795,-0.50652 0.193547,-1.33706 0.187837,-1.94548 -0.0131,-1.08776 0.123227,-2.15668 -0.06237,-3.18227 -0.497511,-2.1937 -1.506694,-3.63635 -2.881545,-4.92115 l 0.818591,-1.03122 v 0 c 0.320559,0.29169 0.624577,0.61557 0.899832,0.9132 1.140518,1.40654 2.249798,3.29466 2.164216,5.2003 -0.526204,10.97505 -0.461089,2.3772 -4.235784,2.59744 -0.239579,0.0169 -1.311049,2.55089 -0.755838,3.6376 1.773092,2.93688 4.260578,0.17043 2.588502,2.24027 0.153565,-0.17959 0.224746,-0.40995 0.310837,-0.63531 0.03259,-0.006 -0.785614,-0.10244 -0.706527,-0.097 0.337241,0.0232 0.561539,-0.0545 0.818479,-0.19444 0.19973,-0.10842 1.054766,-1.324 1.402495,-1.668 z"
       inkscape:connector-curvature="0"
       sodipodi:nodetypes="ccccccccscscccccccccccsscc" />
  </g>
  <g
     inkscape:groupmode="layer"
     id="layer2"
     inkscape:label="Capa 2"
     transform="translate(0,-15)" />
</svg>
