<?xml version="1.0" encoding="UTF-8" standalone="no"?>
<!-- Created with Inkscape (http://www.inkscape.org/) -->

<svg
   xmlns:osb="http://www.openswatchbook.org/uri/2009/osb"
   xmlns:dc="http://purl.org/dc/elements/1.1/"
   xmlns:cc="http://creativecommons.org/ns#"
   xmlns:rdf="http://www.w3.org/1999/02/22-rdf-syntax-ns#"
   xmlns:svg="http://www.w3.org/2000/svg"
   xmlns="http://www.w3.org/2000/svg"
   xmlns:sodipodi="http://sodipodi.sourceforge.net/DTD/sodipodi-0.dtd"
   xmlns:inkscape="http://www.inkscape.org/namespaces/inkscape"
   width="6.9000001cm"
   height="12cm"
   viewBox="0 0 69.000001 120"
   version="1.1"
   id="svg8"
   inkscape:version="0.92.3 (2405546, 2018-03-11)"
   sodipodi:docname="fondo.svg">
  <defs
     id="defs2">
    <linearGradient
       id="linearGradient4552"
       osb:paint="solid">
      <stop
         style="stop-color:#2e00d8;stop-opacity:1;"
         offset="0"
         id="stop4550" />
    </linearGradient>
    <linearGradient
       id="linearGradient4544"
       osb:paint="gradient">
      <stop
         style="stop-color:#2e00d8;stop-opacity:1;"
         offset="0"
         id="stop4540" />
      <stop
         style="stop-color:#2e00d8;stop-opacity:0;"
         offset="1"
         id="stop4542" />
    </linearGradient>
    <linearGradient
       id="linearGradient4528"
       osb:paint="gradient">
      <stop
         style="stop-color:#0000ff;stop-opacity:1"
         offset="0"
         id="stop4524" />
      <stop
         style="stop-color:#ff122b;stop-opacity:0.35686275"
         offset="1"
         id="stop4526" />
    </linearGradient>
  </defs>
  <sodipodi:namedview
     id="base"
     pagecolor="#ffffff"
     bordercolor="#666666"
     borderopacity="1.0"
     inkscape:pageopacity="0.0"
     inkscape:pageshadow="2"
     inkscape:zoom="1"
     inkscape:cx="148.32204"
     inkscape:cy="512.53161"
     inkscape:document-units="mm"
     inkscape:current-layer="layer1"
     showgrid="false"
     units="cm"
     inkscape:window-width="960"
     inkscape:window-height="992"
     inkscape:window-x="0"
     inkscape:window-y="0"
     inkscape:window-maximized="0" />
  <metadata
     id="metadata5">
    <rdf:RDF>
      <cc:Work
         rdf:about="">
        <dc:format>image/svg+xml</dc:format>
        <dc:type
           rdf:resource="http://purl.org/dc/dcmitype/StillImage" />
        <dc:title />
      </cc:Work>
    </rdf:RDF>
  </metadata>
  <g
     inkscape:label="Capa 1"
     inkscape:groupmode="layer"
     id="layer1"
     transform="translate(0,-177.00002)">
    <rect
       style="opacity:1;fill:#673bb8;fill-opacity:1;stroke:none;stroke-width:1.72587705;stroke-miterlimit:4;stroke-dasharray:none;stroke-opacity:0.98095236"
       id="rect4522"
       width="69"
       height="120"
       x="0"
       y="176.72873"
       ry="0.18898818" />
    <path
       style="opacity:0.82700004;fill:#ffeb3b;fill-opacity:0.84313726;stroke:none;stroke-width:0.85794312;stroke-miterlimit:4;stroke-dasharray:none;stroke-opacity:1;paint-order:stroke fill markers"
       id="path1065"
       d="m 26.55856,186.23437 c -0.118745,-0.0243 0.210408,-0.11408 0.316426,-0.16978 -0.0652,0.0389 -0.128565,0.0805 -0.192074,0.12183 -0.257826,0.15417 -0.504805,0.35202 -0.805638,0.41932 -0.32854,0.0379 -0.646256,-0.0772 -0.929139,-0.19368 -0.142434,-0.0619 -0.280396,-0.13166 -0.410089,-0.21454 -0.101249,-0.0617 -0.179538,-0.14678 -0.258419,-0.23093 -0.773505,-1.54167 -0.642653,-4.70996 1.723669,-4.81217 0.605895,0.13819 1.050985,0.60243 1.429242,1.0236 0.05678,0.086 0.113142,0.17325 0.159905,0.26451 0.03708,0.0917 0.07186,0.18456 0.09674,0.27987 0.214527,1.25537 0.02721,2.39669 -0.788757,3.3487 -0.0749,0.0918 -0.154877,0.17972 -0.238138,0.26494 -0.182315,0.20232 -0.431869,0.36971 -0.714588,0.42432 -0.07659,0.025 -0.157217,0.0424 -0.238271,0.0339 -0.447086,-0.0665 -0.510128,-0.41682 -0.512238,-0.76766 -0.002,-0.0821 0.01441,-0.16328 0.04198,-0.2409 0.03313,-0.0969 0.08225,-0.18463 0.159243,-0.25656 0.218191,-0.13553 0.504323,-0.37288 0.79608,-0.34778 0.526755,0.13408 0.881141,0.60468 1.082607,1.01749 0.402717,0.60023 0.514897,1.24673 0.943672,1.72371 l -0.503909,0.29402 v 0 c -0.04173,-0.0342 -0.08037,-0.0708 -0.118772,-0.10828 -0.09606,-0.1005 -0.184022,-0.20454 -0.237039,-0.33218 -0.179537,-0.46245 -0.365766,-0.88825 -0.60132,-1.30663 -0.03414,-0.0811 -0.07161,-0.16057 -0.117521,-0.23651 -0.05436,-0.0887 -0.107216,-0.17917 -0.178954,-0.25699 -0.140134,-0.17831 -0.316838,-0.28713 -0.498738,-0.39542 -0.09848,-0.0562 -0.188886,-0.0292 -0.188886,-0.0292 -0.03033,0.0709 -0.05018,0.14653 -0.05002,0.22329 -6e-4,0.082 -0.002,0.16418 0.0014,0.24622 0.0048,0.0753 0.0127,0.15 0.05647,0.21564 0.04722,0.0683 0.09375,0.1512 0.176956,0.1843 0.163892,0.0659 0.304119,0.0357 0.456973,-5e-4 0.203395,-0.0798 0.02829,-0.0128 -0.439688,0.24557 -0.01161,0.007 0.02457,-0.0105 0.03594,-0.0173 0.129819,-0.10697 0.244394,-0.24777 0.34504,-0.36028 0.07078,-0.0865 0.147488,-0.16865 0.217208,-0.25592 0.07184,-0.0897 0.127603,-0.1886 0.187385,-0.28552 0.815087,-1.34509 0.394938,-3.15643 -0.584641,-3.98898 -0.111052,-0.0765 -0.228185,-0.1449 -0.351562,-0.20268 -1.889018,0.014 -1.660288,3.5313 -0.793627,4.34569 0.238434,0.15317 0.491954,0.24515 0.74432,0.3193 0.10313,0.0287 0.206084,0.0619 0.314165,0.0696 0.08542,0.003 0.171974,-4.8e-4 0.254464,-0.0232 0.192256,-0.0643 0.432615,-0.22333 -0.374637,0.21788 -0.01704,0.009 0.03457,-0.0177 0.05135,-0.0275 0.03846,-0.0222 0.07438,-0.0483 0.113764,-0.0692 0.455638,-0.25721 1.238443,-0.77257 0.421743,-0.15363 z"
       inkscape:connector-curvature="0"
       sodipodi:nodetypes="ccccccccccccccccccccccccccccccccccccccccccccccccccc" />
    <path
       style="opacity:0.82700004;fill:#ffeb3b;fill-opacity:0.84313726;stroke:none;stroke-width:0.90167052;stroke-miterlimit:4;stroke-dasharray:none;stroke-opacity:1;paint-order:stroke fill markers"
       id="path1067"
       d="m 28.562046,183.73274 c -0.318689,0.68635 -0.382976,1.53123 0.07138,2.08588 1.212353,0.77631 1.852299,-0.28835 1.61234,-1.81939 -0.02296,-0.0669 -0.03443,-0.13644 -0.06135,-0.20207 -0.01743,-0.0422 -0.0084,-0.0232 -0.02619,-0.0576 l 0.517338,-0.30492 v 0 c 0.01779,0.0386 0.0089,0.0183 0.02667,0.061 0.02906,0.0661 0.04225,0.13551 0.06226,0.20462 0.03087,0.0828 0.05499,0.16815 0.07368,0.25479 0.29889,2.10463 -0.92512,2.73539 -2.02404,2.64045 -0.905603,-0.2096 -1.222698,-1.53003 -0.788779,-2.59887 l 0.536689,-0.26372 z"
       inkscape:connector-curvature="0"
       sodipodi:nodetypes="cccccccccccccc" />
    <path
       style="opacity:0.82700004;fill:#ffeb3b;fill-opacity:0.84313726;stroke:none;stroke-width:0.86326385;stroke-miterlimit:4;stroke-dasharray:none;stroke-opacity:1;paint-order:stroke fill markers"
       id="path1789"
       d="m 21.762904,185.18755 c -0.1072,0.0108 -0.214438,0.0296 -0.322142,0.0207 -0.09459,-0.009 -0.186179,-0.0375 -0.27423,-0.0739 -0.482942,-0.31377 -0.369984,-0.60453 -0.103832,-1.01115 0.17834,-0.22626 0.443083,-0.38323 0.70129,-0.4761 0.08086,-0.0212 0.165971,-0.0339 0.248585,-0.0195 0.408031,0.10183 0.771601,0.45574 0.704019,0.90524 -0.02895,0.0662 -0.06908,0.12545 -0.11567,0.17871 -0.183427,0.19479 -0.451142,0.31379 -0.663167,0.44299 -0.02763,0.0115 -0.471485,0.0375 -0.496995,0.0537 l 0.858372,-0.39361 v 0 c 0.02631,-0.009 0.05198,-0.0185 0.07604,-0.0331 -0.862223,0.53422 -0.451131,0.3084 -0.291056,0.15896 0.04721,-0.0489 0.0905,-0.0987 0.122582,-0.16067 0.114009,-0.43216 -0.301337,-0.72007 -0.649637,-0.80606 -0.07893,-6e-4 -0.158129,0.009 -0.231759,0.0413 -0.191663,0.097 -0.05665,0.0301 0.394315,-0.25031 0.01412,-0.009 -0.02859,0.017 -0.04219,0.0266 -0.03816,0.027 -0.07065,0.0611 -0.102615,0.0959 -0.05948,0.0835 -0.105338,0.17725 -0.173719,0.25333 -0.05635,0.073 -0.118397,0.15142 -0.126701,0.24924 0.122989,0.30794 0.341849,0.41944 0.618016,0.47139 0.107006,-0.002 0.213596,-0.0143 0.319302,-0.0315 l -0.448796,0.35807 z"
       inkscape:connector-curvature="0"
       sodipodi:nodetypes="cccccccccccccccccccccccccc" />
    <path
       style="opacity:0.82700004;fill:#ffeb3b;fill-opacity:0.84313726;stroke:none;stroke-width:0.86326385;stroke-miterlimit:4;stroke-dasharray:none;stroke-opacity:1;paint-order:stroke fill markers"
       id="path1793"
       d="m 22.052975,185.61251 c 0.05212,0.10916 0.0984,0.22055 0.115777,0.34215 0.0067,0.3431 -0.222769,0.53372 -0.414489,0.75519 -0.381872,0.42696 -0.768776,0.84845 -0.983681,1.3814 -0.03565,0.0842 -0.04335,0.17529 -0.04856,0.26631 -0.213339,1.07054 -0.162258,1.92206 0.496923,2.7657 1.345476,1.71939 3.125197,-0.79974 2.109086,-1.77742 -0.112085,-0.0554 -0.313306,-0.13938 -0.923577,0.12222 0.298384,-0.30583 0.828695,-0.59459 1.165975,-0.59042 1.040668,0.56017 0.626622,2.00893 -4.1e-4,2.65866 -0.878786,0.82523 -2.020409,0.83096 -2.820918,-0.11282 -0.13465,-0.17601 -0.271206,-0.35331 -0.368991,-0.55633 -0.43452,-0.80637 -0.252388,-1.68979 -0.117286,-2.5267 0.03196,-0.0842 0.06562,-0.16806 0.101509,-0.25044 0.296757,-0.73341 1.559234,-1.33537 1.203715,-2.17949 l 0.484926,-0.29814 z"
       inkscape:connector-curvature="0"
       sodipodi:nodetypes="ccccccccccccccccc" />
    <path
       style="opacity:0.82700004;fill:#ffeb3b;fill-opacity:0.84313726;stroke:none;stroke-width:1;stroke-miterlimit:4;stroke-dasharray:none;stroke-opacity:1;paint-order:stroke fill markers"
       id="path1801"
       d="m 38.528295,185.49961 c -0.328423,0.44242 -0.897384,0.98858 -1.420981,1.01944 -0.771961,-0.0655 -1.498965,-0.88068 -1.525279,-1.63079 -0.01081,-0.27507 0.126697,-0.50349 0.25672,-0.71272 0.488551,-0.65349 1.544303,-1.30444 2.158807,-1.11734 0.09235,0.0459 0.186108,0.0925 0.271971,0.14994 0.615513,0.81056 0.890875,1.09877 0.54101,1.88018 -0.04099,0.0391 -0.237016,0.37716 -0.282255,0.41129 -0.396909,0.4578 -1.33387,1.12942 -1.211578,0.81692 0.04559,-0.11647 0.796608,-0.71446 1.001594,-1.02866 0.03371,-0.0481 0.0926,-0.2137 0.0671,-0.30315 -0.08161,-0.28616 0.304775,-0.58214 0.395093,-0.86315 0.159599,-0.50302 0.39415,-0.97145 0.455627,-1.47537 0.07968,-1.09511 -0.219639,-1.93244 -0.73176,-2.75992 l 0.580248,-0.33402 v 0 c 0.12061,0.18931 0.227761,0.3906 0.324095,0.57487 0.372596,0.84326 0.655262,1.90281 0.319011,2.76519 -1.953716,4.96092 -0.602192,1.01491 -2.582677,0.46792 -0.126008,-0.0338 -1.067171,0.94887 -0.947414,1.5444 0.464254,1.65626 2.171183,0.81029 0.991567,1.4757 0.106773,-0.0563 0.178748,-0.15007 0.257695,-0.23901 0.01773,0.003 -0.389459,-0.18211 -0.349503,-0.16602 0.170367,0.0686 0.297949,0.0714 0.451919,0.0511 0.119628,-0.0156 0.746927,-0.42821 0.978991,-0.52681 z"
       inkscape:connector-curvature="0"
       sodipodi:nodetypes="ccccccccscscccccccccccsscc" />
    <path
       style="opacity:0.82700004;fill:#ffeb3b;fill-opacity:0.84313726;stroke:none;stroke-width:0.9213323;stroke-miterlimit:4;stroke-dasharray:none;stroke-opacity:1;paint-order:stroke fill markers"
       id="path1805"
       d="m 42.772765,183.83218 c 0.491664,0.47253 1.414096,0.7683 1.45735,1.31412 -0.04616,0.81662 -0.775556,1.39368 -1.690116,1.49031 -1.591001,-0.15124 -0.621295,-0.76853 -0.272747,-0.52105 0.159511,0.0824 0.243987,0.15778 0.513366,0.17803 1.273366,-0.46855 0.975572,-1.43763 -0.03113,-1.77726 -0.444648,-0.24757 -0.678026,-0.46277 -0.631979,-0.88362 0.202508,-0.73384 0.848388,-0.85889 1.98931,-0.9291 0.387254,0.38523 -1.51522,0.47491 -1.334052,1.12857 z"
       inkscape:connector-curvature="0"
       sodipodi:nodetypes="cccccccccc" />
    <path
       style="opacity:0.82700004;fill:#ffeb3b;fill-opacity:0.84313726;stroke:none;stroke-width:1;stroke-miterlimit:4;stroke-dasharray:none;stroke-opacity:1;paint-order:stroke fill markers"
       id="path1833"
       d="m 51.583875,180.27775 c 0.113151,0.2347 0.192239,0.48361 0.268422,0.73216 0.09441,0.3584 0.170795,0.72159 0.227638,1.0878 0.02686,0.35198 0.102723,0.69498 0.185013,1.03713 0.0692,0.23185 0.114445,0.46793 0.148749,0.70695 0.04067,0.24049 0.03769,0.48326 0.02989,0.72596 -0.01017,0.1937 -0.03724,0.3862 -0.08116,0.57507 -0.02375,0.11353 -0.06047,0.21916 -0.122517,0.31717 -0.06839,0.0866 -0.130694,0.1775 -0.192867,0.26863 -0.216905,0.33491 -0.16333,0.20605 -0.751222,0.45643 3.57e-4,-0.0225 -0.0018,-0.0453 0.0011,-0.0676 0.0058,-0.0441 0.03503,-0.13986 0.0469,-0.17851 0.03681,-0.11987 0.07773,-0.23851 0.117691,-0.35735 0.08356,-0.23519 0.167764,-0.46997 0.244277,-0.70758 0.04837,-0.1274 0.08505,-0.25847 0.125044,-0.38856 0.03482,-0.11722 0.0997,-0.22005 0.17211,-0.3172 0.236767,-0.30713 0.440518,-0.35732 0.839189,-0.58828 0.188313,-0.0511 0.385161,-0.06 0.579157,-0.0697 0.158328,-0.004 0.29208,0.0574 0.417333,0.14765 0.144585,0.10561 0.215194,0.27222 0.286739,0.43045 0.09009,0.22065 0.18255,0.44064 0.253072,0.66845 0.07033,0.19134 0.102315,0.39056 0.107157,0.5935 0.0029,0.25127 -0.04913,0.49735 -0.11991,0.73702 -0.04181,0.12987 -0.02171,0.0673 -0.06031,0.18764 0,0 -0.598326,0.28118 -0.598326,0.28118 v 0 c 0.04139,-0.12169 0.01969,-0.0588 0.06521,-0.18876 0.07656,-0.23169 0.128847,-0.47188 0.127127,-0.71717 -0.0018,-0.19723 -0.03348,-0.39086 -0.09798,-0.5778 -0.06615,-0.22611 -0.157611,-0.44338 -0.249231,-0.66018 -0.06889,-0.14744 -0.13642,-0.30128 -0.275019,-0.3965 -0.118418,-0.0797 -0.24385,-0.12427 -0.389146,-0.11385 -0.19022,0.01 -0.388302,0.0167 -0.564494,0.0959 1.066288,-0.62585 0.5679,-0.37171 0.420855,-0.23292 -0.0463,0.0438 -0.08634,0.0941 -0.129255,0.14094 -0.07343,0.0898 -0.141194,0.18381 -0.180283,0.2943 -0.04098,0.1323 -0.07977,0.26533 -0.132824,0.39356 -0.0797,0.23782 -0.163013,0.47413 -0.248587,0.70992 -0.06085,0.18423 -0.122992,0.36832 -0.169045,0.55695 -0.198677,0.10539 -0.397176,0.21112 -0.596033,0.31617 -0.0094,0.004 0.01996,-0.009 0.02762,-0.0159 0.04858,-0.0467 0.08259,-0.11011 0.118817,-0.1661 0.06449,-0.0894 0.119242,-0.18584 0.193144,-0.26827 0.06823,-0.0901 0.111915,-0.18562 0.134593,-0.2971 0.05371,-0.18416 0.08127,-0.37523 0.09607,-0.5662 0.0093,-0.2387 0.01393,-0.47743 -0.02741,-0.71394 -0.03501,-0.23768 -0.06997,-0.47505 -0.137762,-0.70639 -0.07928,-0.34492 -0.158918,-0.6897 -0.182886,-1.04408 -0.05458,-0.36315 -0.132211,-0.72241 -0.226679,-1.07729 -0.07657,-0.2421 -0.153644,-0.48762 -0.27998,-0.70925 0,0 0.579974,-0.33451 0.579974,-0.33451 z"
       inkscape:connector-curvature="0" />
    <path
       style="opacity:0.82700004;fill:#ffeb3b;fill-opacity:0.84313726;stroke:none;stroke-width:0.95553124;stroke-miterlimit:4;stroke-dasharray:none;stroke-opacity:1;paint-order:stroke fill markers"
       id="path1835"
       d="m 54.998512,182.88399 c 0.621867,-0.32587 1.209779,-0.29389 1.781689,0.0491 0.430134,0.35868 0.602217,0.91517 0.637013,1.40879 0.0093,0.21391 -0.05422,0.41936 -0.123526,0.62118 -0.143954,0.38871 -0.243968,0.787 -0.44077,1.12421 -0.316172,0.50282 -1.074064,0.88058 -1.505658,0.7445 -0.743712,-0.41332 -0.838861,-1.07499 -0.31177,-1.64491 0.50706,-0.50032 0.869783,-0.58907 1.502494,-0.80762 0.125879,-0.0594 0.225677,-0.0396 0.355445,-0.0126 0.100892,0.028 0.198265,0.0644 0.300495,0.0889 l -0.290604,0.40594 v 0 c -0.09983,-0.0276 -0.326368,-0.0906 -0.428687,-0.11054 -0.256895,-0.0262 -0.368322,-0.0591 -0.45658,0.005 -0.187692,0.0756 -0.380427,0.14062 -0.564266,0.22405 1.108215,-0.59381 0.465923,-0.27202 0.345854,-0.17568 -0.0557,0.0445 -0.100866,0.10027 -0.153745,0.14752 -0.459804,0.43262 -0.458937,0.82501 -0.111688,1.29496 0.111762,0.0952 0.227584,0.18845 0.365362,0.25146 0.130382,0.0503 0.268028,0.0824 0.405416,0.0332 -0.321335,0.11689 -0.649965,0.44132 -0.292278,0.0967 0.08968,-0.0905 0.173191,-0.18567 0.23553,-0.29429 0.105795,-0.16031 0.179966,-0.33374 0.239261,-0.51272 0.07259,-0.20034 0.149945,-0.3992 0.213019,-0.60227 0.06803,-0.19474 0.136905,-0.39222 0.129907,-0.5993 -0.01078,-0.15254 -0.03054,-0.30372 -0.07905,-0.45072 -0.125403,-0.68301 -0.903947,-1.42636 -1.683358,-1.14236 -0.201708,0.0697 -0.400084,0.14831 -0.591687,0.23904 l 0.522188,-0.3814 z"
       inkscape:connector-curvature="0"
       sodipodi:nodetypes="cccccccccccccccccccccccccccccc" />
    <path
       style="opacity:0.82700004;fill:#ffeb3b;fill-opacity:0.84313726;stroke:none;stroke-width:1;stroke-miterlimit:4;stroke-dasharray:none;stroke-opacity:1;paint-order:stroke fill markers"
       id="path1837"
       d="m 58.864349,185.97202 c 0.120026,0.0302 0.235155,0.0859 0.359652,0.0925 0.124186,-0.008 0.229617,-0.0741 0.333716,-0.13554 l -0.51923,0.42023 v 0 c -0.11058,0.0615 -0.229147,0.11114 -0.358477,0.10075 -1.274682,-0.27893 -1.484893,-0.65261 -1.255294,-1.95221 0.395014,-1.27211 0.845538,-1.40286 2.084724,-1.40157 -0.07413,0.0584 -0.144575,0.1178 -0.215995,0.17199 -1.44533,1.0967 -2.074007,1.86639 -0.429096,2.70385 z"
       inkscape:connector-curvature="0"
       sodipodi:nodetypes="ccccccccsc" />
    <path
       style="opacity:0.82700004;fill:#ffeb3b;fill-opacity:0.84313726;stroke:none;stroke-width:1;stroke-miterlimit:4;stroke-dasharray:none;stroke-opacity:1;paint-order:stroke fill markers"
       id="path1843"
       d="m 62.727538,182.0698 c 0.141039,0.19045 0.266977,0.38841 0.37384,0.59994 0.117425,0.26265 0.197151,0.54148 0.258607,0.82207 0.05062,0.26724 0.0558,0.53997 0.07396,0.81064 0.02388,0.29188 0.02702,0.58408 0.0062,0.87609 -0.02184,0.24669 -0.06403,0.49067 -0.08622,0.73738 -0.01255,0.22614 -0.02112,0.45222 -0.03835,0.67811 -0.04,0.33958 -0.15077,0.29417 -0.644653,0.478 -0.02789,0.0105 -0.0222,-0.0806 -0.02115,-0.16217 0.02231,-0.31344 0.08308,-0.62266 0.133751,-0.93239 0.04622,-0.32978 0.114022,-0.65575 0.154278,-0.98635 0.02768,-0.25352 0.07254,-0.50457 0.09969,-0.7581 0.02055,-0.25193 0.08429,-0.49618 0.158875,-0.73668 0.07444,-0.27185 0.211787,-0.51581 0.35905,-0.75358 0.112632,-0.18323 0.230173,-0.33507 0.403004,-0.46378 0.290343,-0.17502 0.339206,-0.20621 0.796712,-0.44808 0.01763,-0.009 0.269777,-0.10545 0.287709,-0.11233 0,0 -0.511467,0.40139 -0.511467,0.40139 v 0 c -0.04797,0.0189 -0.09624,0.0371 -0.143912,0.0567 -0.04778,0.0196 -0.185158,0.0903 -0.142419,0.0613 0.163462,-0.1111 0.655898,-0.38234 0.326239,-0.19973 -0.02963,0.0187 -0.06063,0.0354 -0.08889,0.0561 -0.137566,0.10079 -0.230637,0.24926 -0.32888,0.38513 -0.150017,0.2313 -0.290508,0.4694 -0.364652,0.73742 -0.0753,0.23631 -0.143133,0.47602 -0.163921,0.72434 -0.02473,0.25538 -0.07194,0.50725 -0.104344,0.76171 -0.03943,0.3327 -0.109797,0.65971 -0.157986,0.99114 -0.04878,0.30391 -0.106372,0.60826 -0.121432,0.91611 -0.0099,0.30022 -0.05066,0.11798 -0.579928,0.41842 -0.0087,0.004 0.01978,-0.007 0.02578,-0.0154 0.02576,-0.0344 0.02968,-0.0853 0.03734,-0.12438 0.02219,-0.22632 0.0336,-0.45267 0.04219,-0.67988 0.01986,-0.24778 0.0626,-0.49204 0.09024,-0.73886 0.02432,-0.28902 0.02264,-0.57831 -0.002,-0.86744 -0.0188,-0.26764 -0.0256,-0.53702 -0.07065,-0.80196 -0.05704,-0.27588 -0.13339,-0.55031 -0.250409,-0.80718 -0.10538,-0.20647 -0.227237,-0.40237 -0.378634,-0.57884 0,0 0.5726,-0.34487 0.5726,-0.34487 z"
       inkscape:connector-curvature="0" />
    <path
       style="opacity:0.82700004;fill:#ffeb3b;fill-opacity:0.84313726;stroke:none;stroke-width:1;stroke-miterlimit:4;stroke-dasharray:none;stroke-opacity:1;paint-order:stroke fill markers"
       id="path1803-3"
       d="m 61.791016,185.77816 c 0.03214,0.62482 -0.923977,0.90588 -1.311627,0.8805 -0.605113,0.009 -1.19867,-0.57632 -1.279162,-1.08723 -0.0054,-0.22639 0.0657,-0.44416 0.142741,-0.65414 0.180274,-0.47268 0.428328,-0.91335 0.709043,-1.28937 0.287987,-0.40277 0.764001,-0.64608 1.132957,-0.85399 0.406868,0.071 0.75255,0.55192 0.897453,0.86461 0.02578,0.0909 0.02918,0.18554 0.03135,0.27936 -0.161326,0.99191 -2.061419,1.60534 -2.243537,1.07976 0.438432,-0.4315 0.90568,-0.0899 1.36812,-0.25632 0.24723,-0.24309 0.291895,-0.46965 0.257511,-0.78148 -0.118767,-0.30448 -0.372975,-0.52835 -0.601679,-0.7287 0,0 0,0 -0.237836,0.13699 -0.160385,0.20357 -0.307804,0.41757 -0.430433,0.64625 -0.105687,0.20369 -0.199426,0.41339 -0.287067,0.62545 -0.0763,0.2004 -0.150265,0.40572 -0.151912,0.62302 0.12862,0.46718 0.563862,0.74814 0.959257,0.94538 0.228211,0.0824 0.379965,0.0317 0.439379,-0.14272 l 0.605442,-0.28755 z"
       inkscape:connector-curvature="0"
       sodipodi:nodetypes="cccccccccccccccccccc" />
    <path
       style="opacity:0.82700004;fill:#ffeb3b;fill-opacity:0.84313726;stroke:none;stroke-width:1;stroke-miterlimit:4;stroke-dasharray:none;stroke-opacity:1;paint-order:stroke fill markers"
       id="path1835-6"
       d="m 46.757203,182.80576 c 0.516904,-0.27816 1.005585,-0.25086 1.480964,0.042 0.357534,0.30615 0.500572,0.78117 0.529493,1.20253 0.0077,0.18259 -0.04507,0.35795 -0.102675,0.53022 -0.119657,0.33182 -0.20279,0.67179 -0.366375,0.95963 -0.262806,0.42922 -0.892775,0.75166 -1.251523,0.6355 -0.618183,-0.35279 -0.697272,-0.9176 -0.259147,-1.40407 0.421474,-0.42708 0.722975,-0.50284 1.248893,-0.68939 0.104632,-0.0507 0.187586,-0.0338 0.295451,-0.0108 0.08386,0.0241 0.1648,0.0549 0.249774,0.0758 l -0.241552,0.34652 v 0 c -0.08298,-0.0238 -0.271283,-0.0775 -0.356331,-0.0944 -0.213535,-0.0223 -0.306154,-0.0504 -0.379515,0.004 -0.156012,0.0645 -0.316216,0.12003 -0.469026,0.19124 0.921163,-0.50686 0.387281,-0.23221 0.287478,-0.14996 -0.0463,0.0381 -0.08384,0.0856 -0.127794,0.12592 -0.382195,0.36929 -0.381476,0.70423 -0.09284,1.10538 0.0929,0.0813 0.189171,0.16086 0.303693,0.21464 0.108375,0.0429 0.22279,0.0705 0.336989,0.0284 -0.267099,0.0998 -0.540261,0.3767 -0.242947,0.0825 0.07454,-0.0772 0.143959,-0.15849 0.195776,-0.25121 0.08794,-0.13683 0.14959,-0.28486 0.198877,-0.43766 0.06033,-0.171 0.124636,-0.34074 0.177065,-0.51408 0.05654,-0.16624 0.113797,-0.33479 0.10798,-0.51156 -0.009,-0.13022 -0.02538,-0.25926 -0.06571,-0.38473 -0.104237,-0.58302 -0.751374,-1.21755 -1.39923,-0.97513 -0.167662,0.0597 -0.332556,0.1266 -0.491818,0.20404 l 0.434049,-0.32554 z"
       inkscape:connector-curvature="0"
       sodipodi:nodetypes="cccccccccccccccccccccccccccccc" />
    <path
       style="opacity:0.82700004;fill:#ffeb3b;fill-opacity:0.84313726;stroke:none;stroke-width:1;stroke-miterlimit:4;stroke-dasharray:none;stroke-opacity:1;paint-order:stroke fill markers"
       id="path1803-3-7"
       d="m 46.31983,185.48941 c 0.02666,0.58146 -0.766319,0.84304 -1.087827,0.81942 -0.501862,0.009 -0.994141,-0.53633 -1.060899,-1.01179 -0.0044,-0.2107 -0.0046,-0.7618 0.05933,-0.95723 0.149515,-0.43987 0.142634,-0.46019 0.375451,-0.81011 0.238847,-0.37482 0.562769,-0.79024 1.223124,-0.83017 0.354962,0.0121 0.8547,0.739 0.758509,1.05869 -0.133799,0.92308 -1.709682,1.49395 -1.860725,1.00485 0.363624,-0.40158 0.674368,-0.27859 1.057904,-0.43343 0.512804,-0.14923 0.574472,-0.96819 -0.07318,-1.10725 -0.638275,0.0414 -0.751043,0.74999 -0.927814,1.20769 -0.06327,0.18649 -0.124625,0.37757 -0.125992,0.5798 0.106674,0.43476 0.06605,0.48362 0.39398,0.66719 0.211328,0.10059 0.441253,0.38788 0.766008,0.0798 0.320837,-0.4188 0.348533,-0.3437 0.502137,-0.2676 z"
       inkscape:connector-curvature="0"
       sodipodi:nodetypes="cccccccccccccccc" />
    <path
       style="opacity:0.82700004;fill:#ffeb3b;fill-opacity:0.84313726;stroke:none;stroke-width:0.86326391;stroke-miterlimit:4;stroke-dasharray:none;stroke-opacity:1;paint-order:stroke fill markers"
       id="path1789-9"
       d="m 65.958634,185.03596 c 0.107742,-4.6e-4 0.216289,-0.009 0.322641,0.0103 0.09329,0.018 0.18172,0.0552 0.26587,0.0999 0.450593,0.35868 0.310246,0.63725 0.0063,1.01645 -0.199235,0.20809 -0.477823,0.33892 -0.743753,0.40658 -0.08252,0.0133 -0.168459,0.0178 -0.249309,-0.004 -0.396372,-0.14053 -0.72429,-0.52771 -0.613872,-0.96864 0.03517,-0.0631 0.0808,-0.11824 0.132291,-0.16678 0.201278,-0.17629 0.47918,-0.26904 0.702628,-0.37729 0.02861,-0.009 0.472907,0.008 0.499854,-0.006 l -0.892191,0.30939 v 0 c -0.02705,0.006 -0.05352,0.0134 -0.07887,0.0256 0.909522,-0.44899 0.478651,-0.26367 0.304971,-0.13029 -0.05169,0.0441 -0.09956,0.0896 -0.137439,0.14816 -0.154967,0.41922 0.230824,0.74567 0.569261,0.8647 0.07851,0.008 0.158263,0.006 0.234654,-0.0189 0.200089,-0.0782 0.05928,-0.0245 -0.416522,0.2113 -0.01492,0.008 0.03009,-0.0142 0.04455,-0.0224 0.04058,-0.0232 0.07619,-0.054 0.111347,-0.0856 0.06722,-0.0774 0.121866,-0.16632 0.197234,-0.23549 0.0631,-0.0673 0.132386,-0.13935 0.150041,-0.23592 -0.09286,-0.31833 -0.300007,-0.45032 -0.569912,-0.52854 -0.106704,-0.008 -0.213982,-0.006 -0.320851,7e-4 l 0.481095,-0.31333 z"
       inkscape:connector-curvature="0"
       sodipodi:nodetypes="cccccccccccccccccccccccccc" />
    <path
       style="opacity:0.82700004;fill:#ffeb3b;fill-opacity:0.84313726;stroke:none;stroke-width:0.86326391;stroke-miterlimit:4;stroke-dasharray:none;stroke-opacity:1;paint-order:stroke fill markers"
       id="path1793-3"
       d="m 65.710695,184.58511 c -0.0414,-0.11365 -0.07677,-0.22897 -0.0824,-0.35168 0.02626,-0.34216 0.272973,-0.50987 0.485067,-0.71191 0.421093,-0.38834 0.84667,-0.77074 1.111742,-1.2806 0.04357,-0.0804 0.05998,-0.17032 0.0739,-0.26042 0.315117,-1.04512 0.346011,-1.89761 -0.229143,-2.80063 -1.174215,-1.8406 -3.187534,0.49606 -2.269965,1.56676 0.10625,0.0659 0.29848,0.16881 0.931044,-0.033 -0.326363,0.27578 -0.881944,0.5123 -1.217266,0.47577 -0.98209,-0.65748 -0.430887,-2.0598 0.255618,-2.64634 0.953944,-0.73707 2.090845,-0.63318 2.797062,0.38308 0.117132,0.18812 0.236038,0.37771 0.313884,0.58918 0.355108,0.84436 0.08902,1.70622 -0.125799,2.52629 -0.0399,0.0807 -0.08145,0.16099 -0.125081,0.23954 -0.365788,0.70154 -1.680218,1.17953 -1.407369,2.05388 l -0.511306,0.25021 z"
       inkscape:connector-curvature="0"
       sodipodi:nodetypes="ccccccccccccccccc" />
    <path
       style="opacity:0.82700004;fill:#ffeb3b;fill-opacity:0.84313726;stroke:none;stroke-width:1.18361211;stroke-miterlimit:4;stroke-dasharray:none;stroke-opacity:1;paint-order:stroke fill markers"
       id="path1803-3-7-6"
       d="m 41.723831,185.7377 c 0.03243,0.66991 -0.93182,0.9713 -1.322764,0.94408 -0.610248,0.006 -1.208843,-0.61792 -1.29002,-1.16571 -0.0054,-0.24279 -0.0056,-0.87767 0.07214,-1.10278 0.181806,-0.50682 0.173438,-0.53028 0.456537,-0.93338 0.290429,-0.43183 0.68431,-0.91054 1.48728,-0.95644 0.431625,0.01 1.03929,0.85139 0.922322,1.21971 -0.162693,1.06351 -2.078917,1.72118 -2.262582,1.1577 0.442156,-0.46263 0.82001,-0.32095 1.286378,-0.49936 0.623554,-0.17198 0.698541,-1.11546 -0.08898,-1.27567 -0.776121,0.0476 -0.913245,0.86406 -1.128192,1.39144 -0.07693,0.21478 -0.15154,0.43497 -0.153202,0.66796 0.129711,0.50088 0.08031,0.55718 0.479068,0.76861 0.256967,0.11591 0.536549,0.44693 0.931442,0.092 0.390126,-0.48252 0.423805,-0.39599 0.610581,-0.3083 z"
       inkscape:connector-curvature="0"
       sodipodi:nodetypes="cccccccccccccccc" />
    <path
       style="opacity:0.82700004;fill:#ffeb3b;fill-opacity:0.84313726;stroke:none;stroke-width:0.98388845;stroke-miterlimit:4;stroke-dasharray:none;stroke-opacity:1;paint-order:stroke fill markers"
       id="path1803-3-7-6-0"
       d="m 33.197401,185.78801 c 0.02696,0.55719 -0.774146,0.8079 -1.098936,0.78523 -0.506986,0.006 -1.004289,-0.51396 -1.071731,-0.96957 -0.0046,-0.20191 -0.0046,-0.72997 0.05993,-0.91721 0.151052,-0.42154 0.144091,-0.44103 0.379286,-0.7763 0.241283,-0.35917 0.568513,-0.75734 1.23561,-0.79551 0.35859,0.01 0.863428,0.7081 0.766255,1.01447 -0.135195,0.88454 -1.727137,1.43156 -1.879722,0.96289 0.367336,-0.38479 0.681253,-0.26694 1.068704,-0.41535 0.518041,-0.14301 0.580336,-0.92773 -0.07393,-1.06099 -0.644788,0.0396 -0.75871,0.71867 -0.937284,1.15729 -0.06388,0.17866 -0.125898,0.36179 -0.127288,0.55556 0.107758,0.41659 0.06674,0.46343 0.398001,0.6393 0.213486,0.0964 0.445756,0.37172 0.773831,0.0766 0.324111,-0.40135 0.352092,-0.32938 0.507265,-0.25642 z"
       inkscape:connector-curvature="0"
       sodipodi:nodetypes="cccccccccccccccc" />
    <path
       style="opacity:0.82700004;fill:#ffeb3b;fill-opacity:0.84313726;stroke:none;stroke-width:1;stroke-miterlimit:4;stroke-dasharray:none;stroke-opacity:1;paint-order:stroke fill markers"
       id="path7460"
       d="m 32.269819,182.46642 c 0.120022,-0.0605 0.231264,-0.13648 0.341825,-0.21243 0.0782,-0.0551 0.154498,-0.1128 0.231138,-0.17002 0.09225,-0.069 0.179324,-0.14444 0.264776,-0.22155 0.08646,-0.0829 0.175541,-0.16265 0.269955,-0.2364 0.01053,-0.008 0.02103,-0.0158 0.03156,-0.0237 0,0 0.512948,0.10824 0.512948,0.10824 v 0 c -0.01164,0.007 -0.02326,0.0139 -0.03489,0.0209 -0.09966,0.068 -0.195167,0.14141 -0.279204,0.22853 -0.08263,0.0779 -0.165941,0.15511 -0.251989,0.22918 -0.07966,0.0613 -0.164134,0.11533 -0.248801,0.16942 -0.107537,0.0702 -0.213786,0.1429 -0.316045,0.22058 0,0 -0.521276,-0.11274 -0.521276,-0.11274 z"
       inkscape:connector-curvature="0" />
  </g>
</svg>
