<?xml version="1.0" encoding="UTF-8" standalone="no"?>
<!-- Created with Inkscape (http://www.inkscape.org/) -->

<svg
   xmlns:dc="http://purl.org/dc/elements/1.1/"
   xmlns:cc="http://creativecommons.org/ns#"
   xmlns:rdf="http://www.w3.org/1999/02/22-rdf-syntax-ns#"
   xmlns:svg="http://www.w3.org/2000/svg"
   xmlns="http://www.w3.org/2000/svg"
   xmlns:sodipodi="http://sodipodi.sourceforge.net/DTD/sodipodi-0.dtd"
   xmlns:inkscape="http://www.inkscape.org/namespaces/inkscape"
   width="10cm"
   height="2.5cm"
   viewBox="0 0 99.999998 25"
   version="1.1"
   id="svg8"
   sodipodi:docname="reconectar.svg"
   inkscape:version="0.92.3 (2405546, 2018-03-11)">
  <defs
     id="defs2" />
  <sodipodi:namedview
     id="base"
     pagecolor="#ffffff"
     bordercolor="#666666"
     borderopacity="1.0"
     inkscape:pageopacity="0.0"
     inkscape:pageshadow="2"
     inkscape:zoom="1.4142136"
     inkscape:cx="217.09514"
     inkscape:cy="-46.022394"
     inkscape:document-units="mm"
     inkscape:current-layer="layer1"
     showgrid="false"
     inkscape:window-width="960"
     inkscape:window-height="992"
     inkscape:window-x="960"
     inkscape:window-y="0"
     inkscape:window-maximized="0"
     units="cm" />
  <metadata
     id="metadata5">
    <rdf:RDF>
      <cc:Work
         rdf:about="">
        <dc:format>image/svg+xml</dc:format>
        <dc:type
           rdf:resource="http://purl.org/dc/dcmitype/StillImage" />
        <dc:title />
      </cc:Work>
    </rdf:RDF>
  </metadata>
  <g
     inkscape:label="Capa 1"
     inkscape:groupmode="layer"
     id="layer1"
     transform="translate(0,-272)">
    <rect
       style="opacity:0.18500001;fill:#fd0000;fill-opacity:1;stroke:none;stroke-width:1.36171865;stroke-miterlimit:4;stroke-dasharray:none;stroke-opacity:0.98095236"
       id="rect1379"
       width="99.984215"
       height="24.96286"
       x="-0.15119052"
       y="272.03714"
       ry="0.11774942" />
    <path
       style="opacity:0.82700004;fill:#000000;fill-opacity:1;stroke:none;stroke-width:1.79645681;stroke-miterlimit:4;stroke-dasharray:none;stroke-opacity:1;paint-order:stroke fill markers"
       id="path1843"
       d="m 72.933429,282.37097 c 0.250288,0.34637 0.473763,0.70637 0.663393,1.09107 0.208384,0.47766 0.349862,0.98476 0.45892,1.49506 0.08982,0.486 0.09901,0.98199 0.131245,1.47425 0.04233,0.53083 0.04795,1.06222 0.01106,1.59327 -0.03874,0.44867 -0.113629,0.89236 -0.153001,1.34105 -0.02228,0.41127 -0.03743,0.82242 -0.06806,1.23323 -0.07097,0.61758 -0.267545,0.53498 -1.143966,0.86931 -0.04952,0.0191 -0.03939,-0.14662 -0.03749,-0.29492 0.03958,-0.57004 0.147423,-1.13239 0.23735,-1.69568 0.08201,-0.59976 0.202333,-1.19257 0.273774,-1.79381 0.04912,-0.46108 0.128717,-0.91763 0.1769,-1.37872 0.03651,-0.45815 0.149573,-0.90236 0.281933,-1.33975 0.132098,-0.49439 0.375827,-0.93807 0.637153,-1.37048 0.199871,-0.33322 0.408457,-0.60937 0.71515,-0.84346 0.515228,-0.31831 0.601941,-0.37502 1.413804,-0.81489 0.03128,-0.0164 0.478728,-0.19178 0.510557,-0.2043 0,0 -0.907629,0.72999 -0.907629,0.72999 v 0 c -0.08513,0.0343 -0.17078,0.0675 -0.255377,0.10317 -0.0848,0.0356 -0.328575,0.16422 -0.252731,0.11139 0.290072,-0.20206 1.163926,-0.69534 0.578928,-0.36324 -0.05258,0.034 -0.107593,0.0645 -0.15774,0.10206 -0.244116,0.1833 -0.409273,0.45332 -0.583618,0.7004 -0.266206,0.42066 -0.515515,0.85369 -0.647087,1.3411 -0.133631,0.42977 -0.253998,0.86572 -0.290888,1.31733 -0.04389,0.46445 -0.127659,0.92249 -0.185162,1.38525 -0.06996,0.60507 -0.194842,1.19979 -0.280355,1.80252 -0.08656,0.55272 -0.188759,1.10622 -0.215487,1.66609 -0.01757,0.54599 -0.0899,0.21457 -1.029108,0.76095 -0.01548,0.008 0.03514,-0.0126 0.04572,-0.028 0.04572,-0.0624 0.05264,-0.15515 0.06626,-0.2262 0.03939,-0.41159 0.05963,-0.82324 0.07486,-1.23646 0.03526,-0.45062 0.111085,-0.89484 0.160134,-1.34371 0.04316,-0.52563 0.04016,-1.05173 -0.004,-1.57757 -0.0333,-0.48673 -0.04539,-0.97663 -0.125368,-1.45846 -0.10121,-0.50173 -0.236709,-1.0008 -0.444366,-1.46798 -0.187004,-0.37549 -0.403245,-0.73173 -0.671906,-1.05268 0,0 1.016104,-0.6272 1.016104,-0.6272 z"
       inkscape:connector-curvature="0" />
    <path
       style="opacity:0.82700004;fill:#000000;fill-opacity:1;stroke:none;stroke-width:2.20677376;stroke-miterlimit:4;stroke-dasharray:none;stroke-opacity:1;paint-order:stroke fill markers"
       id="path1833-1-6"
       d="m 43.829549,285.63489 c -0.02245,0.42745 -0.08214,0.85226 -0.179106,1.26907 -0.05245,0.25053 -0.133441,0.48363 -0.270355,0.69991 -0.678681,1.11753 -1.219276,1.28248 -1.844468,1.5449 5.89e-4,-0.0498 -0.0044,-0.10001 0.0022,-0.14914 0.0128,-0.0973 0.07735,-0.30864 0.10347,-0.39394 0.247747,-0.79599 0.324965,-1.56842 0.559866,-2.29492 0.106693,-0.28115 0.187687,-0.57039 0.275945,-0.85749 0.0768,-0.25865 0.220019,-0.48558 0.37981,-0.69996 0.522494,-0.67779 0.972122,-0.78855 1.851895,-1.2982 0.415564,-0.11281 0.849967,-0.1324 1.278077,-0.15389 0.349389,-0.009 0.644551,0.12672 0.920952,0.32583 0.31907,0.23306 0.474892,0.60073 0.63277,0.94991 0.198802,0.48692 0.402849,0.97238 0.558472,1.47512 0.155213,0.42225 0.225787,0.86188 0.236467,1.30972 0.0066,0.55451 -0.108368,1.09754 -0.264609,1.62644 -0.09225,0.2866 0.10061,1.57807 0.01548,1.84363 l -1.320367,0.6205 v 0 c 0.09137,-0.26854 0.04345,-0.12971 0.143901,-0.41653 0.168948,-0.51132 0.135811,-2.47091 0.132003,-3.01221 -0.0044,-0.43526 -0.07391,-0.86253 -0.216217,-1.27507 -0.14597,-0.49896 -0.347811,-0.97844 -0.549991,-1.45687 -0.152021,-0.32536 -0.301053,-0.66487 -0.606919,-0.87499 -0.26133,-0.17587 -0.53812,-0.27424 -0.858746,-0.25124 -0.419775,0.022 -0.8569,0.0368 -1.245722,0.21162 2.35305,-1.3811 1.253225,-0.82025 0.928743,-0.51398 -0.102142,0.0967 -0.190532,0.20766 -0.285236,0.31102 -0.162059,0.19817 -0.31159,0.40562 -0.397848,0.64945 -0.09047,0.29194 -0.176039,0.58552 -0.293106,0.86849 -0.175883,0.52482 0.251224,-0.0237 0.133536,1.21184 -0.242871,0.68392 -0.786902,4.39553 -0.786902,4.39553 -0.519927,-0.0305 -1.168351,0.0422 -1.366194,-0.0438 -0.221476,-0.0962 -0.136537,-0.48356 0.02157,-2.12536 -0.02078,0.009 0.04402,-0.0197 0.06091,-0.0351 0.379121,-0.52056 0.564273,-0.9853 0.746509,-1.55905 0.118527,-0.40639 0.179351,-0.82804 0.212016,-1.24948 0.11148,-2.30387 0.20727,-1.36738 -0.478603,-2.60376 l 1.279854,-0.73819 c 0.440282,1.52121 0.421943,0.21225 0.489707,2.69009 z"
       inkscape:connector-curvature="0"
       sodipodi:nodetypes="cccccccccccccccccccccccccccccccsscccccccc" />
    <path
       style="opacity:0.82700004;fill:#000000;fill-opacity:1;stroke:none;stroke-width:2.20677376;stroke-miterlimit:4;stroke-dasharray:none;stroke-opacity:1;paint-order:stroke fill markers"
       id="path1803-3-2-2"
       d="m 54.233534,289.2542 c 0.07091,1.37881 -2.039006,1.99908 -2.894461,1.94305 -1.335349,0.0197 -2.645191,-1.2718 -2.82282,-2.39925 -0.01185,-0.49961 0.144991,-0.98019 0.315002,-1.44354 0.397825,-1.0431 0.945215,-2.01559 1.564692,-2.84537 0.635526,-0.8888 1.685982,-1.42573 2.500182,-1.88456 0.897869,0.15673 1.660708,1.21796 1.980477,1.90801 0.05691,0.2006 0.06435,0.40946 0.06914,0.61649 -0.356013,2.18892 -4.549079,3.54261 -4.950983,2.38278 0.967522,-0.95221 1.998627,-0.19838 3.01913,-0.56565 0.545589,-0.53644 0.644152,-1.03641 0.568274,-1.72453 -0.262097,-0.67193 -0.823081,-1.16596 -1.32778,-1.60809 0,0 0,0 -0.52485,0.30231 -0.353935,0.44923 -0.67925,0.92148 -0.949861,1.42611 -0.233233,0.4495 -0.440092,0.91228 -0.633492,1.38024 -0.168381,0.44223 -0.331606,0.89532 -0.335229,1.37488 0.283826,1.03094 1.244312,1.65096 2.116849,2.08622 0.503612,0.18185 0.838507,0.07 0.969623,-0.31494 l 1.336071,-0.63455 z"
       inkscape:connector-curvature="0"
       sodipodi:nodetypes="cccccccccccccccccccc" />
    <path
       style="opacity:0.82700004;fill:#000000;fill-opacity:1;stroke:none;stroke-width:2.78093505;stroke-miterlimit:4;stroke-dasharray:none;stroke-opacity:1;paint-order:stroke fill markers"
       id="path1837-5-3"
       d="m 59.526673,290.43007 c 0.329716,0.085 0.645975,0.24182 0.987973,0.26042 0.341137,-0.0226 0.630759,-0.2086 0.916727,-0.38157 l -1.426342,1.18305 v 0 c -0.303763,0.17313 -0.629468,0.31288 -0.984747,0.28363 -3.501568,-0.78526 -4.079022,-1.83725 -3.448308,-5.496 1.085109,-3.58132 2.322708,-3.94941 5.726773,-3.94577 -0.203638,0.16439 -0.397148,0.33162 -0.59334,0.48418 -3.970346,3.08751 -5.69734,5.2544 -1.178736,7.61206 z"
       inkscape:connector-curvature="0"
       sodipodi:nodetypes="ccccccccsc" />
    <path
       style="opacity:1;fill:#000000;fill-opacity:1;stroke:none;stroke-width:4.29558516;stroke-miterlimit:4;stroke-dasharray:none;stroke-opacity:0.98095236"
       id="path1041-3"
       d="m 63.545157,292.05663 c -0.215905,-0.32874 -0.367079,-0.69671 -0.497649,-1.07175 -0.179601,-0.57241 -0.262657,-1.17228 -0.357209,-1.76583 -0.07756,-0.64803 -0.175286,-1.29307 -0.252211,-1.94119 -0.08574,-0.5868 -0.125336,-1.17973 -0.166821,-1.77159 -0.05953,-0.64654 -0.09818,-1.29485 -0.142905,-1.94262 -0.02607,-0.3608 -0.04997,-0.72203 -0.03277,-1.08404 0.0096,-0.20386 0.02144,-0.29035 0.04315,-0.49165 0.07715,-0.55432 0.183002,-1.10352 0.282551,-1.65354 0.08533,-0.53057 0.196231,-1.05552 0.296805,-1.58283 0.09285,-0.47181 0.188257,-0.94306 0.29354,-1.41182 0.08028,-0.34298 0.155418,-0.68797 0.256962,-1.02454 0.071,-0.23044 0.179547,-0.43972 0.320645,-0.62804 0.01924,-0.0227 0.03823,-0.0468 0.05871,-0.0683 0.0273,-0.0286 0.09285,-0.0908 0.126426,-0.11201 0.785715,-0.49013 1.111972,-0.81375 1.769668,-1.05437 0.118511,-0.0526 0.245207,-0.0689 0.369633,-0.095 0.05421,-0.009 0.107594,-0.0269 0.161591,-0.0396 0.180106,-0.0169 0.333684,0.0667 0.483792,0.16224 0.153838,0.0919 0.25049,0.23938 0.336769,0.39912 0.08765,0.15992 0.130123,0.25632 0.122745,0.44592 -0.02403,0.16933 -0.07877,0.27904 -0.192272,0.39614 -0.538705,0.33139 -1.073331,0.67067 -1.616147,0.99424 -0.02662,0.0161 -0.05939,0.0158 -0.08903,0.0223 -0.03304,0.008 -0.0658,0.0187 -0.09913,0.0275 -0.123014,0.0335 -0.246326,0.0656 -0.369564,0.0978 -0.294716,0.0774 -0.590987,0.14899 -0.879175,0.25158 -0.212889,0.0769 -0.435281,0.11502 -0.654819,0.16276 -0.351692,0.0822 -0.707507,0.14204 -1.063268,0.19959 -0.472321,0.0672 -0.937696,0.17877 -1.401348,0.29449 -0.243678,0.0591 -0.482358,0.14772 -0.730255,0.18499 -0.185841,0.0482 -0.374069,0.0845 -0.562382,0.11992 -0.339949,0.0692 -0.679722,0.13793 -1.021719,0.19471 -0.08862,0 -0.31095,0.0698 -0.394374,0.0417 -0.01912,-0.008 -0.0392,-0.0182 -0.04847,-0.0367 -0.03018,-0.0607 -0.04397,-0.12956 -0.0658,-0.19416 0.538476,-0.33285 1.073483,-0.67222 1.615425,-0.99844 0.02403,-0.0158 0.05324,-0.0142 0.07974,-0.022 0.03237,-0.009 0.06445,-0.0207 0.0968,-0.031 0.117421,-0.0381 0.234885,-0.0754 0.351638,-0.11581 0.256608,-0.10143 0.524972,-0.15899 0.790809,-0.2247 0.333642,-0.0818 0.668923,-0.15388 1.007467,-0.20769 0.342202,-0.0692 0.686997,-0.12419 1.031905,-0.17563 0.308586,-0.0626 0.619713,-0.10254 0.931168,-0.14346 0.275299,-0.0357 0.552429,-0.0423 0.828288,-0.0709 0.397665,-0.0365 0.787736,-0.12292 1.178163,-0.2076 0.313791,-0.0834 0.632536,-0.1373 0.954326,-0.16632 0.435512,-0.0343 0.867077,-0.10191 1.297689,-0.17828 0.337177,-0.0487 0.665619,-0.14899 1.003356,-0.19179 0.11306,-0.0111 0.226297,-0.0246 0.339936,-0.0281 0.02103,0 0.04192,-0.005 0.06239,0 0.02512,0.005 0.04888,0.0158 0.07333,0.0231 0.139255,0.0426 0.247749,0.14393 0.364652,0.22929 0.09257,0.07 0.198934,0.11376 0.291057,0.18414 l -1.533478,1.0547 v 0 c -0.09585,-0.0645 -0.195384,-0.12307 -0.288093,-0.19294 -0.09339,-0.0758 -0.190483,-0.14583 -0.311373,-0.15309 -0.14262,0.009 -0.285895,0.009 -0.42777,0.031 -0.312971,0.0474 -0.625286,0.10017 -0.938337,0.1471 -0.448086,0.0774 -0.896543,0.15278 -1.347825,0.20577 -0.309364,0.0433 -0.617802,0.0921 -0.923263,0.16158 -0.401922,0.0815 -0.804107,0.16341 -1.211,0.21141 -0.276269,0.0288 -0.554013,0.0392 -0.829573,0.0769 -0.306962,0.0376 -0.612039,0.0869 -0.917282,0.13809 -0.34305,0.0545 -0.686153,0.10901 -1.027414,0.17551 -0.33984,0.0621 -0.676992,0.13872 -1.011439,0.22876 -0.266793,0.07 -0.531908,0.1452 -0.7913,0.24296 -0.154723,0.052 -0.312,0.10143 -0.462656,0.16631 -0.02855,0.0111 -0.05598,0.0269 -0.0841,0.0403 0.501185,-0.31595 1.002373,-0.63191 1.503518,-0.94786 -0.03495,-0.0526 -0.07059,-0.10507 -0.10486,-0.15833 -0.0041,-0.006 -0.01469,-0.0158 -0.0096,-0.0182 0.01232,-0.008 0.0295,0 0.0441,0 0.09845,-0.008 0.196383,-0.0175 0.294184,-0.0299 0.342503,-0.0494 0.680541,-0.1256 1.018007,-0.20485 0.196039,-0.0479 0.390946,-0.10349 0.590045,-0.13524 0.227087,-0.0509 0.453261,-0.10602 0.680855,-0.15436 0.461795,-0.0964 0.923344,-0.19418 1.38809,-0.27303 0.37067,-0.0725 0.740249,-0.15041 1.106592,-0.24541 0.214322,-0.0512 0.429435,-0.0995 0.639291,-0.16981 0.29335,-0.085 0.588788,-0.1613 0.882561,-0.24469 0.127248,-0.0371 0.254778,-0.0728 0.379901,-0.11755 0.580924,-0.20693 1.398139,-0.97402 -1.293893,0.84328 0.128212,-0.0607 0.189869,-0.11218 0.250367,-0.25168 0.0082,-0.0234 0.02648,-0.0709 0.02541,-0.0991 -0.0028,-0.0829 -0.05735,-0.16099 -0.08574,-0.23447 -0.06704,-0.13367 -0.155718,-0.23711 -0.283162,-0.30708 -0.143363,-0.0754 -0.254723,-0.0957 -0.411333,-0.0499 -0.173715,0.0375 -0.347185,0.0758 -0.509118,0.15705 -0.558928,0.26789 -1.27942,0.78809 1.323847,-0.84231 0.02321,-0.0158 -0.04724,0.0261 -0.07032,0.0403 -0.07415,0.0449 -0.06895,0.0441 -0.139445,0.0989 -0.165306,0.16126 -0.282591,0.34414 -0.36749,0.56723 -0.131071,0.32997 -0.207208,0.68067 -0.301459,1.02406 -0.114956,0.46819 -0.213899,0.94055 -0.313803,1.41269 -0.09995,0.53092 -0.215961,1.05789 -0.31323,1.58936 -0.09668,0.54149 -0.191071,1.08384 -0.262152,1.62996 -0.02553,0.19096 -0.04109,0.28838 -0.05666,0.48165 -0.02868,0.35925 -0.0096,0.71938 0.0028,1.079 0.02936,0.64833 0.06636,1.29666 0.137565,1.94147 0.04819,0.58869 0.104039,1.1768 0.168979,1.76365 0.06157,0.64767 0.153633,1.29139 0.240128,1.93566 0.09777,0.57778 0.186141,1.16193 0.370889,1.71663 0.130534,0.34423 0.274207,0.70582 0.544592,0.95137 l -1.547839,1.01997 z"
       inkscape:connector-curvature="0"
       sodipodi:nodetypes="ccccccccccccccccccccccccccccccccccccccccccccccccccccccccccccccccccccccccccccccccccccccccccccccccccccccccccc" />
    <path
       style="opacity:0.82700004;fill:#000000;fill-opacity:1;stroke:none;stroke-width:2.55535674;stroke-miterlimit:4;stroke-dasharray:none;stroke-opacity:1;paint-order:stroke fill markers"
       id="path1837-6"
       d="m 32.368194,289.49375 c 0.302965,0.0782 0.59357,0.22222 0.907827,0.23932 0.313467,-0.0209 0.579587,-0.19171 0.842364,-0.35066 l -1.310642,1.08711 v 0 c -0.279126,0.1591 -0.578411,0.28752 -0.904871,0.26064 -3.217532,-0.72159 -3.748149,-1.68827 -3.168606,-5.05018 0.997107,-3.29087 2.134321,-3.62909 5.26225,-3.62572 -0.187121,0.15104 -0.364937,0.3047 -0.545211,0.44491 -3.648278,2.83705 -5.235187,4.82813 -1.083111,6.99458 z"
       inkscape:connector-curvature="0"
       sodipodi:nodetypes="ccccccccsc" />
    <path
       style="opacity:0.82700004;fill:#000000;fill-opacity:1;stroke:none;stroke-width:2.55535674;stroke-miterlimit:4;stroke-dasharray:none;stroke-opacity:1;paint-order:stroke fill markers"
       id="path1803-3-0"
       d="m 26.936284,289.01737 c 0.08113,1.61635 -2.332299,2.34344 -3.310801,2.27778 -1.527415,0.0232 -3.025666,-1.49089 -3.228847,-2.81257 -0.01375,-0.58565 0.165836,-1.14899 0.360304,-1.6922 0.455052,-1.22279 1.081186,-2.36276 1.789756,-3.33547 0.726941,-1.04193 1.928485,-1.67134 2.859807,-2.20923 1.027017,0.18371 1.899576,1.42778 2.265337,2.23671 0.06501,0.23511 0.07369,0.47995 0.07914,0.72265 -0.407217,2.566 -5.203412,4.1529 -5.66311,2.79325 1.106673,-1.11625 2.286111,-0.23255 3.453388,-0.66306 0.624056,-0.62886 0.736811,-1.21497 0.650019,-2.02162 -0.299797,-0.78768 -0.941468,-1.36682 -1.518757,-1.8851 l -0.600349,0.35441 c -0.404838,0.52661 -0.776944,1.08017 -1.086498,1.67179 -0.266777,0.52689 -0.503389,1.06938 -0.724609,1.61798 -0.192587,0.51841 -0.379297,1.04955 -0.383443,1.61164 0.324649,1.20859 1.423285,1.93541 2.421338,2.44563 0.576053,0.21318 0.959107,0.082 1.109072,-0.3692 l 1.528259,-0.74388 z"
       inkscape:connector-curvature="0"
       sodipodi:nodetypes="cccccccccccccccccccc" />
    <path
       style="opacity:0.82700004;fill:#000000;fill-opacity:1;stroke:none;stroke-width:2.55535674;stroke-miterlimit:4;stroke-dasharray:none;stroke-opacity:1;paint-order:stroke fill markers"
       id="path1803-3-7-62"
       d="m 40.718443,289.29196 c 0.06724,1.50416 -1.934331,2.18085 -2.745885,2.11977 -1.266797,0.0232 -2.509396,-1.38745 -2.677911,-2.61745 -0.01106,-0.54504 -0.01169,-1.97068 0.149762,-2.47623 0.377408,-1.13794 0.360036,-1.19048 0.947704,-2.0957 0.602895,-0.9696 1.42054,-2.04427 3.087395,-2.14757 0.896,0.0313 2.261396,1.00202 1.914626,3.1806 1.54e-4,3.08971 -0.728664,5.71013 -1.109929,4.44489 0.928781,-1.01699 0.159848,-0.32252 0.04517,-2.88871 0.167312,-4.33088 0.488367,-3.02445 -1.146423,-3.3842 -1.611128,0.10712 -1.895775,1.94017 -2.34198,3.12419 -0.159712,0.48242 -0.314579,0.97675 -0.318025,1.4999 0.269254,1.12467 0.166715,1.25105 0.994473,1.72596 0.53343,0.26022 1.113808,1.0034 1.933564,0.20644 0.809854,-1.08341 0.879752,-5.17779 1.267485,-4.98095 z"
       inkscape:connector-curvature="0"
       sodipodi:nodetypes="cccccccccccccccc" />
    <path
       style="opacity:1;fill:#000000;fill-opacity:1;stroke:none;stroke-width:1.45870411;stroke-miterlimit:4;stroke-dasharray:none;stroke-opacity:0.98095236"
       id="path961-3-6"
       d="m 11.082261,288.40606 c -0.02512,-1.23195 -0.165826,-2.45583 -0.274678,-3.68175 -0.106693,-0.97667 -0.09837,-1.95957 -0.0259,-2.93781 0.03256,-0.64409 0.06958,-1.28788 0.130076,-1.93006 0.01264,-0.38699 0.125004,-0.75108 0.241979,-1.11602 0.06914,-0.29731 0.216862,-0.55699 0.387345,-0.80605 0.278856,-0.30954 0.635059,-0.54348 0.980314,-0.77306 1.005509,-0.61854 2.132577,-1.03075 3.272846,-1.3304 0.334319,-0.061 0.683652,-0.0654 1.008489,0.0389 0.351735,0.10917 0.644907,0.3255 0.906993,0.57766 0.301309,0.31519 0.555304,0.67102 0.810243,1.02359 0.26353,0.36804 0.524605,0.73786 0.786525,1.10707 0.244292,0.4177 0.512868,0.82146 0.750547,1.24286 0.214861,0.339 0.318458,0.70909 0.340721,1.10592 0.0033,0.32818 -0.05201,0.65275 -0.105477,0.97535 -0.06535,0.34517 -0.236356,0.64929 -0.420009,0.94348 -0.194389,0.31709 -0.500288,0.533 -0.794661,0.74933 -0.356624,0.25211 -0.709747,0.50956 -1.073774,0.75088 -0.338963,0.2167 -0.700722,0.39198 -1.062426,0.56644 -0.359136,0.15783 -0.708692,0.33635 -1.06068,0.50932 -1.018536,0.48548 -2.084331,1.09698 -3.231725,0.99747 -0.274734,-0.0291 -0.547513,-0.0735 -0.820946,-0.11264 2.664851,-1.44342 1.462896,-0.98877 2.950488,-0.98533 0.353545,-0.003 0.705235,0.0341 1.05527,0.0801 0.395945,0.0711 0.801729,0.10286 1.186639,0.22238 0.354045,0.0899 0.663779,0.26329 0.952461,0.4826 0.326593,0.2642 0.559894,0.61667 0.874394,0.89267 0.245482,0.23677 0.4639,0.49249 0.658867,0.77191 0.182318,0.32461 0.358368,0.65221 0.522061,0.9866 0.14984,0.33 0.215461,0.69122 0.262829,1.04849 0.03234,0.33563 0.01185,0.67416 -0.05724,1.00356 -0.07702,0.34885 -0.250438,0.64815 -0.451352,0.93807 -0.396735,0.68891 -1.93672,0.2786 -1.813784,-0.24748 0.09625,-0.29387 0.09892,-0.61178 0.08614,-0.91867 -0.03713,-0.33186 -0.09691,-0.66858 -0.2315,-0.97567 -0.159134,-0.32262 -0.329926,-0.63901 -0.512135,-0.94929 -0.190444,-0.2617 -0.40286,-0.50381 -0.635605,-0.72909 -0.292294,-0.28422 -0.532118,-0.62175 -0.864102,-0.86396 -0.282669,-0.18665 -0.582388,-0.33074 -0.914573,-0.40738 -0.388077,-0.0864 -0.782923,-0.13888 -1.177003,-0.18996 -0.346154,-0.0382 -0.693431,-0.0602 -1.041887,-0.0605 -0.17915,-0.006 -0.351412,-0.025 -0.528584,-0.0518 -0.939247,-0.14235 -0.759263,0.0807 1.820764,-1.11076 0.255008,0.0613 0.520827,0.0762 0.78138,0.0937 0.169404,-0.003 0.330028,-0.0111 0.494875,-0.0553 0.0549,-0.0142 0.215617,-0.0719 0.162547,-0.0515 -2.392963,0.9178 -2.647492,1.02667 -1.836893,0.68755 0.347421,-0.18357 0.704357,-0.34829 1.056914,-0.52133 0.369972,-0.15088 0.725518,-0.33925 1.072529,-0.53659 0.377796,-0.21444 0.716082,-0.4908 1.076141,-0.73315 0.283336,-0.20198 0.580722,-0.39625 0.811865,-0.65935 0.170183,-0.27379 0.358026,-0.53829 0.443805,-0.8542 0.05291,-0.30797 0.109916,-0.61687 0.121133,-0.92983 -0.0055,-0.36284 -0.09548,-0.69481 -0.292505,-1.00416 -0.2315,-0.41534 -0.492164,-0.81471 -0.741013,-1.21977 -0.261397,-0.36859 -0.521838,-0.73785 -0.785935,-1.10449 -0.247738,-0.33959 -0.494419,-0.684 -0.797395,-0.97744 -0.251061,-0.21767 -0.531074,-0.39552 -0.861036,-0.46499 -0.318702,-0.0422 -0.639915,-0.0321 -0.948015,0.0689 -0.871206,0.3012 0.08525,-0.028 1.840248,-0.69365 0.05969,-0.0226 -0.122666,0.0359 -0.182073,0.0589 -0.200124,0.0782 -0.376108,0.20026 -0.564885,0.30068 -0.348666,0.19917 -0.66958,0.44492 -0.984215,0.69373 -0.195911,0.19571 -0.341352,0.45479 -0.416007,0.72078 -0.112255,0.35404 -0.254373,0.69833 -0.270245,1.07491 -0.07691,0.64242 -0.124562,1.28724 -0.157582,1.93337 -0.09091,0.96793 -0.118622,1.94115 -0.01248,2.90981 0.0968,1.23111 0.2329,2.45957 0.270611,3.69499 0.03768,0.93753 0.09958,3.55559 0.114277,4.49327 -3.3966059,1.24797 -2.197718,-0.72644 -2.283898,-3.76184 z"
       inkscape:connector-curvature="0"
       sodipodi:nodetypes="ccccccccccccccccccccccccccccccccccccccccccccccccccccccccccccccccccccccc" />
    <path
       style="opacity:0.82700004;fill:#000000;fill-opacity:1;stroke:none;stroke-width:2.57244468;stroke-miterlimit:4;stroke-dasharray:none;stroke-opacity:1;paint-order:stroke fill markers"
       id="path1835-6-6-0-1"
       d="m 66.404824,283.52069 c 1.442958,-0.65939 2.807115,-0.59467 4.134173,0.0997 0.998074,0.72571 1.397354,1.85178 1.478089,2.85063 0.02157,0.43284 -0.12581,0.84853 -0.286616,1.25693 -0.334028,0.78657 -0.566095,1.59249 -1.022748,2.2748 -0.733642,1.01751 -2.492214,1.78187 -3.493666,1.50647 -1.725682,-0.83629 -1.946468,-2.17519 -0.723418,-3.32835 1.176548,-1.01244 2.018201,-1.19203 3.486321,-1.63427 0.292106,-0.12023 0.52365,-0.0801 0.824757,-0.0256 0.2341,0.0572 0.460054,0.13018 0.697256,0.17967 l -0.674305,0.82144 v 0 c -0.231643,-0.0564 -0.757282,-0.18373 -0.994707,-0.22375 -0.596091,-0.0528 -0.854633,-0.11945 -1.059424,0.009 -0.435515,0.15293 -0.882731,0.28454 -1.30931,0.45334 2.57147,-1.20154 1.08111,-0.55045 0.802497,-0.35548 -0.129302,0.0904 -0.234023,0.20291 -0.356736,0.29848 -1.066904,0.87539 -1.064893,1.6694 -0.259163,2.62035 0.25933,0.1927 0.528085,0.38132 0.847776,0.50883 0.302544,0.10175 0.621924,0.16711 0.940726,0.0673 -0.745624,0.23659 -1.508178,0.89298 -0.678194,0.19558 0.208071,-0.18302 0.401859,-0.37574 0.5465,-0.59551 0.245505,-0.32436 0.417586,-0.67528 0.555181,-1.0375 0.168416,-0.40538 0.347922,-0.80774 0.494276,-1.21863 0.157851,-0.39408 0.317668,-0.79363 0.301442,-1.21268 -0.02512,-0.30867 -0.07091,-0.61459 -0.183441,-0.91201 -0.290985,-1.38208 -2.097481,-2.88626 -3.906009,-2.31156 -0.468022,0.14156 -0.928343,0.30009 -1.372926,0.48368 l 1.211669,-0.77172 z"
       inkscape:connector-curvature="0"
       sodipodi:nodetypes="cccccccccccccccccccccccccccccc" />
  </g>
  <g
     inkscape:groupmode="layer"
     id="layer2"
     inkscape:label="Capa 2"
     transform="translate(0,-15)" />
</svg>
