<?xml version="1.0" encoding="UTF-8" standalone="no"?>
<!-- Created with Inkscape (http://www.inkscape.org/) -->

<svg
   xmlns:dc="http://purl.org/dc/elements/1.1/"
   xmlns:cc="http://creativecommons.org/ns#"
   xmlns:rdf="http://www.w3.org/1999/02/22-rdf-syntax-ns#"
   xmlns:svg="http://www.w3.org/2000/svg"
   xmlns="http://www.w3.org/2000/svg"
   xmlns:sodipodi="http://sodipodi.sourceforge.net/DTD/sodipodi-0.dtd"
   xmlns:inkscape="http://www.inkscape.org/namespaces/inkscape"
   width="57mm"
   height="20mm"
   viewBox="0 0 57 20"
   version="1.1"
   id="svg8"
   sodipodi:docname="botonVentanaPaso.svg"
   inkscape:version="0.92.3 (2405546, 2018-03-11)">
  <defs
     id="defs2" />
  <sodipodi:namedview
     id="base"
     pagecolor="#ffffff"
     bordercolor="#666666"
     borderopacity="1.0"
     inkscape:pageopacity="0.0"
     inkscape:pageshadow="2"
     inkscape:zoom="1.979899"
     inkscape:cx="-109.12064"
     inkscape:cy="31.40498"
     inkscape:document-units="mm"
     inkscape:current-layer="layer2"
     showgrid="false"
     inkscape:window-width="1920"
     inkscape:window-height="992"
     inkscape:window-x="0"
     inkscape:window-y="0"
     inkscape:window-maximized="1"
     showguides="false" />
  <metadata
     id="metadata5">
    <rdf:RDF>
      <cc:Work
         rdf:about="">
        <dc:format>image/svg+xml</dc:format>
        <dc:type
           rdf:resource="http://purl.org/dc/dcmitype/StillImage" />
        <dc:title></dc:title>
      </cc:Work>
    </rdf:RDF>
  </metadata>
  <g
     inkscape:label="Capa 1"
     inkscape:groupmode="layer"
     id="layer1"
     transform="translate(0,-277)" />
  <g
     inkscape:groupmode="layer"
     id="layer2"
     inkscape:label="Capa 2"
     transform="translate(0,-20)">
    <path
       style="opacity:1;fill:#ffeb3b;fill-opacity:1;stroke:none;stroke-width:2.37593508;stroke-miterlimit:4;stroke-dasharray:none;stroke-opacity:0.98095236"
       id="path923"
       d="m 38.708592,36.558469 c 0.270608,-0.49218 0.397156,-1.031885 0.538144,-1.560823 0.141547,-0.53338 0.261049,-1.073156 0.29183,-1.621422 0.02088,-0.371855 0.0068,-0.494884 -0.0084,-0.864027 -0.03862,-0.789068 -0.197432,-1.56774 -0.350896,-2.344227 -0.155614,-0.769314 -0.330554,-1.536159 -0.539585,-2.295651 -0.150694,-0.466572 -0.310296,-0.930914 -0.46613,-1.396202 -0.111974,-0.366079 -0.229579,-0.729153 -0.361334,-1.090111 -0.01979,-0.06985 -0.04568,-0.134189 -0.03929,-0.207431 0.05107,-0.585131 1.094176,-0.673597 1.677289,-0.957447 0.0059,-0.0026 0.265123,-0.0091 0.280051,-0.0094 0.390519,-0.0056 0.780073,0.04023 1.165246,0.09303 0.429244,0.07452 0.8573,0.153104 1.279752,0.253725 0.393774,0.09974 0.781942,0.212911 1.147752,0.376307 0.406342,0.163423 0.751393,0.413566 1.113856,0.638144 0.297289,0.186607 0.577189,0.392951 0.867167,0.587936 0.236741,0.165198 0.34489,0.404816 0.434041,0.650607 0.11511,0.328081 0.0942,0.65792 0.02824,0.990913 -0.07354,0.363263 -0.249933,0.695849 -0.460753,1.011226 -0.167984,0.238104 -0.396389,0.442077 -0.673495,0.582527 -0.576077,0.291978 -1.156549,0.577175 -1.73482,0.865761 -0.462094,0.176762 -0.951251,0.264439 -1.448488,0.317978 -0.647525,0.04871 -1.291185,-0.04408 -1.929926,-0.125189 -0.395915,-0.0547 -0.787209,-0.130861 -1.182934,-0.186643 0,0 1.48716,-0.914935 1.48716,-0.914935 v 0 c 0.378844,0.07299 0.75601,0.154632 1.139822,0.205499 0.631233,0.08351 1.269656,0.161251 1.90781,0.08389 0.493676,-0.07076 0.981525,-0.173799 1.432314,-0.370963 -0.451268,0.23275 -0.903182,0.464519 -1.353796,0.698249 -0.0567,0.0294 0.116014,-0.05487 0.172035,-0.08529 0.205644,-0.111633 0.392244,-0.251701 0.528981,-0.428248 0.223525,-0.293828 0.414684,-0.607887 0.493038,-0.958481 0.07007,-0.30635 0.108595,-0.610768 0.0021,-0.915665 -0.07935,-0.21804 -0.177761,-0.421071 -0.390533,-0.564216 -0.272452,-0.202563 -0.532429,-0.418866 -0.825828,-0.598674 -0.35823,-0.22031 -0.71287,-0.448456 -1.111983,-0.609659 -0.361215,-0.149336 -0.741228,-0.256428 -1.124654,-0.352574 -0.418695,-0.09559 -0.841582,-0.17704 -1.268622,-0.238173 -0.382458,-0.04461 -0.770067,-0.08802 -1.155861,-0.05074 -0.04832,0.0076 -0.09766,0.01098 -0.144934,0.02267 -0.03841,0.0094 -0.14442,0.05881 -0.110553,0.04027 0.490022,-0.268008 0.990907,-0.52043 1.480248,-0.789402 0.02061,-0.01134 -0.05284,3.97e-4 -0.07086,0.01473 -0.04507,0.03577 -0.01725,0.132838 -0.01357,0.165153 0.04485,0.171289 0.108053,0.336213 0.160139,0.505777 0.06059,0.197278 0.103106,0.39903 0.178367,0.592817 0.153722,0.47247 0.299431,0.946764 0.423518,1.426074 0.195183,0.766653 0.358063,1.539693 0.524492,2.311493 0.166116,0.782361 0.330644,1.56869 0.355105,2.366613 0.01386,0.350609 0.02745,0.52639 0.01492,0.878847 -0.01958,0.5512 -0.122682,1.0952 -0.258471,1.632687 -0.127265,0.518174 -0.236551,1.040754 -0.42082,1.546415 0,0 -1.676482,0.67623 -1.676482,0.67623 z"
       inkscape:connector-curvature="0" />
    <path
       style="opacity:1;fill:#ffeb3b;fill-opacity:1;stroke:none;stroke-width:1.60671186;stroke-miterlimit:4;stroke-dasharray:none;stroke-opacity:1;paint-order:stroke fill markers"
       id="path1835-6-6-0-5-3"
       d="m 43.773847,30.329875 c 0.784291,-0.473254 1.525752,-0.426797 2.247046,0.07166 0.542477,0.520863 0.759499,1.329079 0.803378,2.045994 0.01172,0.31064 -0.06838,0.609002 -0.155782,0.902115 -0.181554,0.564554 -0.307686,1.142978 -0.555895,1.632708 -0.39875,0.730303 -1.354584,1.2789 -1.898906,1.081246 -0.937953,-0.600237 -1.057958,-1.561201 -0.393195,-2.388881 0.639488,-0.726644 1.096947,-0.855538 1.894914,-1.172946 0.158764,-0.08622 0.284618,-0.0575 0.448276,-0.01842 0.127241,0.04104 0.250055,0.09349 0.378981,0.128967 l -0.366503,0.589566 v 0 c -0.125905,-0.04045 -0.411607,-0.131875 -0.54065,-0.160597 -0.323998,-0.03792 -0.464524,-0.08572 -0.575829,0.0078 -0.236712,0.109706 -0.47979,0.204238 -0.711649,0.32538 1.397664,-0.862363 0.587615,-0.395066 0.436184,-0.255144 -0.07028,0.06479 -0.127204,0.145596 -0.193895,0.214236 -0.579898,0.628302 -0.578805,1.198189 -0.140864,1.880724 0.140954,0.138305 0.287028,0.273669 0.460785,0.365183 0.164441,0.07294 0.338032,0.119912 0.511313,0.0483 -0.405265,0.16983 -0.819738,0.640926 -0.36862,0.140345 0.113093,-0.131291 0.218421,-0.269645 0.297042,-0.4274 0.133435,-0.23279 0.226973,-0.484658 0.301755,-0.74463 0.09155,-0.290944 0.189108,-0.579744 0.268655,-0.874661 0.08579,-0.282835 0.172659,-0.569617 0.163838,-0.870364 -0.01368,-0.221549 -0.03851,-0.441112 -0.09971,-0.654594 -0.158157,-0.99195 -1.140042,-2.071538 -2.123025,-1.659075 -0.254383,0.101523 -0.504581,0.215391 -0.74622,0.347156 l 0.658569,-0.553888 z"
       inkscape:connector-curvature="0"
       sodipodi:nodetypes="cccccccccccccccccccccccccccccc" />
    <path
       style="opacity:1;fill:#ffeb3b;fill-opacity:1;stroke:none;stroke-width:1.3122381;stroke-miterlimit:4;stroke-dasharray:none;stroke-opacity:1;paint-order:stroke fill markers"
       id="path1805-7"
       d="m 47.988951,31.185497 c 0.600363,0.785011 1.726734,1.276371 1.779553,2.183136 -0.05637,1.356644 -0.947023,2.315312 -2.063782,2.47584 -1.942751,-0.251254 -0.758656,-1.276752 -0.333047,-0.865616 0.194776,0.136891 0.297929,0.262119 0.626864,0.295759 1.554893,-0.778397 1.19126,-2.388321 -0.03802,-2.952546 -0.542955,-0.411288 -0.827929,-0.768795 -0.7717,-1.467949 0.24728,-1.219124 1.035955,-1.426869 2.429118,-1.543506 0.472874,0.639978 -1.850215,0.788964 -1.628992,1.874882 z"
       inkscape:connector-curvature="0"
       sodipodi:nodetypes="cccccccccc" />
    <path
       style="opacity:1;fill:#ffeb3b;fill-opacity:1;stroke:none;stroke-width:1.58630967;stroke-miterlimit:4;stroke-dasharray:none;stroke-opacity:1;paint-order:stroke fill markers"
       id="path1803-3-7-62"
       d="m 52.655126,34.608093 c 0.03578,1.089131 -1.029477,1.579108 -1.461399,1.53488 -0.674209,0.0168 -1.33554,-1.004622 -1.425223,-1.895239 -0.0058,-0.394652 -0.0062,-1.426928 0.0797,-1.792986 0.200861,-0.823957 0.191617,-0.862001 0.504381,-1.517451 0.320868,-0.702067 0.756033,-1.480214 1.643157,-1.55501 0.476867,0.02266 1.20355,0.725542 1.018993,2.303003 8.2e-5,2.237195 -0.387808,4.134587 -0.590719,3.218452 0.49431,-0.736381 0.08507,-0.233531 0.02405,-2.091653 0.08904,-3.1359 0.259916,-2.189941 -0.610142,-2.450429 -0.857467,0.07757 -1.00896,1.404837 -1.246436,2.262161 -0.085,0.34931 -0.167426,0.707242 -0.169257,1.086046 0.143298,0.81435 0.08873,0.905859 0.529273,1.249731 0.283897,0.188419 0.592783,0.726543 1.02907,0.149482 0.431017,-0.784473 0.468217,-3.749126 0.674574,-3.6066 z"
       inkscape:connector-curvature="0"
       sodipodi:nodetypes="cccccccccccccccc" />
    <path
       style="opacity:0.82700004;fill:#ffeb3b;fill-opacity:1;stroke:none;stroke-width:1.47482967;stroke-miterlimit:4;stroke-dasharray:none;stroke-opacity:1;paint-order:stroke fill markers"
       id="path1803-3-5-1"
       d="m 12.547369,34.340026 c 0.04268,1.024549 -1.225635,1.485436 -1.739857,1.443811 -0.802673,0.01419 -1.5900181,-0.945015 -1.6967901,-1.782795 -0.0071,-0.371208 0.08714,-0.728306 0.189345,-1.072618 0.23913,-0.775084 0.56817,-1.497683 0.9405341,-2.114262 0.382011,-0.660442 1.013442,-1.059418 1.502856,-1.400345 0.539708,0.116416 0.998254,0.905036 1.190462,1.417768 0.03414,0.148961 0.03869,0.304223 0.04156,0.458074 -0.214003,1.626494 -2.734452,2.632381 -2.9760291,1.770549 0.5815721,-0.707558 1.2013751,-0.147391 1.8147911,-0.420317 0.327951,-0.398605 0.387199,-0.77011 0.34159,-1.281439 -0.157537,-0.499252 -0.494749,-0.866365 -0.798123,-1.194869 0,0 0,0 -0.315486,0.224621 -0.212748,0.333798 -0.408296,0.684706 -0.570963,1.05969 -0.140193,0.334009 -0.264536,0.677881 -0.380792,1.025596 -0.1012061,0.328597 -0.1993251,0.665257 -0.2015081,1.021611 0.1706121,0.766057 0.7479551,1.226758 1.2724401,1.550177 0.302715,0.13512 0.504026,0.05194 0.582831,-0.23402 l 0.803115,-0.471511 z"
       inkscape:connector-curvature="0"
       sodipodi:nodetypes="cccccccccccccccccccc" />
    <path
       style="opacity:1;fill:#ffeb3b;fill-opacity:1;stroke:none;stroke-width:1.42171741;stroke-miterlimit:4;stroke-dasharray:none;stroke-opacity:0.98095236"
       id="path921-3"
       d="m 11.540732,21.49115 c -0.11954,0.886487 -0.568912,1.768203 -0.956427,2.626506 -0.6350681,1.455231 -1.2807541,2.912753 -1.7090851,4.397354 -0.08332,0.288749 -0.148837,0.578635 -0.223256,0.867962 -0.328691,1.364656 -0.425903,2.726873 -0.599576,4.088903 -0.122438,0.561779 -0.03947,1.190331 -0.307831,1.741963 -0.487175,0.385604 -0.926128,0.820672 -1.461523,1.156835 -0.07364,0.04618 -0.13621,-0.07162 -0.191804,-0.118742 -0.07537,-0.06404 -0.139587,-0.136973 -0.198517,-0.212428 -0.331775,-0.424756 -0.536111,-0.916629 -0.758498,-1.393345 -0.589775,-1.353836 -1.050531,-2.75681 -1.499297,-4.161301 -0.250691,-0.846822 -0.4657,-1.707834 -0.561185,-2.595056 -0.03501,-0.543239 -0.05417,-1.089055 -0.08141,-1.633619 0.0011,-0.361045 -0.04974,-0.711925 -0.1198,-1.05878 -0.107192,-0.465022 -0.205199,-0.933867 -0.403789,-1.368658 -0.104239,-0.190013 -0.23328,-0.363563 -0.41033,-0.50717 0,0 1.332458,-1.149715 1.332458,-1.149715 v 0 c 0.186005,0.160714 0.326703,0.347307 0.437576,0.554853 0.2004,0.440578 0.304141,0.913789 0.42872,1.380284 0.08171,0.35058 0.145044,0.706657 0.131889,1.076463 0.008,0.550064 0.03662,1.09804 0.0525,1.646988 0.06949,0.894508 0.263592,1.765371 0.489634,2.62203 0.415961,1.410074 0.853797,2.817429 1.48571,4.150087 0.233252,0.451753 0.446128,0.920643 0.795243,1.312883 0.05552,0.06225 0.117758,0.120767 0.187245,0.172381 0.02705,0.02011 0.125836,0.01326 0.09915,0.04036 -0.382015,0.387854 -0.819528,0.738024 -1.22929,1.107037 0.03738,-0.03752 0.08683,-0.06969 0.112132,-0.112577 0.0702,-0.119245 0.116941,-0.377403 0.13756,-0.487808 0.07133,-0.381798 0.102369,-0.762572 0.17413,-1.144374 0.214216,-1.381838 0.321176,-2.762854 0.653861,-4.145691 0.07467,-0.292307 0.140622,-0.585144 0.224024,-0.876892 0.422748,-1.478834 1.05938,-2.930867 1.667895,-4.3845 0.354968,-0.82013 0.750726,-1.653375 0.8867001,-2.496602 0,0 1.415273,-1.095649 1.415273,-1.095649 z"
       inkscape:connector-curvature="0" />
    <path
       style="opacity:1;fill:#ffeb3b;fill-opacity:1;stroke:none;stroke-width:2.24016356;stroke-miterlimit:4;stroke-dasharray:none;stroke-opacity:0.98095236"
       id="path1041-3"
       d="m 19.054511,36.110157 c -0.09552,-0.202074 -0.162413,-0.428262 -0.220181,-0.658813 -0.07946,-0.351857 -0.116208,-0.72059 -0.158043,-1.085425 -0.03429,-0.39837 -0.07755,-0.794871 -0.11159,-1.193252 -0.03793,-0.360695 -0.05543,-0.725178 -0.07381,-1.088984 -0.02636,-0.397431 -0.04344,-0.795948 -0.06324,-1.194155 -0.01143,-0.221774 -0.02211,-0.443838 -0.01447,-0.666349 0.0042,-0.125311 0.0094,-0.178459 0.01907,-0.302221 0.03414,-0.340724 0.08095,-0.678315 0.125005,-1.016411 0.03778,-0.326137 0.08684,-0.648822 0.131328,-0.972935 0.0411,-0.290038 0.08327,-0.579691 0.129864,-0.86787 0.03551,-0.210825 0.06876,-0.422869 0.1137,-0.629775 0.03139,-0.141658 0.07945,-0.270285 0.141866,-0.386064 0.0086,-0.01462 0.01692,-0.02872 0.02601,-0.04189 0.01209,-0.01767 0.0411,-0.05606 0.05592,-0.06886 0.347637,-0.301292 0.491979,-0.500226 0.782972,-0.648135 0.05242,-0.03239 0.108476,-0.0423 0.163538,-0.05838 0.02399,-0.0078 0.04762,-0.01644 0.07151,-0.02434 0.07968,-0.01016 0.147633,0.04104 0.214051,0.09978 0.06805,0.05645 0.110808,0.147141 0.149,0.24535 0.03878,0.09833 0.05754,0.157555 0.05429,0.274105 -0.01061,0.104015 -0.03484,0.171526 -0.08507,0.243488 -0.238346,0.203724 -0.474882,0.41226 -0.715045,0.611164 -0.01185,0.01015 -0.02631,0.0089 -0.03938,0.01312 -0.0146,0.0048 -0.02913,0.01169 -0.04383,0.01688 -0.05442,0.02057 -0.108977,0.04025 -0.163506,0.06022 -0.130391,0.04751 -0.261476,0.09166 -0.388985,0.154633 -0.09418,0.04723 -0.192582,0.0706 -0.28971,0.100071 -0.155598,0.05051 -0.313031,0.08739 -0.47044,0.122686 -0.208973,0.04132 -0.414865,0.109848 -0.620009,0.181021 -0.10781,0.03636 -0.213414,0.09077 -0.323085,0.11365 -0.08223,0.02957 -0.16551,0.05198 -0.248823,0.07381 -0.150413,0.04257 -0.300737,0.08458 -0.45205,0.11963 -0.03919,-5.03e-4 -0.137581,0.04286 -0.174488,0.02571 -0.0084,-0.0048 -0.01733,-0.01169 -0.02146,-0.02259 -0.01334,-0.03732 -0.01945,-0.07963 -0.02913,-0.119331 0.238245,-0.204587 0.474949,-0.41321 0.714727,-0.613733 0.01061,-0.0089 0.02359,-0.0089 0.03526,-0.01312 0.0143,-0.0058 0.02853,-0.01312 0.04284,-0.0189 0.05193,-0.02347 0.103927,-0.04635 0.155577,-0.07119 0.113537,-0.06246 0.23227,-0.09776 0.349885,-0.138154 0.147616,-0.05034 0.295957,-0.09456 0.445743,-0.127653 0.151413,-0.04257 0.303956,-0.07633 0.456561,-0.107947 0.136526,-0.03841 0.274181,-0.06312 0.411981,-0.08815 0.121804,-0.02201 0.244414,-0.02598 0.366465,-0.04365 0.175941,-0.02249 0.348528,-0.07555 0.521274,-0.127654 0.138819,-0.0512 0.279844,-0.08437 0.422222,-0.102267 0.19269,-0.02114 0.383624,-0.06255 0.574145,-0.109564 0.149182,-0.02986 0.294497,-0.09166 0.443936,-0.117865 0.05,-0.0078 0.100102,-0.01513 0.150386,-0.01736 0.0093,-4.76e-4 0.01854,-0.003 0.02762,-4.76e-4 0.01108,0.003 0.02162,0.0089 0.03242,0.01462 0.06161,0.0263 0.109618,0.08845 0.161335,0.140943 0.04094,0.04286 0.08802,0.07003 0.128776,0.113213 l -0.678469,0.648297 v 0 c -0.04242,-0.03969 -0.08646,-0.07574 -0.127465,-0.11862 -0.04132,-0.04665 -0.08429,-0.08961 -0.137762,-0.09408 -0.0631,0.0058 -0.126494,0.0058 -0.189263,0.019 -0.138468,0.02918 -0.276648,0.06159 -0.415157,0.0905 -0.198247,0.04772 -0.396665,0.09378 -0.596327,0.12649 -0.136873,0.02669 -0.273338,0.05663 -0.408486,0.09934 -0.177823,0.05014 -0.355766,0.100354 -0.535787,0.12998 -0.12224,0.01767 -0.245126,0.02406 -0.367043,0.04723 -0.135808,0.02318 -0.270788,0.05334 -0.405842,0.08486 -0.151776,0.03356 -0.303581,0.06701 -0.454564,0.107816 -0.15036,0.03821 -0.299526,0.08533 -0.447498,0.140645 -0.118043,0.04306 -0.235338,0.08933 -0.350104,0.14935 -0.06846,0.03211 -0.138045,0.06227 -0.204698,0.102267 -0.01262,0.0078 -0.02479,0.01628 -0.03722,0.02484 0.221735,-0.194209 0.443481,-0.388429 0.665216,-0.582651 -0.01544,-0.0322 -0.03122,-0.06449 -0.0464,-0.0973 -0.002,-0.0048 -0.0064,-0.0089 -0.0042,-0.01157 0.0055,-0.0048 0.013,-5.02e-4 0.0195,-6.61e-4 0.04353,-0.0048 0.08689,-0.01016 0.130163,-0.01853 0.151529,-0.03034 0.301089,-0.0773 0.4504,-0.12591 0.08674,-0.0293 0.17297,-0.06363 0.261059,-0.0831 0.100475,-0.03124 0.200545,-0.06517 0.301245,-0.09486 0.204309,-0.05926 0.408516,-0.119347 0.614139,-0.167843 0.163996,-0.04452 0.327517,-0.09251 0.489598,-0.150846 0.09482,-0.03151 0.189997,-0.0611 0.282843,-0.104463 0.129796,-0.05229 0.260515,-0.09906 0.39048,-0.150396 0.0563,-0.0228 0.112733,-0.0448 0.168094,-0.07225 0.257016,-0.12722 0.618584,-0.59875 -0.572474,0.518371 0.05673,-0.03734 0.08401,-0.06895 0.110773,-0.154716 0.0035,-0.01462 0.01171,-0.04365 0.0112,-0.0608 -0.0012,-0.05102 -0.02534,-0.09904 -0.03793,-0.144151 -0.02969,-0.08214 -0.06889,-0.145745 -0.125278,-0.18876 -0.06343,-0.04635 -0.112709,-0.05896 -0.181993,-0.03073 -0.07686,0.0231 -0.153607,0.04665 -0.225252,0.09659 -0.247298,0.164685 -0.566073,0.484425 0.585714,-0.517759 0.01026,-0.0089 -0.02092,0.01595 -0.03111,0.02483 -0.03282,0.02754 -0.03051,0.02715 -0.0617,0.0608 -0.07313,0.09906 -0.125026,0.211552 -0.162592,0.348677 -0.05799,0.202814 -0.09168,0.41841 -0.133373,0.629495 -0.0509,0.287781 -0.09463,0.578141 -0.13884,0.868375 -0.04424,0.326341 -0.09555,0.650288 -0.138584,0.976977 -0.04278,0.33283 -0.08454,0.666223 -0.115986,1.001924 -0.01131,0.117452 -0.01817,0.177257 -0.02505,0.296053 -0.01268,0.220862 -0.0042,0.442208 0.0012,0.663293 0.01297,0.398507 0.02934,0.797034 0.06086,1.193418 0.02132,0.361846 0.04607,0.723364 0.07475,1.084095 0.02722,0.39812 0.06797,0.793814 0.106236,1.189848 0.04323,0.355138 0.08235,0.714229 0.164099,1.055189 0.05774,0.211627 0.121315,0.433876 0.240946,0.584801 l -0.684823,0.626983 z"
       inkscape:connector-curvature="0"
       sodipodi:nodetypes="ccccccccccccccccccccccccccccccccccccccccccccccccccccccccccccccccccccccccccccccccccccccccccccccccccccccccccc" />
    <path
       style="opacity:1;fill:#ffeb3b;fill-opacity:1;stroke:none;stroke-width:1.60671186;stroke-miterlimit:4;stroke-dasharray:none;stroke-opacity:1;paint-order:stroke fill markers"
       id="path1835-6-6-0-5-6"
       d="m 20.737636,30.186259 c 0.784294,-0.473254 1.525751,-0.426798 2.247045,0.07166 0.542481,0.520859 0.759503,1.329077 0.803381,2.045992 0.01172,0.31064 -0.06838,0.609001 -0.155781,0.902116 -0.181557,0.564554 -0.30769,1.142975 -0.555895,1.632706 -0.398751,0.730299 -1.354588,1.278899 -1.89891,1.081246 -0.937953,-0.600235 -1.057957,-1.561201 -0.393194,-2.38888 0.639487,-0.726644 1.096946,-0.855537 1.894911,-1.172945 0.158766,-0.08622 0.284623,-0.0575 0.448281,-0.01843 0.127241,0.04104 0.250053,0.09349 0.378981,0.128966 l -0.366503,0.589566 v 0 c -0.125905,-0.04045 -0.41161,-0.131874 -0.540652,-0.160598 -0.323996,-0.03791 -0.464521,-0.08572 -0.575829,0.0078 -0.236712,0.109717 -0.479787,0.204236 -0.711647,0.325379 1.397664,-0.862361 0.587616,-0.395063 0.436184,-0.255143 -0.07028,0.06479 -0.127204,0.145595 -0.193897,0.214236 -0.579898,0.628302 -0.578805,1.198188 -0.140864,1.880724 0.140954,0.138302 0.28703,0.273668 0.460787,0.365182 0.164442,0.07294 0.338029,0.119913 0.51131,0.04831 -0.405265,0.169827 -0.819734,0.640927 -0.36862,0.140344 0.113096,-0.13129 0.218424,-0.269645 0.297045,-0.427399 0.133435,-0.23279 0.22697,-0.484658 0.301752,-0.744633 0.09155,-0.290941 0.189111,-0.579742 0.268658,-0.87466 0.08579,-0.282834 0.172657,-0.569616 0.163838,-0.870362 -0.01368,-0.22155 -0.03851,-0.441113 -0.09971,-0.654594 -0.158157,-0.99195 -1.140042,-2.071539 -2.123024,-1.659075 -0.254384,0.101524 -0.504582,0.215392 -0.746221,0.347156 l 0.658572,-0.553886 z"
       inkscape:connector-curvature="0"
       sodipodi:nodetypes="cccccccccccccccccccccccccccccc" />
    <path
       style="opacity:1;fill:#ffeb3b;fill-opacity:1;stroke:none;stroke-width:1.3122381;stroke-miterlimit:4;stroke-dasharray:none;stroke-opacity:1;paint-order:stroke fill markers"
       id="path1805-7-5"
       d="m 54.344033,31.487499 c 0.600364,0.785011 1.726737,1.276371 1.779553,2.183136 -0.05637,1.356644 -0.94702,2.31531 -2.063779,2.475841 -1.942753,-0.251254 -0.758658,-1.276753 -0.333047,-0.865616 0.194773,0.13689 0.297929,0.262117 0.626864,0.295759 1.554891,-0.778398 1.191258,-2.388322 -0.03802,-2.952547 -0.542957,-0.411288 -0.827929,-0.768795 -0.771702,-1.467949 0.247279,-1.219124 1.035954,-1.426869 2.429121,-1.543506 0.472871,0.639978 -1.850216,0.788964 -1.628995,1.874882 z"
       inkscape:connector-curvature="0"
       sodipodi:nodetypes="cccccccccc" />
    <path
       style="opacity:1;fill:#ffeb3b;fill-opacity:1;stroke:none;stroke-width:1.60671186;stroke-miterlimit:4;stroke-dasharray:none;stroke-opacity:1;paint-order:stroke fill markers"
       id="path1835-6-6-0-5-3-7-6"
       d="m 30.474471,30.918465 c 0.784291,-0.473255 1.525754,-0.426797 2.247045,0.07166 0.542478,0.520863 0.7595,1.329078 0.803381,2.045993 0.01172,0.310641 -0.06838,0.609002 -0.155781,0.902115 -0.181557,0.564554 -0.30769,1.142979 -0.555895,1.632709 -0.398751,0.730301 -1.354585,1.278898 -1.89891,1.081244 -0.937953,-0.600234 -1.057957,-1.561199 -0.393194,-2.38888 0.639487,-0.726644 1.096949,-0.855537 1.894914,-1.172945 0.158763,-0.08622 0.284617,-0.0575 0.448278,-0.01842 0.127241,0.04104 0.250055,0.09349 0.378981,0.128967 l -0.366503,0.589566 v 0 c -0.125905,-0.04045 -0.411607,-0.131875 -0.540652,-0.160597 -0.323996,-0.03792 -0.464524,-0.08572 -0.575829,0.0078 -0.236712,0.109706 -0.479787,0.204238 -0.711647,0.32538 1.397664,-0.862363 0.587616,-0.395066 0.436184,-0.255144 -0.07028,0.06479 -0.127206,0.145596 -0.193897,0.214236 -0.579898,0.628302 -0.578805,1.198189 -0.140864,1.880725 0.140954,0.138303 0.287028,0.27367 0.460785,0.365184 0.164441,0.07294 0.338031,0.119911 0.511312,0.0483 -0.405265,0.169828 -0.819737,0.640927 -0.36862,0.140346 0.113094,-0.131292 0.218424,-0.269645 0.297045,-0.427403 0.133432,-0.232788 0.22697,-0.484656 0.301752,-0.744629 0.09155,-0.290944 0.189111,-0.579744 0.268656,-0.874661 0.08579,-0.282835 0.172659,-0.569617 0.16384,-0.870364 -0.01368,-0.221549 -0.03851,-0.441112 -0.09971,-0.654594 -0.15816,-0.99195 -1.140045,-2.071538 -2.123027,-1.659075 -0.254381,0.101523 -0.504579,0.215391 -0.746223,0.347156 l 0.658574,-0.553888 z"
       inkscape:connector-curvature="0"
       sodipodi:nodetypes="cccccccccccccccccccccccccccccc" />
    <path
       style="opacity:0.82700004;fill:#ffeb3b;fill-opacity:1;stroke:none;stroke-width:1.94736624;stroke-miterlimit:4;stroke-dasharray:none;stroke-opacity:1;paint-order:stroke fill markers"
       id="path1833-1"
       d="m 25.859376,32.779675 c -0.01872,0.3993 -0.06854,0.79614 -0.149258,1.18545 -0.04363,0.23404 -0.11124,0.45178 -0.225383,0.65381 -0.125848,0.17848 -0.240422,0.3659 -0.35481,0.55376 -0.399019,0.69038 -0.300456,0.42476 -1.381978,0.94088 4.76e-4,-0.0464 -0.0038,-0.0934 0.0019,-0.13933 0.01124,-0.0908 0.06442,-0.28831 0.08634,-0.36798 0.0678,-0.24708 0.143078,-0.49166 0.216521,-0.73664 0.153752,-0.48482 0.308628,-0.96878 0.449383,-1.4586 0.08896,-0.26262 0.156561,-0.53279 0.230029,-0.80098 0.06405,-0.24162 0.183342,-0.45359 0.316619,-0.65386 0.435562,-0.63311 0.810385,-0.73658 1.543806,-1.21267 0.34642,-0.10525 0.708551,-0.1236 1.065439,-0.14364 0.291262,-0.008 0.537321,0.11835 0.767742,0.30436 0.265988,0.2177 0.395874,0.56116 0.527491,0.88734 0.165735,0.45483 0.33582,0.90832 0.465561,1.37792 0.129408,0.39444 0.18823,0.80511 0.197125,1.22344 0.0056,0.51796 -0.09045,1.02523 -0.220588,1.51928 -0.07698,0.26773 -0.03988,0.13877 -0.110866,0.38682 l -1.100698,0.57961 v 0 c 0.07622,-0.25085 0.03614,-0.12116 0.120041,-0.3891 0.140831,-0.47762 0.237035,-0.97274 0.233868,-1.47837 -0.0038,-0.40658 -0.06161,-0.80571 -0.180158,-1.19109 -0.121727,-0.46609 -0.289937,-0.91397 -0.458484,-1.36088 -0.126784,-0.30393 -0.250961,-0.62106 -0.505933,-0.81735 -0.217856,-0.16423 -0.448596,-0.25616 -0.715893,-0.23468 -0.349939,0.0206 -0.714337,0.0344 -1.038465,0.19768 1.961595,-1.29013 1.044738,-0.76623 0.774222,-0.48013 -0.08521,0.0902 -0.158808,0.19399 -0.237782,0.29053 -0.135024,0.18504 -0.259749,0.3789 -0.331662,0.60667 -0.07547,0.27272 -0.146822,0.54695 -0.244349,0.81129 -0.146635,0.49022 -0.299882,0.97736 -0.457305,1.46341 -0.11199,0.37978 -0.226264,0.75926 -0.310981,1.14811 -0.365486,0.21724 -0.73065,0.43518 -1.096485,0.65174 -0.01685,0.008 0.03671,-0.0188 0.05075,-0.0328 0.08933,-0.0963 0.15188,-0.227 0.218582,-0.34241 0.118543,-0.18428 0.219371,-0.38309 0.355314,-0.553 0.125475,-0.18579 0.20589,-0.38265 0.247596,-0.61245 0.09888,-0.37962 0.149444,-0.7735 0.176787,-1.16717 0.09289,-2.15209 0.172854,-1.2773 -0.398969,-2.43221 l 1.066932,-0.68957 c 0.367019,1.421 0.351737,0.19825 0.408233,2.51287 z"
       inkscape:connector-curvature="0"
       sodipodi:nodetypes="ccccccccccccccccccccccccccccccccccccccccccc" />
    <path
       style="opacity:0.82700004;fill:#ffeb3b;fill-opacity:1;stroke:none;stroke-width:1.94736624;stroke-miterlimit:4;stroke-dasharray:none;stroke-opacity:1;paint-order:stroke fill markers"
       id="path1833-1-2"
       d="m 14.858452,32.563886 c -0.01872,0.3993 -0.06854,0.79614 -0.149258,1.18545 -0.04363,0.23404 -0.11124,0.45178 -0.225383,0.65381 -0.125848,0.17848 -0.240422,0.3659 -0.35481,0.55376 -0.399019,0.69038 -0.300456,0.42476 -1.381977,0.94088 4.76e-4,-0.0464 -0.0038,-0.0934 0.0019,-0.13933 0.01124,-0.0908 0.06442,-0.28831 0.08634,-0.36798 0.0678,-0.24708 0.143078,-0.49166 0.216521,-0.73664 0.153752,-0.48482 0.308627,-0.96878 0.449383,-1.4586 0.08896,-0.26262 0.15656,-0.53279 0.230028,-0.80098 0.06405,-0.24162 0.183342,-0.45359 0.316619,-0.65386 0.435562,-0.63311 0.810385,-0.73658 1.543806,-1.21267 0.34642,-0.10525 0.708551,-0.1236 1.065439,-0.14364 0.291262,-0.008 0.537321,0.11835 0.767742,0.30436 0.265987,0.2177 0.395873,0.56116 0.52749,0.88734 0.165737,0.45483 0.33582,0.90832 0.465563,1.37792 0.129406,0.39444 0.188229,0.80511 0.197125,1.22344 0.0056,0.51796 -0.09045,1.02523 -0.22059,1.51928 -0.07698,0.26773 -0.03988,0.13877 -0.110866,0.38682 l -1.100697,0.57961 v 0 c 0.07622,-0.25085 0.03614,-0.12116 0.120041,-0.3891 0.140831,-0.47762 0.237034,-0.97274 0.233868,-1.47837 -0.0038,-0.40658 -0.06161,-0.80571 -0.180158,-1.19109 -0.121727,-0.46609 -0.289937,-0.91397 -0.458484,-1.36088 -0.126784,-0.30393 -0.25096,-0.62106 -0.505933,-0.81735 -0.217856,-0.16423 -0.448596,-0.25616 -0.715893,-0.23468 -0.349939,0.0206 -0.714337,0.0344 -1.038465,0.19768 1.961595,-1.29013 1.044739,-0.76623 0.774222,-0.48013 -0.08521,0.0902 -0.158808,0.19399 -0.237782,0.29053 -0.135024,0.18504 -0.259749,0.3789 -0.331662,0.60667 -0.07547,0.27272 -0.146822,0.54695 -0.244349,0.81129 -0.146635,0.49022 -0.299882,0.97736 -0.457305,1.46341 -0.11199,0.37978 -0.226264,0.75926 -0.310981,1.14811 -0.365485,0.21724 -0.730649,0.43518 -1.096484,0.65174 -0.01685,0.008 0.03671,-0.0188 0.05075,-0.0328 0.08933,-0.0963 0.15188,-0.227 0.218581,-0.34241 0.118544,-0.18428 0.219372,-0.38309 0.355315,-0.553 0.125474,-0.18579 0.205889,-0.38265 0.247595,-0.61245 0.09888,-0.37962 0.149444,-0.7735 0.176787,-1.16717 0.09289,-2.15209 0.172854,-1.2773 -0.398969,-2.43221 l 1.066932,-0.68957 c 0.367019,1.421 0.351737,0.19825 0.408233,2.51287 z"
       inkscape:connector-curvature="0"
       sodipodi:nodetypes="ccccccccccccccccccccccccccccccccccccccccccc" />
  </g>
</svg>
