<?xml version="1.0" encoding="UTF-8" standalone="no"?>
<!-- Created with Inkscape (http://www.inkscape.org/) -->

<svg
   xmlns:dc="http://purl.org/dc/elements/1.1/"
   xmlns:cc="http://creativecommons.org/ns#"
   xmlns:rdf="http://www.w3.org/1999/02/22-rdf-syntax-ns#"
   xmlns:svg="http://www.w3.org/2000/svg"
   xmlns="http://www.w3.org/2000/svg"
   xmlns:sodipodi="http://sodipodi.sourceforge.net/DTD/sodipodi-0.dtd"
   xmlns:inkscape="http://www.inkscape.org/namespaces/inkscape"
   width="57mm"
   height="20mm"
   viewBox="0 0 57 20"
   version="1.1"
   id="svg8"
   sodipodi:docname="botonActualizar.svg"
   inkscape:version="0.92.3 (2405546, 2018-03-11)">
  <defs
     id="defs2" />
  <sodipodi:namedview
     id="base"
     pagecolor="#ffffff"
     bordercolor="#666666"
     borderopacity="1.0"
     inkscape:pageopacity="0.0"
     inkscape:pageshadow="2"
     inkscape:zoom="1.979899"
     inkscape:cx="12.602745"
     inkscape:cy="31.40498"
     inkscape:document-units="mm"
     inkscape:current-layer="layer2"
     showgrid="false"
     inkscape:window-width="1920"
     inkscape:window-height="992"
     inkscape:window-x="0"
     inkscape:window-y="0"
     inkscape:window-maximized="1"
     showguides="false" />
  <metadata
     id="metadata5">
    <rdf:RDF>
      <cc:Work
         rdf:about="">
        <dc:format>image/svg+xml</dc:format>
        <dc:type
           rdf:resource="http://purl.org/dc/dcmitype/StillImage" />
        <dc:title></dc:title>
      </cc:Work>
    </rdf:RDF>
  </metadata>
  <g
     inkscape:label="Capa 1"
     inkscape:groupmode="layer"
     id="layer1"
     transform="translate(0,-277)">
    <path
       style="opacity:0.82700004;fill:#3f51b5;fill-opacity:1;stroke:none;stroke-width:1.31633103;stroke-miterlimit:4;stroke-dasharray:none;stroke-opacity:1;paint-order:stroke fill markers"
       id="path1843-3-93-5-9-1"
       d="m 46.425885,287.42521 c 0.234077,0.19878 0.443112,0.40541 0.620631,0.62619 0.194861,0.27415 0.327204,0.56518 0.429208,0.85805 0.08477,0.27894 0.09273,0.56361 0.123196,0.84612 0.03979,0.30467 0.04508,0.60965 0.01319,0.91443 -0.03579,0.25749 -0.105979,0.51215 -0.143069,0.76966 -0.0212,0.23604 -0.03449,0.47201 -0.06359,0.70778 -0.06627,0.35445 -0.25024,0.30704 -1.070241,0.49894 -0.04637,0.0109 -0.03708,-0.0841 -0.03579,-0.16929 0.03708,-0.32714 0.13804,-0.64989 0.22215,-0.97319 0.07687,-0.34421 0.189173,-0.68446 0.25607,-1.02951 0.04637,-0.26462 0.120547,-0.52666 0.16546,-0.79127 0.03449,-0.26298 0.140021,-0.51791 0.263748,-0.76893 0.123204,-0.28376 0.351585,-0.53839 0.596128,-0.78658 0.186914,-0.19123 0.382045,-0.34973 0.668983,-0.48407 0.481929,-0.18267 0.563132,-0.21522 1.322593,-0.46768 0.02919,-0.009 0.447891,-0.11006 0.47756,-0.11724 0,0 -0.849009,0.41895 -0.849009,0.41895 v 0 c -0.07947,0.0197 -0.159762,0.0387 -0.238984,0.0593 -0.07948,0.0205 -0.307331,0.0943 -0.236327,0.064 0.271304,-0.11596 1.088784,-0.39907 0.541548,-0.20847 -0.04899,0.0195 -0.100688,0.037 -0.147577,0.0587 -0.22838,0.1052 -0.382845,0.26017 -0.545917,0.40199 -0.249043,0.24143 -0.48233,0.48995 -0.605396,0.76968 -0.124517,0.24667 -0.237647,0.49687 -0.272094,0.75606 -0.04109,0.26656 -0.119228,0.52945 -0.17327,0.79504 -0.06488,0.34726 -0.182284,0.68859 -0.262296,1.03452 -0.08077,0.31721 -0.176587,0.63488 -0.201489,0.9562 -0.01719,0.31336 -0.08478,0.12314 -0.962809,0.43673 -0.01459,0.004 0.0331,-0.007 0.04239,-0.016 0.04238,-0.0359 0.04899,-0.089 0.06228,-0.12982 0.03708,-0.23622 0.05568,-0.47248 0.07018,-0.70963 0.0331,-0.25863 0.103334,-0.51358 0.149827,-0.7712 0.03977,-0.30166 0.03708,-0.60362 0,-0.9054 -0.03178,-0.27936 -0.04239,-0.56054 -0.117899,-0.83707 -0.09538,-0.28795 -0.221492,-0.57439 -0.415693,-0.84251 -0.174997,-0.2155 -0.377286,-0.41998 -0.628587,-0.60418 0,0 0.950492,-0.35994 0.950492,-0.35994 z"
       inkscape:connector-curvature="0" />
  </g>
  <g
     inkscape:groupmode="layer"
     id="layer2"
     inkscape:label="Capa 2"
     transform="translate(0,-20)">
    <path
       style="opacity:0.82700004;fill:#3f51b5;fill-opacity:1;stroke:none;stroke-width:2.11001873;stroke-miterlimit:4;stroke-dasharray:none;stroke-opacity:1;paint-order:stroke fill markers"
       id="path1843-3-9-6"
       d="m 34.385695,34.798209 c -0.08303,0.728363 -0.312949,0.630974 -1.338092,1.02527 -0.05792,0.0226 -0.04609,-0.172879 -0.04388,-0.347843 0.304065,-2.121957 1.630959,-2.835845 1.227572,-0.642795 -0.0205,0.643955 -0.10515,0.253068 -1.203749,0.897496 -0.01814,0.0087 0.04109,-0.01497 0.05348,-0.03312 0.05351,-0.07369 0.0616,-0.182969 0.07749,-0.266801 0.353523,-4.228551 0.632132,-6.18677 -0.67906,-9.829627 l 2.315402,-0.30977 c 0.106888,1.07496 -0.249939,7.025643 -0.409189,9.507121 z"
       inkscape:connector-curvature="0"
       sodipodi:nodetypes="cccccccccc" />
    <path
       style="opacity:0.82700004;fill:#3f51b5;fill-opacity:1;stroke:none;stroke-width:1.35292971;stroke-miterlimit:4;stroke-dasharray:none;stroke-opacity:1;paint-order:stroke fill markers"
       id="path1067"
       d="m 24.066178,31.354763 c -0.479454,1.027136 -0.576177,2.291487 0.107415,3.121529 1.823919,1.161752 2.786693,-0.431506 2.425684,-2.72272 -0.0346,-0.100173 -0.05175,-0.204177 -0.09237,-0.302383 -0.02617,-0.06318 -0.01198,-0.03474 -0.03942,-0.08622 l 0.778297,-0.456328 v 0 c 0.02678,0.05782 0.01353,0.02742 0.04016,0.09126 0.04377,0.09888 0.06363,0.202788 0.09373,0.306206 0.04649,0.123955 0.08274,0.251649 0.110878,0.381292 0.449665,3.149578 -1.391781,4.093529 -3.045066,3.951444 -1.36243,-0.313665 -1.839477,-2.289698 -1.186667,-3.889215 l 0.807424,-0.394644 z"
       inkscape:connector-curvature="0"
       sodipodi:nodetypes="cccccccccccccc" />
    <path
       style="opacity:0.82700004;fill:#3f51b5;fill-opacity:1;stroke:none;stroke-width:1.24842656;stroke-miterlimit:4;stroke-dasharray:none;stroke-opacity:1;paint-order:stroke fill markers"
       id="path1805"
       d="m 37.772115,33.384442 c -0.603233,0.707152 -0.737665,1.013695 -0.790733,1.830513 0.06565,0.832544 1.135558,0.582275 2.257653,0.726871 1.952032,-0.226325 0.959168,-1.220499 0.531528,-0.85014 -0.19571,0.123308 -0.537693,0.115406 -0.868201,0.145728 -1.56232,-0.701199 -0.869729,-0.566355 0.438693,-2.283661 0.545549,-0.370504 0.985762,-1.439304 0.929267,-2.06912 -0.248463,-1.098177 -3.046102,-0.829073 -3.069522,-0.420229 -0.05027,0.626785 1.792301,-0.332081 2.36794,0.364487 -0.141501,0.572852 -1.579633,2.300212 -1.796625,2.555551 z"
       inkscape:connector-curvature="0"
       sodipodi:nodetypes="cccccccccc" />
    <path
       style="opacity:0.82700004;fill:#3f51b5;fill-opacity:1;stroke:none;stroke-width:1.50047028;stroke-miterlimit:4;stroke-dasharray:none;stroke-opacity:1;paint-order:stroke fill markers"
       id="path1837-5"
       d="m 19.062424,35.090524 c 0.180573,0.04513 0.353777,0.128477 0.541078,0.138414 0.186829,-0.01167 0.345447,-0.110902 0.502061,-0.202823 l -0.78116,0.62888 v 0 c -0.166362,0.09203 -0.344737,0.16631 -0.539309,0.150761 -1.917694,-0.417414 -2.233946,-0.976631 -1.888529,-2.92149 0.59428,-1.903713 1.272072,-2.099367 3.136364,-2.097425 -0.111531,0.08737 -0.217506,0.176281 -0.324952,0.257371 -2.174428,1.641216 -3.120243,2.793056 -0.645553,4.046312 z"
       inkscape:connector-curvature="0"
       sodipodi:nodetypes="ccccccccsc" />
    <path
       style="opacity:0.82700004;fill:#3f51b5;fill-opacity:1;stroke:none;stroke-width:1.66040635;stroke-miterlimit:4;stroke-dasharray:none;stroke-opacity:1;paint-order:stroke fill markers"
       id="path1835-6-6-5"
       d="m 28.737741,30.749855 c 0.945373,-0.419296 1.839116,-0.37815 2.708554,0.06344 0.653893,0.461489 0.915492,1.177548 0.968381,1.812712 0.01412,0.275236 -0.08242,0.539581 -0.187775,0.799277 -0.218844,0.500174 -0.370884,1.01266 -0.670068,1.446559 -0.480649,0.647018 -1.632799,1.133081 -2.288916,0.957958 -1.130595,-0.53179 -1.275246,-1.383197 -0.47395,-2.116508 0.770828,-0.643798 1.322243,-0.757996 2.284099,-1.039219 0.191374,-0.07638 0.343078,-0.05101 0.540349,-0.01626 0.153372,0.03636 0.301412,0.08268 0.456818,0.114257 l -0.441776,0.522364 v 0 c -0.151765,-0.03576 -0.496147,-0.116846 -0.651696,-0.142306 -0.390539,-0.03363 -0.559928,-0.07604 -0.694093,0.0068 -0.285331,0.0972 -0.578331,0.180939 -0.857812,0.288274 1.684727,-0.764043 0.708304,-0.350026 0.52577,-0.226036 -0.08472,0.05739 -0.153329,0.128997 -0.23372,0.189812 -0.699,0.556662 -0.697684,1.061562 -0.169795,1.666276 0.169904,0.122533 0.345981,0.242479 0.555426,0.323552 0.198214,0.06463 0.407458,0.106251 0.616326,0.04275 -0.488501,0.150456 -0.988098,0.567852 -0.444328,0.124347 0.136323,-0.116326 0.263283,-0.238902 0.358054,-0.37867 0.160838,-0.206255 0.273586,-0.429412 0.363726,-0.659748 0.110346,-0.257763 0.227952,-0.513635 0.323833,-0.774941 0.10342,-0.250584 0.208122,-0.504652 0.197491,-0.771126 -0.01648,-0.196292 -0.04645,-0.390821 -0.120187,-0.57996 -0.190642,-0.878852 -1.37419,-1.835354 -2.559064,-1.469908 -0.30663,0.08996 -0.608213,0.190834 -0.899484,0.30756 l 0.793832,-0.490721 z"
       inkscape:connector-curvature="0"
       sodipodi:nodetypes="cccccccccccccccccccccccccccccc" />
    <path
       style="opacity:1;fill:#3f51b5;fill-opacity:1;stroke:none;stroke-width:2.29415607;stroke-miterlimit:4;stroke-dasharray:none;stroke-opacity:0.98095236"
       id="path1041"
       d="m 21.498294,35.47671 c -0.114102,-0.177422 -0.194003,-0.376013 -0.263008,-0.578436 -0.09492,-0.308931 -0.138816,-0.632678 -0.188787,-0.953002 -0.04095,-0.349769 -0.09264,-0.697896 -0.133296,-1.047674 -0.0453,-0.316689 -0.06622,-0.636706 -0.08817,-0.956127 -0.03149,-0.348944 -0.05188,-0.698841 -0.07553,-1.048466 -0.01376,-0.194716 -0.02642,-0.389689 -0.01729,-0.585053 0.0049,-0.110024 0.01135,-0.156687 0.02279,-0.265349 0.04078,-0.299156 0.09671,-0.59556 0.149321,-0.892408 0.04512,-0.286348 0.103717,-0.569665 0.156872,-0.854235 0.04909,-0.254654 0.09948,-0.508969 0.155125,-0.76199 0.04242,-0.185103 0.08214,-0.371278 0.135805,-0.552941 0.0375,-0.124373 0.09489,-0.237309 0.169461,-0.338963 0.01017,-0.01277 0.0202,-0.0252 0.03107,-0.03679 0.01441,-0.0155 0.0491,-0.04922 0.0668,-0.06046 0.415258,-0.264532 0.587678,-0.439196 0.935274,-0.569061 0.06262,-0.02844 0.129584,-0.03713 0.195348,-0.05126 0.02866,-0.0068 0.05688,-0.01448 0.08542,-0.02137 0.09518,-0.0089 0.17635,0.03602 0.255687,0.08761 0.08129,0.04956 0.132375,0.129183 0.177984,0.215417 0.04632,0.08633 0.06875,0.138337 0.06485,0.240664 -0.01268,0.09133 -0.04162,0.1506 -0.101629,0.213782 -0.284707,0.178869 -0.567255,0.361963 -0.854134,0.536601 -0.01412,0.0089 -0.03143,0.0077 -0.04705,0.0115 -0.01743,0.0043 -0.0348,0.01022 -0.05235,0.01482 -0.06499,0.01805 -0.130174,0.03534 -0.195309,0.05288 -0.155754,0.04172 -0.312338,0.08047 -0.46465,0.135766 -0.112504,0.04147 -0.230044,0.06199 -0.346065,0.08787 -0.185863,0.04436 -0.373921,0.07672 -0.561947,0.107725 -0.249622,0.03627 -0.495565,0.09645 -0.740611,0.158936 -0.128779,0.03193 -0.254928,0.0797 -0.385933,0.09978 -0.09822,0.02597 -0.197704,0.04564 -0.297225,0.0648 -0.179668,0.03738 -0.359235,0.07425 -0.53998,0.105034 -0.04681,-4.5e-4 -0.164342,0.03764 -0.20843,0.02257 -0.01003,-0.0043 -0.0207,-0.01022 -0.02564,-0.01984 -0.01595,-0.03278 -0.02323,-0.06991 -0.0348,-0.104771 0.284588,-0.179627 0.567334,-0.362797 0.853753,-0.538856 0.01268,-0.0077 0.02818,-0.0077 0.04211,-0.0115 0.01708,-0.0051 0.03407,-0.0115 0.05116,-0.0166 0.06203,-0.02061 0.124143,-0.0407 0.185841,-0.0625 0.135619,-0.05484 0.27745,-0.08582 0.417945,-0.121299 0.176328,-0.04419 0.353525,-0.08302 0.532447,-0.112085 0.180865,-0.03738 0.36308,-0.06701 0.545369,-0.09478 0.163083,-0.03372 0.327515,-0.05543 0.49212,-0.0774 0.145498,-0.01933 0.291955,-0.02282 0.437748,-0.03832 0.210165,-0.01975 0.416322,-0.06633 0.622671,-0.112077 0.165823,-0.04496 0.334279,-0.07408 0.504352,-0.08979 0.230172,-0.01856 0.458245,-0.05492 0.685826,-0.0962 0.178201,-0.02623 0.351783,-0.08047 0.53029,-0.103494 0.05972,-0.0068 0.119579,-0.01328 0.179639,-0.01524 0.0111,-4.26e-4 0.02214,-0.0026 0.03299,-4.26e-4 0.01327,0.0026 0.02583,0.0077 0.03873,0.01277 0.0736,0.02308 0.130941,0.07766 0.192717,0.123743 0.04891,0.03764 0.105142,0.06148 0.153825,0.0994 l -0.810444,0.569205 v 0 c -0.05067,-0.03483 -0.103265,-0.0665 -0.15226,-0.10414 -0.04934,-0.04096 -0.100667,-0.07868 -0.16456,-0.0826 -0.07537,0.0051 -0.151098,0.0051 -0.226077,0.01669 -0.165403,0.02563 -0.330462,0.05407 -0.495912,0.07945 -0.23681,0.04189 -0.473823,0.08234 -0.712323,0.111055 -0.163497,0.02342 -0.326507,0.04973 -0.487945,0.08723 -0.212412,0.04402 -0.424969,0.08812 -0.640006,0.114129 -0.146018,0.0155 -0.292808,0.02112 -0.438439,0.04147 -0.162227,0.02035 -0.323463,0.04683 -0.484786,0.07451 -0.181298,0.02946 -0.362631,0.05884 -0.542985,0.09466 -0.179609,0.03355 -0.35779,0.07493 -0.534546,0.123479 -0.141002,0.03781 -0.281113,0.07842 -0.418204,0.131125 -0.08177,0.02819 -0.164898,0.05467 -0.244515,0.08979 -0.01509,0.0068 -0.02962,0.01431 -0.04446,0.0218 0.264866,-0.170517 0.529745,-0.341042 0.794612,-0.511567 -0.01845,-0.02827 -0.03729,-0.05663 -0.05543,-0.08543 -0.0024,-0.0043 -0.0078,-0.0077 -0.0049,-0.01022 0.0065,-0.0043 0.01555,-4.5e-4 0.02329,-5.86e-4 0.052,-0.0043 0.103795,-0.0089 0.155482,-0.01626 0.181004,-0.02665 0.359657,-0.06787 0.538011,-0.110544 0.103611,-0.02572 0.206615,-0.05586 0.311838,-0.07298 0.120014,-0.02742 0.239556,-0.05722 0.359844,-0.08328 0.24405,-0.05203 0.48798,-0.10478 0.733599,-0.147364 0.195897,-0.03909 0.391225,-0.08123 0.584835,-0.132445 0.11326,-0.02767 0.226955,-0.05365 0.33786,-0.09172 0.155044,-0.0459 0.31119,-0.08697 0.466437,-0.132045 0.06724,-0.02001 0.134654,-0.03934 0.200788,-0.06344 0.307013,-0.111702 0.738913,-0.525702 -0.683828,0.455128 0.06776,-0.03278 0.100337,-0.06054 0.132319,-0.135843 0.0042,-0.01277 0.01399,-0.03832 0.0134,-0.05339 -0.0014,-0.04479 -0.03028,-0.08697 -0.0453,-0.126561 -0.03546,-0.07212 -0.0823,-0.127958 -0.149647,-0.165731 -0.07577,-0.0407 -0.134628,-0.05177 -0.217393,-0.02699 -0.09181,0.02027 -0.183488,0.04096 -0.269071,0.08481 -0.2954,0.144588 -0.676182,0.425324 0.699647,-0.454592 0.01228,-0.0077 -0.02499,0.01405 -0.03715,0.0218 -0.03921,0.02418 -0.03643,0.02384 -0.07369,0.05339 -0.08736,0.08697 -0.149347,0.185742 -0.19422,0.306138 -0.06927,0.17807 -0.109508,0.367362 -0.159317,0.552695 -0.06079,0.252671 -0.113048,0.507607 -0.165846,0.762432 -0.05284,0.286527 -0.114142,0.570952 -0.165542,0.857785 -0.05109,0.292224 -0.100985,0.584942 -0.138551,0.879687 -0.01351,0.103118 -0.02171,0.155632 -0.02992,0.259934 -0.01516,0.193916 -0.0049,0.388258 0.0014,0.58237 0.01549,0.349889 0.03505,0.699795 0.0727,1.047819 0.02546,0.317701 0.05502,0.635113 0.0893,0.951835 0.03252,0.349548 0.08119,0.696968 0.126904,1.044685 0.05164,0.311809 0.09837,0.627092 0.196017,0.926452 0.06898,0.185809 0.144916,0.380943 0.287815,0.513457 l -0.818032,0.550489 z"
       inkscape:connector-curvature="0"
       sodipodi:nodetypes="ccccccccccccccccccccccccccccccccccccccccccccccccccccccccccccccccccccccccccccccccccccccccccccccccccccccccccc" />
    <path
       style="opacity:0.82700004;fill:#3f51b5;fill-opacity:1;stroke:none;stroke-width:1.08881998;stroke-miterlimit:4;stroke-dasharray:none;stroke-opacity:1;paint-order:stroke fill markers"
       id="path1843-3-9-6-3"
       d="m 35.930253,30.197916 c 0.03793,-0.424568 0.142961,-0.3678 0.611262,-0.597637 0.02646,-0.01317 0.02105,0.100778 0.02005,0.20276 -0.138902,1.236901 -0.745048,1.653031 -0.560774,0.374689 0.0094,-0.375366 0.04803,-0.147515 0.549891,-0.523157 0.0082,-0.0051 -0.01877,0.0087 -0.02443,0.0193 -0.02444,0.04296 -0.02814,0.10665 -0.0354,0.155521 -0.161495,2.464849 -0.288768,3.606307 0.310205,5.729751 l -1.057711,0.180568 c -0.04882,-0.626602 0.114175,-4.095292 0.186924,-5.541761 z"
       inkscape:connector-curvature="0"
       sodipodi:nodetypes="cccccccccc" />
    <path
       style="opacity:0.82700004;fill:#3f51b5;fill-opacity:1;stroke:none;stroke-width:1.64543688;stroke-miterlimit:4;stroke-dasharray:none;stroke-opacity:1;paint-order:stroke fill markers"
       id="path1835-6-6-0-5"
       d="m 41.868386,30.722458 c 0.936851,-0.415516 1.822537,-0.374727 2.684135,0.06293 0.648,0.457316 0.907238,1.166929 0.959651,1.796379 0.01399,0.272742 -0.08168,0.534703 -0.186083,0.792057 -0.216871,0.495677 -0.367539,1.003531 -0.664025,1.433513 -0.476316,0.641202 -1.618078,1.122872 -2.268281,0.949332 -1.120403,-0.527004 -1.263749,-1.370731 -0.469678,-2.097433 0.76388,-0.637992 1.310323,-0.751159 2.263507,-1.029843 0.189648,-0.0757 0.339984,-0.0505 0.535477,-0.01618 0.15199,0.03602 0.298693,0.08209 0.4527,0.113235 l -0.437794,0.517638 v 0 c -0.150396,-0.03551 -0.491673,-0.11579 -0.64582,-0.141003 -0.387019,-0.03329 -0.55488,-0.07527 -0.687836,0.0068 -0.282758,0.09633 -0.573116,0.17932 -0.850077,0.285683 1.669536,-0.757153 0.701918,-0.346866 0.52103,-0.224017 -0.08396,0.05688 -0.151947,0.127838 -0.231614,0.1881 -0.692697,0.551648 -0.691392,1.052008 -0.168264,1.651273 0.168374,0.121426 0.342862,0.240281 0.550418,0.32063 0.196428,0.06403 0.403784,0.10529 0.61077,0.04241 -0.484096,0.149109 -0.979189,0.562734 -0.440321,0.123223 0.135095,-0.115279 0.26091,-0.236748 0.354824,-0.375256 0.159388,-0.204389 0.27112,-0.425529 0.360448,-0.653787 0.109352,-0.255446 0.225897,-0.509012 0.320915,-0.76795 0.102486,-0.248328 0.206245,-0.500122 0.195708,-0.764177 -0.01634,-0.194521 -0.04601,-0.387296 -0.11909,-0.574733 -0.188924,-0.870931 -1.361802,-1.818807 -2.535993,-1.456665 -0.303866,0.08914 -0.60273,0.189114 -0.891373,0.304801 l 0.786674,-0.486311 z"
       inkscape:connector-curvature="0"
       sodipodi:nodetypes="cccccccccccccccccccccccccccccc" />
    <path
       style="opacity:1;fill:#3f51b5;fill-opacity:1;stroke:none;stroke-width:1.52592862;stroke-miterlimit:4;stroke-dasharray:none;stroke-opacity:0.98095236"
       id="path921-6"
       d="m 6.3158615,37.557663 c 0.070817,-0.899774 0.5180236,-1.816246 0.8964364,-2.705128 0.6165613,-1.505646 1.2450592,-3.014289 1.6237519,-4.536011 0.073668,-0.295971 0.1269538,-0.591925 0.1904298,-0.887895 0.2739533,-1.39454 0.2841783,-2.771538 0.3815922,-4.153331 0.0981,-0.573242 -0.042909,-1.200282 0.2223043,-1.772826 0.5269459,-0.419747 0.9952599,-0.886124 1.5808319,-1.259268 0.08055,-0.05126 0.160581,0.06318 0.227445,0.106977 0.09065,0.05952 0.169256,0.128724 0.242015,0.200805 0.409622,0.405765 0.67891,0.887367 0.967659,1.352542 0.772382,1.323787 1.401301,2.705426 2.016663,4.089373 0.34835,0.835731 0.657068,1.688067 0.831454,2.574565 0.08003,0.544324 0.142186,1.092276 0.213461,1.63844 0.02546,0.363351 0.109288,0.713095 0.214779,1.057534 0.156551,0.460918 0.302913,0.926282 0.561434,1.350823 0.132876,0.184396 0.292812,0.350613 0.50527,0.483569 0,0 -1.434212,1.243693 -1.434212,1.243693 v 0 c -0.223931,-0.149586 -0.398119,-0.328167 -0.539853,-0.529772 -0.261012,-0.430247 -0.414235,-0.899629 -0.590718,-1.360896 -0.119045,-0.347428 -0.217553,-0.701583 -0.229866,-1.074539 -0.0498,-0.552951 -0.122845,-1.102461 -0.181492,-1.653776 -0.14529,-0.895525 -0.430898,-1.759134 -0.751872,-2.606369 -0.578373,-1.391704 -1.181483,-2.779244 -2.000344,-4.078976 -0.299292,-0.439349 -0.57662,-0.89727 -1.003609,-1.269188 -0.0679,-0.05901 -0.143175,-0.113839 -0.226208,-0.161243 -0.03232,-0.01848 -0.1444438,-0.0051 -0.116026,-0.03415 0.406887,-0.415158 0.879831,-0.796016 1.319745,-1.194024 -0.03985,0.04019 -0.09384,0.07578 -0.119527,0.120583 -0.07123,0.12456 -0.105445,0.387364 -0.120804,0.499799 -0.05312,0.388811 -0.06039,0.77397 -0.114007,1.162816 -0.142174,1.404366 -0.162123,2.800915 -0.439288,4.214009 -0.06354,0.298985 -0.117106,0.597936 -0.190644,0.89693 -0.3727563,1.515557 -0.9913354,3.018086 -1.5777417,4.520394 -0.3441258,0.84835 -0.7337892,1.712556 -0.8265358,2.569873 0,0 -1.5326214,1.194688 -1.5326214,1.194688 z"
       inkscape:connector-curvature="0" />
    <path
       style="opacity:1;fill:#3f51b5;fill-opacity:1;stroke:none;stroke-width:1.85643864;stroke-miterlimit:4;stroke-dasharray:none;stroke-opacity:0.98095236"
       id="path838"
       d="m 9.4602647,31.149342 c 0.3894161,-0.08294 0.7793293,-0.17302 1.1727093,-0.242096 0.641969,-0.126577 1.278424,-0.295825 1.889899,-0.534556 0.405337,-0.182217 0.83653,-0.275083 1.2633,-0.384163 0.295366,-0.112698 0.598049,-0.186397 0.892438,-0.298814 0.121488,-0.04385 0.248509,-0.06165 0.375307,-0.07945 0,0 -1.667565,1.295815 -1.667565,1.295815 v 0 c -0.120006,0.02878 -0.239311,0.05969 -0.354238,0.106431 -0.293211,0.103153 -0.597692,0.172364 -0.892198,0.272094 -0.41449,0.106857 -0.828651,0.212479 -1.225301,0.380118 -0.626441,0.214931 -1.268065,0.381931 -1.9157611,0.513789 -0.4057323,0.08656 -0.8091967,0.181688 -1.2131024,0.276402 0,0 1.6745122,-1.305632 1.6745122,-1.305632 z"
       inkscape:connector-curvature="0" />
  </g>
</svg>
