<?xml version="1.0" encoding="UTF-8" standalone="no"?>
<!-- Created with Inkscape (http://www.inkscape.org/) -->

<svg
   xmlns:dc="http://purl.org/dc/elements/1.1/"
   xmlns:cc="http://creativecommons.org/ns#"
   xmlns:rdf="http://www.w3.org/1999/02/22-rdf-syntax-ns#"
   xmlns:svg="http://www.w3.org/2000/svg"
   xmlns="http://www.w3.org/2000/svg"
   xmlns:sodipodi="http://sodipodi.sourceforge.net/DTD/sodipodi-0.dtd"
   xmlns:inkscape="http://www.inkscape.org/namespaces/inkscape"
   width="57mm"
   height="31mm"
   viewBox="0 0 57 31"
   version="1.1"
   id="svg8"
   sodipodi:docname="botonActualizarPaso.svg"
   inkscape:version="0.92.3 (2405546, 2018-03-11)">
  <defs
     id="defs2" />
  <sodipodi:namedview
     id="base"
     pagecolor="#ffffff"
     bordercolor="#666666"
     borderopacity="1.0"
     inkscape:pageopacity="0.0"
     inkscape:pageshadow="2"
     inkscape:zoom="1.4"
     inkscape:cx="89.075888"
     inkscape:cy="143.60139"
     inkscape:document-units="mm"
     inkscape:current-layer="layer2"
     showgrid="false"
     inkscape:window-width="960"
     inkscape:window-height="992"
     inkscape:window-x="960"
     inkscape:window-y="0"
     inkscape:window-maximized="0"
     showguides="false" />
  <metadata
     id="metadata5">
    <rdf:RDF>
      <cc:Work
         rdf:about="">
        <dc:format>image/svg+xml</dc:format>
        <dc:type
           rdf:resource="http://purl.org/dc/dcmitype/StillImage" />
        <dc:title></dc:title>
      </cc:Work>
    </rdf:RDF>
  </metadata>
  <g
     inkscape:label="Capa 1"
     inkscape:groupmode="layer"
     id="layer1"
     transform="translate(0,-266)">
    <path
       style="opacity:1;fill:#37469e;fill-opacity:1;stroke:none;stroke-width:1.28535151;stroke-miterlimit:4;stroke-dasharray:none;stroke-opacity:1;paint-order:stroke fill markers"
       id="path1843-3-93-5-9-1"
       d="m 37.759544,276.69869 c 0.195961,0.22641 0.370956,0.46176 0.519568,0.71321 0.163129,0.31224 0.27392,0.64372 0.359315,0.97728 0.07097,0.3177 0.07763,0.64193 0.103134,0.96369 0.03332,0.347 0.03774,0.69436 0.01096,1.04149 -0.02996,0.29327 -0.08873,0.58331 -0.119777,0.87661 -0.01775,0.26884 -0.02888,0.5376 -0.05325,0.80614 -0.05547,0.40368 -0.209491,0.3497 -0.895962,0.56824 -0.03881,0.0118 -0.03103,-0.0956 -0.02996,-0.1928 0.03103,-0.37259 0.115566,-0.74019 0.185974,-1.10841 0.06436,-0.39205 0.158368,-0.77958 0.214371,-1.17257 0.03881,-0.30139 0.100918,-0.59985 0.138517,-0.90122 0.02888,-0.29952 0.117224,-0.58988 0.2208,-0.87577 0.103145,-0.3232 0.294331,-0.61321 0.499051,-0.89589 0.156478,-0.21781 0.319833,-0.39832 0.560046,-0.55132 0.403451,-0.20807 0.47143,-0.24513 1.107218,-0.53268 0.02443,-0.0106 0.374957,-0.12526 0.399794,-0.13357 0,0 -0.710754,0.47714 -0.710754,0.47714 v 0 c -0.06652,0.0224 -0.133746,0.044 -0.200069,0.0677 -0.06654,0.0231 -0.257285,0.10745 -0.197843,0.0729 0.227125,-0.13207 0.911485,-0.45451 0.453363,-0.23743 -0.04101,0.0223 -0.08429,0.0421 -0.123547,0.0668 -0.19119,0.11978 -0.320501,0.29631 -0.457018,0.45786 -0.208489,0.27496 -0.403787,0.55802 -0.506812,0.87662 -0.104242,0.28096 -0.19895,0.56592 -0.227786,0.86114 -0.0344,0.30356 -0.09981,0.60301 -0.145053,0.90549 -0.05431,0.39552 -0.152602,0.78429 -0.219583,1.17828 -0.06761,0.36128 -0.147833,0.72308 -0.168679,1.08907 -0.01438,0.3569 -0.07097,0.14021 -0.806024,0.49741 -0.01221,0.005 0.02771,-0.008 0.03548,-0.0183 0.03547,-0.0407 0.04101,-0.10131 0.05213,-0.14786 0.03103,-0.26905 0.04662,-0.53813 0.05876,-0.80824 0.02771,-0.29456 0.0865,-0.58494 0.12543,-0.87836 0.03328,-0.34358 0.03103,-0.6875 0,-1.03121 -0.02661,-0.31818 -0.03548,-0.63843 -0.0987,-0.95339 -0.07984,-0.32796 -0.185424,-0.65419 -0.348,-0.95957 -0.1465,-0.24546 -0.315848,-0.47833 -0.526227,-0.68813 0,0 0.795711,-0.40996 0.795711,-0.40996 z"
       inkscape:connector-curvature="0" />
  </g>
  <g
     inkscape:groupmode="layer"
     id="layer2"
     inkscape:label="Capa 2"
     transform="translate(0,-9)">
    <path
       style="opacity:1;fill:#37469e;fill-opacity:1;stroke:none;stroke-width:2.06035995;stroke-miterlimit:4;stroke-dasharray:none;stroke-opacity:1;paint-order:stroke fill markers"
       id="path1843-3-9-6"
       d="m 27.680006,24.679343 c -0.06951,0.829572 -0.261986,0.718652 -1.120193,1.167735 -0.04849,0.02574 -0.03858,-0.196902 -0.03674,-0.396176 0.254551,-2.416813 1.365371,-3.229898 1.027673,-0.732115 -0.01716,0.733435 -0.08803,0.288232 -1.007729,1.022207 -0.01518,0.01004 0.0344,-0.01704 0.04477,-0.03773 0.04481,-0.08393 0.05157,-0.208392 0.06488,-0.303871 0.295953,-4.816128 0.529194,-7.04645 -0.568482,-11.195496 l 1.938358,-0.352813 c 0.08948,1.22433 -0.20924,8.001885 -0.342556,10.828174 z"
       inkscape:connector-curvature="0"
       sodipodi:nodetypes="cccccccccc" />
    <path
       style="opacity:1;fill:#37469e;fill-opacity:1;stroke:none;stroke-width:1.32108891;stroke-miterlimit:4;stroke-dasharray:none;stroke-opacity:1;paint-order:stroke fill markers"
       id="path1067"
       d="m 19.040941,20.757417 c -0.401378,1.16986 -0.48235,2.609898 0.08992,3.555277 1.526908,1.323182 2.332902,-0.491465 2.030681,-3.101052 -0.02896,-0.114099 -0.04332,-0.232551 -0.07734,-0.344401 -0.0219,-0.07196 -0.01003,-0.03957 -0.03299,-0.09821 l 0.651557,-0.519738 v 0 c 0.02243,0.06586 0.01131,0.03124 0.03362,0.103944 0.03665,0.112622 0.05326,0.230966 0.07847,0.348755 0.03892,0.141176 0.06928,0.286615 0.09282,0.434276 0.376441,3.587224 -1.165139,4.662339 -2.549199,4.500512 -1.14057,-0.357251 -1.539932,-2.607863 -0.993428,-4.429638 l 0.675941,-0.449482 z"
       inkscape:connector-curvature="0"
       sodipodi:nodetypes="cccccccccccccc" />
    <path
       style="opacity:1;fill:#37469e;fill-opacity:1;stroke:none;stroke-width:1.21904504;stroke-miterlimit:4;stroke-dasharray:none;stroke-opacity:1;paint-order:stroke fill markers"
       id="path1805"
       d="m 30.514974,23.069126 c -0.505002,0.805415 -0.617542,1.154553 -0.661969,2.084871 0.05496,0.948229 0.950641,0.663185 1.890012,0.827873 1.63416,-0.257774 0.802975,-1.390092 0.444973,-0.968271 -0.163839,0.140445 -0.450133,0.131442 -0.726821,0.16598 -1.307908,-0.798634 -0.728101,-0.645054 0.367256,-2.600986 0.45671,-0.421986 0.825238,-1.6393 0.777943,-2.356632 -0.208002,-1.250773 -2.55007,-0.944277 -2.569675,-0.478622 -0.04209,0.713881 1.500439,-0.378224 1.982341,0.415135 -0.118459,0.652451 -1.322404,2.619834 -1.50406,2.910652 z"
       inkscape:connector-curvature="0"
       sodipodi:nodetypes="cccccccccc" />
    <path
       style="opacity:1;fill:#37469e;fill-opacity:1;stroke:none;stroke-width:1.46515703;stroke-miterlimit:4;stroke-dasharray:none;stroke-opacity:1;paint-order:stroke fill markers"
       id="path1837-5"
       d="m 14.852009,25.012276 c 0.151169,0.0514 0.296167,0.146326 0.452968,0.15764 0.156405,-0.01329 0.289194,-0.12631 0.420306,-0.231007 l -0.653955,0.716267 v 0 c -0.139273,0.104806 -0.2886,0.189418 -0.451487,0.171709 -1.605412,-0.475415 -1.870164,-1.112337 -1.580996,-3.327444 0.497505,-2.168243 1.064924,-2.391083 2.62563,-2.388871 -0.09336,0.09952 -0.182087,0.200777 -0.272036,0.293134 -1.820339,1.86927 -2.612135,3.181164 -0.54043,4.608563 z"
       inkscape:connector-curvature="0"
       sodipodi:nodetypes="ccccccccsc" />
    <path
       style="opacity:1;fill:#37469e;fill-opacity:1;stroke:none;stroke-width:1.62132907;stroke-miterlimit:4;stroke-dasharray:none;stroke-opacity:1;paint-order:stroke fill markers"
       id="path1835-6-6-5"
       d="m 22.951778,20.068454 c 0.791426,-0.47756 1.539629,-0.430696 2.267485,0.07225 0.547414,0.525614 0.766412,1.341174 0.810689,2.064595 0.01185,0.313482 -0.06901,0.61456 -0.157197,0.91034 -0.183208,0.569676 -0.310488,1.153373 -0.560952,1.647565 -0.402379,0.736923 -1.366912,1.290527 -1.916185,1.09107 -0.946487,-0.605685 -1.067583,-1.575399 -0.396771,-2.410606 0.645305,-0.733256 1.106925,-0.863321 1.91215,-1.183622 0.160211,-0.087 0.287211,-0.05811 0.452359,-0.01853 0.128396,0.04142 0.25233,0.09416 0.382428,0.130127 l -0.369836,0.594949 v 0 c -0.127051,-0.04074 -0.415352,-0.133087 -0.545572,-0.162074 -0.326944,-0.03832 -0.468748,-0.0866 -0.581066,0.0078 -0.238867,0.11071 -0.484154,0.206082 -0.718123,0.328331 1.410382,-0.870208 0.59296,-0.398663 0.440151,-0.257443 -0.07093,0.06537 -0.128361,0.146924 -0.195659,0.216187 -0.585174,0.634012 -0.584071,1.20907 -0.142145,1.897812 0.142235,0.139563 0.28964,0.276172 0.46498,0.368511 0.165935,0.07361 0.341105,0.121007 0.515961,0.0487 -0.408954,0.171364 -0.827193,0.646757 -0.371973,0.141626 0.11412,-0.132489 0.220409,-0.272097 0.299749,-0.431288 0.134645,-0.234915 0.229033,-0.489079 0.304494,-0.751421 0.09238,-0.293581 0.190832,-0.585009 0.271101,-0.882623 0.08657,-0.285403 0.17423,-0.574776 0.16533,-0.878278 -0.0138,-0.223567 -0.03888,-0.445128 -0.100614,-0.660546 -0.159599,-1.000973 -1.150414,-2.090385 -2.14234,-1.674159 -0.256699,0.102467 -0.50917,0.21735 -0.753011,0.350297 l 0.664562,-0.55891 z"
       inkscape:connector-curvature="0"
       sodipodi:nodetypes="cccccccccccccccccccccccccccccc" />
    <path
       style="opacity:1;fill:#37469e;fill-opacity:1;stroke:none;stroke-width:2.24016356;stroke-miterlimit:4;stroke-dasharray:none;stroke-opacity:0.98095236"
       id="path1041"
       d="m 16.891218,25.452124 c -0.09552,-0.202074 -0.162413,-0.428262 -0.220181,-0.658813 -0.07946,-0.351857 -0.116208,-0.72059 -0.158043,-1.085425 -0.03429,-0.39837 -0.07755,-0.794871 -0.11159,-1.193252 -0.03793,-0.360695 -0.05543,-0.725178 -0.07381,-1.088984 -0.02636,-0.397431 -0.04344,-0.795948 -0.06324,-1.194155 -0.01143,-0.221774 -0.02211,-0.443838 -0.01447,-0.666349 0.0042,-0.125311 0.0094,-0.178459 0.01907,-0.302221 0.03414,-0.340724 0.08095,-0.678315 0.125005,-1.016411 0.03778,-0.326137 0.08684,-0.648822 0.131328,-0.972935 0.0411,-0.290038 0.08327,-0.579691 0.129864,-0.86787 0.03551,-0.210825 0.06876,-0.422869 0.1137,-0.629775 0.03139,-0.141658 0.07945,-0.270285 0.141866,-0.386064 0.0086,-0.01462 0.01692,-0.02872 0.02601,-0.04189 0.01209,-0.01767 0.0411,-0.05606 0.05592,-0.06886 0.347637,-0.301292 0.49198,-0.500226 0.782972,-0.648135 0.05242,-0.03239 0.108476,-0.0423 0.163538,-0.05838 0.02399,-0.0078 0.04762,-0.01644 0.07151,-0.02434 0.07968,-0.01016 0.147633,0.04104 0.214051,0.09978 0.06805,0.05645 0.110808,0.147141 0.149,0.24535 0.03878,0.09833 0.05754,0.157555 0.05429,0.274105 -0.01061,0.104015 -0.03484,0.171526 -0.08507,0.243488 -0.238346,0.203724 -0.474882,0.41226 -0.715045,0.611164 -0.01185,0.01015 -0.02631,0.0089 -0.03938,0.01312 -0.0146,0.0048 -0.02913,0.01169 -0.04383,0.01688 -0.05442,0.02057 -0.108977,0.04025 -0.163506,0.06022 -0.130391,0.04751 -0.261476,0.09166 -0.388985,0.154633 -0.09418,0.04723 -0.192582,0.0706 -0.28971,0.100071 -0.155598,0.05051 -0.313031,0.08739 -0.47044,0.122686 -0.208973,0.04132 -0.414865,0.109848 -0.620009,0.181021 -0.10781,0.03636 -0.213413,0.09077 -0.323085,0.11365 -0.08223,0.02957 -0.16551,0.05198 -0.248823,0.07381 -0.150413,0.04257 -0.300737,0.08458 -0.45205,0.11963 -0.03919,-5.13e-4 -0.137581,0.04286 -0.174488,0.02571 -0.0084,-0.0048 -0.01733,-0.01169 -0.02146,-0.02259 -0.01334,-0.03732 -0.01945,-0.07963 -0.02913,-0.119331 0.238245,-0.204587 0.474949,-0.41321 0.714727,-0.613733 0.01061,-0.0089 0.02359,-0.0089 0.03526,-0.01312 0.0143,-0.0058 0.02853,-0.01312 0.04284,-0.0189 0.05193,-0.02347 0.103927,-0.04635 0.155577,-0.07119 0.113537,-0.06246 0.23227,-0.09776 0.349885,-0.138154 0.147616,-0.05034 0.295957,-0.09456 0.445743,-0.127653 0.151413,-0.04257 0.303956,-0.07633 0.456561,-0.107947 0.136526,-0.03841 0.274181,-0.06312 0.411981,-0.08815 0.121804,-0.02201 0.244414,-0.02598 0.366465,-0.04365 0.175941,-0.02249 0.348528,-0.07555 0.521274,-0.127654 0.138819,-0.0512 0.279844,-0.08437 0.422222,-0.102267 0.19269,-0.02114 0.383624,-0.06255 0.574145,-0.109564 0.149182,-0.02986 0.294497,-0.09166 0.443936,-0.117865 0.05,-0.0078 0.100102,-0.01513 0.150385,-0.01736 0.0093,-4.86e-4 0.01854,-0.003 0.02762,-4.86e-4 0.01108,0.003 0.02162,0.0089 0.03242,0.01462 0.06161,0.0263 0.109618,0.08845 0.161335,0.140943 0.04094,0.04286 0.08802,0.07003 0.128776,0.113213 l -0.678469,0.648297 v 0 c -0.04242,-0.03969 -0.08646,-0.07574 -0.127466,-0.118616 -0.04132,-0.04665 -0.08429,-0.08961 -0.137762,-0.09408 -0.0631,0.0058 -0.126494,0.0058 -0.189263,0.019 -0.138468,0.02918 -0.276648,0.06159 -0.415157,0.0905 -0.198247,0.04772 -0.396665,0.09378 -0.596327,0.12649 -0.136873,0.02669 -0.273338,0.05663 -0.408486,0.09934 -0.177823,0.05014 -0.355766,0.100354 -0.535787,0.12998 -0.12224,0.01767 -0.245126,0.02406 -0.367043,0.04723 -0.135808,0.02318 -0.270788,0.05334 -0.405842,0.08486 -0.151776,0.03356 -0.303581,0.06701 -0.454564,0.107816 -0.15036,0.03821 -0.299526,0.08533 -0.447498,0.140645 -0.118043,0.04306 -0.235338,0.08933 -0.350104,0.14935 -0.06846,0.03211 -0.138045,0.06227 -0.204698,0.102267 -0.01262,0.0078 -0.02479,0.01628 -0.03722,0.02484 0.221735,-0.194209 0.443481,-0.388429 0.665216,-0.582651 -0.01544,-0.0322 -0.03122,-0.06449 -0.0464,-0.0973 -0.002,-0.0048 -0.0064,-0.0089 -0.0042,-0.01157 0.0055,-0.0048 0.013,-5.11e-4 0.0195,-6.66e-4 0.04353,-0.0048 0.08689,-0.01016 0.130163,-0.01853 0.15153,-0.03034 0.301089,-0.0773 0.4504,-0.12591 0.08674,-0.0293 0.17297,-0.06363 0.261059,-0.0831 0.100475,-0.03124 0.200545,-0.06517 0.301245,-0.09486 0.204309,-0.05926 0.408516,-0.119347 0.614139,-0.167843 0.163996,-0.04452 0.327517,-0.09251 0.489598,-0.150846 0.09482,-0.03151 0.189997,-0.0611 0.282843,-0.104463 0.129796,-0.05229 0.260515,-0.09906 0.39048,-0.150396 0.0563,-0.0228 0.112733,-0.0448 0.168094,-0.07225 0.257016,-0.12722 0.618584,-0.598749 -0.572474,0.518371 0.05673,-0.03734 0.08401,-0.06895 0.110773,-0.154716 0.0035,-0.01462 0.01171,-0.04365 0.0112,-0.0608 -0.0012,-0.05102 -0.02534,-0.09904 -0.03793,-0.144151 -0.02969,-0.08214 -0.06889,-0.145745 -0.125278,-0.18876 -0.06343,-0.04635 -0.112709,-0.05896 -0.181993,-0.03073 -0.07686,0.0231 -0.153607,0.04665 -0.225252,0.09659 -0.247298,0.164685 -0.566073,0.484425 0.585714,-0.517759 0.01026,-0.0089 -0.02092,0.01595 -0.03111,0.02483 -0.03282,0.02754 -0.03051,0.02715 -0.0617,0.0608 -0.07313,0.09906 -0.125026,0.211552 -0.162592,0.348677 -0.05799,0.202814 -0.09168,0.41841 -0.133373,0.629495 -0.0509,0.287781 -0.09463,0.578141 -0.13884,0.868375 -0.04424,0.326341 -0.09555,0.650288 -0.138584,0.976977 -0.04278,0.33283 -0.08454,0.666223 -0.115986,1.001924 -0.01131,0.117452 -0.01817,0.177257 -0.02505,0.296053 -0.01268,0.220862 -0.0042,0.442208 0.0012,0.663293 0.01297,0.398507 0.02934,0.797034 0.06086,1.193418 0.02132,0.361846 0.04607,0.723364 0.07475,1.084095 0.02722,0.39812 0.06797,0.793814 0.106236,1.189848 0.04323,0.355138 0.08235,0.714229 0.164099,1.055189 0.05774,0.211627 0.121315,0.433876 0.240946,0.584801 l -0.684823,0.626983 z"
       inkscape:connector-curvature="0"
       sodipodi:nodetypes="ccccccccccccccccccccccccccccccccccccccccccccccccccccccccccccccccccccccccccccccccccccccccccccccccccccccccccc" />
    <path
       style="opacity:1;fill:#37469e;fill-opacity:1;stroke:none;stroke-width:1.06319487;stroke-miterlimit:4;stroke-dasharray:none;stroke-opacity:1;paint-order:stroke fill markers"
       id="path1843-3-9-6-3"
       d="m 28.973044,19.43982 c 0.03175,-0.483565 0.11968,-0.418907 0.511723,-0.68068 0.02216,-0.01495 0.01762,0.114771 0.01679,0.230934 -0.11629,1.408772 -0.623723,1.882726 -0.469457,0.426753 0.0078,-0.427524 0.04021,-0.168013 0.460346,-0.595851 0.0068,-0.0058 -0.01571,0.01004 -0.02046,0.02197 -0.02047,0.04893 -0.02356,0.121475 -0.02964,0.177131 -0.135196,2.807351 -0.241745,4.107418 0.259692,6.525924 l -0.885472,0.205657 c -0.04087,-0.71367 0.09559,-4.664349 0.156484,-6.311809 z"
       inkscape:connector-curvature="0"
       sodipodi:nodetypes="cccccccccc" />
    <path
       style="opacity:1;fill:#37469e;fill-opacity:1;stroke:none;stroke-width:1.60671186;stroke-miterlimit:4;stroke-dasharray:none;stroke-opacity:1;paint-order:stroke fill markers"
       id="path1835-6-6-0-5"
       d="m 33.944199,20.03725 c 0.784292,-0.473254 1.525752,-0.426798 2.247045,0.07166 0.54248,0.520859 0.759502,1.329077 0.80338,2.045992 0.01171,0.31064 -0.06838,0.609001 -0.155781,0.902116 -0.181556,0.564554 -0.30769,1.142975 -0.555895,1.632706 -0.398751,0.730299 -1.354586,1.278899 -1.898909,1.081246 -0.937954,-0.600235 -1.057958,-1.561201 -0.393195,-2.38888 0.639489,-0.726644 1.096948,-0.855537 1.894913,-1.172945 0.158766,-0.08622 0.284621,-0.0575 0.448279,-0.01843 0.127241,0.04104 0.250053,0.09349 0.378982,0.128966 l -0.366503,0.589566 v 0 c -0.125905,-0.04045 -0.411609,-0.131874 -0.540652,-0.160598 -0.323996,-0.03791 -0.464523,-0.08572 -0.575829,0.0078 -0.236712,0.109717 -0.479788,0.204236 -0.711647,0.325379 1.397663,-0.862362 0.587616,-0.395064 0.436183,-0.255143 -0.07028,0.06479 -0.127203,0.145595 -0.193896,0.214236 -0.579898,0.628302 -0.578805,1.198188 -0.140864,1.880724 0.140953,0.138302 0.287029,0.273668 0.460786,0.365182 0.164441,0.07294 0.338031,0.119913 0.511311,0.04831 -0.405266,0.169827 -0.819736,0.640927 -0.368619,0.140344 0.113094,-0.13129 0.218424,-0.269645 0.297044,-0.427399 0.133434,-0.23279 0.226969,-0.484658 0.301752,-0.744633 0.09155,-0.290941 0.189111,-0.579742 0.268657,-0.87466 0.08579,-0.282834 0.172658,-0.569616 0.163838,-0.870363 -0.01367,-0.22155 -0.03851,-0.441113 -0.09971,-0.654594 -0.158158,-0.99195 -1.140042,-2.071539 -2.123025,-1.659075 -0.254384,0.101524 -0.504581,0.215392 -0.746219,0.347156 l 0.65857,-0.553886 z"
       inkscape:connector-curvature="0"
       sodipodi:nodetypes="cccccccccccccccccccccccccccccc" />
    <path
       style="opacity:1;fill:#37469e;fill-opacity:1;stroke:none;stroke-width:1.49001622;stroke-miterlimit:4;stroke-dasharray:none;stroke-opacity:0.98095236"
       id="path921-6"
       d="m 4.181125,27.822235 c 0.059284,-1.024803 0.4336675,-2.068621 0.7504587,-3.081018 0.5161592,-1.714862 1.0423111,-3.433136 1.3593366,-5.166308 0.061672,-0.337097 0.1062794,-0.674175 0.1594199,-1.011271 0.2293422,-1.588318 0.2379021,-3.156655 0.319453,-4.730453 0.082125,-0.652896 -0.035921,-1.367066 0.1861037,-2.019169 0.4411368,-0.478071 0.8331897,-1.009254 1.3234059,-1.434249 0.067434,-0.05838 0.1344316,0.07196 0.1904073,0.121841 0.075888,0.06779 0.141694,0.146608 0.2026047,0.228706 0.3429184,0.462149 0.5683555,1.01067 0.8100828,1.540484 0.6466074,1.507733 1.1731114,3.081356 1.6882654,4.657609 0.291626,0.95186 0.550071,1.922629 0.696059,2.932311 0.067,0.619958 0.119033,1.244051 0.178701,1.866107 0.02131,0.413841 0.09149,0.812184 0.179804,1.204484 0.131058,0.524963 0.253584,1.054991 0.470008,1.538525 0.11124,0.210019 0.24513,0.39933 0.422992,0.550762 0,0 -1.200662,1.416509 -1.200662,1.416509 v 0 C 11.730099,26.266738 11.584277,26.063341 11.465622,25.833723 11.247115,25.343692 11.118842,24.809085 10.971098,24.283725 10.871438,23.88802 10.788972,23.484652 10.778664,23.059875 10.736973,22.430089 10.675824,21.804222 10.626726,21.1763 10.505096,20.156338 10.265998,19.172728 9.997291,18.207765 9.513101,16.622679 9.0082027,15.042334 8.3226867,13.561999 8.0721322,13.061601 7.8399649,12.540049 7.4825076,12.11645 7.4256647,12.049235 7.3626482,11.986787 7.2931359,11.932803 c -0.027057,-0.02104 -0.1209219,-0.0058 -0.097132,-0.03889 0.3406286,-0.472847 0.7365574,-0.906626 1.1048349,-1.359938 -0.033361,0.04577 -0.078558,0.0863 -0.1000631,0.137338 -0.059629,0.141875 -0.088273,0.441193 -0.1011315,0.569249 -0.04447,0.442838 -0.050556,0.881518 -0.095441,1.324394 -0.1190218,1.599509 -0.1357225,3.190115 -0.3677534,4.799565 -0.053194,0.34053 -0.098036,0.68102 -0.1595991,1.02156 -0.3120558,1.72615 -0.8299042,3.437462 -1.3208189,5.148523 -0.2880876,0.966231 -0.6142973,1.950522 -0.6919409,2.926965 0,0 -1.283046,1.360696 -1.283046,1.360696 z"
       inkscape:connector-curvature="0" />
    <path
       style="opacity:1;fill:#37469e;fill-opacity:1;stroke:none;stroke-width:1.81274772;stroke-miterlimit:4;stroke-dasharray:none;stroke-opacity:0.98095236"
       id="path838"
       d="m 6.8134867,20.523451 c 0.3260029,-0.09446 0.6524217,-0.197061 0.9817429,-0.275736 0.5374294,-0.144168 1.0702426,-0.33693 1.5821436,-0.608834 0.3393308,-0.207537 0.7003078,-0.313309 1.0575818,-0.437544 0.247269,-0.128352 0.500661,-0.212299 0.747112,-0.340335 0.101699,-0.04993 0.208042,-0.07022 0.314191,-0.0905 0,0 -1.396015,1.475874 -1.396015,1.475874 v 0 c -0.1004632,0.03277 -0.2003413,0.06798 -0.2965534,0.121225 -0.2454641,0.117487 -0.5003622,0.196314 -0.746911,0.309902 -0.3469933,0.121706 -0.6937114,0.242002 -1.0257701,0.432936 -0.5244299,0.244796 -1.0615705,0.435004 -1.6037945,0.585182 -0.339662,0.09858 -0.6774254,0.206936 -1.0155582,0.314809 0,0 1.4018309,-1.487054 1.4018309,-1.487054 z"
       inkscape:connector-curvature="0" />
    <path
       style="opacity:1;fill:#37469e;fill-opacity:1;stroke:none;stroke-width:2.37593508;stroke-miterlimit:4;stroke-dasharray:none;stroke-opacity:0.98095236"
       id="path923"
       d="m 37.123959,38.5754 c 0.270608,-0.492179 0.397155,-1.031884 0.538145,-1.560822 0.141545,-0.53338 0.261048,-1.073156 0.291829,-1.621422 0.02087,-0.371855 0.0068,-0.494884 -0.0084,-0.864027 -0.03862,-0.789068 -0.197433,-1.56774 -0.350896,-2.344227 -0.155615,-0.769314 -0.330555,-1.536159 -0.539586,-2.295651 -0.150694,-0.466572 -0.310296,-0.930914 -0.466129,-1.396202 -0.111974,-0.366079 -0.229579,-0.729153 -0.361335,-1.090111 -0.01978,-0.06985 -0.04568,-0.134189 -0.03929,-0.207431 0.05107,-0.585131 1.094177,-0.673597 1.677289,-0.957447 0.0059,-0.0026 0.265123,-0.0091 0.280051,-0.0094 0.390521,-0.0056 0.780075,0.04023 1.165246,0.09303 0.429245,0.07452 0.857301,0.153104 1.279753,0.253725 0.393774,0.09974 0.781942,0.212911 1.147752,0.376307 0.406342,0.163423 0.751392,0.413566 1.113857,0.638144 0.297288,0.186607 0.577188,0.392951 0.867166,0.587936 0.236742,0.165198 0.344889,0.404816 0.43404,0.650607 0.115111,0.328081 0.0942,0.65792 0.02824,0.990913 -0.07354,0.363263 -0.249934,0.695849 -0.460754,1.011226 -0.167985,0.238104 -0.396389,0.442077 -0.673493,0.582527 -0.576077,0.291978 -1.15655,0.577175 -1.734821,0.865761 -0.462096,0.176762 -0.951252,0.264439 -1.448487,0.317978 -0.647526,0.04871 -1.291185,-0.04408 -1.929928,-0.125189 -0.395914,-0.0547 -0.78721,-0.130861 -1.182934,-0.186643 0,0 1.487161,-0.914935 1.487161,-0.914935 v 0 c 0.378842,0.07299 0.75601,0.154632 1.139821,0.205499 0.631234,0.08351 1.269658,0.161251 1.907811,0.08389 0.493674,-0.07076 0.981525,-0.173799 1.432313,-0.370963 -0.451268,0.23275 -0.903182,0.464519 -1.353795,0.698249 -0.0567,0.0294 0.116014,-0.05487 0.172034,-0.08529 0.205645,-0.111633 0.392245,-0.251701 0.528981,-0.428248 0.223525,-0.293828 0.414685,-0.607887 0.493039,-0.958481 0.07007,-0.30635 0.108595,-0.610768 0.002,-0.915665 -0.07935,-0.21804 -0.17776,-0.421071 -0.390532,-0.564216 -0.272452,-0.202563 -0.532431,-0.418866 -0.825828,-0.598674 -0.358232,-0.22031 -0.712871,-0.448456 -1.111984,-0.609659 -0.361215,-0.149336 -0.741228,-0.256428 -1.124654,-0.352574 -0.418694,-0.09559 -0.841582,-0.17704 -1.268622,-0.238173 -0.382456,-0.04461 -0.770066,-0.08802 -1.15586,-0.05074 -0.04832,0.0076 -0.09766,0.01098 -0.144933,0.02267 -0.03841,0.0094 -0.144421,0.05881 -0.110556,0.04027 0.490024,-0.268008 0.990909,-0.52043 1.480251,-0.789402 0.02062,-0.01134 -0.05284,4.1e-4 -0.07086,0.01473 -0.04507,0.03577 -0.01726,0.132838 -0.01358,0.165153 0.04485,0.171289 0.108053,0.336213 0.160138,0.505777 0.06059,0.197278 0.103106,0.39903 0.178368,0.592817 0.153723,0.47247 0.299431,0.946764 0.423517,1.426074 0.195184,0.766653 0.358065,1.539693 0.524493,2.311493 0.166116,0.782361 0.330643,1.56869 0.355104,2.366613 0.01387,0.350609 0.02745,0.52639 0.01491,0.878847 -0.01958,0.5512 -0.122682,1.0952 -0.258473,1.632687 -0.127263,0.518174 -0.236551,1.040756 -0.420819,1.546416 0,0 -1.676481,0.676229 -1.676481,0.676229 z"
       inkscape:connector-curvature="0" />
    <path
       style="opacity:1;fill:#37469e;fill-opacity:1;stroke:none;stroke-width:1.60671186;stroke-miterlimit:4;stroke-dasharray:none;stroke-opacity:1;paint-order:stroke fill markers"
       id="path1835-6-6-0-5-3"
       d="m 42.189213,32.346807 c 0.784292,-0.473254 1.525753,-0.426797 2.247046,0.07166 0.542478,0.520863 0.7595,1.329079 0.803379,2.045994 0.01172,0.31064 -0.06838,0.609002 -0.155781,0.902115 -0.181556,0.564554 -0.307688,1.142978 -0.555895,1.632708 -0.398751,0.730301 -1.354584,1.278899 -1.898908,1.081245 -0.937953,-0.600235 -1.057958,-1.5612 -0.393194,-2.38888 0.639487,-0.726644 1.096947,-0.855538 1.894913,-1.172946 0.158764,-0.08622 0.284618,-0.0575 0.448277,-0.01842 0.127241,0.04104 0.250055,0.09349 0.378982,0.128967 l -0.366504,0.589566 v 0 c -0.125904,-0.04045 -0.411607,-0.131875 -0.540651,-0.160597 -0.323997,-0.03792 -0.464524,-0.08572 -0.575828,0.0078 -0.236713,0.109706 -0.479789,0.204238 -0.711649,0.32538 1.397664,-0.862363 0.587616,-0.395066 0.436184,-0.255144 -0.07028,0.06479 -0.127204,0.145596 -0.193896,0.214236 -0.579897,0.628302 -0.578805,1.198189 -0.140864,1.880724 0.140955,0.138304 0.287029,0.273669 0.460786,0.365183 0.164441,0.07294 0.338031,0.119912 0.511312,0.0483 -0.405265,0.169829 -0.819737,0.640927 -0.36862,0.140346 0.113094,-0.131292 0.218423,-0.269645 0.297044,-0.427401 0.133433,-0.23279 0.226971,-0.484658 0.301753,-0.74463 0.09155,-0.290944 0.18911,-0.579744 0.268655,-0.874661 0.08579,-0.282835 0.172659,-0.569617 0.163839,-0.870364 -0.01367,-0.221549 -0.03851,-0.441112 -0.09971,-0.654594 -0.158159,-0.99195 -1.140044,-2.071538 -2.123027,-1.659075 -0.254382,0.101523 -0.504579,0.215391 -0.746219,0.347156 l 0.65857,-0.553888 z"
       inkscape:connector-curvature="0"
       sodipodi:nodetypes="cccccccccccccccccccccccccccccc" />
    <path
       style="opacity:1;fill:#37469e;fill-opacity:1;stroke:none;stroke-width:1.3122381;stroke-miterlimit:4;stroke-dasharray:none;stroke-opacity:1;paint-order:stroke fill markers"
       id="path1805-7"
       d="m 46.404317,33.202429 c 0.600363,0.785011 1.726735,1.276371 1.779553,2.183136 -0.05637,1.356644 -0.947022,2.31531 -2.063781,2.47584 -1.942752,-0.251254 -0.758657,-1.276752 -0.333047,-0.865616 0.194775,0.136891 0.297929,0.262119 0.626864,0.295759 1.554892,-0.778397 1.191259,-2.388321 -0.03802,-2.952546 -0.542955,-0.411288 -0.827929,-0.768795 -0.771701,-1.467949 0.24728,-1.219124 1.035955,-1.426869 2.42912,-1.543506 0.472872,0.639978 -1.850215,0.788964 -1.628993,1.874882 z"
       inkscape:connector-curvature="0"
       sodipodi:nodetypes="cccccccccc" />
    <path
       style="opacity:1;fill:#37469e;fill-opacity:1;stroke:none;stroke-width:1.58630967;stroke-miterlimit:4;stroke-dasharray:none;stroke-opacity:1;paint-order:stroke fill markers"
       id="path1803-3-7-62"
       d="m 51.070494,36.625025 c 0.03578,1.089131 -1.029479,1.579106 -1.4614,1.53488 -0.674209,0.01679 -1.335539,-1.004622 -1.425224,-1.895239 -0.0058,-0.394652 -0.0062,-1.426928 0.0797,-1.792986 0.200863,-0.823957 0.191617,-0.862001 0.504382,-1.517451 0.320869,-0.702067 0.756032,-1.480214 1.643157,-1.55501 0.476867,0.02266 1.20355,0.725542 1.018993,2.303003 8.3e-5,2.237195 -0.387807,4.134586 -0.59072,3.218452 0.49431,-0.736381 0.08507,-0.233531 0.02404,-2.091653 0.08904,-3.1359 0.259917,-2.189941 -0.610143,-2.450429 -0.857465,0.07757 -1.008959,1.404837 -1.246436,2.262161 -0.085,0.34931 -0.167425,0.707242 -0.169257,1.086046 0.1433,0.81435 0.08873,0.905859 0.529273,1.249731 0.283899,0.188419 0.592785,0.726541 1.029072,0.149482 0.431015,-0.784473 0.468217,-3.749126 0.674574,-3.6066 z"
       inkscape:connector-curvature="0"
       sodipodi:nodetypes="cccccccccccccccc" />
  </g>
</svg>
