<?xml version="1.0" encoding="UTF-8" standalone="no"?>
<!-- Created with Inkscape (http://www.inkscape.org/) -->

<svg
   xmlns:dc="http://purl.org/dc/elements/1.1/"
   xmlns:cc="http://creativecommons.org/ns#"
   xmlns:rdf="http://www.w3.org/1999/02/22-rdf-syntax-ns#"
   xmlns:svg="http://www.w3.org/2000/svg"
   xmlns="http://www.w3.org/2000/svg"
   xmlns:sodipodi="http://sodipodi.sourceforge.net/DTD/sodipodi-0.dtd"
   xmlns:inkscape="http://www.inkscape.org/namespaces/inkscape"
   width="57mm"
   height="20mm"
   viewBox="0 0 57 20"
   version="1.1"
   id="svg8"
   sodipodi:docname="botonAgregar.svg"
   inkscape:version="0.92.3 (2405546, 2018-03-11)">
  <defs
     id="defs2" />
  <sodipodi:namedview
     id="base"
     pagecolor="#ffffff"
     bordercolor="#666666"
     borderopacity="1.0"
     inkscape:pageopacity="0.0"
     inkscape:pageshadow="2"
     inkscape:zoom="0.70000001"
     inkscape:cx="170.89882"
     inkscape:cy="178.46775"
     inkscape:document-units="mm"
     inkscape:current-layer="layer2"
     showgrid="false"
     inkscape:window-width="960"
     inkscape:window-height="992"
     inkscape:window-x="960"
     inkscape:window-y="0"
     inkscape:window-maximized="0"
     showguides="false" />
  <metadata
     id="metadata5">
    <rdf:RDF>
      <cc:Work
         rdf:about="">
        <dc:format>image/svg+xml</dc:format>
        <dc:type
           rdf:resource="http://purl.org/dc/dcmitype/StillImage" />
        <dc:title></dc:title>
      </cc:Work>
    </rdf:RDF>
  </metadata>
  <g
     inkscape:label="Capa 1"
     inkscape:groupmode="layer"
     id="layer1"
     transform="translate(0,-277)" />
  <g
     inkscape:groupmode="layer"
     id="layer2"
     inkscape:label="Capa 2"
     transform="translate(0,-20)">
    <path
       style="opacity:1;fill:#4caf50;fill-opacity:0.94117635;stroke:none;stroke-width:1.48301756;stroke-miterlimit:4;stroke-dasharray:none;stroke-opacity:0.98095236"
       id="path921"
       d="m 9.1162911,35.583232 c 0.07187,-0.83721 0.525865,-1.689956 0.9100009,-2.517033 0.625896,-1.400953 1.263904,-2.804696 1.648326,-4.220609 0.07481,-0.275391 0.128876,-0.550766 0.19331,-0.826157 0.278104,-1.297573 0.288479,-2.578825 0.38737,-3.864537 0.09958,-0.533383 -0.04355,-1.116824 0.225666,-1.649557 0.534922,-0.390561 1.010326,-0.824509 1.604757,-1.171707 0.08176,-0.0477 0.163013,0.05879 0.230885,0.09954 0.09202,0.05538 0.171821,0.119773 0.245686,0.186842 0.415815,0.377551 0.689181,0.825666 0.9823,1.258497 0.784072,1.23174 1.422507,2.51731 2.047183,3.805027 0.353616,0.77762 0.667014,1.57069 0.844036,2.395548 0.08122,0.506476 0.144337,1.016327 0.216688,1.524514 0.02583,0.338087 0.110941,0.663512 0.218034,0.984001 0.158916,0.428869 0.307493,0.861875 0.569931,1.256896 0.134879,0.171575 0.297242,0.326234 0.512916,0.449945 0,0 -1.455923,1.157216 -1.455923,1.157216 v 0 c -0.227313,-0.139185 -0.404139,-0.305348 -0.548023,-0.492936 -0.264958,-0.40033 -0.420499,-0.837075 -0.59965,-1.266269 -0.120852,-0.32327 -0.220847,-0.6528 -0.233351,-0.999823 -0.05059,-0.514502 -0.1247,-1.025803 -0.184236,-1.538784 -0.14749,-0.833256 -0.43742,-1.636817 -0.763251,-2.425141 -0.587128,-1.294935 -1.199362,-2.585995 -2.030618,-3.795353 -0.303824,-0.4088 -0.585347,-0.83488 -1.018796,-1.180937 -0.06893,-0.05491 -0.145343,-0.105924 -0.229629,-0.150032 -0.03277,-0.01719 -0.146635,-0.0048 -0.11778,-0.03177 0.413046,-0.38629 0.893143,-0.740667 1.33971,-1.111 -0.04043,0.0374 -0.09526,0.07052 -0.121333,0.112199 -0.07232,0.115899 -0.10704,0.36043 -0.122634,0.465046 -0.05388,0.361777 -0.06127,0.720154 -0.115732,1.081962 -0.14432,1.306717 -0.164571,2.60616 -0.445935,3.920998 -0.06448,0.278195 -0.118875,0.556359 -0.193524,0.834563 -0.378402,1.410176 -1.006337,2.80823 -1.601623,4.206078 -0.349332,0.789363 -0.744896,1.593478 -0.83904,2.391183 0,0 -1.5558189,1.111618 -1.5558189,1.111618 z"
       inkscape:connector-curvature="0" />
    <path
       style="opacity:1;fill:#4caf50;fill-opacity:0.94117635;stroke:none;stroke-width:1.80423331;stroke-miterlimit:4;stroke-dasharray:none;stroke-opacity:0.98095236"
       id="path838-2"
       d="m 12.308279,29.620501 c 0.395314,-0.07717 0.791126,-0.16099 1.190456,-0.225263 0.651687,-0.117776 1.297773,-0.275255 1.918503,-0.497387 0.411469,-0.169546 0.849192,-0.255956 1.282418,-0.357451 0.299834,-0.104862 0.607104,-0.173436 0.905941,-0.278037 0.123328,-0.0408 0.252276,-0.05736 0.380993,-0.07392 0,0 -1.692801,1.205713 -1.692801,1.205713 v 0 c -0.121823,0.02678 -0.242934,0.05554 -0.359601,0.09903 -0.297652,0.09598 -0.606739,0.16038 -0.9057,0.253175 -0.420767,0.09943 -0.841195,0.197705 -1.243847,0.353687 -0.635924,0.199987 -1.287255,0.355375 -1.944748,0.478064 -0.411879,0.08054 -0.821442,0.169055 -1.231468,0.257183 0,0 1.699854,-1.214848 1.699854,-1.214848 z"
       inkscape:connector-curvature="0" />
    <path
       style="opacity:0.82700004;fill:#4caf50;fill-opacity:0.94117635;stroke:none;stroke-width:1.42871225;stroke-miterlimit:4;stroke-dasharray:none;stroke-opacity:1;paint-order:stroke fill markers"
       id="path1843-3-3-9"
       d="m 24.722063,28.737614 c 0.257424,0.212997 0.487267,0.434424 0.682305,0.670968 0.214311,0.293748 0.359824,0.605609 0.471993,0.919427 0.09238,0.298867 0.101857,0.603891 0.134987,0.906624 0.04355,0.326416 0.04934,0.653228 0.01149,0.979802 -0.03981,0.27589 -0.116845,0.548785 -0.157367,0.824691 -0.02289,0.252913 -0.03847,0.505763 -0.07,0.758415 -0.07303,0.37977 -0.275173,0.32899 -1.176572,0.534603 -0.05094,0.01165 -0.04052,-0.09009 -0.03856,-0.1814 0.0407,-0.350533 0.151631,-0.696392 0.244101,-1.042782 0.08434,-0.368812 0.208103,-0.733385 0.281577,-1.10314 0.0505,-0.283528 0.132403,-0.564307 0.181946,-0.847851 0.03749,-0.281761 0.153849,-0.554918 0.289967,-0.823899 0.135859,-0.304041 0.386541,-0.576888 0.655311,-0.842819 0.205566,-0.204923 0.42009,-0.374748 0.735527,-0.518679 0.529917,-0.195739 0.6191,-0.230624 1.454097,-0.501127 0.03215,-0.01014 0.49237,-0.117959 0.525108,-0.125644 0,0 -0.933496,0.448907 -0.933496,0.448907 v 0 c -0.08754,0.021 -0.17565,0.04152 -0.26266,0.06354 -0.08719,0.02203 -0.337934,0.100956 -0.259927,0.06854 0.298338,-0.12425 1.197091,-0.427594 0.595429,-0.223368 -0.05406,0.02092 -0.110665,0.03954 -0.162239,0.06275 -0.251065,0.11273 -0.420936,0.278782 -0.600237,0.430723 -0.273794,0.258705 -0.530211,0.524976 -0.665536,0.824739 -0.137435,0.264306 -0.261227,0.532392 -0.299175,0.81012 -0.04515,0.285604 -0.131299,0.567318 -0.190434,0.8519 -0.07196,0.372092 -0.2004,0.737814 -0.288345,1.10848 -0.08906,0.339909 -0.194148,0.680285 -0.221632,1.024583 -0.01808,0.335773 -0.09244,0.131959 -1.058436,0.467978 -0.01594,0.004 0.03607,-0.0082 0.04702,-0.01735 0.04702,-0.03858 0.05415,-0.09537 0.06813,-0.139121 0.04052,-0.253096 0.06127,-0.50627 0.07704,-0.760364 0.03625,-0.277126 0.114262,-0.550291 0.164696,-0.826331 0.04444,-0.323278 0.04132,-0.646818 -0.0036,-0.970175 -0.03429,-0.299311 -0.04676,-0.600587 -0.128939,-0.896911 -0.104119,-0.308541 -0.243451,-0.615466 -0.457023,-0.902749 -0.19234,-0.230919 -0.414737,-0.450016 -0.69106,-0.647381 0,0 1.045069,-0.385688 1.045069,-0.385688 z"
       inkscape:connector-curvature="0" />
    <path
       style="opacity:0.82700004;fill:#4caf50;fill-opacity:0.94117635;stroke:none;stroke-width:1.53841996;stroke-miterlimit:4;stroke-dasharray:none;stroke-opacity:1;paint-order:stroke fill markers"
       id="path1803-3-5-1"
       d="m 30.991955,33.216619 c 0.0495,0.96123 -1.421457,1.393633 -2.01783,1.35458 -0.930921,0.01331 -1.844058,-0.88661 -1.967894,-1.672613 -0.008,-0.348267 0.101073,-0.683295 0.219601,-1.006328 0.277338,-0.727182 0.658945,-1.405121 1.0908,-1.983594 0.443049,-0.619626 1.175361,-0.993945 1.742967,-1.3138 0.62594,0.10922 1.157745,0.849102 1.380668,1.330145 0.03963,0.139755 0.04489,0.285422 0.04818,0.429764 -0.248198,1.525973 -3.171335,2.469693 -3.451514,1.661125 0.674495,-0.663829 1.393323,-0.138282 2.104742,-0.39434 0.380352,-0.37397 0.44906,-0.722515 0.396168,-1.202243 -0.182712,-0.468398 -0.573796,-0.812822 -0.92564,-1.121024 0,0 0,0 -0.365898,0.21074 -0.246737,0.313168 -0.473525,0.642388 -0.662178,0.994198 -0.162594,0.313366 -0.306807,0.635986 -0.441633,0.962212 -0.117379,0.308288 -0.231169,0.624142 -0.233699,0.958473 0.197862,0.718712 0.86745,1.15094 1.47573,1.454371 0.351087,0.12677 0.584554,0.04873 0.675955,-0.219557 l 0.931429,-0.44237 z"
       inkscape:connector-curvature="0"
       sodipodi:nodetypes="cccccccccccccccccccc" />
    <path
       style="opacity:0.82700004;fill:#4caf50;fill-opacity:0.94117635;stroke:none;stroke-width:1.50284314;stroke-miterlimit:4;stroke-dasharray:none;stroke-opacity:1;paint-order:stroke fill markers"
       id="path1801-6-2"
       d="m 24.23688,32.651029 c -0.149663,-0.836346 -0.570394,-2.095777 -1.303392,-2.849129 -1.162046,-1.01525 -2.808742,-1.323339 -3.396556,-0.714774 -0.217232,0.221553 -0.186221,0.60885 -0.151943,0.969264 0.226022,1.240146 1.272453,3.265432 2.296396,3.957491 0.166932,0.08877 0.336384,0.178792 0.502398,0.248571 1.482418,0.157337 2.091063,0.291689 2.158943,-0.865939 -0.03055,-0.09059 -0.06555,-0.653354 -0.105864,-0.745484 -0.237217,-0.944623 -1.09706,-2.822793 -1.149641,-2.384305 -0.01959,0.163461 0.625896,1.720183 0.691407,2.274919 0.01345,0.08816 -0.02298,0.312328 -0.125376,0.353845 -0.327532,0.132871 0.013,0.923675 -0.06252,1.29072 -0.138388,0.654115 -0.143286,1.382533 -0.423937,1.901218 -0.687738,1.052378 -1.733474,1.356981 -3.07907,1.357726 l 0.592516,1.09269 v 0 c 0.312819,0.004 0.615004,-0.01989 0.889091,-0.04437 1.155821,-0.208013 2.340409,-0.726833 2.487284,-1.9352 0.816953,-6.978211 -0.125092,-1.708695 -3.384132,-3.987385 -0.206625,-0.145856 -0.844526,-2.297341 -0.235177,-2.643248 1.884036,-0.77991 3.727248,2.316959 2.512666,0.107382 0.112828,0.196612 0.147944,0.377163 0.196686,0.563245 0.02779,0.02195 -0.69553,-0.384017 -0.626074,-0.342373 0.296147,0.177478 0.482316,0.352174 0.689635,0.583354 0.161205,0.179458 0.764026,1.405034 1.026642,1.811964 z"
       inkscape:connector-curvature="0"
       sodipodi:nodetypes="ccccccccscscccccccccccsscc" />
    <path
       style="opacity:0.82700004;fill:#4caf50;fill-opacity:0.94117635;stroke:none;stroke-width:1.50284314;stroke-miterlimit:4;stroke-dasharray:none;stroke-opacity:1;paint-order:stroke fill markers"
       id="path1801-6-2-7"
       d="m 36.267827,32.767443 c -0.149663,-0.836338 -0.570394,-2.095777 -1.303392,-2.849129 -1.162046,-1.015242 -2.808741,-1.323339 -3.396556,-0.714774 -0.217231,0.221561 -0.186221,0.60885 -0.151951,0.96928 0.22603,1.24013 1.272461,3.265416 2.296405,3.957475 0.166931,0.08877 0.336383,0.178793 0.502406,0.248587 1.482409,0.157321 2.091054,0.291673 2.158934,-0.865955 -0.03055,-0.09059 -0.06564,-0.653338 -0.105864,-0.745484 -0.237216,-0.944623 -1.09706,-2.822793 -1.149641,-2.384305 -0.01959,0.163462 0.625896,1.720183 0.691399,2.274919 0.01345,0.08816 -0.02298,0.312328 -0.125368,0.353845 -0.327531,0.132871 0.013,0.923675 -0.06252,1.29072 -0.138389,0.654131 -0.143278,1.382533 -0.423938,1.901218 -0.687737,1.052386 -1.733474,1.356981 -3.07907,1.357734 l 0.592516,1.09269 v 0 c 0.312819,0.004 0.615004,-0.01989 0.889091,-0.04437 1.155821,-0.208013 2.340409,-0.726825 2.487284,-1.9352 0.816962,-6.978203 -0.125091,-1.708695 -3.384132,-3.987369 -0.206625,-0.145856 -0.844526,-2.297341 -0.235177,-2.643256 1.884036,-0.779918 3.727249,2.316951 2.512666,0.107374 0.112829,0.196604 0.147953,0.377163 0.196686,0.563245 0.02779,0.02195 -0.695521,-0.384009 -0.626073,-0.342373 0.296146,0.17747 0.482324,0.352174 0.689634,0.583362 0.161206,0.179466 0.764026,1.405034 1.026642,1.811956 z"
       inkscape:connector-curvature="0"
       sodipodi:nodetypes="ccccccccscscccccccccccsscc" />
    <path
       style="opacity:0.82700004;fill:#4caf50;fill-opacity:0.94117635;stroke:none;stroke-width:1.63161802;stroke-miterlimit:4;stroke-dasharray:none;stroke-opacity:1;paint-order:stroke fill markers"
       id="path1835-3"
       d="m 37.013667,29.079773 c 1.134171,-0.520959 2.206411,-0.469832 3.249475,0.07852 0.784483,0.573426 1.098334,1.463079 1.161798,2.252219 0.01692,0.341985 -0.09889,0.670437 -0.225292,0.993081 -0.262545,0.621432 -0.444955,1.258172 -0.803888,1.797275 -0.576638,0.803853 -1.9589,1.407776 -2.746045,1.190223 -1.356399,-0.66077 -1.52993,-1.718583 -0.568613,-2.629707 0.924786,-0.799868 1.586331,-0.941747 2.740274,-1.29114 0.229584,-0.09497 0.411602,-0.0633 0.648267,-0.02012 0.184013,0.04476 0.361605,0.102952 0.548058,0.142116 l -0.530015,0.648981 v 0 c -0.182072,-0.04421 -0.595233,-0.144842 -0.781846,-0.176725 -0.468529,-0.04183 -0.671752,-0.09446 -0.832726,0.0081 -0.342315,0.120867 -0.69382,0.224818 -1.029117,0.358195 2.021187,-0.949329 0.849762,-0.434874 0.630785,-0.280858 -0.10159,0.07123 -0.183969,0.1603 -0.280411,0.235831 -0.838594,0.691639 -0.837018,1.31895 -0.203695,2.07025 0.203829,0.152203 0.415076,0.301276 0.666346,0.40201 0.237796,0.08044 0.488843,0.131737 0.73941,0.05308 -0.586051,0.186882 -1.185416,0.705536 -0.533061,0.154604 0.163566,-0.144692 0.315865,-0.296839 0.429566,-0.47049 0.192955,-0.256287 0.328226,-0.533541 0.436361,-0.819676 0.132395,-0.320291 0.273481,-0.638197 0.388518,-0.962846 0.124068,-0.31133 0.249685,-0.627049 0.236923,-0.9581 -0.01959,-0.243865 -0.05575,-0.485559 -0.144177,-0.720565 -0.228712,-1.091922 -1.648637,-2.280316 -3.070138,-1.82629 -0.367884,0.11143 -0.729676,0.237106 -1.079124,0.382154 l 0.952367,-0.609745 z"
       inkscape:connector-curvature="0"
       sodipodi:nodetypes="cccccccccccccccccccccccccccccc" />
    <path
       style="opacity:0.82700004;fill:#4caf50;fill-opacity:0.94117635;stroke:none;stroke-width:1.56633437;stroke-miterlimit:4;stroke-dasharray:none;stroke-opacity:1;paint-order:stroke fill markers"
       id="path1843-6"
       d="m 41.876725,28.80027 c 0.257238,0.256201 0.48692,0.522489 0.681816,0.807039 0.214159,0.35333 0.359574,0.728402 0.471655,1.10585 0.09233,0.359494 0.101767,0.726373 0.134888,1.090471 0.04355,0.392637 0.04925,0.78571 0.01131,1.178521 -0.03981,0.331859 -0.116774,0.66005 -0.157251,0.99194 -0.02289,0.304192 -0.03847,0.60832 -0.06991,0.912186 -0.07294,0.456798 -0.274969,0.395719 -1.175727,0.642991 -0.05085,0.0141 -0.04052,-0.108404 -0.03856,-0.218139 0.0407,-0.421643 0.151516,-0.837598 0.243932,-1.254249 0.08434,-0.443623 0.207952,-0.882118 0.281372,-1.326842 0.0505,-0.341041 0.132305,-0.678755 0.181822,-1.019797 0.03749,-0.338895 0.153724,-0.667458 0.289752,-0.990989 0.13577,-0.365691 0.386266,-0.693865 0.654849,-1.013713 0.205423,-0.246479 0.419796,-0.450729 0.73501,-0.623888 0.529525,-0.235427 0.618646,-0.277388 1.453055,-0.60275 0.03215,-0.01212 0.492023,-0.141847 0.524725,-0.151109 0,0 -0.932818,0.539959 -0.932818,0.539959 v 0 c -0.08746,0.02543 -0.175526,0.04992 -0.262474,0.0763 -0.0871,0.02638 -0.337693,0.121477 -0.25974,0.08247 0.298124,-0.149453 1.196236,-0.514328 0.595001,-0.268672 -0.05406,0.02512 -0.110584,0.04762 -0.162122,0.07551 -0.250896,0.13558 -0.420642,0.335313 -0.599819,0.518067 -0.273598,0.311148 -0.529828,0.631447 -0.665055,0.991996 -0.137337,0.317874 -0.261049,0.640336 -0.298961,0.974374 -0.04515,0.343538 -0.13121,0.682353 -0.19031,1.024662 -0.07187,0.447552 -0.200248,0.887435 -0.28814,1.333275 -0.08897,0.408816 -0.193997,0.818226 -0.221462,1.23235 -0.01808,0.403856 -0.0924,0.158708 -1.057688,0.562865 -0.01585,0.0048 0.03607,-0.0091 0.04702,-0.02076 0.04702,-0.04619 0.05415,-0.114735 0.06813,-0.167305 0.04052,-0.304444 0.06127,-0.608929 0.07695,-0.914586 0.03625,-0.333293 0.114174,-0.66188 0.164581,-0.993905 0.04435,-0.388794 0.04132,-0.777945 -0.0036,-1.166882 -0.03429,-0.360017 -0.04667,-0.722396 -0.128851,-1.078801 -0.104029,-0.371102 -0.243281,-0.740278 -0.456701,-1.085812 -0.192198,-0.277752 -0.414444,-0.541267 -0.690561,-0.778658 0,0 1.04432,-0.463921 1.04432,-0.463921 z"
       inkscape:connector-curvature="0" />
  </g>
</svg>
