<?xml version="1.0" encoding="UTF-8" standalone="no"?>
<!-- Created with Inkscape (http://www.inkscape.org/) -->

<svg
   xmlns:dc="http://purl.org/dc/elements/1.1/"
   xmlns:cc="http://creativecommons.org/ns#"
   xmlns:rdf="http://www.w3.org/1999/02/22-rdf-syntax-ns#"
   xmlns:svg="http://www.w3.org/2000/svg"
   xmlns="http://www.w3.org/2000/svg"
   xmlns:sodipodi="http://sodipodi.sourceforge.net/DTD/sodipodi-0.dtd"
   xmlns:inkscape="http://www.inkscape.org/namespaces/inkscape"
   width="57mm"
   height="20mm"
   viewBox="0 0 57 20"
   version="1.1"
   id="svg8"
   sodipodi:docname="botonVolver.svg"
   inkscape:version="0.92.3 (2405546, 2018-03-11)">
  <defs
     id="defs2" />
  <sodipodi:namedview
     id="base"
     pagecolor="#ffffff"
     bordercolor="#666666"
     borderopacity="1.0"
     inkscape:pageopacity="0.0"
     inkscape:pageshadow="2"
     inkscape:zoom="1.4"
     inkscape:cx="149.33054"
     inkscape:cy="-60.456846"
     inkscape:document-units="mm"
     inkscape:current-layer="layer2"
     showgrid="false"
     inkscape:window-width="960"
     inkscape:window-height="992"
     inkscape:window-x="960"
     inkscape:window-y="0"
     inkscape:window-maximized="0"
     showguides="false" />
  <metadata
     id="metadata5">
    <rdf:RDF>
      <cc:Work
         rdf:about="">
        <dc:format>image/svg+xml</dc:format>
        <dc:type
           rdf:resource="http://purl.org/dc/dcmitype/StillImage" />
        <dc:title></dc:title>
      </cc:Work>
    </rdf:RDF>
  </metadata>
  <g
     inkscape:label="Capa 1"
     inkscape:groupmode="layer"
     id="layer1"
     transform="translate(0,-277)">
    <path
       style="opacity:0.82700004;fill:#ff9800;fill-opacity:1;stroke:none;stroke-width:1.52297091;stroke-miterlimit:4;stroke-dasharray:none;stroke-opacity:1;paint-order:stroke fill markers"
       id="path1843-3-93-5-9-1"
       d="m 35.887673,286.56983 c 0.266812,0.23344 0.50508,0.4761 0.707424,0.73538 0.222112,0.32195 0.372963,0.66373 0.489232,1.00767 0.09663,0.32758 0.105702,0.66188 0.140425,0.99366 0.04535,0.35779 0.05138,0.71595 0.01504,1.07388 -0.04079,0.30239 -0.1208,0.60145 -0.163077,0.90387 -0.02416,0.2772 -0.03931,0.55431 -0.07248,0.8312 -0.07554,0.41625 -0.285236,0.36058 -1.219912,0.58594 -0.05286,0.0128 -0.04227,-0.0988 -0.04079,-0.19881 0.04227,-0.38419 0.157345,-0.76322 0.253218,-1.14289 0.08762,-0.40423 0.215628,-0.80381 0.29188,-1.20903 0.05286,-0.31076 0.137406,-0.61849 0.1886,-0.92925 0.03931,-0.30883 0.159602,-0.60822 0.300632,-0.90301 0.140434,-0.33324 0.400753,-0.63227 0.679495,-0.92373 0.213054,-0.22458 0.435474,-0.41072 0.762539,-0.56848 0.549326,-0.21453 0.641885,-0.25275 1.507555,-0.54923 0.03327,-0.011 0.510527,-0.12926 0.544346,-0.13769 0,0 -0.967741,0.492 -0.967741,0.492 v 0 c -0.09059,0.0231 -0.182105,0.0455 -0.272406,0.0696 -0.09059,0.0241 -0.350311,0.11068 -0.269377,0.0751 0.309245,-0.13618 1.241048,-0.46866 0.617283,-0.24482 -0.05584,0.0229 -0.11477,0.0435 -0.168216,0.0689 -0.260318,0.12354 -0.436385,0.30554 -0.622262,0.47208 -0.283871,0.28353 -0.549783,0.57539 -0.690059,0.9039 -0.141931,0.28968 -0.270882,0.58351 -0.310146,0.88789 -0.04684,0.31304 -0.135902,0.62177 -0.197501,0.93368 -0.07395,0.40781 -0.207777,0.80866 -0.298978,1.21491 -0.09207,0.37252 -0.201282,0.74559 -0.229667,1.12294 -0.01959,0.368 -0.09663,0.14461 -1.097456,0.51288 -0.01663,0.005 0.03773,-0.008 0.04832,-0.0188 0.04831,-0.0422 0.05584,-0.10457 0.07099,-0.15246 0.04227,-0.27741 0.06346,-0.55487 0.08,-0.83337 0.03773,-0.30373 0.117785,-0.60313 0.17078,-0.90568 0.04533,-0.35426 0.04227,-0.70887 0,-1.06327 -0.03623,-0.32808 -0.04832,-0.65829 -0.134387,-0.98304 -0.108714,-0.33816 -0.252467,-0.67455 -0.473827,-0.98942 -0.19947,-0.25308 -0.430049,-0.49321 -0.716493,-0.70953 0,0 1.083416,-0.42271 1.083416,-0.42271 z"
       inkscape:connector-curvature="0" />
  </g>
  <g
     inkscape:groupmode="layer"
     id="layer2"
     inkscape:label="Capa 2"
     transform="translate(0,-20)">
    <path
       style="opacity:0.82700004;fill:#000000;fill-opacity:1;stroke:none;stroke-width:1.3290174;stroke-miterlimit:4;stroke-dasharray:none;stroke-opacity:1;paint-order:stroke fill markers"
       id="path1843-3"
       d="m 56.116015,-29.971861 c 0.18787,0.25253 0.3556,0.51506 0.497935,0.79556 0.156406,0.34831 0.262594,0.71806 0.344456,1.09014 0.06743,0.35439 0.07431,0.71608 0.0985,1.07499 0.03181,0.38706 0.036,0.77455 0.0082,1.1618 -0.02907,0.32712 -0.08529,0.65067 -0.114839,0.97784 -0.01654,0.29988 -0.02812,0.5997 -0.05108,0.89924 -0.05327,0.45031 -0.200822,0.39011 -0.858639,0.63386 -0.03717,0.0131 -0.02957,-0.1068 -0.02817,-0.21505 0.02971,-0.41564 0.110657,-0.8257 0.178158,-1.23644 0.06156,-0.43732 0.151852,-0.8696 0.205488,-1.30798 0.03686,-0.33621 0.09661,-0.66913 0.132787,-1.00533 0.02737,-0.33407 0.112257,-0.65797 0.211614,-0.97691 0.09915,-0.3605 0.282088,-0.68402 0.478234,-0.99933 0.150005,-0.24296 0.306578,-0.44431 0.536776,-0.615 0.386723,-0.23211 0.451808,-0.27346 1.061178,-0.59421 0.0235,-0.0116 0.359325,-0.13978 0.383212,-0.14893 0,0 -0.681244,0.53225 -0.681244,0.53225 v 0 c -0.06389,0.0251 -0.128178,0.0492 -0.191688,0.0753 -0.06364,0.026 -0.246621,0.11973 -0.189696,0.0814 0.21772,-0.14732 0.873617,-0.50704 0.43453,-0.26486 -0.03948,0.0247 -0.08075,0.0469 -0.118408,0.0743 -0.183219,0.13368 -0.307198,0.33053 -0.43805,0.51072 -0.1998,0.30674 -0.386935,0.62248 -0.485693,0.9779 -0.100285,0.31337 -0.190656,0.63126 -0.218334,0.96054 -0.03295,0.33866 -0.09583,0.67266 -0.138975,1.01011 -0.05251,0.44118 -0.146238,0.87484 -0.210431,1.31434 -0.06496,0.40301 -0.141674,0.80663 -0.161735,1.21484 -0.01334,0.39812 -0.06747,0.15647 -0.772432,0.55489 -0.01161,0.006 0.02635,-0.009 0.03434,-0.0203 0.03434,-0.0455 0.03953,-0.11305 0.04973,-0.16494 0.02957,-0.30012 0.04475,-0.60029 0.05622,-0.90159 0.02646,-0.32857 0.08337,-0.65248 0.120205,-0.97979 0.03239,-0.38327 0.03017,-0.7669 -0.0026,-1.1503 -0.02513,-0.35494 -0.0342,-0.71217 -0.09417,-1.06351 -0.07598,-0.36583 -0.177681,-0.72976 -0.333534,-1.0704 -0.140356,-0.2738 -0.302665,-0.53357 -0.504317,-0.76758 0,0 0.762669,-0.45735 0.762669,-0.45735 z"
       inkscape:connector-curvature="0" />
    <path
       style="opacity:0.82700004;fill:#000000;fill-opacity:1;stroke:none;stroke-width:1.54801106;stroke-miterlimit:4;stroke-dasharray:none;stroke-opacity:1;paint-order:stroke fill markers"
       id="path1835-6-6"
       d="m 52.23511,-29.579401 c 0.801934,-0.42967 1.560082,-0.3875 2.297593,0.0648 0.554686,0.47288 0.7766,1.20659 0.821468,1.85744 0.01199,0.28204 -0.06991,0.5529 -0.159295,0.81898 -0.185637,0.51254 -0.314611,1.03766 -0.568399,1.48226 -0.407722,0.66298 -1.385067,1.16101 -1.941636,0.9816 -0.95906,-0.5449 -1.081761,-1.41734 -0.402044,-2.16873 0.653881,-0.65969 1.121635,-0.77668 1.937553,-1.06484 0.162329,-0.0783 0.291028,-0.0522 0.458369,-0.0167 0.130101,0.0372 0.255675,0.0847 0.387506,0.11712 l -0.374748,0.53523 v 0 c -0.128738,-0.0368 -0.420875,-0.11973 -0.55282,-0.14582 -0.33128,-0.0344 -0.474974,-0.0779 -0.588786,0.006 -0.242041,0.0995 -0.490583,0.18539 -0.727656,0.29538 1.429107,-0.78291 0.600834,-0.35865 0.445998,-0.23163 -0.07182,0.0589 -0.13007,0.13223 -0.19826,0.19451 -0.592944,0.57041 -0.591832,1.08776 -0.144036,1.70738 0.144128,0.12554 0.293484,0.24847 0.471156,0.33153 0.168134,0.0663 0.34564,0.10883 0.522812,0.0437 -0.414384,0.15416 -0.838172,0.58186 -0.376913,0.12744 0.115638,-0.1193 0.22334,-0.24481 0.30373,-0.38804 0.136431,-0.21136 0.232076,-0.43998 0.308542,-0.67601 0.09361,-0.26412 0.193362,-0.52632 0.274701,-0.79405 0.08773,-0.25676 0.176548,-0.51712 0.167523,-0.79016 -0.01397,-0.20115 -0.03938,-0.40044 -0.101946,-0.59427 -0.161711,-0.90052 -1.165694,-1.88062 -2.17079,-1.50618 -0.260112,0.0923 -0.515932,0.19554 -0.763013,0.31515 l 0.673391,-0.50282 z"
       inkscape:connector-curvature="0"
       sodipodi:nodetypes="cccccccccccccccccccccccccccccc" />
    <path
       style="opacity:0.82700004;fill:#000000;fill-opacity:1;stroke:none;stroke-width:1.47160769;stroke-miterlimit:4;stroke-dasharray:none;stroke-opacity:1;paint-order:stroke fill markers"
       id="path1843-3-3"
       d="m 78.121027,-30.062191 c 0.201655,0.28847 0.381712,0.58834 0.534498,0.90872 0.167884,0.39782 0.281874,0.82018 0.369745,1.2452 0.07237,0.40477 0.07979,0.81787 0.105738,1.22786 0.03413,0.4421 0.03863,0.88471 0.009,1.327 -0.03121,0.37365 -0.09153,0.74324 -0.123277,1.11691 -0.01791,0.34253 -0.03017,0.68498 -0.05482,1.02714 -0.0572,0.51435 -0.215564,0.44558 -0.921692,0.72404 -0.03987,0.0158 -0.03173,-0.12205 -0.03022,-0.24566 0.03188,-0.47476 0.118785,-0.94315 0.191225,-1.41229 0.06608,-0.4995 0.163023,-0.99325 0.220583,-1.49402 0.03958,-0.38401 0.103717,-0.76427 0.142531,-1.14829 0.0294,-0.38159 0.120518,-0.75154 0.22715,-1.11584 0.106426,-0.41177 0.302803,-0.7813 0.51335,-1.14145 0.161036,-0.27753 0.329089,-0.50753 0.576194,-0.70247 0.415118,-0.26509 0.484978,-0.31235 1.139092,-0.6787 0.02519,-0.0131 0.385712,-0.15975 0.411353,-0.17017 0,0 -0.731269,0.60798 -0.731269,0.60798 v 0 c -0.06859,0.0285 -0.137596,0.0562 -0.205758,0.086 -0.06832,0.0298 -0.264732,0.13673 -0.203621,0.0928 0.233709,-0.16827 0.937763,-0.57912 0.466439,-0.30252 -0.04235,0.0283 -0.08669,0.0536 -0.12709,0.085 -0.196683,0.15267 -0.329753,0.37756 -0.470212,0.58334 -0.214484,0.35036 -0.415351,0.711 -0.521361,1.11697 -0.107662,0.35796 -0.204637,0.72104 -0.234363,1.09718 -0.03538,0.3868 -0.102854,0.76834 -0.14918,1.15376 -0.05637,0.50394 -0.156988,0.99925 -0.225885,1.50125 -0.06974,0.46035 -0.152083,0.92134 -0.173617,1.38764 -0.01418,0.45474 -0.07241,0.17872 -0.829149,0.63379 -0.01249,0.006 0.02829,-0.0102 0.03685,-0.0234 0.03684,-0.0522 0.04243,-0.12917 0.05339,-0.18841 0.03173,-0.34279 0.04802,-0.68566 0.06033,-1.0298 0.02841,-0.37531 0.08951,-0.74528 0.129022,-1.11914 0.03478,-0.43781 0.03238,-0.87599 -0.0031,-1.31392 -0.02689,-0.40539 -0.03661,-0.81342 -0.10101,-1.21473 -0.08156,-0.41787 -0.190712,-0.83355 -0.358021,-1.22262 -0.15067,-0.31275 -0.324892,-0.60948 -0.541353,-0.87678 0,0 0.818676,-0.52235 0.818676,-0.52235 z"
       inkscape:connector-curvature="0" />
    <path
       style="opacity:0.82700004;fill:#ff9800;fill-opacity:1;stroke:none;stroke-width:1.69386852;stroke-miterlimit:4;stroke-dasharray:none;stroke-opacity:1;paint-order:stroke fill markers"
       id="path1803-3-5"
       d="m 34.993995,34.338178 c 0.06023,0.956601 -1.731578,1.386914 -2.458061,1.348051 -1.134014,0.01324 -2.24637,-0.88234 -2.397218,-1.664553 -0.0099,-0.346592 0.123121,-0.680003 0.267507,-1.001478 0.337841,-0.723678 0.802707,-1.398356 1.32878,-1.974038 0.539703,-0.616639 1.431784,-0.989157 2.123229,-1.30747 0.762491,0.108688 1.410318,0.845013 1.681873,1.323733 0.04829,0.139081 0.0547,0.284046 0.05874,0.427696 -0.302335,1.518616 -3.863215,2.457792 -4.204514,1.65312 0.821643,-0.660628 1.697294,-0.137616 2.56393,-0.392441 0.46333,-0.372164 0.547031,-0.719029 0.482591,-1.196445 -0.222573,-0.466145 -0.698977,-0.808907 -1.127581,-1.115624 0,0 0,0 -0.445718,0.209724 -0.30057,0.31166 -0.576839,0.63929 -0.806652,0.989409 -0.198067,0.311853 -0.373738,0.632923 -0.537981,0.957571 -0.142984,0.306809 -0.281606,0.621138 -0.284689,0.953861 0.241036,0.71525 1.056703,1.145391 1.797695,1.447359 0.427675,0.126164 0.712078,0.04852 0.823423,-0.218498 l 1.134627,-0.44024 z"
       inkscape:connector-curvature="0"
       sodipodi:nodetypes="cccccccccccccccccccc" />
    <path
       style="opacity:0.82700004;fill:#000000;fill-opacity:1;stroke:none;stroke-width:1.38745654;stroke-miterlimit:4;stroke-dasharray:none;stroke-opacity:1;paint-order:stroke fill markers"
       id="path1801-6"
       d="m 77.20749,-25.611391 c -0.127892,-0.83417 -0.487434,-2.09035 -1.113814,-2.84175 -0.993031,-1.01261 -2.400213,-1.3199 -2.902529,-0.71292 -0.185635,0.22098 -0.159139,0.60727 -0.12985,0.96676 0.193154,1.23693 1.087379,3.25696 1.962396,3.94724 0.142648,0.0885 0.287454,0.17832 0.429324,0.24793 1.266796,0.15692 1.786913,0.29093 1.844921,-0.8637 -0.02609,-0.0904 -0.05605,-0.65166 -0.09046,-0.74356 -0.202716,-0.94218 -0.937495,-2.81548 -0.982432,-2.37812 -0.01675,0.16303 0.53486,1.71572 0.590841,2.26902 0.01148,0.0879 -0.01966,0.31152 -0.107138,0.35293 -0.279892,0.13252 0.01111,0.92127 -0.05344,1.28738 -0.118258,0.65242 -0.122441,1.37894 -0.362276,1.89629 -0.587708,1.04965 -1.481336,1.35347 -2.631225,1.35421 l 0.506341,1.08986 v 0 c 0.267321,0.004 0.525549,-0.0198 0.759775,-0.0443 0.987702,-0.20747 1.99999,-0.72494 2.125511,-1.93018 0.698127,-6.96013 -0.106902,-1.70427 -2.891917,-3.97705 -0.176569,-0.14548 -0.721691,-2.29139 -0.200967,-2.6364 1.61,-0.7779 3.185115,2.31095 2.147195,0.10709 0.09642,0.1961 0.126431,0.37619 0.168081,0.56179 0.02373,0.0219 -0.594362,-0.38301 -0.535011,-0.34148 0.253071,0.17701 0.412165,0.35126 0.589325,0.58184 0.137758,0.179 0.652899,1.4014 0.877324,1.80727 z"
       inkscape:connector-curvature="0"
       sodipodi:nodetypes="ccccccccscscccccccccccsscc" />
    <path
       style="opacity:0.82700004;fill:#000000;fill-opacity:1;stroke:none;stroke-width:1.47160769;stroke-miterlimit:4;stroke-dasharray:none;stroke-opacity:1;paint-order:stroke fill markers"
       id="path1803-3-5-9"
       d="m 94.536158,-24.265061 c 0.04595,0.94642 -1.321048,1.37213 -1.87529,1.3337 -0.865155,0.0131 -1.713791,-0.87296 -1.828871,-1.64683 -0.0076,-0.34291 0.09393,-0.67276 0.204084,-0.99082 0.257744,-0.71596 0.612396,-1.38345 1.013748,-1.953 0.411745,-0.61008 1.092324,-0.97861 1.619837,-1.29354 0.581719,0.10752 1.075955,0.83599 1.283129,1.30962 0.03685,0.13775 0.04173,0.28105 0.04483,0.42314 -0.230658,1.50243 -2.947305,2.43161 -3.207687,1.63552 0.626843,-0.65359 1.29489,-0.13615 1.95606,-0.38825 0.35348,-0.36821 0.417338,-0.71137 0.368175,-1.18371 -0.169804,-0.4612 -0.533259,-0.80029 -0.86025,-1.10375 0,0 0,0 -0.340043,0.2075 -0.229309,0.30833 -0.440078,0.63249 -0.615407,0.97887 -0.151106,0.30851 -0.285128,0.62617 -0.410432,0.94737 -0.109099,0.30355 -0.214842,0.61453 -0.217197,0.94368 0.183894,0.70763 0.806178,1.13321 1.371492,1.43195 0.326281,0.12482 0.543253,0.048 0.6282,-0.21616 l 0.865629,-0.43555 z"
       inkscape:connector-curvature="0"
       sodipodi:nodetypes="cccccccccccccccccccc" />
    <path
       style="opacity:0.82700004;fill:#000000;fill-opacity:1;stroke:none;stroke-width:1.47160769;stroke-miterlimit:4;stroke-dasharray:none;stroke-opacity:1;paint-order:stroke fill markers"
       id="path1833-1-3"
       d="m 96.187865,-25.900621 c -0.01453,0.29338 -0.05325,0.58498 -0.116039,0.87104 -0.03397,0.17197 -0.08647,0.33196 -0.175162,0.48042 -0.09778,0.13121 -0.186864,0.26887 -0.275754,0.40691 -0.31012,0.50728 -0.233518,0.3121 -1.074057,0.69134 2.64e-4,-0.0342 -0.0026,-0.0687 0.0016,-0.10244 0.0082,-0.0668 0.05011,-0.21184 0.06706,-0.27039 0.05263,-0.18156 0.11113,-0.36127 0.168267,-0.54126 0.119472,-0.35626 0.239866,-0.71188 0.349255,-1.0718 0.06917,-0.19297 0.121594,-0.39149 0.178782,-0.58854 0.04978,-0.17754 0.142546,-0.33331 0.246075,-0.48046 0.338513,-0.46522 0.629828,-0.54124 1.199825,-0.89108 0.269237,-0.0774 0.550682,-0.091 0.828045,-0.10549 0.22637,-0.006 0.4176,0.0869 0.596681,0.22365 0.206718,0.15996 0.30767,0.41232 0.409963,0.652 0.128808,0.33421 0.260999,0.66742 0.361829,1.01249 0.10056,0.28983 0.146283,0.59158 0.153207,0.89897 0.0041,0.3806 -0.07024,0.75335 -0.17144,1.11636 -0.05978,0.19673 -0.03103,0.10186 -0.08624,0.28423 l -0.855453,0.42589 v 0 c 0.05918,-0.18431 0.02814,-0.0891 0.09323,-0.28589 0.109458,-0.35094 0.184216,-0.71477 0.181758,-1.08631 -0.0026,-0.29873 -0.04787,-0.59203 -0.140086,-0.8752 -0.09458,-0.34249 -0.225343,-0.67156 -0.356333,-0.99998 -0.09849,-0.22332 -0.195048,-0.45634 -0.393208,-0.60054 -0.169312,-0.12075 -0.348644,-0.18826 -0.556379,-0.17246 -0.271968,0.0151 -0.555175,0.0253 -0.807082,0.1453 1.524516,-0.94798 0.811951,-0.56302 0.601713,-0.35281 -0.06619,0.0664 -0.123442,0.14254 -0.184799,0.21348 -0.104992,0.136 -0.201874,0.27842 -0.257762,0.44579 -0.05859,0.20038 -0.114054,0.40188 -0.189905,0.59611 -0.113953,0.36023 -0.233066,0.71817 -0.355415,1.07533 -0.087,0.27904 -0.175844,0.55789 -0.241691,0.84359 -0.284059,0.15963 -0.567859,0.31977 -0.852173,0.47889 -0.01347,0.006 0.02852,-0.0131 0.03948,-0.024 0.06945,-0.0708 0.118084,-0.1668 0.169876,-0.2516 0.09221,-0.135421 0.170487,-0.281481 0.276146,-0.40634 0.09755,-0.13644 0.160009,-0.281151 0.192437,-0.450011 0.07679,-0.278939 0.116199,-0.568349 0.137355,-0.85764 0.07222,-1.581329 0.134295,-0.938549 -0.310089,-1.787159 l 0.829215,-0.506701 c 0.285242,1.04414 0.27337,0.145681 0.317275,1.84642 z"
       inkscape:connector-curvature="0"
       sodipodi:nodetypes="ccccccccccccccccccccccccccccccccccccccccccc" />
    <path
       style="opacity:0.82700004;fill:#000000;fill-opacity:1;stroke:none;stroke-width:1.47160769;stroke-miterlimit:4;stroke-dasharray:none;stroke-opacity:1;paint-order:stroke fill markers"
       id="path1803-3-2"
       d="m 105.31665,-24.287981 c 0.046,0.94641 -1.32106,1.37215 -1.8753,1.33369 -0.86515,0.0131 -1.71379,-0.87294 -1.82887,-1.64682 -0.008,-0.34292 0.0939,-0.67279 0.20408,-0.99081 0.25775,-0.71597 0.6124,-1.38347 1.01375,-1.95301 0.41175,-0.61009 1.09233,-0.97862 1.61984,-1.29354 0.58172,0.10753 1.07596,0.83598 1.28313,1.30961 0.0369,0.13775 0.0417,0.28104 0.0448,0.42316 -0.23065,1.50244 -2.9473,2.43159 -3.20768,1.6355 0.62684,-0.65358 1.29489,-0.13615 1.95606,-0.38825 0.35348,-0.3682 0.41734,-0.71137 0.36817,-1.1837 -0.1698,-0.46119 -0.53326,-0.8003 -0.86024,-1.10374 0,0 0,0 -0.34005,0.20749 -0.22931,0.30834 -0.44008,0.63248 -0.61541,0.97885 -0.1511,0.30855 -0.28513,0.62617 -0.41043,0.94738 -0.1091,0.30354 -0.21484,0.61453 -0.21719,0.94368 0.18389,0.70763 0.80617,1.1332 1.37148,1.43197 0.32629,0.12482 0.54326,0.0479 0.62821,-0.21617 l 0.86562,-0.43556 z"
       inkscape:connector-curvature="0"
       sodipodi:nodetypes="cccccccccccccccccccc" />
    <path
       style="opacity:0.82700004;fill:#000000;fill-opacity:1;stroke:none;stroke-width:1.47160769;stroke-miterlimit:4;stroke-dasharray:none;stroke-opacity:1;paint-order:stroke fill markers"
       id="path1801-0-67"
       d="m 88.204248,-25.116571 c -0.245629,0.79299 -0.770673,1.8502 -1.466985,2.14514 -1.076751,0.27533 -2.431203,-0.54818 -2.805785,-1.61355 -0.138927,-0.39014 -0.0556,-0.78421 0.02625,-1.14712 0.367483,-1.17295 1.505514,-2.61373 2.423613,-2.63898 0.14601,0.0218 0.294243,0.0439 0.436663,0.0854 1.201134,0.87024 1.704866,1.15264 1.583303,2.44302 -0.03792,0.0759 -0.151119,0.65547 -0.197067,0.72616 -0.331578,0.84788 -1.299133,2.26152 -1.274426,1.75388 0.0094,-0.1892 0.757814,-1.40803 0.893926,-1.95765 0.024,-0.0853 0.02908,-0.35144 -0.04594,-0.46777 -0.239985,-0.37219 0.150426,-0.98247 0.145986,-1.42953 -0.01071,-0.79927 0.09578,-1.5847 -0.04848,-2.33831 -0.386657,-1.61191 -1.170975,-2.67197 -2.239495,-3.61602 l 0.636196,-0.75773 v 0 c 0.249132,0.21432 0.485421,0.45231 0.699347,0.67101 0.886389,1.03351 1.748504,2.42089 1.681988,3.82114 -0.408958,8.06437 -0.358354,1.74674 -3.29198,1.90857 -0.186198,0.0116 -1.018926,1.87438 -0.587428,2.67288 1.378016,2.158 3.311258,0.12526 2.011738,1.64614 0.119396,-0.13194 0.17467,-0.3012 0.241581,-0.46682 0.0254,-0.003 -0.610571,-0.0753 -0.549101,-0.0713 0.262094,0.017 0.43642,-0.04 0.636109,-0.14284 0.155226,-0.0796 0.819742,-0.97287 1.089991,-1.22564 z"
       inkscape:connector-curvature="0"
       sodipodi:nodetypes="ccccccccscscccccccccccsscc" />
    <path
       style="opacity:0.82700004;fill:#000000;fill-opacity:1;stroke:none;stroke-width:1.36806703;stroke-miterlimit:4;stroke-dasharray:none;stroke-opacity:1;paint-order:stroke fill markers"
       id="path1067-3"
       d="m 69.305145,-23.571611 c -0.503401,-1.03057 -0.624647,-2.30832 0.05033,-3.16094 1.820608,-1.20935 2.822731,0.38523 2.500783,2.71057 -0.03303,0.10185 -0.04851,0.20758 -0.08758,0.30774 -0.02529,0.0645 -0.01212,0.0353 -0.03818,0.0879 l 0.794631,0.4474 v 0 c 0.02596,-0.059 0.01302,-0.028 0.03883,-0.0931 0.0423,-0.10098 0.06043,-0.20642 0.08891,-0.31163 0.04461,-0.12627 0.07888,-0.25619 0.104855,-0.38791 0.395509,-3.19564 -1.482045,-4.11689 -3.149283,-3.94255 -0.349451,0.0873 0.03943,-0.96758 -0.289906,-0.84266 -1.700348,0.64489 -1.349658,3.60348 -0.836245,4.8004 l 0.822891,0.38449 z"
       inkscape:connector-curvature="0"
       sodipodi:nodetypes="cccccccccccsccc" />
    <path
       style="opacity:0.82700004;fill:#ff9800;fill-opacity:1;stroke:none;stroke-width:2.44125319;stroke-miterlimit:4;stroke-dasharray:none;stroke-opacity:1;paint-order:stroke fill markers"
       id="path1843-3-9-6"
       d="m 24.557721,34.715419 c -0.09464,0.85537 -0.356715,0.740999 -1.525221,1.20405 -0.06602,0.02654 -0.05253,-0.203025 -0.05002,-0.408497 0.346588,-2.49197 1.859045,-3.330341 1.399245,-0.754882 -0.02337,0.756244 -0.119855,0.297197 -1.372091,1.053996 -0.02068,0.01017 0.04684,-0.01758 0.06096,-0.0389 0.06099,-0.08654 0.07022,-0.214874 0.08833,-0.313324 0.402962,-4.965898 0.720534,-7.265578 -0.774025,-11.543651 l 2.639205,-0.363786 c 0.121836,1.262405 -0.284892,8.250727 -0.466413,11.164909 z"
       inkscape:connector-curvature="0"
       sodipodi:nodetypes="cccccccccc" />
    <path
       style="opacity:1;fill:#000000;fill-opacity:1;stroke:none;stroke-width:1.16367924;stroke-miterlimit:4;stroke-dasharray:none;stroke-opacity:0.98095236"
       id="path961"
       d="m 29.44647,-22.264601 c -0.07734,-0.77016 -0.204281,-1.53215 -0.34622,-2.29145 -0.177245,-0.9942 -0.44176,-1.96615 -0.682216,-2.94409 -0.206838,-0.77638 -0.32654,-1.57345 -0.396579,-2.37548 -0.05768,-0.52603 -0.111993,-1.05237 -0.148148,-1.58059 -0.03996,-0.31512 -7.17e-4,-0.62523 0.04182,-0.93663 0.01465,-0.25013 0.09432,-0.48051 0.192681,-0.70534 0.173448,-0.28856 0.415708,-0.52641 0.650159,-0.75926 0.689239,-0.6375 1.497852,-1.12449 2.331001,-1.5221 0.247712,-0.0949 0.514185,-0.14576 0.77583,-0.10564 0.282859,0.0405 0.534695,0.17598 0.767376,0.34458 0.270736,0.21425 0.510525,0.46791 0.750618,0.71874 0.248643,0.26222 0.495636,0.52621 0.743196,0.78959 0.24031,0.30508 0.497392,0.59551 0.733124,0.90447 0.207709,0.24532 0.334364,0.53093 0.40228,0.84926 0.04496,0.26524 0.04398,0.53564 0.04447,0.80416 -0.0056,0.28837 -0.09738,0.55792 -0.200012,0.82108 -0.107912,0.28319 -0.314033,0.49962 -0.511297,0.7148 -0.240255,0.25258 -0.477146,0.50904 -0.724443,0.75397 -0.231295,0.22154 -0.485328,0.41262 -0.739421,0.60307 -0.254266,0.17663 -0.49856,0.36866 -0.745425,0.55657 -0.716266,0.53152 -1.452474,1.17158 -2.342276,1.24692 -0.213739,0.0131 -0.427932,0.0148 -0.641949,0.0203 1.851778,-1.530971 0.991356,-0.999461 2.128874,-1.198821 0.270041,-0.0494 0.543433,-0.0683 0.816885,-0.0785 0.311775,0.003 0.626013,-0.0257 0.935549,0.0189 0.282163,0.0246 0.541148,0.123069 0.789937,0.261379 0.283523,0.169541 0.507068,0.42327 0.782863,0.604031 0.218002,0.158379 0.417759,0.335799 0.60262,0.53555 0.181001,0.238099 0.357592,0.479489 0.525606,0.727989 0.156859,0.24689 0.253355,0.530481 0.335387,0.813351 0.06779,0.267359 0.0955,0.544299 0.08498,0.820429 -0.01417,0.29298 -0.108286,0.5589 -0.224672,0.82097 -0.113629,0.25248 -0.239975,0.49732 -0.377783,0.735751 -0.138729,0.240629 -0.359706,0.39639 -0.572166,0.556039 -0.711303,0.48972 0.57048,-0.389769 -1.806007,1.118561 -0.47701,0.302769 1.934891,-1.161791 1.445013,-0.88305 -1.841413,1.047739 -1.11895,0.72977 -1.944828,1.135259 -0.237669,0.12583 -0.506765,0.117691 -0.757441,0.18692 -0.248136,0.061 -0.50312,0.115801 -0.757375,0.0802 -0.396509,-0.0517 -0.763635,-0.237108 -1.124494,-0.408408 -0.4934,-0.21181 -0.967583,-0.45924 -1.426875,-0.74306 -0.195195,-0.1466 -0.101545,-0.0774 -0.280683,-0.20793 0,0 1.544096,-1.04099 1.544096,-1.04099 v 0 c 0.170233,0.13136 0.0822,0.0644 0.26426,0.20106 0.448248,0.28913 0.922034,0.5201 1.409572,0.72597 0.353682,0.15857 0.714774,0.325 1.104645,0.33862 0.246895,-0.0102 0.488487,-0.0612 0.728761,-0.12046 0.252118,-0.0433 0.50215,-0.0936 0.731924,-0.21893 0.0823,-0.0381 0.321932,-0.1677 0.244538,-0.11959 -0.480401,0.2991 -1.93053,1.18008 -1.446344,0.88791 5.654336,-3.41177 -1.026228,0.59007 0.363382,-0.22666 0.214654,-0.13498 0.424856,-0.2894 0.599539,-0.47883 0.145793,-0.23002 0.278029,-0.46749 0.387838,-0.71936 0.123502,-0.23757 0.230261,-0.47898 0.252285,-0.75307 0.03586,-0.25102 -0.003,-0.50884 -0.05204,-0.75562 -0.07091,-0.26369 -0.15983,-0.52824 -0.3021,-0.75861 -0.163017,-0.23963 -0.334148,-0.47264 -0.513218,-0.69913 -0.179141,-0.18603 -0.372557,-0.35323 -0.57936,-0.50404 -0.259875,-0.19044 -0.486489,-0.43118 -0.771314,-0.58218 -0.240004,-0.11275 -0.487585,-0.18871 -0.751322,-0.2056 -0.307715,-0.0172 -0.616255,-0.006 -0.924027,0.006 -0.26949,0.0161 -0.537779,0.0453 -0.804135,0.0926 -0.137821,0.0187 -0.271812,0.0276 -0.410677,0.0299 -0.736185,0.0131 -0.570008,0.16848 1.249257,-1.14689 0.202791,0.015 0.407865,-0.009 0.609288,-0.0304 0.129032,-0.0257 0.250757,-0.0543 0.371167,-0.112021 0.04013,-0.0192 0.155583,-0.0876 0.117623,-0.0639 -1.711381,1.06842 -1.891961,1.191179 -1.31587,0.80641 0.242013,-0.19586 0.493716,-0.37778 0.741004,-0.565781 0.263425,-0.17252 0.511041,-0.373309 0.750975,-0.58029 0.261266,-0.22499 0.484397,-0.494729 0.728528,-0.73993 0.190657,-0.202079 0.393051,-0.399779 0.535986,-0.644239 0.09497,-0.244851 0.204616,-0.48455 0.229656,-0.75204 8.99e-4,-0.25656 0.005,-0.51446 -0.02668,-0.76943 -0.05043,-0.293101 -0.162126,-0.549651 -0.352381,-0.77338 -0.230232,-0.30489 -0.480702,-0.592871 -0.722875,-0.88706 -0.247079,-0.262961 -0.493514,-0.526591 -0.742416,-0.787601 -0.23292,-0.24133 -0.465654,-0.48671 -0.734872,-0.68316 -0.219829,-0.14211 -0.456674,-0.24811 -0.717796,-0.25951 -0.248999,0.009 -0.493236,0.061 -0.715795,0.18459 -0.627286,0.36232 0.06163,-0.0343 1.317655,-0.81177 0.04269,-0.0264 -0.08919,0.0456 -0.131612,0.0725 -0.142925,0.0905 -0.261799,0.21326 -0.393217,0.32023 -0.240955,0.20869 -0.454731,0.45129 -0.66331,0.69553 -0.124651,0.1851 -0.202586,0.41464 -0.225531,0.64023 -0.04039,0.30194 -0.104853,0.60004 -0.06869,0.90714 0.02359,0.53068 0.0699,1.05932 0.127542,1.587 0.05468,0.79617 0.158327,1.58806 0.363629,2.35807 0.231944,0.98378 0.493512,1.96007 0.680801,2.95533 0.14904,0.75411 0.276497,1.51215 0.408029,2.26946 0,0 -1.626376,0.90894 -1.626376,0.90894 z"
       inkscape:connector-curvature="0" />
    <path
       style="opacity:1;fill:#ff9800;fill-opacity:1;stroke:none;stroke-width:1.41861141;stroke-miterlimit:4;stroke-dasharray:none;stroke-opacity:0.98095236"
       id="path921"
       d="m 20.372078,22.830913 c -0.23086,0.794132 -0.812655,1.531994 -1.325799,2.25811 -0.84663,1.234584 -1.704843,2.469589 -2.33458,3.763623 -0.122491,0.25169 -0.22615,0.507218 -0.339225,0.760826 -0.509554,1.19972 -0.772138,2.433623 -1.116185,3.655322 -0.196048,0.495912 -0.180988,1.085362 -0.531359,1.549005 -0.564184,0.276971 -1.08275,0.606876 -1.692549,0.830906 -0.08388,0.03082 -0.136801,-0.08708 -0.190543,-0.139084 -0.07285,-0.0705 -0.132769,-0.147564 -0.186767,-0.226025 -0.303993,-0.441717 -0.464345,-0.924929 -0.645704,-1.397085 -0.470509,-1.334299 -0.797791,-2.693355 -1.112118,-4.051925 -0.168325,-0.816002 -0.296969,-1.639395 -0.295176,-2.468044 0.0261,-0.503678 0.06938,-1.007212 0.103907,-1.510881 0.04326,-0.330929 0.03008,-0.66069 -0.0041,-0.989782 -0.05996,-0.443299 -0.109684,-0.888677 -0.270575,-1.318631 -0.08891,-0.190653 -0.206172,-0.370109 -0.378093,-0.529649 0,0 1.554175,-0.844693 1.554175,-0.844693 v 0 c 0.179465,0.176649 0.307627,0.369901 0.401563,0.577661 0.162143,0.435557 0.217469,0.885833 0.295786,1.333215 0.04616,0.33434 0.0721,0.670845 0.01492,1.007891 -0.05563,0.505707 -0.08913,1.01271 -0.136275,1.518614 -0.03034,0.831216 0.07487,1.660374 0.215777,2.481516 0.278714,1.358535 0.581059,2.718003 1.098949,4.039502 0.195849,0.450985 0.367986,0.914449 0.694254,1.329083 0.05188,0.06592 0.111401,0.129271 0.179427,0.187538 0.02647,0.02268 0.132546,0.03199 0.100959,0.05264 -0.452378,0.295581 -0.959501,0.547862 -1.439251,0.821793 0.04421,-0.02855 0.100649,-0.05017 0.132639,-0.08561 0.08873,-0.09831 0.168661,-0.327691 0.203529,-0.425696 0.120577,-0.338886 0.198097,-0.683184 0.319129,-1.02203 0.389567,-1.233484 0.664733,-2.483098 1.180666,-3.698858 0.113695,-0.256297 0.218151,-0.514465 0.341082,-0.768892 0.623118,-1.289631 1.47104,-2.521027 2.289183,-3.758303 0.474005,-0.696245 0.993013,-1.398094 1.236332,-2.149967 0,0 1.63612,-0.782082 1.63612,-0.782082 z"
       inkscape:connector-curvature="0" />
    <path
       style="opacity:0.82700004;fill:#ff9800;fill-opacity:1;stroke:none;stroke-width:2.27883363;stroke-miterlimit:4;stroke-dasharray:none;stroke-opacity:1;paint-order:stroke fill markers"
       id="path1803-3-7-62"
       d="m 21.943634,34.366155 c 0.07326,1.09792 -2.10754,1.591852 -2.991765,1.547269 -1.380233,0.01693 -2.734101,-1.012731 -2.917705,-1.910537 -0.01206,-0.397838 -0.01285,-1.438445 0.163164,-1.807458 0.411204,-0.830608 0.392277,-0.868957 1.032566,-1.529699 0.656883,-0.707733 1.547743,-1.492158 3.363857,-1.567561 0.976234,0.02285 2.463893,0.731398 2.086071,2.321595 1.68e-4,2.255249 -0.79391,4.167953 -1.209318,3.244426 1.01195,-0.742324 0.174167,-0.235415 0.04921,-2.108536 0.182303,-3.161209 0.532098,-2.207616 -1.249079,-2.470205 -1.755397,0.07818 -2.065534,1.416175 -2.551694,2.280417 -0.174013,0.35213 -0.342747,0.712953 -0.346502,1.094811 0.293365,0.820925 0.181653,0.913171 1.083524,1.259819 0.581195,0.18994 1.213543,0.732404 2.106705,0.150686 0.882373,-0.790808 0.95853,-3.779389 1.38098,-3.635711 z"
       inkscape:connector-curvature="0"
       sodipodi:nodetypes="cccccccccccccccc" />
    <path
       style="opacity:1;fill:#ff9800;fill-opacity:1;stroke:none;stroke-width:0.77682346;stroke-miterlimit:4;stroke-dasharray:none;stroke-opacity:0.98095236"
       id="path921-2"
       d="m 31.753066,29.506776 c -0.140801,0.390438 -0.495637,0.753208 -0.808605,1.110207 -0.516361,0.606988 -1.039784,1.214182 -1.42386,1.850399 -0.07471,0.123743 -0.13793,0.249374 -0.206893,0.374062 -0.310778,0.589846 -0.470929,1.196499 -0.680762,1.797153 -0.119567,0.243816 -0.110392,0.533621 -0.324077,0.761573 -0.344096,0.136173 -0.660368,0.298371 -1.032286,0.408517 -0.05116,0.01515 -0.08343,-0.04282 -0.116212,-0.06838 -0.04443,-0.03466 -0.08098,-0.07255 -0.113906,-0.111127 -0.185403,-0.217171 -0.283203,-0.454744 -0.393814,-0.686881 -0.286963,-0.656012 -0.486574,-1.324196 -0.678281,-1.992143 -0.102657,-0.40119 -0.181122,-0.806014 -0.180029,-1.213422 0.01592,-0.247635 0.04231,-0.495199 0.06338,-0.74283 0.02638,-0.162704 0.01833,-0.324831 -0.0027,-0.48663 -0.03657,-0.217949 -0.0669,-0.436921 -0.165022,-0.648309 -0.05423,-0.09374 -0.125741,-0.181966 -0.2306,-0.260403 0,0 0.947891,-0.415298 0.947891,-0.415298 v 0 c 0.109461,0.08684 0.187623,0.181864 0.244913,0.28401 0.0989,0.214143 0.132635,0.435522 0.1804,0.655479 0.02815,0.16438 0.04397,0.329824 0.0091,0.495535 -0.03392,0.248631 -0.05436,0.497901 -0.08311,0.746632 -0.01851,0.408669 0.04568,0.816327 0.131604,1.220045 0.169986,0.667928 0.354387,1.336316 0.670249,1.986034 0.119449,0.221729 0.224433,0.449593 0.423425,0.65345 0.03164,0.03241 0.06795,0.06356 0.109435,0.09221 0.01614,0.01114 0.08083,0.01574 0.06157,0.02588 -0.275905,0.145324 -0.5852,0.269358 -0.877799,0.404039 0.02696,-0.01403 0.06139,-0.02467 0.08089,-0.04209 0.05411,-0.04833 0.102874,-0.161111 0.12413,-0.209295 0.07353,-0.166615 0.120813,-0.335891 0.194635,-0.502485 0.237597,-0.606447 0.405422,-1.220823 0.720089,-1.818556 0.06934,-0.126009 0.13305,-0.252939 0.208026,-0.378029 0.38004,-0.634051 0.897188,-1.239472 1.396174,-1.847782 0.289094,-0.34231 0.605638,-0.687378 0.754038,-1.05704 0,0 0.997869,-0.384513 0.997869,-0.384513 z"
       inkscape:connector-curvature="0" />
    <path
       style="opacity:0.82700004;fill:#000000;fill-opacity:1;stroke:none;stroke-width:1.47160769;stroke-miterlimit:4;stroke-dasharray:none;stroke-opacity:1;paint-order:stroke fill markers"
       id="path1803-3-5-91"
       d="m 84.77632,-15.089221 c 0.04595,0.946411 -1.321046,1.37214 -1.87529,1.333691 -0.865156,0.0131 -1.713789,-0.87294 -1.828872,-1.64682 -0.0076,-0.3429 0.09393,-0.67276 0.204084,-0.990811 0.257744,-0.715969 0.612397,-1.383459 1.013746,-1.953009 0.411747,-0.61007 1.092329,-0.978621 1.619842,-1.293541 0.581716,0.10753 1.075952,0.836011 1.283126,1.309631 0.03684,0.1376 0.04173,0.28102 0.04481,0.42314 -0.230656,1.502439 -2.947302,2.43161 -3.207684,1.63551 0.626843,-0.65359 1.29489,-0.136151 1.956059,-0.38826 0.353481,-0.3682 0.417338,-0.71137 0.368176,-1.1837 -0.169804,-0.46118 -0.53326,-0.80029 -0.860248,-1.10374 0,0 0,0 -0.340045,0.20749 -0.229309,0.30834 -0.440079,0.63248 -0.615407,0.97887 -0.151107,0.30853 -0.285129,0.62618 -0.410433,0.94737 -0.109085,0.303539 -0.214841,0.61452 -0.217193,0.9437 0.18389,0.70763 0.806174,1.13319 1.371488,1.431939 0.326279,0.124821 0.543254,0.048 0.628201,-0.216169 l 0.865624,-0.43555 z"
       inkscape:connector-curvature="0"
       sodipodi:nodetypes="cccccccccccccccccccc" />
    <text
       xml:space="preserve"
       style="font-style:normal;font-weight:normal;font-size:10.58333302px;line-height:1.25;font-family:sans-serif;letter-spacing:0px;word-spacing:0px;fill:#000000;fill-opacity:1;stroke:none;stroke-width:0.26458332"
       x="12.294398"
       y="5.0545096"
       id="text1089"><tspan
         sodipodi:role="line"
         id="tspan1087"
         x="12.294398"
         y="5.0545096"
         style="stroke-width:0.26458332">rgb(255, 152, 0)</tspan></text>
  </g>
</svg>
