<?xml version="1.0" encoding="UTF-8" standalone="no"?>
<!-- Created with Inkscape (http://www.inkscape.org/) -->

<svg
   xmlns:dc="http://purl.org/dc/elements/1.1/"
   xmlns:cc="http://creativecommons.org/ns#"
   xmlns:rdf="http://www.w3.org/1999/02/22-rdf-syntax-ns#"
   xmlns:svg="http://www.w3.org/2000/svg"
   xmlns="http://www.w3.org/2000/svg"
   xmlns:sodipodi="http://sodipodi.sourceforge.net/DTD/sodipodi-0.dtd"
   xmlns:inkscape="http://www.inkscape.org/namespaces/inkscape"
   width="57mm"
   height="31mm"
   viewBox="0 0 57 31"
   version="1.1"
   id="svg8"
   sodipodi:docname="botonAgregarPaso.svg"
   inkscape:version="0.92.3 (2405546, 2018-03-11)">
  <defs
     id="defs2" />
  <sodipodi:namedview
     id="base"
     pagecolor="#ffffff"
     bordercolor="#666666"
     borderopacity="1.0"
     inkscape:pageopacity="0.0"
     inkscape:pageshadow="2"
     inkscape:zoom="0.7"
     inkscape:cx="48.622887"
     inkscape:cy="-8.4084443"
     inkscape:document-units="mm"
     inkscape:current-layer="layer2"
     showgrid="false"
     inkscape:window-width="960"
     inkscape:window-height="992"
     inkscape:window-x="960"
     inkscape:window-y="0"
     inkscape:window-maximized="0"
     showguides="false" />
  <metadata
     id="metadata5">
    <rdf:RDF>
      <cc:Work
         rdf:about="">
        <dc:format>image/svg+xml</dc:format>
        <dc:type
           rdf:resource="http://purl.org/dc/dcmitype/StillImage" />
        <dc:title />
      </cc:Work>
    </rdf:RDF>
  </metadata>
  <g
     inkscape:label="Capa 1"
     inkscape:groupmode="layer"
     id="layer1"
     transform="translate(0,-266)" />
  <g
     inkscape:groupmode="layer"
     id="layer2"
     inkscape:label="Capa 2"
     transform="translate(0,-9)">
    <path
       style="opacity:1;fill:#4caf50;fill-opacity:1;stroke:none;stroke-width:2.37593508;stroke-miterlimit:4;stroke-dasharray:none;stroke-opacity:0.98095236"
       id="path923"
       d="m 37.123959,38.5754 c 0.270608,-0.492179 0.397155,-1.031884 0.538145,-1.560822 0.141545,-0.53338 0.261048,-1.073156 0.291829,-1.621422 0.02087,-0.371855 0.0068,-0.494884 -0.0084,-0.864027 -0.03862,-0.789068 -0.197433,-1.56774 -0.350896,-2.344227 -0.155615,-0.769314 -0.330555,-1.536159 -0.539586,-2.295651 -0.150694,-0.466572 -0.310296,-0.930914 -0.466129,-1.396202 -0.111974,-0.366079 -0.229579,-0.729153 -0.361335,-1.090111 -0.01978,-0.06985 -0.04568,-0.134189 -0.03929,-0.207431 0.05107,-0.585131 1.094177,-0.673597 1.677289,-0.957447 0.0059,-0.0026 0.265123,-0.0091 0.280051,-0.0094 0.390521,-0.0056 0.780075,0.04023 1.165246,0.09303 0.429245,0.07452 0.857301,0.153104 1.279753,0.253725 0.393774,0.09974 0.781942,0.212911 1.147752,0.376307 0.406342,0.163423 0.751392,0.413566 1.113857,0.638144 0.297288,0.186607 0.577188,0.392951 0.867166,0.587936 0.236742,0.165198 0.344889,0.404816 0.43404,0.650607 0.115111,0.328081 0.0942,0.65792 0.02824,0.990913 -0.07354,0.363263 -0.249934,0.695849 -0.460754,1.011226 -0.167985,0.238104 -0.396389,0.442077 -0.673493,0.582527 -0.576077,0.291978 -1.15655,0.577175 -1.734821,0.865761 -0.462096,0.176762 -0.951252,0.264439 -1.448487,0.317978 -0.647526,0.04871 -1.291185,-0.04408 -1.929928,-0.125189 -0.395914,-0.0547 -0.78721,-0.130861 -1.182934,-0.186643 0,0 1.487161,-0.914935 1.487161,-0.914935 v 0 c 0.378842,0.07299 0.75601,0.154632 1.139821,0.205499 0.631234,0.08351 1.269658,0.161251 1.907811,0.08389 0.493674,-0.07076 0.981525,-0.173799 1.432313,-0.370963 -0.451268,0.23275 -0.903182,0.464519 -1.353795,0.698249 -0.0567,0.0294 0.116014,-0.05487 0.172034,-0.08529 0.205645,-0.111633 0.392245,-0.251701 0.528981,-0.428248 0.223525,-0.293828 0.414685,-0.607887 0.493039,-0.958481 0.07007,-0.30635 0.108595,-0.610768 0.002,-0.915665 -0.07935,-0.21804 -0.17776,-0.421071 -0.390532,-0.564216 -0.272452,-0.202563 -0.532431,-0.418866 -0.825828,-0.598674 -0.358232,-0.22031 -0.712871,-0.448456 -1.111984,-0.609659 -0.361215,-0.149336 -0.741228,-0.256428 -1.124654,-0.352574 -0.418694,-0.09559 -0.841582,-0.17704 -1.268622,-0.238173 -0.382456,-0.04461 -0.770066,-0.08802 -1.15586,-0.05074 -0.04832,0.0076 -0.09766,0.01098 -0.144933,0.02267 -0.03841,0.0094 -0.144421,0.05881 -0.110556,0.04027 0.490024,-0.268008 0.990909,-0.52043 1.480251,-0.789402 0.02062,-0.01134 -0.05284,4.1e-4 -0.07086,0.01473 -0.04507,0.03577 -0.01726,0.132838 -0.01358,0.165153 0.04485,0.171289 0.108053,0.336213 0.160138,0.505777 0.06059,0.197278 0.103106,0.39903 0.178368,0.592817 0.153723,0.47247 0.299431,0.946764 0.423517,1.426074 0.195184,0.766653 0.358065,1.539693 0.524493,2.311493 0.166116,0.782361 0.330643,1.56869 0.355104,2.366613 0.01387,0.350609 0.02745,0.52639 0.01491,0.878847 -0.01958,0.5512 -0.122682,1.0952 -0.258473,1.632687 -0.127263,0.518174 -0.236551,1.040756 -0.420819,1.546416 0,0 -1.676481,0.676229 -1.676481,0.676229 z"
       inkscape:connector-curvature="0" />
    <path
       style="opacity:1;fill:#4caf50;fill-opacity:1;stroke:none;stroke-width:1.60671186;stroke-miterlimit:4;stroke-dasharray:none;stroke-opacity:1;paint-order:stroke fill markers"
       id="path1835-6-6-0-5-3"
       d="m 42.189213,32.346807 c 0.784292,-0.473254 1.525753,-0.426797 2.247046,0.07166 0.542478,0.520863 0.7595,1.329079 0.803379,2.045994 0.01172,0.31064 -0.06838,0.609002 -0.155781,0.902115 -0.181556,0.564554 -0.307688,1.142978 -0.555895,1.632708 -0.398751,0.730301 -1.354584,1.278899 -1.898908,1.081245 -0.937953,-0.600235 -1.057958,-1.5612 -0.393194,-2.38888 0.639487,-0.726644 1.096947,-0.855538 1.894913,-1.172946 0.158764,-0.08622 0.284618,-0.0575 0.448277,-0.01842 0.127241,0.04104 0.250055,0.09349 0.378982,0.128967 l -0.366504,0.589566 v 0 c -0.125904,-0.04045 -0.411607,-0.131875 -0.540651,-0.160597 -0.323997,-0.03792 -0.464524,-0.08572 -0.575828,0.0078 -0.236713,0.109706 -0.479789,0.204238 -0.711649,0.32538 1.397664,-0.862363 0.587616,-0.395066 0.436184,-0.255144 -0.07028,0.06479 -0.127204,0.145596 -0.193896,0.214236 -0.579897,0.628302 -0.578805,1.198189 -0.140864,1.880724 0.140955,0.138304 0.287029,0.273669 0.460786,0.365183 0.164441,0.07294 0.338031,0.119912 0.511312,0.0483 -0.405265,0.169829 -0.819737,0.640927 -0.36862,0.140346 0.113094,-0.131292 0.218423,-0.269645 0.297044,-0.427401 0.133433,-0.23279 0.226971,-0.484658 0.301753,-0.74463 0.09155,-0.290944 0.18911,-0.579744 0.268655,-0.874661 0.08579,-0.282835 0.172659,-0.569617 0.163839,-0.870364 -0.01367,-0.221549 -0.03851,-0.441112 -0.09971,-0.654594 -0.158159,-0.99195 -1.140044,-2.071538 -2.123027,-1.659075 -0.254382,0.101523 -0.504579,0.215391 -0.746219,0.347156 l 0.65857,-0.553888 z"
       inkscape:connector-curvature="0"
       sodipodi:nodetypes="cccccccccccccccccccccccccccccc" />
    <path
       style="opacity:1;fill:#4caf50;fill-opacity:1;stroke:none;stroke-width:1.3122381;stroke-miterlimit:4;stroke-dasharray:none;stroke-opacity:1;paint-order:stroke fill markers"
       id="path1805-7"
       d="m 46.404317,33.202429 c 0.600363,0.785011 1.726735,1.276371 1.779553,2.183136 -0.05637,1.356644 -0.947022,2.31531 -2.063781,2.47584 -1.942752,-0.251254 -0.758657,-1.276752 -0.333047,-0.865616 0.194775,0.136891 0.297929,0.262119 0.626864,0.295759 1.554892,-0.778397 1.191259,-2.388321 -0.03802,-2.952546 -0.542955,-0.411288 -0.827929,-0.768795 -0.771701,-1.467949 0.24728,-1.219124 1.035955,-1.426869 2.42912,-1.543506 0.472872,0.639978 -1.850215,0.788964 -1.628993,1.874882 z"
       inkscape:connector-curvature="0"
       sodipodi:nodetypes="cccccccccc" />
    <path
       style="opacity:1;fill:#4caf50;fill-opacity:1;stroke:none;stroke-width:1.58630967;stroke-miterlimit:4;stroke-dasharray:none;stroke-opacity:1;paint-order:stroke fill markers"
       id="path1803-3-7-62"
       d="m 51.070494,36.625025 c 0.03578,1.089131 -1.029479,1.579106 -1.4614,1.53488 -0.674209,0.01679 -1.335539,-1.004622 -1.425224,-1.895239 -0.0058,-0.394652 -0.0062,-1.426928 0.0797,-1.792986 0.200863,-0.823957 0.191617,-0.862001 0.504382,-1.517451 0.320869,-0.702067 0.756032,-1.480214 1.643157,-1.55501 0.476867,0.02266 1.20355,0.725542 1.018993,2.303003 8.3e-5,2.237195 -0.387807,4.134586 -0.59072,3.218452 0.49431,-0.736381 0.08507,-0.233531 0.02404,-2.091653 0.08904,-3.1359 0.259917,-2.189941 -0.610143,-2.450429 -0.857465,0.07757 -1.008959,1.404837 -1.246436,2.262161 -0.085,0.34931 -0.167425,0.707242 -0.169257,1.086046 0.1433,0.81435 0.08873,0.905859 0.529273,1.249731 0.283899,0.188419 0.592785,0.726541 1.029072,0.149482 0.431015,-0.784473 0.468217,-3.749126 0.674574,-3.6066 z"
       inkscape:connector-curvature="0"
       sodipodi:nodetypes="cccccccccccccccc" />
    <path
       style="opacity:1;fill:#4caf50;fill-opacity:1;stroke:none;stroke-width:1.42171741;stroke-miterlimit:4;stroke-dasharray:none;stroke-opacity:0.98095236"
       id="path921"
       d="m 3.8870008,26.503206 c 0.061985,-0.89236 0.4534202,-1.801281 0.7846414,-2.682839 0.5396683,-1.49324 1.0897856,-2.989452 1.4212509,-4.498637 0.064481,-0.293531 0.1111212,-0.587046 0.1666819,-0.880579 0.2397874,-1.383049 0.248738,-2.748701 0.3340025,-4.119109 0.085866,-0.568519 -0.037558,-1.190393 0.1945804,-1.758219 0.4612298,-0.416289 0.8711399,-0.878822 1.3836842,-1.248891 0.070502,-0.05084 0.1405559,0.06266 0.1990802,0.106094 0.079346,0.05903 0.1481479,0.127664 0.2118331,0.199151 0.3585377,0.402421 0.5942427,0.880055 0.8469807,1.341398 0.6760579,1.31288 1.2265429,2.683135 1.7651609,4.055679 0.304908,0.828845 0.575126,1.674157 0.727764,2.553351 0.07005,0.53984 0.124454,1.083276 0.18684,1.62494 0.02228,0.360358 0.09566,0.70722 0.187993,1.048821 0.137028,0.45712 0.265137,0.918649 0.491418,1.339693 0.116304,0.182877 0.256294,0.347723 0.442257,0.479584 0,0 -1.25535,1.233445 -1.25535,1.233445 v 0 C 11.779814,25.148734 11.627349,24.971626 11.503291,24.771682 11.27483,24.34498 11.140716,23.879465 10.986242,23.421999 10.882043,23.077434 10.795821,22.726196 10.785043,22.356313 10.741457,21.807919 10.677519,21.262937 10.626186,20.716163 10.499015,19.828018 10.249026,18.971524 9.9680801,18.131269 9.4618374,16.751033 8.9339416,15.374925 8.2172027,14.085903 7.9552356,13.650173 7.7124941,13.196025 7.3387542,12.827173 7.2793265,12.768648 7.2134353,12.714271 7.1407575,12.667257 7.1124685,12.648937 7.0143282,12.662157 7.039202,12.633387 7.3953454,12.22165 7.809307,11.84393 8.1943585,11.449201 c -0.034879,0.03986 -0.082138,0.07516 -0.1046196,0.11959 -0.062347,0.123534 -0.092296,0.384173 -0.1057393,0.49568 -0.046497,0.385609 -0.052863,0.767594 -0.099789,1.153236 -0.1244427,1.392795 -0.1419048,2.777837 -0.3845035,4.179288 -0.055619,0.296522 -0.1025015,0.59301 -0.1668692,0.889539 -0.3262682,1.503069 -0.8677036,2.993219 -1.3809784,4.483148 -0.3012102,0.841361 -0.6422774,1.698446 -0.7234574,2.548699 0,0 -1.3414869,1.184845 -1.3414869,1.184845 z"
       inkscape:connector-curvature="0" />
    <path
       style="opacity:1;fill:#4caf50;fill-opacity:1;stroke:none;stroke-width:1.72965562;stroke-miterlimit:4;stroke-dasharray:none;stroke-opacity:0.98095236"
       id="path838-5"
       d="m 6.6392614,20.147687 c 0.3408522,-0.08225 0.6821383,-0.171595 1.0264592,-0.240101 0.5619091,-0.125534 1.1189903,-0.293388 1.6542064,-0.530152 0.3547868,-0.180715 0.732205,-0.272817 1.105752,-0.380997 0.258531,-0.11177 0.523466,-0.184862 0.781141,-0.296353 0.106338,-0.04349 0.217518,-0.06114 0.328503,-0.07879 0,0 -1.459601,1.285137 -1.459601,1.285137 v 0 c -0.1050411,0.02854 -0.2094678,0.05919 -0.3100612,0.105553 -0.2566439,0.102303 -0.5231534,0.170944 -0.7809302,0.269853 -0.3627989,0.105976 -0.7253073,0.210728 -1.072492,0.376985 -0.5483164,0.213161 -1.1099222,0.378785 -1.676844,0.509555 -0.3551329,0.08585 -0.7082807,0.180192 -1.0618148,0.274126 0,0 1.4656816,-1.294875 1.4656816,-1.294875 z"
       inkscape:connector-curvature="0" />
    <path
       style="opacity:0.82700004;fill:#4caf50;fill-opacity:1;stroke:none;stroke-width:1.36965668;stroke-miterlimit:4;stroke-dasharray:none;stroke-opacity:1;paint-order:stroke fill markers"
       id="path1843-3-3-9"
       d="m 17.342922,19.206642 c 0.221957,0.227027 0.420142,0.46304 0.58831,0.715166 0.184787,0.313099 0.310255,0.645504 0.406971,0.979994 0.07965,0.318554 0.08782,0.643671 0.116387,0.966347 0.03756,0.347918 0.04252,0.696257 0.0099,1.044344 -0.03436,0.294065 -0.100744,0.584936 -0.135688,0.879018 -0.01973,0.269573 -0.03321,0.539079 -0.06035,0.808374 -0.06296,0.404786 -0.237266,0.350662 -1.014487,0.569818 -0.04389,0.01241 -0.03493,-0.09603 -0.03325,-0.193348 0.03509,-0.373625 0.130743,-0.742267 0.210479,-1.111475 0.07272,-0.393106 0.179436,-0.781696 0.242788,-1.175808 0.04357,-0.302205 0.11416,-0.601479 0.156882,-0.903702 0.03236,-0.300321 0.13265,-0.591471 0.250019,-0.878171 0.117141,-0.32407 0.333288,-0.614891 0.565035,-0.898339 0.177249,-0.218422 0.362221,-0.399434 0.634204,-0.552846 0.456911,-0.208633 0.533806,-0.245817 1.253775,-0.534138 0.02773,-0.01081 0.424545,-0.12573 0.452767,-0.133922 0,0 -0.804895,0.478479 -0.804895,0.478479 v 0 c -0.07549,0.02238 -0.151448,0.04425 -0.226472,0.06773 -0.07521,0.02348 -0.291383,0.107607 -0.224121,0.07305 0.257239,-0.132435 1.032177,-0.455761 0.5134,-0.238082 -0.04662,0.02229 -0.09542,0.04214 -0.139884,0.06689 -0.216485,0.120156 -0.362954,0.297146 -0.517554,0.459097 -0.236078,0.275747 -0.45717,0.559558 -0.573852,0.879067 -0.1185,0.281717 -0.225241,0.567463 -0.257957,0.863486 -0.03894,0.304418 -0.113212,0.604689 -0.164202,0.908017 -0.06205,0.396604 -0.172793,0.786417 -0.248626,1.181501 -0.07677,0.362299 -0.167395,0.725097 -0.191097,1.092076 -0.01559,0.357891 -0.0797,0.140651 -0.912627,0.498805 -0.01374,0.0043 0.03114,-0.0087 0.04056,-0.0185 0.04055,-0.04112 0.04671,-0.101653 0.05877,-0.148287 0.03493,-0.269767 0.05285,-0.53962 0.0664,-0.810451 0.03127,-0.295381 0.09852,-0.58654 0.142011,-0.880765 0.03828,-0.344574 0.03565,-0.689426 -0.0035,-1.034084 -0.0296,-0.319028 -0.04029,-0.640149 -0.111178,-0.955993 -0.08977,-0.328866 -0.209914,-0.656009 -0.394067,-0.962218 -0.165838,-0.246129 -0.357602,-0.479659 -0.595855,-0.690025 0,0 0.9011,-0.411095 0.9011,-0.411095 z"
       inkscape:connector-curvature="0" />
    <path
       style="opacity:0.82700004;fill:#4caf50;fill-opacity:1;stroke:none;stroke-width:1.47482967;stroke-miterlimit:4;stroke-dasharray:none;stroke-opacity:1;paint-order:stroke fill markers"
       id="path1803-3-5-1"
       d="m 22.749071,23.980696 c 0.04268,1.024549 -1.225635,1.485436 -1.739857,1.443811 -0.802673,0.01419 -1.590019,-0.945015 -1.69679,-1.782795 -0.0071,-0.371208 0.08714,-0.728306 0.189345,-1.072618 0.239129,-0.775084 0.56817,-1.497683 0.940534,-2.114262 0.382011,-0.660442 1.013442,-1.059418 1.502856,-1.400345 0.539708,0.116416 0.998254,0.905036 1.190462,1.417768 0.03414,0.148961 0.03869,0.304223 0.04156,0.458074 -0.214003,1.626494 -2.734452,2.632381 -2.976029,1.770549 0.581572,-0.707558 1.201375,-0.147391 1.814791,-0.420317 0.327951,-0.398605 0.387199,-0.77011 0.34159,-1.281439 -0.157537,-0.499252 -0.494749,-0.866365 -0.798123,-1.194869 0,0 0,0 -0.315486,0.224621 -0.212748,0.333798 -0.408296,0.684706 -0.570963,1.05969 -0.140193,0.334009 -0.264536,0.677881 -0.380792,1.025596 -0.101206,0.328597 -0.199325,0.665257 -0.201508,1.021611 0.170612,0.766057 0.747955,1.226758 1.27244,1.550177 0.302715,0.13512 0.504026,0.05194 0.582831,-0.23402 l 0.803115,-0.471511 z"
       inkscape:connector-curvature="0"
       sodipodi:nodetypes="cccccccccccccccccccc" />
    <path
       style="opacity:0.82700004;fill:#4caf50;fill-opacity:1;stroke:none;stroke-width:1.44072342;stroke-miterlimit:4;stroke-dasharray:none;stroke-opacity:1;paint-order:stroke fill markers"
       id="path1801-6-2"
       d="m 16.924576,23.377848 c -0.129042,-0.89144 -0.491819,-2.233834 -1.123836,-3.036812 -1.001966,-1.082128 -2.421808,-1.410514 -2.928644,-0.761859 -0.187306,0.236148 -0.160573,0.648957 -0.131018,1.033113 0.19489,1.321839 1.09716,3.480539 1.980051,4.218185 0.143932,0.09462 0.290042,0.190571 0.433188,0.264946 1.278194,0.167702 1.802993,0.310903 1.861522,-0.922981 -0.02631,-0.09656 -0.05655,-0.696393 -0.09128,-0.794592 -0.20454,-1.006849 -0.945931,-3.008741 -0.991272,-2.541368 -0.0169,0.174229 0.539674,1.833498 0.596158,2.424776 0.01159,0.09397 -0.01984,0.332903 -0.108102,0.377155 -0.28241,0.141623 0.0112,0.98452 -0.05393,1.375744 -0.119324,0.697204 -0.123544,1.473605 -0.365537,2.026459 -0.592996,1.121701 -1.494665,1.446369 -2.654899,1.447163 l 0.510895,1.16467 v 0 c 0.269727,0.0043 0.530279,-0.02119 0.766612,-0.04729 0.996591,-0.221716 2.017988,-0.774713 2.144636,-2.06268 0.704409,-7.437891 -0.107863,-1.821252 -2.917937,-4.250049 -0.178157,-0.155464 -0.728187,-2.448675 -0.202778,-2.817368 1.62449,-0.831285 3.213778,2.469585 2.166516,0.114456 0.09729,0.209563 0.12757,0.402008 0.169595,0.600348 0.02394,0.0234 -0.599711,-0.409314 -0.539825,-0.364926 0.255347,0.189168 0.415874,0.375372 0.594628,0.621781 0.138995,0.19128 0.658774,1.497589 0.885216,1.931325 z"
       inkscape:connector-curvature="0"
       sodipodi:nodetypes="ccccccccscscccccccccccsscc" />
    <path
       style="opacity:0.82700004;fill:#4caf50;fill-opacity:1;stroke:none;stroke-width:1.44072342;stroke-miterlimit:4;stroke-dasharray:none;stroke-opacity:1;paint-order:stroke fill markers"
       id="path1801-6-2-7"
       d="M 27.298139,23.501931 C 27.169096,22.610499 26.80632,21.268097 26.174302,20.465119 25.172338,19.383 23.752496,19.054606 23.245659,19.70326 c -0.187305,0.236156 -0.160572,0.648957 -0.131018,1.033129 0.194891,1.321823 1.097162,3.480523 1.980052,4.218169 0.14393,0.09462 0.290042,0.190571 0.433188,0.264963 1.278194,0.167684 1.802991,0.310886 1.861522,-0.922998 -0.02631,-0.09656 -0.05655,-0.696377 -0.09128,-0.794592 -0.204541,-1.006849 -0.945931,-3.008742 -0.991271,-2.541368 -0.0169,0.174229 0.539671,1.833498 0.596156,2.424776 0.01158,0.09397 -0.01983,0.332903 -0.1081,0.377154 -0.282414,0.141624 0.0112,0.984521 -0.05393,1.375745 -0.119324,0.69722 -0.123543,1.473605 -0.365538,2.026458 -0.592994,1.12171 -1.494665,1.44637 -2.654898,1.447172 l 0.510895,1.16467 v 0 c 0.269727,0.0043 0.530278,-0.0212 0.766612,-0.04729 0.99659,-0.221716 2.017988,-0.774704 2.144636,-2.06268 0.70441,-7.437882 -0.107863,-1.821252 -2.917938,-4.250031 -0.178156,-0.155464 -0.728185,-2.448676 -0.202775,-2.817377 1.624486,-0.831294 3.213776,2.469577 2.166514,0.114447 0.09729,0.209555 0.127571,0.402008 0.169594,0.600348 0.02394,0.0234 -0.599709,-0.409305 -0.539824,-0.364926 0.255348,0.18916 0.415875,0.375372 0.594628,0.621789 0.138996,0.191288 0.658773,1.497589 0.885216,1.931317 z"
       inkscape:connector-curvature="0"
       sodipodi:nodetypes="ccccccccscscccccccccccsscc" />
    <path
       style="opacity:0.82700004;fill:#4caf50;fill-opacity:1;stroke:none;stroke-width:1.56417537;stroke-miterlimit:4;stroke-dasharray:none;stroke-opacity:1;paint-order:stroke fill markers"
       id="path1835-3"
       d="m 27.941229,19.57134 c 0.977928,-0.555277 1.902459,-0.500782 2.801827,0.08369 0.676414,0.6112 0.94703,1.559458 1.00175,2.400581 0.01463,0.364513 -0.08526,0.714601 -0.194253,1.058499 -0.22638,0.662368 -0.383663,1.341052 -0.693142,1.915668 -0.497202,0.856806 -1.689042,1.500511 -2.367753,1.268628 -1.169539,-0.704298 -1.319168,-1.831792 -0.49028,-2.802936 0.797385,-0.852558 1.367795,-1.003784 2.362774,-1.376191 0.197957,-0.101223 0.354896,-0.06748 0.558964,-0.02145 0.158658,0.04772 0.311786,0.109735 0.47255,0.151479 l -0.456997,0.691732 v 0 c -0.15699,-0.04712 -0.513233,-0.154384 -0.674138,-0.188366 -0.403985,-0.04459 -0.579215,-0.100682 -0.718006,0.0086 -0.295159,0.128829 -0.598247,0.239627 -0.887346,0.381791 1.742744,-1.011866 0.732696,-0.463521 0.543881,-0.299359 -0.08759,0.07592 -0.15862,0.170859 -0.241778,0.251365 -0.723073,0.7372 -0.721707,1.405834 -0.175634,2.206625 0.175749,0.16223 0.357892,0.321123 0.574554,0.428492 0.205034,0.08574 0.421494,0.140415 0.637547,0.05658 -0.505321,0.199193 -1.022115,0.752011 -0.459627,0.164787 0.141027,-0.154223 0.272353,-0.316393 0.370387,-0.501482 0.16637,-0.27317 0.28301,-0.568688 0.37625,-0.873671 0.114156,-0.34139 0.235803,-0.680238 0.334993,-1.026273 0.10698,-0.331838 0.215288,-0.668356 0.204282,-1.021213 -0.01692,-0.25993 -0.04803,-0.517545 -0.12431,-0.768033 -0.197204,-1.16385 -1.421518,-2.430528 -2.647199,-1.946593 -0.3172,0.11877 -0.629157,0.252725 -0.930465,0.407328 l 0.821174,-0.649912 z"
       inkscape:connector-curvature="0"
       sodipodi:nodetypes="cccccccccccccccccccccccccccccc" />
    <path
       style="opacity:0.82700004;fill:#4caf50;fill-opacity:1;stroke:none;stroke-width:1.50159025;stroke-miterlimit:4;stroke-dasharray:none;stroke-opacity:1;paint-order:stroke fill markers"
       id="path1843-6"
       d="m 32.134356,19.273425 c 0.221796,0.273078 0.41984,0.556907 0.587888,0.860202 0.184659,0.376605 0.310037,0.776384 0.406681,1.178696 0.0796,0.383176 0.08775,0.774222 0.116309,1.162304 0.03753,0.418502 0.04249,0.837468 0.0098,1.256155 -0.03433,0.35372 -0.100693,0.70353 -0.135589,1.057283 -0.01971,0.32423 -0.0332,0.648392 -0.0603,0.972275 -0.06291,0.486889 -0.237095,0.421786 -1.013765,0.685347 -0.04385,0.01503 -0.03492,-0.115545 -0.03324,-0.232508 0.03508,-0.449418 0.130647,-0.892774 0.210331,-1.336872 0.07268,-0.472845 0.179306,-0.940226 0.242611,-1.414246 0.04353,-0.363507 0.114074,-0.723467 0.15677,-1.086975 0.03234,-0.361218 0.132551,-0.711425 0.249839,-1.056269 0.117064,-0.389779 0.333054,-0.739573 0.564635,-1.08049 0.177123,-0.262715 0.361964,-0.480419 0.633753,-0.664985 0.456584,-0.250936 0.533424,-0.295661 1.252884,-0.642456 0.02772,-0.01292 0.424242,-0.151191 0.452443,-0.161063 0,0 -0.804318,0.575528 -0.804318,0.575528 v 0 c -0.07543,0.02711 -0.151346,0.05321 -0.226314,0.08133 -0.07514,0.02812 -0.291174,0.129479 -0.223961,0.08791 0.257056,-0.159298 1.031443,-0.548209 0.513034,-0.28637 -0.0466,0.02677 -0.09535,0.05076 -0.139786,0.08048 -0.21633,0.144511 -0.362693,0.357401 -0.517186,0.552194 -0.235911,0.331645 -0.456843,0.673043 -0.573441,1.057342 -0.118413,0.338814 -0.225083,0.682518 -0.257774,1.03856 -0.0389,0.366168 -0.113131,0.727302 -0.164089,1.092161 -0.06201,0.477033 -0.172665,0.945893 -0.248447,1.421102 -0.0767,0.435746 -0.167274,0.872126 -0.190956,1.313531 -0.01557,0.430459 -0.07967,0.169161 -0.911981,0.599942 -0.01369,0.0051 0.03111,-0.0097 0.04053,-0.02213 0.04053,-0.04923 0.04668,-0.122293 0.05872,-0.178325 0.03492,-0.3245 0.05284,-0.649042 0.06634,-0.974834 0.03124,-0.355248 0.09844,-0.70548 0.141908,-1.059377 0.03824,-0.414405 0.03561,-0.829191 -0.0033,-1.243748 -0.02954,-0.383734 -0.04023,-0.769984 -0.111101,-1.149866 -0.0897,-0.395548 -0.209764,-0.789044 -0.393787,-1.157339 -0.165721,-0.296049 -0.357346,-0.576922 -0.595428,-0.829952 0,0 0.900452,-0.494481 0.900452,-0.494481 z"
       inkscape:connector-curvature="0" />
  </g>
</svg>
