<?xml version="1.0" encoding="UTF-8" standalone="no"?>
<!-- Created with Inkscape (http://www.inkscape.org/) -->

<svg
   xmlns:dc="http://purl.org/dc/elements/1.1/"
   xmlns:cc="http://creativecommons.org/ns#"
   xmlns:rdf="http://www.w3.org/1999/02/22-rdf-syntax-ns#"
   xmlns:svg="http://www.w3.org/2000/svg"
   xmlns="http://www.w3.org/2000/svg"
   xmlns:sodipodi="http://sodipodi.sourceforge.net/DTD/sodipodi-0.dtd"
   xmlns:inkscape="http://www.inkscape.org/namespaces/inkscape"
   width="3.2cm"
   height="1.2cm"
   viewBox="0 0 32 12.000001"
   version="1.1"
   id="svg8"
   sodipodi:docname="botonSeleccionar.svg"
   inkscape:version="0.92.3 (2405546, 2018-03-11)">
  <defs
     id="defs2" />
  <sodipodi:namedview
     id="base"
     pagecolor="#ffffff"
     bordercolor="#666666"
     borderopacity="1.0"
     inkscape:pageopacity="0.0"
     inkscape:pageshadow="2"
     inkscape:zoom="3.959798"
     inkscape:cx="37.771451"
     inkscape:cy="30.987343"
     inkscape:document-units="mm"
     inkscape:current-layer="layer2"
     showgrid="false"
     inkscape:window-width="1920"
     inkscape:window-height="992"
     inkscape:window-x="0"
     inkscape:window-y="0"
     inkscape:window-maximized="1"
     showguides="false"
     units="cm" />
  <metadata
     id="metadata5">
    <rdf:RDF>
      <cc:Work
         rdf:about="">
        <dc:format>image/svg+xml</dc:format>
        <dc:type
           rdf:resource="http://purl.org/dc/dcmitype/StillImage" />
        <dc:title></dc:title>
      </cc:Work>
    </rdf:RDF>
  </metadata>
  <g
     inkscape:label="Capa 1"
     inkscape:groupmode="layer"
     id="layer1"
     transform="translate(0,-285)" />
  <g
     inkscape:groupmode="layer"
     id="layer2"
     inkscape:label="Capa 2"
     transform="translate(0,-27.999994)">
    <path
       style="opacity:1;fill:#673ab7;fill-opacity:1;stroke:none;stroke-width:1.50572348;stroke-miterlimit:4;stroke-dasharray:none;stroke-opacity:1;paint-order:stroke fill markers"
       id="path1805"
       d="m 2.8036551,32.524733 c 0.6667763,0.930626 1.9177444,1.513132 1.9764035,2.5881 C 4.7174546,36.721128 3.7282788,37.857621 2.487986,38.04793 0.33032995,37.75007 1.6454089,36.534345 2.1180966,37.021746 2.33442,37.184029 2.448983,37.332486 2.8143047,37.372367 4.5411968,36.44958 4.1373396,34.541021 2.7720889,33.872135 2.1690742,33.384555 1.8525756,32.96073 1.9150227,32.131886 2.1896561,30.686619 3.0655748,30.440339 4.6128515,30.302066 5.1380313,31.060758 2.557966,31.237379 2.8036596,32.524733 Z"
       inkscape:connector-curvature="0"
       sodipodi:nodetypes="cccccccccc" />
    <path
       style="opacity:1;fill:#673ab7;fill-opacity:1;stroke:none;stroke-width:0.99213654;stroke-miterlimit:4;stroke-dasharray:none;stroke-opacity:1;paint-order:stroke fill markers"
       id="path1837"
       d="m 14.762365,37.021237 c 0.119083,0.02997 0.233306,0.08523 0.356823,0.09177 0.123209,-0.0079 0.227811,-0.07352 0.331093,-0.134475 l -0.515149,0.416926 v 0 c -0.10971,0.06101 -0.227343,0.110266 -0.355657,0.09996 -1.264658,-0.276737 -1.473215,-0.647478 -1.245424,-1.936859 0.391909,-1.262107 0.838891,-1.39183 2.068331,-1.390549 -0.07355,0.05794 -0.143438,0.116874 -0.214295,0.170638 -1.433965,1.088076 -2.057699,1.851712 -0.425722,2.682588 z"
       inkscape:connector-curvature="0"
       sodipodi:nodetypes="ccccccccsc" />
    <path
       style="opacity:1;fill:#673ab7;fill-opacity:1;stroke:none;stroke-width:0.99213654;stroke-miterlimit:4;stroke-dasharray:none;stroke-opacity:1;paint-order:stroke fill markers"
       id="path1803-3"
       d="m 7.8183873,36.674083 c 0.031886,0.619906 -0.916709,0.898757 -1.3013135,0.873576 -0.6003531,0.0089 -1.1892416,-0.571788 -1.2691009,-1.078681 -0.00537,-0.224609 0.065184,-0.440667 0.1416179,-0.648996 0.1788566,-0.468963 0.4249605,-0.906168 0.7034682,-1.279231 0.2857216,-0.399603 0.7579922,-0.641 1.1240477,-0.847275 0.4036686,0.07044 0.7466308,0.54758 0.8903961,0.857811 0.025572,0.09019 0.028952,0.184081 0.031109,0.277163 -0.1600585,0.98411 -2.0452087,1.592717 -2.2258944,1.07127 0.4349838,-0.428107 0.898558,-0.08919 1.3573603,-0.254304 0.2452871,-0.241179 0.2896012,-0.465957 0.255487,-0.775335 C 7.4077315,34.567995 7.155521,34.345885 6.9286165,34.14711 c 0,0 0,0 -0.235966,0.135913 -0.159125,0.201969 -0.305382,0.414286 -0.427048,0.641169 -0.1048557,0.202088 -0.1978589,0.410139 -0.2848094,0.620531 -0.0757,0.198824 -0.1490835,0.40253 -0.1507164,0.618122 0.1276083,0.463506 0.559428,0.742257 0.9517116,0.937945 0.2264164,0.08175 0.376978,0.03145 0.4359251,-0.141597 l 0.60068,-0.285289 z"
       inkscape:connector-curvature="0"
       sodipodi:nodetypes="cccccccccccccccccccc" />
    <path
       style="opacity:1;fill:#673ab7;fill-opacity:1;stroke:none;stroke-width:0.99213654;stroke-miterlimit:4;stroke-dasharray:none;stroke-opacity:1;paint-order:stroke fill markers"
       id="path1803-3-6"
       d="m 12.488826,36.879187 c 0.03189,0.619907 -0.916709,0.898757 -1.301313,0.873576 -0.600354,0.0089 -1.1892431,-0.571788 -1.2691023,-1.07868 -0.00541,-0.22461 0.065185,-0.440668 0.1416173,-0.648996 0.178857,-0.468964 0.424961,-0.906169 0.703469,-1.279232 0.285722,-0.399603 0.757993,-0.641 1.124048,-0.847275 0.403669,0.07044 0.746633,0.547581 0.890397,0.857812 0.02557,0.09018 0.02895,0.18408 0.03111,0.277162 -0.160057,0.984111 -2.045209,1.592717 -2.225895,1.07127 0.434983,-0.428106 0.898558,-0.08919 1.35736,-0.254304 0.245288,-0.241178 0.289601,-0.465957 0.255487,-0.775335 -0.117833,-0.302086 -0.370043,-0.524196 -0.596948,-0.722971 0,0 0,0 -0.235965,0.135914 -0.159125,0.201969 -0.305383,0.414285 -0.42705,0.641168 -0.104855,0.202088 -0.197858,0.410139 -0.284809,0.620532 -0.0757,0.198824 -0.149084,0.402529 -0.150716,0.618121 0.127608,0.463506 0.559428,0.742257 0.951712,0.937946 0.226416,0.08175 0.376978,0.03145 0.435925,-0.141598 l 0.60068,-0.285289 z"
       inkscape:connector-curvature="0"
       sodipodi:nodetypes="cccccccccccccccccccc" />
    <path
       style="opacity:1;fill:#673ab7;fill-opacity:1;stroke:none;stroke-width:0.99213654;stroke-miterlimit:4;stroke-dasharray:none;stroke-opacity:1;paint-order:stroke fill markers"
       id="path1837-7"
       d="m 16.878596,36.866195 c 0.119082,0.02997 0.233305,0.08523 0.356823,0.09177 0.123208,-0.0079 0.22781,-0.07352 0.331093,-0.134475 l -0.51515,0.416926 v 0 c -0.10971,0.06101 -0.227342,0.110266 -0.355656,0.09996 -1.264658,-0.276736 -1.473217,-0.647478 -1.245425,-1.936858 0.391909,-1.262107 0.838892,-1.39183 2.068331,-1.390549 -0.07355,0.05794 -0.143437,0.116873 -0.214294,0.170638 -1.433966,1.088076 -2.057699,1.851712 -0.425722,2.682588 z"
       inkscape:connector-curvature="0"
       sodipodi:nodetypes="ccccccccsc" />
    <path
       style="opacity:1;fill:#673ab7;fill-opacity:1;stroke:none;stroke-width:0.91782182;stroke-miterlimit:4;stroke-dasharray:none;stroke-opacity:1;paint-order:stroke fill markers"
       id="path1835-3-5"
       d="m 25.709751,33.639841 c 0.637996,-0.293052 1.241156,-0.264291 1.827902,0.04417 0.441289,0.322564 0.617837,0.823014 0.653538,1.266922 0.0095,0.192375 -0.05563,0.377137 -0.126731,0.558632 -0.147689,0.34957 -0.250299,0.70775 -0.452206,1.011007 -0.324371,0.452185 -1.101926,0.791906 -1.544712,0.669527 -0.763005,-0.371698 -0.86062,-0.966741 -0.319858,-1.479269 0.520214,-0.449943 0.892347,-0.529754 1.541466,-0.726296 0.129146,-0.05342 0.231535,-0.03561 0.364664,-0.0113 0.103512,0.02517 0.203412,0.05791 0.308296,0.07995 l -0.298146,0.365067 v 0 c -0.102417,-0.02486 -0.334831,-0.08147 -0.439805,-0.09941 -0.263559,-0.02353 -0.377877,-0.05314 -0.468429,0.0045 -0.192559,0.06799 -0.390288,0.126464 -0.5789,0.201492 1.136963,-0.534019 0.47801,-0.244626 0.35483,-0.15799 -0.05715,0.04007 -0.103487,0.09018 -0.157737,0.132661 -0.471728,0.389063 -0.470842,0.74194 -0.114587,1.164562 0.114658,0.08562 0.233489,0.169475 0.374834,0.22614 0.133765,0.04525 0.274984,0.0741 0.415935,0.02987 -0.329668,0.10513 -0.666823,0.396882 -0.29986,0.08696 0.09201,-0.0814 0.177683,-0.166978 0.241641,-0.264662 0.108545,-0.144166 0.184635,-0.300128 0.245463,-0.461087 0.07447,-0.180169 0.15384,-0.358999 0.218552,-0.541621 0.06979,-0.175129 0.140452,-0.352728 0.133272,-0.538952 -0.01106,-0.13718 -0.03136,-0.273139 -0.0811,-0.405334 -0.128654,-0.614231 -0.927395,-1.282729 -1.727022,-1.027329 -0.206942,0.06268 -0.410457,0.133377 -0.60703,0.214969 l 0.535728,-0.342994 z"
       inkscape:connector-curvature="0"
       sodipodi:nodetypes="cccccccccccccccccccccccccccccc" />
    <path
       style="opacity:1;fill:#673ab7;fill-opacity:1;stroke:none;stroke-width:0.88109821;stroke-miterlimit:4;stroke-dasharray:none;stroke-opacity:1;paint-order:stroke fill markers"
       id="path1843-6-3"
       d="m 28.287546,33.246987 c 0.144702,0.144121 0.273903,0.293913 0.383536,0.453979 0.120469,0.198755 0.202269,0.409742 0.265317,0.622064 0.05194,0.202223 0.05725,0.408601 0.07588,0.613415 0.02449,0.220868 0.02771,0.44198 0.0064,0.662944 -0.02239,0.186679 -0.06569,0.371293 -0.08845,0.557989 -0.01286,0.171115 -0.02164,0.342194 -0.03933,0.513126 -0.04104,0.256959 -0.154677,0.222599 -0.661373,0.361696 -0.0286,0.0079 -0.0228,-0.06097 -0.02169,-0.122707 0.02289,-0.237184 0.08523,-0.471168 0.137217,-0.705544 0.04745,-0.249549 0.116979,-0.496211 0.158278,-0.746378 0.02841,-0.191844 0.07443,-0.381814 0.102274,-0.573659 0.0211,-0.190637 0.08648,-0.375462 0.162991,-0.557454 0.07638,-0.20571 0.217284,-0.390314 0.368368,-0.570236 0.115551,-0.138649 0.236144,-0.253546 0.413461,-0.350951 0.297868,-0.132433 0.348002,-0.156037 0.817375,-0.339061 0.01808,-0.0068 0.276773,-0.07979 0.295169,-0.085 0,0 -0.524731,0.303739 -0.524731,0.303739 v 0 c -0.04919,0.0143 -0.09874,0.02809 -0.147647,0.04292 -0.049,0.01483 -0.18996,0.06834 -0.14611,0.0464 0.167701,-0.08407 0.672911,-0.289321 0.334702,-0.151133 -0.03041,0.01414 -0.0622,0.02679 -0.0912,0.04247 -0.141135,0.07626 -0.23662,0.188621 -0.337412,0.291424 -0.153905,0.175027 -0.29804,0.355204 -0.374108,0.55802 -0.07726,0.178812 -0.146846,0.360204 -0.168172,0.548108 -0.0254,0.193247 -0.07381,0.383838 -0.107057,0.576395 -0.04043,0.251758 -0.112648,0.499202 -0.162085,0.749997 -0.05005,0.229968 -0.109127,0.46027 -0.124578,0.693224 -0.01011,0.227178 -0.05198,0.08928 -0.594973,0.316625 -0.0089,0.0028 0.0203,-0.0051 0.02644,-0.01166 0.02645,-0.02599 0.03046,-0.06454 0.03833,-0.09411 0.02279,-0.171256 0.03447,-0.342536 0.04329,-0.514475 0.02039,-0.187485 0.06423,-0.372322 0.09258,-0.559094 0.02496,-0.218705 0.02325,-0.437611 -0.002,-0.656397 -0.01928,-0.202518 -0.02625,-0.406364 -0.07249,-0.606849 -0.05851,-0.208755 -0.136852,-0.416425 -0.256905,-0.610795 -0.108116,-0.156241 -0.233133,-0.304474 -0.388457,-0.438011 0,0 0.587455,-0.260967 0.587455,-0.260967 z"
       inkscape:connector-curvature="0" />
    <path
       style="opacity:1;fill:#673ab7;fill-opacity:1;stroke:none;stroke-width:1.02987611;stroke-miterlimit:4;stroke-dasharray:none;stroke-opacity:1;paint-order:stroke fill markers"
       id="path1833-1-6"
       d="m 23.030916,34.764722 c -0.01048,0.199486 -0.03834,0.397742 -0.08359,0.59226 -0.02449,0.116921 -0.06228,0.225706 -0.126171,0.326641 -0.316733,0.521538 -0.569022,0.598518 -0.860792,0.720986 2.72e-4,-0.02325 -0.002,-0.04667 10e-4,-0.0696 0.0059,-0.04541 0.0361,-0.14404 0.04829,-0.183848 0.115621,-0.37148 0.151657,-0.731964 0.261284,-1.071012 0.04979,-0.131211 0.0876,-0.266196 0.12878,-0.400182 0.03585,-0.120708 0.10268,-0.226613 0.177253,-0.326664 0.243841,-0.316316 0.453677,-0.368006 0.864258,-0.605854 0.193939,-0.05264 0.39667,-0.06179 0.596463,-0.07182 0.163056,-0.0042 0.300805,0.05914 0.429799,0.152061 0.148906,0.108766 0.221625,0.280354 0.295305,0.443313 0.09277,0.22724 0.188006,0.453798 0.260634,0.688421 0.07244,0.19706 0.105372,0.402229 0.110355,0.611231 0.003,0.258784 -0.05057,0.51221 -0.123489,0.759041 -0.04305,0.133754 0.04695,0.736468 0.0072,0.860402 l -0.6162,0.28958 v 0 c 0.04265,-0.125325 0.02028,-0.06053 0.06716,-0.19439 0.07885,-0.238627 0.06339,-1.153146 0.0616,-1.405764 -0.002,-0.203131 -0.03449,-0.402533 -0.100905,-0.595061 -0.06813,-0.232859 -0.162324,-0.456627 -0.25668,-0.679904 -0.07095,-0.151842 -0.140497,-0.310288 -0.283241,-0.408347 -0.121959,-0.08208 -0.251134,-0.127986 -0.400766,-0.117251 -0.195905,0.01027 -0.399906,0.01718 -0.581365,0.09876 1.098141,-0.644544 0.584865,-0.382802 0.433434,-0.239868 -0.04766,0.04513 -0.08892,0.09691 -0.133116,0.145149 -0.07563,0.09249 -0.145416,0.189298 -0.185672,0.30309 -0.04223,0.136246 -0.08216,0.273257 -0.136788,0.405314 -0.08208,0.244928 0.117242,-0.01106 0.06232,0.565553 -0.113346,0.319177 -0.367238,2.051343 -0.367238,2.051343 -0.242645,-0.01424 -0.545257,0.01969 -0.637588,-0.02043 -0.103359,-0.0449 -0.06373,-0.225671 0.01007,-0.991881 -0.0097,0.0042 0.02054,-0.0092 0.02843,-0.01638 0.17693,-0.24294 0.263339,-0.459829 0.348386,-0.727591 0.05532,-0.189658 0.0837,-0.386437 0.09895,-0.583118 0.05203,-1.075189 0.09673,-0.63814 -0.22336,-1.215145 l 0.597293,-0.344505 c 0.205475,0.709931 0.196916,0.09905 0.228541,1.255436 z"
       inkscape:connector-curvature="0"
       sodipodi:nodetypes="cccccccccccccccccccccccccccccccsscccccccc" />
    <path
       style="opacity:1;fill:#673ab7;fill-opacity:1;stroke:none;stroke-width:1.13917208;stroke-miterlimit:4;stroke-dasharray:none;stroke-opacity:1;paint-order:stroke fill markers"
       id="path1803-3-7-62"
       d="m 21.559443,36.520355 c 0.02997,0.67055 -0.862322,0.972217 -1.224111,0.944988 -0.564734,0.01034 -1.118682,-0.618522 -1.193805,-1.166852 -0.0049,-0.242979 -0.0051,-0.878525 0.06676,-1.103899 0.168247,-0.507289 0.160504,-0.530713 0.422484,-0.934258 0.26877,-0.432245 0.633273,-0.91133 1.376354,-0.957381 0.399434,0.01395 1.008125,0.446698 0.853536,1.417903 6.8e-5,1.377387 -0.324837,2.545564 -0.494804,1.981522 0.414049,-0.453371 0.07127,-0.143778 0.02013,-1.28778 0.07459,-1.930695 0.217713,-1.348292 -0.511073,-1.508668 -0.718237,0.04776 -0.845132,0.864923 -1.04405,1.392757 -0.07119,0.215061 -0.140237,0.435433 -0.141773,0.66865 0.120032,0.501376 0.07432,0.557717 0.443332,0.76943 0.237802,0.116005 0.496534,0.447313 0.86198,0.09203 0.361031,-0.482982 0.392191,-2.308248 0.565041,-2.220496 z"
       inkscape:connector-curvature="0"
       sodipodi:nodetypes="cccccccccccccccc" />
    <path
       style="opacity:1;fill:#673ab7;fill-opacity:1;stroke:none;stroke-width:0.78636652;stroke-miterlimit:4;stroke-dasharray:none;stroke-opacity:1;paint-order:stroke fill markers"
       id="path1843-3-9-5"
       d="m 18.724799,37.062879 c -0.02968,0.283119 -0.111821,0.24526 -0.478145,0.398516 -0.02069,0.0091 -0.01646,-0.06725 -0.01568,-0.135204 0.108651,-0.824782 0.582798,-1.102265 0.438653,-0.249841 -0.0073,0.250298 -0.03756,0.09835 -0.430142,0.348842 -0.0064,0.0039 0.01468,-0.0057 0.01912,-0.01286 0.01914,-0.02864 0.02202,-0.07107 0.02767,-0.103687 0.12633,-1.643596 0.225884,-2.404733 -0.242652,-3.820674 l 0.827378,-0.120403 c 0.03821,0.417817 -0.08932,2.730785 -0.146224,3.695308 z"
       inkscape:connector-curvature="0"
       sodipodi:nodetypes="cccccccccc" />
    <path
       style="opacity:1;fill:#673ab7;fill-opacity:1;stroke:none;stroke-width:1.41234791;stroke-miterlimit:4;stroke-dasharray:none;stroke-opacity:1;paint-order:stroke fill markers"
       id="path1843-3-9-6"
       d="m 9.3441437,37.280709 c -0.04765,0.568661 -0.1795883,0.492627 -0.7678772,0.800467 -0.033238,0.01764 -0.026438,-0.134974 -0.02518,-0.271573 0.1744908,-1.656692 0.9359428,-2.214051 0.7044552,-0.501855 -0.011769,0.50276 -0.060338,0.197579 -0.6907841,0.700709 -0.010403,0.0068 0.023585,-0.01168 0.03069,-0.02587 0.030717,-0.05753 0.035354,-0.14285 0.04448,-0.2083 C 8.8427984,34.472899 9.0026811,32.944044 8.25024,30.099932 l 1.3287171,-0.241849 c 0.061332,0.839264 -0.1434354,5.485183 -0.2348215,7.422565 z"
       inkscape:connector-curvature="0"
       sodipodi:nodetypes="cccccccccc" />
    <text
       xml:space="preserve"
       style="font-style:normal;font-weight:normal;font-size:10.58333302px;line-height:1.25;font-family:sans-serif;letter-spacing:0px;word-spacing:0px;fill:#000000;fill-opacity:1;stroke:none;stroke-width:0.26458332"
       x="-74.461304"
       y="53.985119"
       id="text967"><tspan
         sodipodi:role="line"
         id="tspan965"
         x="-74.461304"
         y="63.348888"
         style="stroke-width:0.26458332" /></text>
  </g>
</svg>
