<?xml version="1.0" encoding="UTF-8" standalone="no"?>
<!-- Created with Inkscape (http://www.inkscape.org/) -->

<svg
   xmlns:dc="http://purl.org/dc/elements/1.1/"
   xmlns:cc="http://creativecommons.org/ns#"
   xmlns:rdf="http://www.w3.org/1999/02/22-rdf-syntax-ns#"
   xmlns:svg="http://www.w3.org/2000/svg"
   xmlns="http://www.w3.org/2000/svg"
   xmlns:sodipodi="http://sodipodi.sourceforge.net/DTD/sodipodi-0.dtd"
   xmlns:inkscape="http://www.inkscape.org/namespaces/inkscape"
   width="57mm"
   height="31mm"
   viewBox="0 0 57 31"
   version="1.1"
   id="svg8"
   sodipodi:docname="botonVentanaIngrediente.svg"
   inkscape:version="0.92.3 (2405546, 2018-03-11)">
  <defs
     id="defs2" />
  <sodipodi:namedview
     id="base"
     pagecolor="#ffffff"
     bordercolor="#666666"
     borderopacity="1.0"
     inkscape:pageopacity="0.0"
     inkscape:pageshadow="2"
     inkscape:zoom="3.959798"
     inkscape:cx="74.790685"
     inkscape:cy="78.216003"
     inkscape:document-units="mm"
     inkscape:current-layer="layer2"
     showgrid="false"
     inkscape:window-width="1920"
     inkscape:window-height="992"
     inkscape:window-x="0"
     inkscape:window-y="0"
     inkscape:window-maximized="1"
     showguides="false" />
  <metadata
     id="metadata5">
    <rdf:RDF>
      <cc:Work
         rdf:about="">
        <dc:format>image/svg+xml</dc:format>
        <dc:type
           rdf:resource="http://purl.org/dc/dcmitype/StillImage" />
        <dc:title />
      </cc:Work>
    </rdf:RDF>
  </metadata>
  <g
     inkscape:label="Capa 1"
     inkscape:groupmode="layer"
     id="layer1"
     transform="translate(0,-266)" />
  <g
     inkscape:groupmode="layer"
     id="layer2"
     inkscape:label="Capa 2"
     transform="translate(0,-9)">
    <path
       style="opacity:0.82700004;fill:#512da8;fill-opacity:1;stroke:none;stroke-width:1.4122746;stroke-miterlimit:4;stroke-dasharray:none;stroke-opacity:1;paint-order:stroke fill markers"
       id="path1803-3-5-1-3"
       d="m 12.053206,22.311385 c 0.04345,0.922828 -1.247751,1.337957 -1.771252,1.300465 -0.8171573,0.0127 -1.6187098,-0.851191 -1.7274094,-1.605793 -0.0072,-0.334353 0.088701,-0.655997 0.1927621,-0.966125 0.2434458,-0.698131 0.5784245,-1.348987 0.9575051,-1.904349 0.3889052,-0.594871 1.0317302,-0.954237 1.5299752,-1.261314 0.549448,0.104845 1.016268,0.815182 1.211942,1.277007 0.03475,0.134171 0.03939,0.274018 0.0423,0.412594 -0.217863,1.465009 -2.7837937,2.371028 -3.0297282,1.594762 0.5920692,-0.637308 1.2230562,-0.132755 1.8475402,-0.378587 0.333868,-0.359029 0.394186,-0.693648 0.347755,-1.154211 -0.160391,-0.449686 -0.503678,-0.78035 -0.812525,-1.076239 0,0 0,0 -0.32118,0.20232 -0.216588,0.300658 -0.415662,0.616726 -0.5812662,0.954481 -0.1427209,0.300845 -0.2693089,0.610578 -0.3876625,0.92377 -0.103023,0.295972 -0.2029217,0.599207 -0.2051434,0.920181 0.1736843,0.690001 0.7614511,1.104963 1.2953991,1.39627 0.308178,0.121705 0.513121,0.04679 0.593349,-0.210785 l 0.817607,-0.424696 z"
       inkscape:connector-curvature="0"
       sodipodi:nodetypes="cccccccccccccccccccc" />
    <path
       style="opacity:1;fill:#512da8;fill-opacity:1;stroke:none;stroke-width:1.36141503;stroke-miterlimit:4;stroke-dasharray:none;stroke-opacity:0.98095236"
       id="path921-3"
       d="m 11.028404,10.738194 c -0.121696,0.798474 -0.579178,1.592649 -0.973685,2.365738 -0.6465284,1.310749 -1.3038657,2.623562 -1.7399253,3.960767 -0.084831,0.260081 -0.151526,0.521185 -0.2272834,0.781787 -0.3346213,1.229168 -0.4335878,2.456141 -0.6103935,3.682942 -0.1246474,0.506002 -0.040184,1.07215 -0.3133868,1.569015 -0.4959652,0.34732 -0.9428398,0.739192 -1.4878952,1.04198 -0.074958,0.0416 -0.1386728,-0.06452 -0.1952649,-0.106961 C 5.4038465,23.975784 5.3384747,23.910092 5.2784717,23.84213 4.9407105,23.459547 4.7326871,23.016507 4.5062879,22.587122 3.9058703,21.367699 3.4368007,20.104019 2.9799374,18.83897 2.7247231,18.076224 2.5058338,17.300697 2.4086258,16.501561 2.3729901,16.012257 2.3534843,15.520632 2.3257441,15.030135 2.3268641,14.704935 2.2751083,14.388893 2.2037804,14.076473 2.0946556,13.657621 1.9948784,13.235325 1.7927053,12.843702 1.6865891,12.672555 1.5552171,12.516235 1.374972,12.386885 c 0,0 1.3565011,-1.035567 1.3565011,-1.035567 v 0 c 0.1893652,0.144766 0.3325974,0.312826 0.4454693,0.499765 0.2040163,0.396835 0.3096311,0.823065 0.4364579,1.243246 0.083178,0.315772 0.147663,0.636495 0.134266,0.969588 0.00819,0.49545 0.037288,0.989021 0.053447,1.483467 0.070735,0.805699 0.2683485,1.590098 0.498468,2.361706 0.4234677,1.270075 0.8692025,2.537702 1.5125181,3.738049 0.23746,0.406901 0.4541783,0.82924 0.8095935,1.182536 0.056512,0.05606 0.1198875,0.10877 0.1906223,0.155272 0.027542,0.01814 0.1280937,0.01198 0.1009467,0.03636 -0.3889069,0.349347 -0.834314,0.664751 -1.2514691,0.997128 0.038051,-0.03381 0.088404,-0.06278 0.1141671,-0.101404 0.071469,-0.10741 0.1190541,-0.339934 0.1400429,-0.439377 0.072613,-0.343892 0.1042236,-0.686862 0.1772634,-1.030756 0.2180813,-1.244645 0.3269702,-2.488548 0.6656608,-3.734092 0.076017,-0.263285 0.1431545,-0.527047 0.2280658,-0.78983 0.4303745,-1.33201 1.0784957,-2.639879 1.6979896,-3.94919 0.3613729,-0.738706 0.7642713,-1.489221 0.9026984,-2.24873 0,0 1.4408112,-0.986869 1.4408112,-0.986869 z"
       inkscape:connector-curvature="0" />
    <path
       style="opacity:1;fill:#512da8;fill-opacity:1;stroke:none;stroke-width:2.14514661;stroke-miterlimit:4;stroke-dasharray:none;stroke-opacity:0.98095236"
       id="path1041-3"
       d="m 18.677762,23.905772 c -0.09725,-0.182012 -0.165351,-0.385743 -0.224154,-0.593404 -0.08089,-0.316924 -0.118305,-0.649046 -0.1609,-0.977661 -0.0349,-0.358818 -0.07896,-0.715954 -0.113616,-1.07478 -0.03862,-0.324884 -0.05644,-0.653181 -0.07516,-0.980866 -0.02684,-0.357974 -0.04422,-0.716923 -0.06439,-1.075596 -0.01158,-0.199754 -0.02251,-0.399771 -0.01477,-0.600191 0.0044,-0.112873 0.0096,-0.160732 0.01941,-0.272214 0.03475,-0.306898 0.0824,-0.61097 0.12726,-0.915499 0.03846,-0.293757 0.08841,-0.584404 0.133701,-0.876338 0.04184,-0.261242 0.08477,-0.522138 0.132204,-0.781705 0.03616,-0.189893 0.07,-0.380885 0.115749,-0.567248 0.03195,-0.127585 0.08089,-0.24345 0.144426,-0.347735 0.0088,-0.01324 0.01723,-0.02587 0.02647,-0.03772 0.01229,-0.01596 0.04184,-0.05049 0.05694,-0.06203 0.353908,-0.271379 0.500855,-0.450562 0.797098,-0.583787 0.05336,-0.02917 0.110424,-0.0381 0.166488,-0.05258 0.02444,-0.0071 0.04849,-0.01487 0.0728,-0.02192 0.08112,-0.0091 0.150296,0.03696 0.217913,0.08986 0.06928,0.05083 0.112811,0.132538 0.151697,0.220991 0.03949,0.08858 0.05857,0.141918 0.05527,0.24689 -0.01074,0.09369 -0.03547,0.154491 -0.08661,0.219312 -0.242648,0.183499 -0.483452,0.371331 -0.727946,0.550487 -0.01215,0.0091 -0.02678,0.008 -0.0401,0.01182 -0.01477,0.0044 -0.02966,0.01052 -0.04462,0.01524 -0.0554,0.01853 -0.110947,0.03625 -0.16645,0.05425 -0.13274,0.04278 -0.266193,0.08256 -0.396003,0.139287 -0.09589,0.04254 -0.196056,0.06359 -0.294937,0.09014 -0.158402,0.04549 -0.318678,0.0787 -0.478927,0.110508 -0.212744,0.03721 -0.422352,0.09893 -0.631198,0.163055 -0.109746,0.03275 -0.217266,0.08175 -0.328915,0.102361 -0.0837,0.02663 -0.168496,0.04682 -0.253313,0.06647 -0.153118,0.03833 -0.306164,0.07618 -0.460207,0.107753 -0.0399,-4.68e-4 -0.140071,0.03861 -0.177643,0.02315 -0.0085,-0.0044 -0.01761,-0.01052 -0.02184,-0.02034 -0.0137,-0.03362 -0.01982,-0.07173 -0.02966,-0.107481 0.242543,-0.184273 0.483517,-0.372183 0.727623,-0.552797 0.01073,-0.008 0.02401,-0.008 0.03589,-0.01182 0.01458,-0.0053 0.02905,-0.01182 0.04362,-0.01705 0.05288,-0.02114 0.105805,-0.04175 0.158383,-0.06412 0.11558,-0.05626 0.236461,-0.08805 0.356198,-0.124427 0.150276,-0.04535 0.301297,-0.08517 0.453785,-0.114978 0.154141,-0.03833 0.309442,-0.06874 0.4648,-0.09723 0.138984,-0.0346 0.279127,-0.05686 0.419414,-0.0794 0.124012,-0.01983 0.248825,-0.02341 0.373078,-0.03932 0.179119,-0.02024 0.354818,-0.06806 0.53068,-0.114978 0.141318,-0.04612 0.284892,-0.07601 0.429841,-0.09211 0.196166,-0.01905 0.390546,-0.05633 0.584505,-0.09868 0.151866,-0.02689 0.29981,-0.08256 0.451946,-0.106157 0.0509,-0.0071 0.101907,-0.01361 0.153098,-0.01561 0.0095,-4.39e-4 0.01894,-0.0027 0.02812,-4.39e-4 0.0113,0.0027 0.02201,0.008 0.03301,0.01324 0.06273,0.0237 0.111582,0.07967 0.164252,0.12695 0.04168,0.03861 0.08962,0.06308 0.131088,0.101971 l -0.690712,0.583933 v 0 c -0.04318,-0.03574 -0.08802,-0.06821 -0.12976,-0.106843 -0.04206,-0.04202 -0.08581,-0.08072 -0.140241,-0.08474 -0.06424,0.0052 -0.128786,0.0052 -0.192679,0.01705 -0.140961,0.02628 -0.281641,0.05548 -0.422648,0.08152 -0.201823,0.04298 -0.403823,0.08447 -0.607087,0.113926 -0.139351,0.02404 -0.278271,0.051 -0.415857,0.08948 -0.181033,0.04516 -0.362185,0.0904 -0.545454,0.117082 -0.124449,0.01596 -0.24955,0.02166 -0.373666,0.04254 -0.138249,0.02088 -0.275674,0.04804 -0.413166,0.07644 -0.154519,0.03022 -0.309057,0.06036 -0.462766,0.0971 -0.153079,0.03442 -0.30493,0.07686 -0.455572,0.126677 -0.12017,0.0388 -0.239584,0.08046 -0.356422,0.134516 -0.06969,0.02892 -0.140538,0.05608 -0.208391,0.09211 -0.01285,0.0071 -0.02524,0.0147 -0.0379,0.02237 0.225737,-0.17492 0.451484,-0.349864 0.677221,-0.524802 -0.01572,-0.02899 -0.03178,-0.05809 -0.04723,-0.08763 -0.0021,-0.0044 -0.0065,-0.008 -0.0044,-0.01029 0.0057,-0.0044 0.01328,-4.37e-4 0.01985,-5.94e-4 0.04432,-0.0044 0.08846,-0.0091 0.132515,-0.0167 0.154253,-0.02733 0.30652,-0.06962 0.458525,-0.113417 0.08831,-0.0264 0.17609,-0.05731 0.26577,-0.07485 0.102288,-0.02814 0.204164,-0.0587 0.306682,-0.08544 0.207995,-0.05337 0.415885,-0.107505 0.625218,-0.151171 0.166961,-0.0401 0.333429,-0.08334 0.498434,-0.135876 0.09653,-0.02838 0.193423,-0.05503 0.287945,-0.0941 0.132133,-0.0471 0.265216,-0.08923 0.397525,-0.135458 0.0573,-0.02054 0.114775,-0.04036 0.171128,-0.06508 0.261654,-0.114588 0.629746,-0.539303 -0.582804,0.466906 0.05777,-0.03364 0.08552,-0.0621 0.112783,-0.13936 0.0035,-0.01324 0.01186,-0.03932 0.0113,-0.05476 -0.0012,-0.04596 -0.02579,-0.08921 -0.03862,-0.129833 -0.03023,-0.07398 -0.07013,-0.131269 -0.127529,-0.170023 -0.06458,-0.04175 -0.114746,-0.0531 -0.185274,-0.02767 -0.07825,0.02081 -0.156375,0.04202 -0.229316,0.087 -0.251761,0.14834 -0.576288,0.436329 0.596282,-0.466354 0.01045,-0.008 -0.02131,0.01433 -0.03167,0.02237 -0.0334,0.02481 -0.03106,0.02445 -0.06281,0.05476 -0.07445,0.08922 -0.127289,0.190547 -0.165525,0.31406 -0.05902,0.182676 -0.09333,0.376867 -0.135791,0.566997 -0.05182,0.259208 -0.09634,0.52074 -0.141337,0.782158 -0.04504,0.29394 -0.09727,0.585725 -0.141088,0.879979 -0.04356,0.299786 -0.08607,0.600078 -0.118079,0.90245 -0.01158,0.105791 -0.01856,0.159663 -0.02551,0.26666 -0.01285,0.198934 -0.0044,0.398303 0.0012,0.597438 0.01328,0.358942 0.02987,0.717902 0.06195,1.074931 0.02171,0.325921 0.04689,0.651545 0.07609,0.976462 0.02771,0.358592 0.0692,0.715001 0.108165,1.071715 0.04401,0.319878 0.08384,0.643317 0.167057,0.950426 0.05879,0.190616 0.123503,0.390799 0.245293,0.52674 l -0.697195,0.564742 z"
       inkscape:connector-curvature="0"
       sodipodi:nodetypes="ccccccccccccccccccccccccccccccccccccccccccccccccccccccccccccccccccccccccccccccccccccccccccccccccccccccccccc" />
    <path
       style="opacity:1;fill:#512da8;fill-opacity:1;stroke:none;stroke-width:1.53856301;stroke-miterlimit:4;stroke-dasharray:none;stroke-opacity:1;paint-order:stroke fill markers"
       id="path1835-6-6-0-5-6"
       d="m 20.391258,18.570019 c 0.798446,-0.426268 1.55328,-0.384423 2.287591,0.06456 0.552268,0.469147 0.773205,1.197123 0.817875,1.842859 0.01186,0.279799 -0.06962,0.548536 -0.15859,0.812551 -0.184839,0.508503 -0.313243,1.029494 -0.565927,1.470604 -0.405945,0.657793 -1.379029,1.151926 -1.933174,0.973895 -0.954877,-0.540641 -1.077047,-1.406199 -0.400288,-2.151702 0.651026,-0.654499 1.11674,-0.770597 1.929102,-1.056492 0.16164,-0.07765 0.289758,-0.05178 0.456371,-0.01651 0.129535,0.03696 0.254564,0.0842 0.385818,0.116149 l -0.373116,0.531031 v 0 c -0.128178,-0.03643 -0.419038,-0.118785 -0.550408,-0.144657 -0.329842,-0.03415 -0.472902,-0.07722 -0.586219,0.0071 -0.240982,0.09883 -0.488444,0.183959 -0.724487,0.293075 1.422883,-0.776742 0.598218,-0.355841 0.444054,-0.229812 -0.07155,0.05835 -0.129506,0.131141 -0.197395,0.192966 -0.590362,0.565922 -0.589249,1.079227 -0.143402,1.693998 0.143497,0.124573 0.292209,0.246497 0.469101,0.328926 0.167416,0.06569 0.344128,0.108013 0.520537,0.04351 -0.412578,0.152968 -0.834527,0.577295 -0.375274,0.126406 0.115142,-0.118259 0.222367,-0.242873 0.302407,-0.384963 0.135848,-0.209679 0.231066,-0.436541 0.307196,-0.670704 0.09319,-0.262055 0.192523,-0.522183 0.273505,-0.787821 0.08734,-0.254753 0.175768,-0.513062 0.166792,-0.783948 -0.01398,-0.199555 -0.03921,-0.397318 -0.101512,-0.589604 -0.161015,-0.893465 -1.160614,-1.865869 -2.161332,-1.494356 -0.258975,0.09145 -0.513688,0.194008 -0.759688,0.31269 l 0.670456,-0.498894 z"
       inkscape:connector-curvature="0"
       sodipodi:nodetypes="cccccccccccccccccccccccccccccc" />
    <path
       style="opacity:1;fill:#512da8;fill-opacity:1;stroke:none;stroke-width:1.53856301;stroke-miterlimit:4;stroke-dasharray:none;stroke-opacity:1;paint-order:stroke fill markers"
       id="path1835-6-6-0-5-3-7-6"
       d="m 30.303783,19.22953 c 0.798443,-0.42627 1.553284,-0.384423 2.28759,0.06454 0.552267,0.46915 0.773204,1.197123 0.817878,1.842859 0.01186,0.279799 -0.06962,0.548539 -0.15859,0.81255 -0.18484,0.508502 -0.313243,1.029501 -0.565924,1.470608 -0.405948,0.657794 -1.379028,1.151924 -1.933174,0.973893 -0.954878,-0.54064 -1.077048,-1.406197 -0.40029,-2.151703 0.651026,-0.654499 1.116741,-0.770595 1.929106,-1.05649 0.161621,-0.07765 0.289753,-0.05178 0.456366,-0.01651 0.129535,0.03696 0.254568,0.0842 0.38582,0.116172 l -0.373116,0.531032 v 0 c -0.128179,-0.03643 -0.419034,-0.118788 -0.550408,-0.144659 -0.329841,-0.03415 -0.472907,-0.07722 -0.586219,0.0071 -0.240984,0.09881 -0.488446,0.183959 -0.724489,0.293074 1.422884,-0.776744 0.598221,-0.355842 0.444057,-0.229812 -0.07155,0.05835 -0.129507,0.131141 -0.197397,0.192966 -0.590362,0.565921 -0.589249,1.079227 -0.143401,1.694 0.143496,0.124573 0.292207,0.246498 0.469098,0.328928 0.167415,0.06569 0.344129,0.108001 0.520538,0.04351 -0.412578,0.152968 -0.834528,0.577294 -0.375271,0.126405 0.115128,-0.118259 0.222365,-0.242873 0.302405,-0.38497 0.135848,-0.209674 0.231065,-0.436537 0.307198,-0.670699 0.09319,-0.262057 0.192522,-0.522185 0.273502,-0.787822 0.08734,-0.254753 0.175768,-0.51306 0.166792,-0.783949 -0.01398,-0.199555 -0.03921,-0.397318 -0.101512,-0.589604 -0.161015,-0.893465 -1.160616,-1.865867 -2.161333,-1.494356 -0.258973,0.09145 -0.513686,0.194006 -0.759689,0.31269 l 0.670455,-0.498896 z"
       inkscape:connector-curvature="0"
       sodipodi:nodetypes="cccccccccccccccccccccccccccccc" />
    <path
       style="opacity:0.82700004;fill:#512da8;fill-opacity:1;stroke:none;stroke-width:1.86476839;stroke-miterlimit:4;stroke-dasharray:none;stroke-opacity:1;paint-order:stroke fill markers"
       id="path1833-1"
       d="m 25.605413,20.905952 c -0.01905,0.359656 -0.06977,0.717096 -0.151943,1.067755 -0.04441,0.210803 -0.113249,0.406925 -0.229449,0.588897 -0.128122,0.160769 -0.24476,0.329571 -0.361213,0.498781 -0.406219,0.621836 -0.305877,0.382587 -1.406915,0.847466 4.86e-4,-0.0418 -0.0038,-0.08413 0.0018,-0.125498 0.0113,-0.08179 0.06558,-0.259686 0.0879,-0.331445 0.06903,-0.22255 0.145656,-0.442847 0.220429,-0.663504 0.156527,-0.436686 0.314196,-0.872597 0.45749,-1.313785 0.09057,-0.236545 0.159388,-0.479893 0.234179,-0.721455 0.06521,-0.217632 0.186658,-0.408556 0.322333,-0.588943 0.443422,-0.570253 0.825008,-0.66345 1.571662,-1.092272 0.352672,-0.09479 0.721339,-0.111324 1.084665,-0.129382 0.296517,-0.0072 0.547015,0.106595 0.781595,0.274142 0.270788,0.196087 0.403017,0.505447 0.53701,0.799242 0.168721,0.409674 0.341877,0.818139 0.47396,1.241115 0.131738,0.355277 0.191626,0.725176 0.200681,1.101971 0.0056,0.466535 -0.09208,0.923442 -0.224565,1.368441 -0.07836,0.241148 -0.04061,0.12499 -0.112868,0.348416 l -1.120561,0.522063 v 0 c 0.07759,-0.225943 0.03679,-0.109136 0.122204,-0.350468 0.143364,-0.430201 0.24131,-0.876163 0.238088,-1.331593 -0.0038,-0.366212 -0.06273,-0.725716 -0.18342,-1.072833 -0.123913,-0.419815 -0.295169,-0.823228 -0.466757,-1.225767 -0.129068,-0.273754 -0.25549,-0.559399 -0.515061,-0.7362 -0.221789,-0.147923 -0.45669,-0.230729 -0.728811,-0.21138 -0.356252,0.01856 -0.727226,0.03099 -1.057203,0.178059 1.996989,-1.16204 1.063588,-0.690154 0.788193,-0.432459 -0.08674,0.08124 -0.161677,0.174739 -0.242074,0.261684 -0.137458,0.166667 -0.264435,0.341283 -0.337645,0.546437 -0.07684,0.245645 -0.149463,0.492648 -0.24876,0.730742 -0.149272,0.44155 -0.305292,0.880325 -0.465555,1.318118 -0.114012,0.342075 -0.230347,0.683877 -0.316592,1.034123 -0.372083,0.195671 -0.743835,0.391973 -1.11627,0.58703 -0.01723,0.0072 0.03736,-0.01687 0.05167,-0.02954 0.09095,-0.08674 0.154612,-0.204462 0.222524,-0.308413 0.120678,-0.165977 0.223329,-0.345055 0.361727,-0.498097 0.127741,-0.167337 0.209605,-0.344659 0.252062,-0.551643 0.100664,-0.34193 0.152133,-0.696704 0.179973,-1.05129 0.09456,-1.938422 0.175974,-1.150485 -0.406171,-2.19073 l 1.086214,-0.621103 c 0.37364,1.279917 0.358082,0.178568 0.415599,2.263383 z"
       inkscape:connector-curvature="0"
       sodipodi:nodetypes="ccccccccccccccccccccccccccccccccccccccccccc" />
    <path
       style="opacity:0.82700004;fill:#512da8;fill-opacity:1;stroke:none;stroke-width:1.86476839;stroke-miterlimit:4;stroke-dasharray:none;stroke-opacity:1;paint-order:stroke fill markers"
       id="path1833-1-2"
       d="m 14.40599,20.711587 c -0.01905,0.359655 -0.06977,0.717096 -0.151961,1.067754 -0.04441,0.210804 -0.113249,0.406925 -0.229449,0.588897 -0.128122,0.160751 -0.244762,0.329572 -0.361213,0.498781 -0.406219,0.621836 -0.305879,0.382588 -1.406914,0.847466 4.86e-4,-0.0418 -0.0038,-0.08413 0.0018,-0.125497 0.01144,-0.08179 0.06558,-0.259686 0.0879,-0.331447 0.06903,-0.22255 0.145656,-0.442846 0.220427,-0.663504 0.156528,-0.436683 0.314195,-0.872595 0.457492,-1.313783 0.09057,-0.236548 0.159387,-0.479893 0.234178,-0.721457 0.0652,-0.217631 0.186659,-0.408556 0.322332,-0.588941 0.443424,-0.570252 0.825008,-0.66345 1.571664,-1.092273 0.352671,-0.09479 0.721336,-0.111324 1.084664,-0.12938 0.296518,-0.0072 0.547016,0.106594 0.781594,0.274142 0.270788,0.196085 0.403016,0.505445 0.53701,0.79924 0.168722,0.409674 0.341878,0.818139 0.473962,1.241116 0.131738,0.355279 0.191625,0.725175 0.200681,1.101973 0.0057,0.466534 -0.09208,0.92344 -0.22457,1.368439 -0.07836,0.241149 -0.04061,0.12499 -0.112867,0.348415 l -1.120558,0.522064 v 0 c 0.07758,-0.225944 0.03679,-0.109136 0.122203,-0.350468 0.143367,-0.4302 0.241315,-0.876164 0.238092,-1.331591 -0.0038,-0.366215 -0.06273,-0.725717 -0.18342,-1.072835 -0.123913,-0.419814 -0.295168,-0.823228 -0.466756,-1.225766 -0.129069,-0.273755 -0.255489,-0.559399 -0.515062,-0.736201 -0.221786,-0.147924 -0.456692,-0.230728 -0.72881,-0.211381 -0.356253,0.01856 -0.727228,0.03099 -1.057204,0.178061 1.99699,-1.162041 1.063592,-0.690157 0.788193,-0.432463 -0.08674,0.08124 -0.161679,0.174739 -0.242073,0.261687 -0.137459,0.166666 -0.264436,0.341281 -0.337647,0.546437 -0.07684,0.245643 -0.149481,0.492646 -0.248758,0.730742 -0.149273,0.441548 -0.305292,0.880323 -0.465557,1.318116 -0.114012,0.342075 -0.230347,0.683879 -0.316592,1.034123 -0.37208,0.195671 -0.743833,0.391973 -1.116268,0.587033 -0.01723,0.0072 0.03737,-0.01687 0.05167,-0.02954 0.09095,-0.08674 0.154613,-0.204463 0.222523,-0.308413 0.120679,-0.165976 0.223332,-0.345056 0.361728,-0.498096 0.12774,-0.167337 0.209602,-0.344661 0.252061,-0.551644 0.100665,-0.34193 0.152152,-0.696703 0.179971,-1.051289 0.09456,-1.938423 0.175977,-1.150484 -0.406166,-2.190732 l 1.086257,-0.621114 c 0.373642,1.279917 0.358084,0.178568 0.415599,2.263383 z"
       inkscape:connector-curvature="0"
       sodipodi:nodetypes="ccccccccccccccccccccccccccccccccccccccccccc" />
    <path
       style="opacity:0.82700004;fill:#512da8;fill-opacity:1;stroke:none;stroke-width:1.28918624;stroke-miterlimit:4;stroke-dasharray:none;stroke-opacity:1;paint-order:stroke fill markers"
       id="path1843-3-3"
       d="m 31.963889,29.607248 c 0.165964,0.268996 0.314153,0.548626 0.439903,0.847372 0.138163,0.370965 0.231981,0.764809 0.304298,1.161134 0.05954,0.377445 0.06567,0.762655 0.08703,1.144961 0.02807,0.412256 0.03182,0.824983 0.0075,1.237411 -0.02569,0.348423 -0.07534,0.693064 -0.101456,1.041508 -0.01477,0.319406 -0.02487,0.638732 -0.04509,0.957794 -0.04706,0.479624 -0.177413,0.4155 -0.758565,0.675156 -0.03283,0.01477 -0.02607,-0.113803 -0.02487,-0.229074 0.02622,-0.442706 0.09777,-0.879475 0.157382,-1.316941 0.05436,-0.465779 0.134176,-0.926197 0.181544,-1.393153 0.03256,-0.358083 0.08535,-0.712676 0.117316,-1.070766 0.02418,-0.355827 0.09919,-0.700803 0.186942,-1.040511 0.08759,-0.383964 0.249209,-0.728547 0.422496,-1.064384 0.132523,-0.258797 0.27084,-0.473264 0.474207,-0.655049 0.341648,-0.247186 0.399146,-0.291261 0.937483,-0.632874 0.0207,-0.01222 0.317446,-0.148971 0.338546,-0.15868 0,0 -0.601834,0.566935 -0.601834,0.566935 v 0 c -0.05647,0.02655 -0.113238,0.05238 -0.169344,0.08019 -0.05627,0.02779 -0.217878,0.1275 -0.167585,0.08653 0.192346,-0.156914 0.771788,-0.54002 0.383889,-0.282096 -0.03487,0.02641 -0.07135,0.04996 -0.104597,0.07926 -0.161871,0.142369 -0.27139,0.352075 -0.386994,0.543963 -0.17652,0.326701 -0.341836,0.662998 -0.429084,1.041557 -0.08861,0.333796 -0.168413,0.672363 -0.192876,1.023105 -0.02908,0.360687 -0.08465,0.716472 -0.12278,1.075864 -0.0464,0.469918 -0.129202,0.93179 -0.1859,1.399897 -0.05743,0.429275 -0.125166,0.859141 -0.142889,1.293961 -0.01162,0.424038 -0.0596,0.166656 -0.682394,0.590996 -0.01031,0.0058 0.0233,-0.0095 0.0303,-0.02182 0.03032,-0.04866 0.03496,-0.120456 0.04393,-0.175697 0.02607,-0.319645 0.03951,-0.639362 0.04965,-0.960267 0.02336,-0.349974 0.07367,-0.694969 0.106185,-1.043588 0.0286,-0.408254 0.02662,-0.81685 -0.0028,-1.225212 -0.02214,-0.378022 -0.03011,-0.758503 -0.08313,-1.13272 -0.0671,-0.389662 -0.156952,-0.777279 -0.29466,-1.140082 -0.124006,-0.291633 -0.267385,-0.568331 -0.445535,-0.817584 0,0 0.673778,-0.487084 0.673778,-0.487084 z"
       inkscape:connector-curvature="0" />
    <path
       style="opacity:0.82700004;fill:#512da8;fill-opacity:1;stroke:none;stroke-width:1.28918624;stroke-miterlimit:4;stroke-dasharray:none;stroke-opacity:1;paint-order:stroke fill markers"
       id="path1803-3-5"
       d="m 36.551307,34.953674 c 0.03781,0.882521 -1.087238,1.279508 -1.543383,1.243652 -0.712035,0.01222 -1.410465,-0.814005 -1.505177,-1.535641 -0.0062,-0.319748 0.07731,-0.62734 0.167961,-0.923918 0.212125,-0.667634 0.504008,-1.290056 0.834328,-1.821157 0.338863,-0.568879 0.898988,-0.91255 1.333141,-1.206204 0.478755,0.100259 0.885516,0.779568 1.056024,1.22121 0.0303,0.128315 0.03433,0.262048 0.03685,0.394571 -0.189829,1.401008 -2.425656,2.267447 -2.639949,1.525093 0.515895,-0.609466 1.065705,-0.126956 1.609854,-0.362047 0.29091,-0.343345 0.343474,-0.663341 0.30301,-1.103783 -0.139754,-0.430047 -0.43888,-0.74626 -0.707996,-1.029228 0,0 0,0 -0.279857,0.19348 -0.188723,0.28753 -0.362191,0.589783 -0.506486,0.912791 -0.124369,0.287697 -0.23466,0.583904 -0.337789,0.883409 -0.08977,0.283047 -0.176816,0.573029 -0.178751,0.879989 0.151342,0.659856 0.663486,1.056681 1.128748,1.335263 0.268529,0.116401 0.4471,0.04474 0.517016,-0.201576 l 0.712415,-0.406144 z"
       inkscape:connector-curvature="0"
       sodipodi:nodetypes="cccccccccccccccccccc" />
    <path
       style="opacity:0.82700004;fill:#512da8;fill-opacity:1;stroke:none;stroke-width:1.2154665;stroke-miterlimit:4;stroke-dasharray:none;stroke-opacity:1;paint-order:stroke fill markers"
       id="path1801-6"
       d="m 31.212039,33.757566 c -0.105248,-0.777852 -0.401159,-1.949227 -0.916674,-2.649898 -0.817277,-0.944243 -1.975396,-1.230785 -2.388804,-0.664788 -0.152788,0.206065 -0.130981,0.566272 -0.106873,0.901491 0.158967,1.153424 0.894923,3.037073 1.615069,3.68075 0.117399,0.08252 0.236577,0.166283 0.353338,0.231191 1.042584,0.146322 1.470647,0.271295 1.518384,-0.805385 -0.02145,-0.08431 -0.04612,-0.607663 -0.07445,-0.693361 -0.166832,-0.878571 -0.771568,-2.625399 -0.808548,-2.217567 -0.01383,0.152026 0.440194,1.599887 0.486269,2.115829 0.0095,0.08196 -0.01616,0.290491 -0.08818,0.329102 -0.230358,0.12358 0.009,0.859077 -0.04401,1.200473 -0.09733,0.608368 -0.100768,1.285844 -0.298151,1.768266 -0.483691,0.97878 -1.219155,1.262091 -2.165523,1.262782 l 0.416721,1.016281 v 0 c 0.220008,0.0035 0.432529,-0.01848 0.625304,-0.04131 0.81289,-0.193467 1.646009,-0.675999 1.749313,-1.799872 0.574562,-6.490232 -0.08799,-1.589209 -2.380074,-3.708545 -0.145317,-0.135664 -0.593957,-2.136693 -0.165399,-2.458411 1.325046,-0.725383 2.621384,2.154927 1.767159,0.09987 0.07936,0.182859 0.104051,0.350793 0.138342,0.523862 0.01954,0.02044 -0.489164,-0.357151 -0.440316,-0.318432 0.208278,0.165062 0.339215,0.327546 0.485014,0.54256 0.113368,0.166912 0.537346,1.306792 0.722049,1.685258 z"
       inkscape:connector-curvature="0"
       sodipodi:nodetypes="ccccccccscscccccccccccsscc" />
    <path
       style="opacity:0.82700004;fill:#512da8;fill-opacity:1;stroke:none;stroke-width:1.28918624;stroke-miterlimit:4;stroke-dasharray:none;stroke-opacity:1;paint-order:stroke fill markers"
       id="path1803-3-5-9"
       d="m 45.473681,35.013002 c 0.03787,0.882521 -1.087229,1.279493 -1.543374,1.24366 -0.712035,0.01222 -1.410464,-0.814027 -1.505177,-1.535649 -0.0069,-0.319762 0.07727,-0.62734 0.167957,-0.923925 0.212123,-0.667626 0.504002,-1.290055 0.834329,-1.82115 0.33886,-0.568891 0.898983,-0.912542 1.333142,-1.206212 0.478748,0.100259 0.885518,0.779556 1.056023,1.221205 0.03036,0.128451 0.03433,0.262078 0.03685,0.39457 -0.189834,1.401003 -2.425659,2.267448 -2.639958,1.525102 0.515894,-0.60946 1.065705,-0.126958 1.609853,-0.362033 0.290919,-0.343352 0.343481,-0.663349 0.303016,-1.103799 -0.139753,-0.430061 -0.438883,-0.746259 -0.707992,-1.029227 0,0 0,0 -0.279864,0.193487 -0.18872,0.287515 -0.362184,0.58979 -0.506488,0.912782 -0.124354,0.287683 -0.234654,0.583899 -0.337785,0.88341 -0.08978,0.283056 -0.176814,0.573044 -0.178746,0.879975 0.151338,0.659855 0.663482,1.056702 1.128744,1.335272 0.268528,0.1164 0.447103,0.04474 0.517011,-0.201563 l 0.712424,-0.406151 z"
       inkscape:connector-curvature="0"
       sodipodi:nodetypes="cccccccccccccccccccc" />
    <path
       style="opacity:0.82700004;fill:#512da8;fill-opacity:1;stroke:none;stroke-width:1.28918624;stroke-miterlimit:4;stroke-dasharray:none;stroke-opacity:1;paint-order:stroke fill markers"
       id="path1833-1-5"
       d="m 46.833055,33.487867 c -0.01191,0.27357 -0.0438,0.545482 -0.09551,0.812229 -0.02797,0.160359 -0.07119,0.30955 -0.144159,0.447985 -0.08049,0.122358 -0.153788,0.250715 -0.226942,0.37944 -0.255231,0.473031 -0.192188,0.291029 -0.883962,0.644667 1.81e-4,-0.03195 -0.0028,-0.06409 0.0013,-0.09553 0.0069,-0.06227 0.04122,-0.19754 0.05525,-0.252134 0.04324,-0.169304 0.09146,-0.336886 0.138484,-0.504726 0.09831,-0.332199 0.197413,-0.663812 0.287437,-0.999432 0.05694,-0.179944 0.100069,-0.365058 0.147145,-0.548807 0.041,-0.165553 0.117328,-0.310806 0.202517,-0.448022 0.278603,-0.433814 0.518353,-0.504704 0.987476,-0.830925 0.221582,-0.07216 0.453209,-0.08485 0.681487,-0.09838 0.186299,-0.0058 0.343693,0.08102 0.491074,0.208554 0.170125,0.149158 0.253215,0.384481 0.337402,0.607984 0.106008,0.311644 0.214804,0.622356 0.297791,0.944134 0.08276,0.270261 0.12038,0.551637 0.126087,0.838278 0.0033,0.354904 -0.05776,0.702492 -0.141088,1.040993 -0.04925,0.183448 -0.02553,0.09498 -0.07094,0.265037 l -0.70405,0.397138 v 0 c 0.0487,-0.171869 0.02315,-0.08308 0.07671,-0.266588 0.09009,-0.327247 0.151611,-0.666517 0.149595,-1.01297 -0.0028,-0.278559 -0.03944,-0.552059 -0.115289,-0.816114 -0.07784,-0.31937 -0.185452,-0.626219 -0.293263,-0.932466 -0.08108,-0.208248 -0.160521,-0.425529 -0.323608,-0.559995 -0.139342,-0.112598 -0.286942,-0.175551 -0.457914,-0.160819 -0.223827,0.01409 -0.45691,0.02357 -0.664225,0.135495 1.254682,-0.883985 0.66824,-0.525013 0.49521,-0.328994 -0.0545,0.0619 -0.101597,0.132915 -0.152087,0.199069 -0.08641,0.12682 -0.166149,0.259625 -0.212138,0.415693 -0.04822,0.186855 -0.09387,0.37475 -0.156285,0.555863 -0.09379,0.335912 -0.191816,0.669686 -0.292509,1.002737 -0.0716,0.260201 -0.144728,0.520227 -0.198919,0.786632 -0.233782,0.148852 -0.467358,0.298188 -0.701344,0.446561 -0.01114,0.0058 0.02344,-0.01222 0.03249,-0.0224 0.05722,-0.06605 0.09719,-0.155539 0.139815,-0.234616 0.07588,-0.126278 0.140313,-0.262477 0.227265,-0.378908 0.08025,-0.127229 0.131697,-0.262166 0.158383,-0.419625 0.06322,-0.260113 0.09564,-0.529981 0.113049,-0.799741 0.0594,-1.474572 0.110524,-0.875189 -0.255212,-1.666505 l 0.682456,-0.472492 c 0.234757,0.973646 0.224987,0.135852 0.261118,1.721767 z"
       inkscape:connector-curvature="0"
       sodipodi:nodetypes="ccccccccccccccccccccccccccccccccccccccccccc" />
    <path
       style="opacity:0.82700004;fill:#512da8;fill-opacity:1;stroke:none;stroke-width:1.28918624;stroke-miterlimit:4;stroke-dasharray:none;stroke-opacity:1;paint-order:stroke fill markers"
       id="path1803-3-2"
       d="m 54.346122,34.991632 c 0.03787,0.882512 -1.087239,1.279506 -1.543384,1.243644 -0.712025,0.01222 -1.410463,-0.814005 -1.505177,-1.535633 -0.0069,-0.319771 0.07728,-0.62737 0.167961,-0.923921 0.212133,-0.667632 0.504014,-1.290068 0.834326,-1.821156 0.338875,-0.568904 0.898998,-0.912556 1.333141,-1.20621 0.478758,0.100259 0.885518,0.779538 1.056023,1.221195 0.03036,0.128451 0.03433,0.262064 0.03685,0.394593 -0.189824,1.401001 -2.425649,2.267425 -2.639942,1.52508 0.515894,-0.609454 1.065701,-0.126958 1.609851,-0.362041 0.290919,-0.343338 0.343464,-0.663341 0.303012,-1.103782 -0.139756,-0.430056 -0.438879,-0.746268 -0.707995,-1.029223 0,0 0,0 -0.279857,0.193482 -0.188724,0.287522 -0.362192,0.589775 -0.506486,0.91276 -0.12437,0.287719 -0.23467,0.583898 -0.337791,0.883423 -0.08978,0.28305 -0.176818,0.573038 -0.17875,0.879969 0.151339,0.659855 0.663486,1.056696 1.128738,1.335292 0.268545,0.1164 0.447109,0.04468 0.517027,-0.201577 l 0.712414,-0.40615 z"
       inkscape:connector-curvature="0"
       sodipodi:nodetypes="cccccccccccccccccccc" />
    <path
       style="opacity:1;fill:#512da8;fill-opacity:1;stroke:none;stroke-width:1.93742597;stroke-miterlimit:4;stroke-dasharray:none;stroke-opacity:0.98095236"
       id="path1041"
       d="m 50.402569,36.248158 c -0.09342,-0.15452 -0.158844,-0.327508 -0.215351,-0.503822 -0.07769,-0.269111 -0.113653,-0.551112 -0.154565,-0.83014 -0.03358,-0.304645 -0.07588,-0.607875 -0.109149,-0.912549 -0.03713,-0.275869 -0.05422,-0.554612 -0.07218,-0.832839 -0.02575,-0.303948 -0.04258,-0.608702 -0.06178,-0.913261 -0.01126,-0.169611 -0.02161,-0.339432 -0.01414,-0.5096 0.0041,-0.09579 0.0094,-0.136495 0.01866,-0.231124 0.03331,-0.260601 0.07918,-0.518773 0.122257,-0.777328 0.03685,-0.249429 0.08493,-0.49623 0.128452,-0.744107 0.0402,-0.221821 0.08147,-0.443323 0.127008,-0.663711 0.03474,-0.161225 0.06723,-0.323415 0.111199,-0.481637 0.03074,-0.108268 0.07769,-0.206713 0.138754,-0.295247 0.0083,-0.01084 0.01646,-0.02189 0.0254,-0.03208 0.01174,-0.01358 0.04026,-0.04277 0.0547,-0.0526 0.339998,-0.23045 0.481168,-0.382562 0.765774,-0.49567 0.05129,-0.02459 0.106102,-0.03236 0.159935,-0.04459 0.02342,-0.0058 0.04659,-0.01222 0.06996,-0.01877 0.07794,-0.0083 0.144398,0.03141 0.209351,0.07628 0.06655,0.04335 0.108402,0.112462 0.145731,0.187646 0.03794,0.07507 0.05627,0.120457 0.05307,0.209624 -0.01031,0.07964 -0.03406,0.131166 -0.08322,0.186228 -0.233117,0.155793 -0.464452,0.315281 -0.699345,0.4674 -0.0115,0.0083 -0.02569,0.0083 -0.03848,0.01084 -0.01429,0.0029 -0.02854,0.0083 -0.04291,0.01357 -0.05313,0.01578 -0.106588,0.03077 -0.159916,0.04605 -0.12753,0.0363 -0.25573,0.06991 -0.38044,0.118282 -0.09211,0.03615 -0.188357,0.05405 -0.283358,0.07654 -0.152169,0.03863 -0.306152,0.06678 -0.460094,0.09391 -0.204388,0.03144 -0.405767,0.08402 -0.606401,0.138446 -0.105427,0.02787 -0.20872,0.0694 -0.315972,0.08701 -0.08043,0.0227 -0.161892,0.03979 -0.243366,0.05624 -0.147114,0.03252 -0.294137,0.06482 -0.44213,0.09156 -0.03836,-3.81e-4 -0.134559,0.03296 -0.170657,0.0195 -0.0083,-0.0029 -0.01696,-0.0083 -0.02098,-0.01731 -0.01305,-0.02845 -0.019,-0.06075 -0.02847,-0.09128 0.233008,-0.156455 0.464519,-0.316015 0.699032,-0.469379 0.01031,-0.0083 0.02302,-0.0066 0.03447,-0.01084 0.01399,-0.0035 0.02792,-0.0095 0.04189,-0.0146 0.05075,-0.01789 0.101645,-0.03551 0.152169,-0.05449 0.111022,-0.04771 0.227162,-0.07479 0.342191,-0.105557 0.144379,-0.03848 0.289454,-0.07237 0.435957,-0.09769 0.148083,-0.03252 0.297276,-0.05834 0.446529,-0.08252 0.133527,-0.0294 0.268155,-0.04824 0.402934,-0.06751 0.119123,-0.01697 0.239039,-0.01993 0.358416,-0.03345 0.172091,-0.01716 0.34087,-0.0577 0.509828,-0.09741 0.135783,-0.03928 0.273698,-0.06453 0.412953,-0.07815 0.188456,-0.01613 0.37519,-0.04793 0.561527,-0.08383 0.145906,-0.02284 0.28803,-0.07005 0.4342,-0.09026 0.04891,-0.0058 0.09791,-0.01222 0.147082,-0.01357 0.009,-2.84e-4 0.0181,-0.0029 0.02698,-3.52e-4 0.01079,0.0029 0.02117,0.0083 0.03174,0.01084 0.06023,0.02021 0.107205,0.06778 0.157795,0.107847 0.04,0.03296 0.08609,0.05361 0.125942,0.08653 0,0 -0.663567,0.495829 -0.663567,0.495829 v 0 c -0.04149,-0.03033 -0.08455,-0.05783 -0.124654,-0.09074 -0.04039,-0.0355 -0.08243,-0.06852 -0.134733,-0.07202 -0.06171,0.0035 -0.123719,0.0035 -0.185106,0.0146 -0.135432,0.02241 -0.270581,0.047 -0.406046,0.06926 -0.193892,0.03645 -0.38795,0.0718 -0.583221,0.09686 -0.133876,0.02036 -0.267338,0.04328 -0.399516,0.076 -0.173927,0.03834 -0.347955,0.07673 -0.524027,0.09931 -0.119556,0.01357 -0.239744,0.01848 -0.358986,0.03615 -0.132822,0.01775 -0.264828,0.04074 -0.396926,0.06504 -0.14843,0.02561 -0.296918,0.05121 -0.444578,0.08252 -0.147067,0.02925 -0.292951,0.06517 -0.437666,0.107593 -0.115455,0.03294 -0.230172,0.06816 -0.342423,0.114227 -0.06696,0.02451 -0.135004,0.04764 -0.200208,0.07832 -0.01239,0.0058 -0.02424,0.01222 -0.03638,0.01884 0.216874,-0.148547 0.433742,-0.297067 0.650604,-0.445595 -0.01509,-0.02473 -0.03051,-0.04932 -0.04536,-0.07441 -0.0013,-0.0029 -0.0069,-0.0083 -0.0041,-0.0083 0.0062,-0.0029 0.0127,-4.4e-4 0.01907,-6.44e-4 0.04258,-0.0029 0.08498,-0.0083 0.127309,-0.01409 0.148196,-0.02327 0.294475,-0.05913 0.4405,-0.09634 0.08483,-0.02248 0.169179,-0.04866 0.255329,-0.06371 0.09827,-0.02394 0.196146,-0.0499 0.294629,-0.07245 0.199829,-0.04538 0.399542,-0.0912 0.600656,-0.128314 0.160399,-0.03405 0.320325,-0.07071 0.478842,-0.115297 0.09274,-0.02394 0.185831,-0.04691 0.276631,-0.07983 0.126947,-0.04001 0.254791,-0.0759 0.381915,-0.115043 0.05504,-0.01731 0.110239,-0.03433 0.164394,-0.05528 0.25137,-0.09715 0.604999,-0.457907 -0.559902,0.396418 0.05545,-0.02845 0.08213,-0.05266 0.108343,-0.118301 0.0033,-0.01084 0.0115,-0.03345 0.01102,-0.04662 -0.0013,-0.03907 -0.02481,-0.07571 -0.03713,-0.110291 -0.02908,-0.06278 -0.06744,-0.111512 -0.122525,-0.144372 -0.06205,-0.03551 -0.110227,-0.04496 -0.178,-0.02357 -0.07514,0.01775 -0.150228,0.03564 -0.220297,0.07395 -0.24186,0.126007 -0.553645,0.370515 0.57285,-0.39596 0.01,-0.0083 -0.02045,0.01222 -0.03039,0.01884 -0.03209,0.02124 -0.02976,0.02073 -0.06035,0.04662 -0.07153,0.0759 -0.122274,0.161803 -0.159024,0.26666 -0.05667,0.155098 -0.08966,0.32001 -0.130439,0.481425 -0.0498,0.220084 -0.09257,0.44216 -0.135782,0.66412 -0.04318,0.249587 -0.09345,0.497311 -0.135545,0.747162 -0.04183,0.254563 -0.08269,0.509532 -0.113451,0.766233 -0.01114,0.08981 -0.01778,0.135596 -0.02453,0.226433 -0.01239,0.168898 -0.0041,0.33819 6.28e-4,0.507258 0.01273,0.30479 0.02876,0.609561 0.05954,0.912701 0.02092,0.276751 0.04503,0.553224 0.07308,0.829099 0.02656,0.304509 0.06649,0.607096 0.103897,0.909969 0.04229,0.271613 0.08058,0.546252 0.160505,0.806991 0.05647,0.161836 0.118665,0.331817 0.235651,0.447244 0,0 -0.669782,0.479505 -0.669782,0.479505 z"
       inkscape:connector-curvature="0" />
    <path
       style="opacity:0.82700004;fill:#512da8;fill-opacity:1;stroke:none;stroke-width:1.28918624;stroke-miterlimit:4;stroke-dasharray:none;stroke-opacity:1;paint-order:stroke fill markers"
       id="path1801-0-3"
       d="m 40.262471,34.218981 c -0.202156,0.73945 -0.634277,1.725288 -1.207342,2.000314 -0.886177,0.256745 -2.000905,-0.51117 -2.309187,-1.504616 -0.11434,-0.363802 -0.04578,-0.731268 0.02161,-1.069674 0.302444,-1.093759 1.239049,-2.437272 1.994651,-2.460812 0.120172,0.0203 0.242168,0.04096 0.359377,0.07964 0.988549,0.811488 1.403123,1.074825 1.303075,2.278081 -0.03121,0.07078 -0.124366,0.611221 -0.162187,0.67714 -0.272888,0.790633 -1.069199,2.10884 -1.048866,1.635467 0.0076,-0.176423 0.623692,-1.312969 0.735711,-1.825478 0.01976,-0.07953 0.0239,-0.327721 -0.03781,-0.436194 -0.197511,-0.347063 0.123795,-0.916143 0.120141,-1.333017 -0.0089,-0.745306 0.07884,-1.477716 -0.03991,-2.180447 -0.318221,-1.503081 -0.963723,-2.491574 -1.843122,-3.371891 l 0.523598,-0.706572 v 0 c 0.205034,0.199848 0.399506,0.421769 0.575565,0.625703 0.729503,0.96374 1.439036,2.257453 1.384292,3.563169 -0.336581,7.519919 -0.294931,1.628811 -2.70933,1.779716 -0.153248,0.01084 -0.838584,1.747838 -0.483462,2.492424 1.134119,2.012311 2.725193,0.116807 1.655681,1.535009 0.09826,-0.123036 0.143761,-0.280867 0.198825,-0.435306 0.02092,-0.0029 -0.502509,-0.07019 -0.451918,-0.06648 0.215706,0.01578 0.359181,-0.03732 0.523522,-0.133186 0.127757,-0.07422 0.674658,-0.907188 0.89707,-1.142896 z"
       inkscape:connector-curvature="0"
       sodipodi:nodetypes="ccccccccscscccccccccccsscc" />
    <path
       style="opacity:0.82700004;fill:#512da8;fill-opacity:1;stroke:none;stroke-width:1.13604224;stroke-miterlimit:4;stroke-dasharray:none;stroke-opacity:1;paint-order:stroke fill markers"
       id="path1843-3-9-5"
       d="m 41.802455,35.468415 c -0.04149,0.422672 -0.156332,0.366151 -0.668444,0.594948 -0.02895,0.01358 -0.02302,-0.100391 -0.02192,-0.201846 0.151897,-1.231322 0.814754,-1.645577 0.613241,-0.372988 -0.01031,0.373671 -0.05251,0.146833 -0.601342,0.520786 -0.009,0.0058 0.02051,-0.0083 0.02672,-0.0192 0.02675,-0.04277 0.0308,-0.1061 0.03869,-0.154809 0.17661,-2.453734 0.315789,-3.590041 -0.339222,-5.703906 l 1.156666,-0.179755 c 0.0534,0.623761 -0.124862,4.076805 -0.204419,5.516748 z"
       inkscape:connector-curvature="0"
       sodipodi:nodetypes="cccccccccc" />
    <path
       style="opacity:0.82700004;fill:#512da8;fill-opacity:1;stroke:none;stroke-width:1.19848061;stroke-miterlimit:4;stroke-dasharray:none;stroke-opacity:1;paint-order:stroke fill markers"
       id="path1067-3"
       d="m 24.70835,35.659635 c -0.414311,-0.960997 -0.514097,-2.152478 0.04142,-2.947534 1.498378,-1.127708 2.323134,0.359219 2.058165,2.527567 -0.02719,0.09498 -0.03991,0.193568 -0.07208,0.286964 -0.02083,0.06015 -0.01,0.03296 -0.03141,0.08196 l 0.653992,0.417195 v 0 c 0.0213,-0.055 0.01067,-0.02612 0.03195,-0.08682 0.0348,-0.09416 0.04973,-0.192483 0.07317,-0.290592 0.03671,-0.117741 0.06491,-0.238895 0.08631,-0.361721 0.325503,-2.979896 -1.21974,-3.838951 -2.591885,-3.676377 -0.287604,0.0814 0.03242,-0.902258 -0.238599,-0.785774 -1.399399,0.601357 -1.110782,3.360201 -0.688234,4.476315 l 0.677248,0.358533 z"
       inkscape:connector-curvature="0"
       sodipodi:nodetypes="cccccccccccsccc" />
    <path
       style="opacity:0.82700004;fill:#512da8;fill-opacity:1;stroke:none;stroke-width:1.93378663;stroke-miterlimit:4;stroke-dasharray:none;stroke-opacity:1;paint-order:stroke fill markers"
       id="path1843-3-9-6"
       d="m 22.629502,35.551263 c -0.07224,0.703239 -0.27225,0.609213 -1.164061,0.98991 -0.05033,0.02182 -0.04011,-0.166911 -0.03815,-0.335845 0.264523,-2.048775 1.418835,-2.738049 1.067911,-0.620626 -0.01785,0.621745 -0.09147,0.244336 -1.047184,0.866541 -0.01573,0.0083 0.03576,-0.01442 0.04653,-0.03201 0.04653,-0.07113 0.05361,-0.176654 0.06744,-0.257595 0.30754,-4.08272 0.549911,-5.973402 -0.590742,-9.490626 l 2.014249,-0.299083 c 0.09299,1.037885 -0.217427,6.78334 -0.355964,9.179238 z"
       inkscape:connector-curvature="0"
       sodipodi:nodetypes="cccccccccc" />
  </g>
</svg>
